<?xml version="1.0" encoding="UTF-8" standalone="no"?>
<svg width="10px" height="49px" viewBox="0 0 10 49" version="1.1" xmlns="http://www.w3.org/2000/svg" xmlns:xlink="http://www.w3.org/1999/xlink">
    <defs></defs>
    <g stroke="none" stroke-width="1" fill="none" fill-rule="evenodd">
        <g transform="translate(-231.000000, -7.000000)" fill="#FFFFFF">
            <path d="M234.825736,11.224 L235.145736,9.88 C235.209736,9.688 235.209736,9.496 235.273736,9.368 L235.401736,9.112 C235.465736,8.856 235.593736,8.664 235.849736,8.408 C236.873736,7.448 238.281736,7.896 238.857736,8.92 C238.985736,9.112 239.113736,9.368 239.241736,9.688 C239.305736,10.072 239.433736,10.584 239.497736,11.16 L239.689736,14.68 L239.689736,19.16 C239.625736,19.864 239.625736,20.312 239.625736,20.376 C239.625736,21.464 239.753736,27.032 240.073736,37.144 C240.265736,44.056 240.201736,49.688 239.817736,54.104 C239.753736,55.128 238.857736,55.896 237.833736,55.832 C236.809736,55.768 236.041736,54.872 236.105736,53.848 C236.489736,49.432 236.553736,43.864 236.361736,37.272 C236.041736,27.288 235.913736,21.976 235.913736,21.272 L235.401736,22.616 C235.081736,23.64 233.993736,24.024 233.033736,23.704 C232.009736,23.384 231.625736,22.296 231.945736,21.336 C233.033736,18.392 233.865736,15.704 234.377736,13.208 C234.377736,13.016 234.505736,12.376 234.825736,11.224 L234.825736,11.224 Z"></path>
        </g>
    </g>
</svg>