<?xml version="1.0" encoding="UTF-8" standalone="no"?>
<svg width="16px" height="50px" viewBox="0 0 16 50" version="1.1" xmlns="http://www.w3.org/2000/svg" xmlns:xlink="http://www.w3.org/1999/xlink">
    <defs></defs>
    <g stroke="none" stroke-width="1" fill="none" fill-rule="evenodd">
        <g transform="translate(-280.000000, -7.000000)" fill="#FFFFFF">
            <path d="M289.545736,30.808 L288.009736,35.928 C286.537736,40.792 285.641736,44.44 285.193736,46.872 C284.937736,48.472 284.809736,49.752 284.873736,50.712 C284.873736,51.352 284.937736,51.8 285.129736,52.12 C285.321736,52.184 285.513736,52.184 285.833736,52.248 C286.537736,52.376 287.497736,52.44 288.649736,52.44 C289.545736,52.44 290.633736,52.44 291.977736,52.376 C293.257736,52.312 293.961736,52.312 294.089736,52.312 C295.113736,52.312 295.945736,53.144 295.945736,54.168 C295.945736,55.192 295.113736,56.024 294.089736,56.024 C293.961736,56.024 293.257736,56.024 291.913736,56.088 C290.569736,56.152 289.481736,56.152 288.649736,56.152 C285.897736,56.152 283.465736,55.96 282.377736,54.68 C280.841736,52.888 280.841736,49.88 281.545736,46.232 C281.993736,43.608 282.953736,39.832 284.425736,34.904 C284.745736,33.944 287.177736,26.136 287.945736,23.32 C289.033736,19.544 289.481736,17.048 289.417736,15.768 C289.161736,12.248 288.137736,10.712 285.769736,11.032 C285.193736,11.096 284.873736,11.096 284.809736,11.096 C284.681736,11.416 284.553736,11.8 284.489736,12.312 C284.233736,14.104 284.233736,16.536 284.297736,19.736 C284.361736,21.336 284.361736,22.232 284.361736,22.36 C284.361736,23.384 283.529736,24.216 282.505736,24.216 C281.481736,24.216 280.649736,23.384 280.649736,22.36 C280.649736,22.232 280.649736,21.336 280.585736,19.736 C280.521736,16.472 280.521736,13.784 280.841736,11.672 C281.353736,8.536 282.441736,7.768 285.257736,7.32 C290.633736,6.616 292.809736,10.648 293.129736,15.512 C293.385736,18.904 291.337736,25.176 289.545736,30.808 L289.545736,30.808 Z"></path>
        </g>
    </g>
</svg>