<?xml version="1.0" encoding="UTF-8" standalone="no"?>
<svg width="15px" height="48px" viewBox="0 0 15 48" version="1.1" xmlns="http://www.w3.org/2000/svg" xmlns:xlink="http://www.w3.org/1999/xlink">
    <defs></defs>
    <g stroke="none" stroke-width="1" fill="none" fill-rule="evenodd">
        <g transform="translate(-337.000000, -8.000000)" fill="#FFFFFF">
            <path d="M350.921736,38.936 L351.049736,40.728 C351.113736,41.816 351.177736,42.648 351.177736,43.224 C351.177736,44.504 351.177736,46.68 350.857736,48.216 C350.665736,49.048 350.473736,49.752 350.217736,50.456 C349.321736,52.44 347.913736,53.976 345.993736,55.064 C344.649736,55.832 343.177736,56.216 341.449736,55.704 C340.617736,55.448 339.849736,54.936 339.145736,54.232 C337.033736,51.992 337.033736,49.304 337.033736,44.888 C337.033736,43.864 337.865736,43.032 338.889736,43.032 C339.913736,43.032 340.745736,43.864 340.745736,44.888 C340.745736,49.048 340.809736,50.648 341.833736,51.672 C343.049736,52.952 345.737736,51.416 346.761736,48.92 C347.209736,47.96 347.401736,46.936 347.465736,45.336 C347.465736,43.8 347.465736,43.224 347.337736,41.176 C347.273736,40.152 347.209736,39.448 347.209736,39.064 C347.145736,37.208 346.825736,35.736 346.313736,34.648 C346.057736,34.072 345.801736,33.752 345.481736,33.56 C344.009736,34.584 342.793736,34.968 341.705736,34.648 C339.913736,34.072 339.593736,31.704 340.937736,30.616 C341.641736,30.104 342.281736,29.976 343.049736,29.912 C343.305736,29.848 343.433736,29.848 343.497736,29.848 C343.817736,29.784 344.073736,29.72 344.393736,29.72 C345.545736,28.696 346.249736,27.864 346.441736,27.288 C347.465736,24.024 347.593736,18.968 346.761736,15.64 C346.249736,13.656 345.033736,12.248 344.009736,11.928 C343.625736,11.8 343.305736,11.864 342.985736,12.056 C342.409736,12.44 341.961736,13.144 341.577736,14.232 C341.257736,15.256 341.129736,17.24 341.321736,20.248 C341.385736,21.272 340.617736,22.168 339.593736,22.232 C338.569736,22.296 337.673736,21.528 337.609736,20.504 C337.353736,18.776 337.353736,15.32 338.121736,13.08 C339.401736,9.24 342.025736,7.512 345.033736,8.344 C347.593736,9.112 349.577736,11.672 350.345736,14.744 C351.369736,18.648 351.241736,24.6 349.897736,28.44 C349.641736,29.272 349.129736,30.104 348.297736,31.064 C348.873736,31.576 349.321736,32.216 349.705736,33.048 C350.409736,34.52 350.793736,36.504 350.921736,38.936 L350.921736,38.936 Z"></path>
        </g>
    </g>
</svg>