<?xml version="1.0" encoding="UTF-8" standalone="no"?>
<svg width="15px" height="48px" viewBox="0 0 15 48" version="1.1" xmlns="http://www.w3.org/2000/svg" xmlns:xlink="http://www.w3.org/1999/xlink">
    <defs></defs>
    <g stroke="none" stroke-width="1" fill="none" fill-rule="evenodd">
        <g transform="translate(-391.000000, -8.000000)" fill="#FFFFFF">
            <path d="M395.521736,33.88 L395.585736,33.88 C397.057736,34.136 399.297736,34.392 400.833736,34.328 L401.345736,34.328 C401.473736,33.944 401.601736,33.432 401.665736,32.792 C401.857736,31.512 401.985736,29.848 402.049736,27.736 C402.113736,25.048 402.049736,22.04 401.921736,18.648 C401.857736,18.008 401.793736,17.048 401.601736,15.768 C401.409736,14.296 401.281736,13.272 401.217736,12.568 C401.217736,12.504 401.217736,12.376 401.153736,12.184 C400.961736,11.352 400.897736,10.968 400.961736,10.264 C401.281736,8.664 403.073736,8.28 404.161736,9.112 C404.481736,9.368 404.673736,9.688 404.865736,10.072 L405.057736,10.712 C405.121736,11.032 405.249736,11.544 405.313736,12.12 C405.505736,13.848 405.697736,16.344 405.761736,19.16 L405.761736,21.272 C406.017736,24.472 406.017736,29.912 405.889736,37.656 C405.761736,45.144 405.761736,50.52 405.825736,53.784 C405.825736,54.808 405.057736,55.704 404.033736,55.704 C403.009736,55.704 402.113736,54.936 402.113736,53.912 C401.985736,50.584 401.985736,45.272 402.177736,37.976 C401.857736,38.04 401.409736,38.04 400.897736,38.04 C399.105736,38.104 396.545736,37.848 394.817736,37.528 C393.793736,37.272 392.769736,37.016 392.193736,36.184 C391.681736,35.48 391.553736,34.648 391.745736,33.688 L391.937736,33.112 L391.937736,32.984 C392.001736,31.256 392.065736,27.736 392.129736,22.552 C392.193736,17.368 392.321736,13.4 392.449736,10.52 C392.513736,9.496 393.409736,8.728 394.433736,8.792 C395.457736,8.856 396.225736,9.752 396.161736,10.776 C395.969736,13.592 395.905736,17.56 395.841736,22.744 C395.777736,27.928 395.713736,31.384 395.649736,33.112 C395.649736,33.304 395.585736,33.56 395.521736,33.88 L395.521736,33.88 Z"></path>
        </g>
    </g>
</svg>