<?xml version="1.0" encoding="UTF-8" standalone="no"?>
<svg width="17px" height="49px" viewBox="0 0 17 49" version="1.1" xmlns="http://www.w3.org/2000/svg" xmlns:xlink="http://www.w3.org/1999/xlink">
    <defs></defs>
    <g stroke="none" stroke-width="1" fill="none" fill-rule="evenodd">
        <g transform="translate(-430.000000, -9.000000)" fill="#FFFFFF">
            <path d="M434.775369,14.7956048 C434.709179,18.0389149 434.775369,23.4664951 434.841559,27.1731352 C434.841559,27.7026553 434.841559,28.1659853 434.907749,28.5631253 C435.238699,28.5631253 435.834409,28.4969353 436.761069,28.3645553 C438.018679,28.2321753 439.011529,28.1659853 439.673429,28.1659853 C442.321029,28.1659853 444.041969,29.1588353 445.167199,32.7992854 C446.027669,35.5130755 446.821949,41.6025558 446.490999,46.4344259 C446.027669,51.5310561 444.306729,56.3629263 439.342479,57.2233963 C436.496309,57.8191064 434.907749,57.0248263 433.650139,53.7815162 C432.789669,51.5972461 432.061579,47.361086 432.061579,42.3968358 C432.061579,41.3377958 432.922049,40.4773257 433.981089,40.4773257 C435.040129,40.4773257 435.900599,41.3377958 435.900599,42.3968358 C435.900599,44.7134859 436.099169,46.897756 436.430119,49.015836 C436.628689,50.4058261 436.893449,51.5310561 437.224399,52.3915262 C437.422969,52.9872362 437.687729,53.3843762 437.886299,53.5829462 C438.217249,53.5167562 438.415819,53.5167562 438.548199,53.5167562 C441.129609,52.9872362 442.321029,50.2072561 442.651979,46.1696659 C442.850549,43.9192059 442.718169,41.2716058 442.387219,38.2268656 C442.188649,36.5059256 441.857699,35.1159355 441.526749,33.9907055 C441.195799,32.9978554 440.864849,32.3359554 440.533899,32.1373854 C440.467709,32.0711954 440.136759,32.0050054 439.607239,32.0050054 C439.143909,32.0050054 438.349629,32.0711954 437.224399,32.2035754 C435.966789,32.3359554 435.040129,32.4021454 434.576799,32.4021454 C433.186809,32.4021454 432.193959,32.0050054 431.598249,31.2769154 L431.201109,30.5488254 C431.134919,30.4826354 431.134919,30.3502554 431.134919,30.2840653 L431.134919,30.0193053 C431.068729,29.8207353 431.068729,29.6221653 431.068729,29.3574053 C431.002539,28.8278853 431.002539,28.0997953 431.002539,27.2393252 C430.936349,23.5326851 430.870159,18.1051049 430.936349,14.7294148 C430.936349,13.8027547 430.936349,13.0746647 431.002539,12.5451447 C431.068729,12.2141947 431.068729,11.9494347 431.068729,11.7508647 C431.134919,11.6184847 431.134919,11.4861047 431.134919,11.3537247 C431.333489,10.7580146 431.995389,9.8975446 432.524909,9.8975446 C432.591099,9.83135459 432.723479,9.83135459 432.855859,9.83135459 C432.922049,9.83135459 433.054429,9.83135459 433.186809,9.76516459 C433.451569,9.76516459 433.782519,9.76516459 434.179659,9.69897459 L436.893449,9.50040458 C437.422969,9.50040458 438.084869,9.50040458 438.812959,9.43421458 C439.541049,9.36802458 440.070569,9.36802458 440.533899,9.30183457 L441.261989,9.30183457 C442.321029,9.23564457 443.313879,9.9637346 443.380069,11.0227746 C443.446259,12.0818147 442.718169,13.0746647 441.659129,13.1408547 L437.092019,13.3394247 C436.099169,13.4056147 435.371079,13.4718047 434.775369,13.4718047 L434.775369,14.7956048 Z"></path>
        </g>
    </g>
</svg>