<?xml version="1.0" standalone="no"?>
<!DOCTYPE svg PUBLIC "-//W3C//DTD SVG 20010904//EN"
 "http://www.w3.org/TR/2001/REC-SVG-20010904/DTD/svg10.dtd">
<svg version="1.0" xmlns="http://www.w3.org/2000/svg"
 width="1440.000000pt" height="1440.000000pt" viewBox="0 0 1440.000000 1440.000000"
 preserveAspectRatio="xMidYMid meet">
<metadata>
Created by potrace 1.11, written by Peter Selinger 2001-2013
</metadata>
<g transform="translate(0.000000,1440.000000) scale(0.100000,-0.100000)"
fill="#000000" stroke="none">
<path d="M0 7200 l0 -7200 7200 0 7200 0 0 7200 0 7200 -7200 0 -7200 0 0
-7200z m7510 5115 c177 -27 327 -64 510 -125 502 -166 916 -435 1140 -740 34
-46 88 -138 121 -205 91 -186 132 -357 146 -597 l6 -118 54 0 c142 0 379 -40
542 -91 124 -40 310 -130 431 -210 115 -76 287 -244 357 -349 99 -148 161
-304 184 -459 14 -98 7 -277 -14 -364 l-14 -57 66 -47 c94 -67 244 -214 314
-308 110 -148 192 -342 217 -514 18 -122 8 -303 -24 -426 -126 -485 -614 -889
-1216 -1007 -113 -22 -116 -23 -165 -71 -290 -284 -726 -476 -1203 -527 -152
-17 -471 -7 -617 19 -350 61 -646 184 -898 372 l-77 58 -71 -54 c-274 -212
-654 -355 -1048 -396 -156 -16 -473 -6 -611 20 -343 63 -630 181 -873 358
l-67 50 -132 7 c-547 27 -1011 219 -1349 556 -212 212 -328 417 -385 682 -23
104 -25 351 -5 453 71 361 301 686 646 915 44 29 83 56 88 60 4 3 -8 40 -27
81 -188 411 -2 867 454 1112 230 124 518 181 784 157 66 -6 123 -13 127 -15 3
-3 9 62 13 143 22 500 149 838 409 1089 302 291 838 496 1447 552 63 6 133 13
155 15 94 9 485 -3 585 -19z"/>
</g>
</svg>
