<?xml version="1.0" encoding="UTF-8" standalone="no"?>
<svg width="375px" height="667px" viewBox="0 0 375 667" version="1.1" xmlns="http://www.w3.org/2000/svg" xmlns:xlink="http://www.w3.org/1999/xlink">
    <defs></defs>
    <g id="Page-1" stroke="none" stroke-width="1" fill="none" fill-rule="evenodd">
        <g id="completion">
            <g id="Group-2" transform="translate(84.000000, 68.000000)">
                <g id="map-onboard">
                    <g id="phone-onboard">
                        <rect id="Rectangle-36" fill="#EFF1F3" x="0" y="0" width="204" height="342" rx="33"></rect>
                        <rect id="Rectangle-36" fill="#484848" x="14" y="48" width="176.854839" height="244.990385" rx="3"></rect>
                        <ellipse id="Oval-283" fill="#484848" cx="69.0967742" cy="23.0192308" rx="3.29032258" ry="3.28846154"></ellipse>
                        <ellipse id="Oval-283" fill="#484848" cx="102.41129" cy="316.103365" rx="16.0403226" ry="16.03125"></ellipse>
                        <rect id="Rectangle-36" fill="#484848" x="83.9032258" y="19.7307692" width="37.016129" height="6.57692308" rx="22.11"></rect>
                    </g>
                </g>
                <rect id="Rectangle-path" stroke="#000000" fill="#EFF1F3" x="146.86642" y="204.58896" width="15.0936381" height="31.1888001"></rect>
                <path d="M100.252343,221.090157 L100.252343,150.224826 L70.9520664,150.224826 L70.9520664,117.327087 L58.9655895,117.327087 L58.9655895,130.795912 L55.412265,130.795912 L55.412265,202.768741 L87.1564513,202.768741 L87.1564513,221.090157 L100.252343,221.090157 Z" id="Shape" stroke="#000000" fill="#EFF1F3"></path>
                <path d="M41.6504577,117.327087 L58.9655895,117.327087 L58.9655895,130.795912 L55.412265,130.795912 L55.412265,272.10265 L41.6504577,272.10265 L41.6504577,117.327087 Z" id="Shape" stroke="#000000" fill="#EFF1F3"></path>
                <g id="Marker" transform="translate(126.913829, 176.632374)">
                    <ellipse id="marker-auditorium" fill="#FF5D73" cx="2.28896429" cy="9.73156246" rx="1.37337858" ry="1.36385883"></ellipse>
                    <path d="M2.28896176,9.73679895 C2.28896176,9.73679895 4.57792352,3.62373486 4.57792352,2.3344524 C4.57792352,1.04516994 3.55312043,0 2.28896176,0 C1.02480309,0 0,1.04516994 0,2.3344524 C0,3.62373486 2.28896176,9.73679895 2.28896176,9.73679895 L2.28896176,9.73679895 L2.28896176,9.73679895 Z" id="Oval-209-Copy" stroke="#EFF1F3" stroke-width="0.600000024" fill="#FF5D73"></path>
                    <path d="M2.28896429,2.89609529 C2.76561481,2.89609529 3.15201641,2.52331531 3.15201641,2.06346789 C3.15201641,1.60362048 2.76561481,1.2308405 2.28896429,1.2308405 C1.81231378,1.2308405 1.42591218,1.60362048 1.42591218,2.06346789 C1.42591218,2.52331531 1.81231378,2.89609529 2.28896429,2.89609529 L2.28896429,2.89609529 L2.28896429,2.89609529 Z" id="Path" fill="#EFF1F3"></path>
                </g>
                <rect id="rectangle" stroke="#000000" fill="#EFF1F3" x="100.252343" y="89.2792906" width="46.6140768" height="165.816104"></rect>
                <path d="M110.55662,146.351034 C110.55662,146.418318 110.617606,146.478873 110.68537,146.478873 L111.315567,146.478873 C111.38333,146.478873 111.444317,146.418318 111.444317,146.351034 L111.444317,142.576419 L112.481093,142.576419 C112.555632,142.576419 112.609843,142.515863 112.609843,142.448579 L112.609843,141.896853 C112.609843,141.829569 112.555632,141.769014 112.481093,141.769014 L109.519844,141.769014 C109.445304,141.769014 109.391094,141.829569 109.391094,141.896853 L109.391094,142.448579 C109.391094,142.515863 109.445304,142.576419 109.519844,142.576419 L110.55662,142.576419 L110.55662,146.351034 Z M112.894155,144.695855 C112.894155,145.718567 113.714089,146.546157 114.77797,146.546157 C115.848627,146.546157 116.668561,145.718567 116.668561,144.695855 L116.668561,141.896853 C116.668561,141.829569 116.607575,141.769014 116.539811,141.769014 L115.896062,141.769014 C115.821522,141.769014 115.767312,141.829569 115.767312,141.896853 L115.767312,144.655485 C115.767312,145.220668 115.367509,145.671469 114.77797,145.671469 C114.188431,145.671469 113.795404,145.220668 113.795404,144.648757 L113.795404,141.896853 C113.795404,141.829569 113.741194,141.769014 113.666654,141.769014 L113.022905,141.769014 C112.955142,141.769014 112.894155,141.829569 112.894155,141.896853 L112.894155,144.695855 Z M117.481426,146.351034 C117.481426,146.418318 117.535636,146.478873 117.610176,146.478873 L118.233597,146.478873 C118.30136,146.478873 118.362347,146.418318 118.362347,146.351034 L118.362347,144.6353 L119.114517,144.6353 L120.015767,146.418318 C120.02932,146.445231 120.063201,146.478873 120.124188,146.478873 L120.835701,146.478873 C120.950898,146.478873 120.998333,146.371219 120.950898,146.283751 L120.022543,144.574744 C120.612083,144.339252 121.025438,143.834624 121.025438,143.215614 C121.025438,142.414938 120.361359,141.769014 119.548201,141.769014 L117.610176,141.769014 C117.535636,141.769014 117.481426,141.829569 117.481426,141.896853 L117.481426,146.351034 Z M118.369123,143.915364 L118.369123,142.576419 L119.473662,142.576419 C119.832807,142.576419 120.144517,142.872467 120.144517,143.22907 C120.144517,143.605859 119.832807,143.915364 119.473662,143.915364 L118.369123,143.915364 Z M121.641789,146.351034 C121.641789,146.418318 121.696,146.478873 121.770539,146.478873 L123.410407,146.478873 C124.237117,146.478873 124.887643,145.933875 124.887643,145.180298 C124.887643,144.561288 124.365867,144.197956 124.006723,144.083573 C124.325209,143.935549 124.752117,143.531847 124.752117,143.013763 C124.752117,142.307284 124.128696,141.769014 123.322315,141.769014 L121.770539,141.769014 C121.696,141.769014 121.641789,141.829569 121.641789,141.896853 L121.641789,146.351034 Z M122.515934,143.747155 L122.515934,142.56969 L123.240999,142.56969 C123.586591,142.56969 123.823762,142.805183 123.823762,143.141602 C123.823762,143.47802 123.586591,143.747155 123.240999,143.747155 L122.515934,143.747155 Z M122.515934,145.684926 L122.515934,144.487276 L123.254552,144.487276 C123.60692,144.487276 123.945736,144.736225 123.945736,145.072644 C123.945736,145.422519 123.674683,145.684926 123.335868,145.684926 L122.515934,145.684926 Z M125.470113,146.351034 C125.470113,146.418318 125.5311,146.478873 125.598863,146.478873 L126.22906,146.478873 C126.296823,146.478873 126.35781,146.418318 126.35781,146.351034 L126.35781,141.896853 C126.35781,141.829569 126.296823,141.769014 126.22906,141.769014 L125.598863,141.769014 C125.5311,141.769014 125.470113,141.829569 125.470113,141.896853 L125.470113,146.351034 Z M127.238438,146.351034 C127.238438,146.418318 127.299425,146.478873 127.367188,146.478873 L127.983832,146.478873 C128.058372,146.478873 128.112582,146.418318 128.112582,146.351034 L128.112582,143.457835 L128.119359,143.457835 L130.951858,146.546157 L131.114489,146.546157 C131.182252,146.546157 131.243239,146.49233 131.243239,146.425046 L131.243239,141.896853 C131.243239,141.829569 131.182252,141.769014 131.114489,141.769014 L130.491068,141.769014 C130.416529,141.769014 130.362318,141.829569 130.362318,141.896853 L130.362318,144.67567 L130.355542,144.67567 L127.536596,141.70173 L127.367188,141.70173 C127.299425,141.70173 127.238438,141.755557 127.238438,141.822841 L127.238438,146.351034 Z M132.123867,146.351034 C132.123867,146.418318 132.178077,146.478873 132.252617,146.478873 L135.010576,146.478873 C135.085116,146.478873 135.139326,146.418318 135.139326,146.351034 L135.139326,145.799308 C135.139326,145.732024 135.085116,145.671469 135.010576,145.671469 L133.004788,145.671469 L133.004788,144.494004 L134.678537,144.494004 C134.7463,144.494004 134.807287,144.440177 134.807287,144.366165 L134.807287,143.80771 C134.807287,143.740427 134.7463,143.679871 134.678537,143.679871 L133.004788,143.679871 L133.004788,142.576419 L135.010576,142.576419 C135.085116,142.576419 135.139326,142.515863 135.139326,142.448579 L135.139326,141.896853 C135.139326,141.829569 135.085116,141.769014 135.010576,141.769014 L132.252617,141.769014 C132.178077,141.769014 132.123867,141.829569 132.123867,141.896853 L132.123867,146.351034 Z M109.919646,153.499928 C109.919646,153.567211 109.980633,153.627767 110.048396,153.627767 L110.678593,153.627767 C110.753133,153.627767 110.807343,153.567211 110.807343,153.499928 L110.807343,151.642897 L113.016421,151.642897 L113.016421,153.499928 C113.016421,153.567211 113.070632,153.627767 113.145171,153.627767 L113.768592,153.627767 C113.836355,153.627767 113.897342,153.567211 113.897342,153.499928 L113.897342,149.045746 C113.897342,148.978463 113.836355,148.917907 113.768592,148.917907 L113.145171,148.917907 C113.070632,148.917907 113.016421,148.978463 113.016421,149.045746 L113.016421,150.828765 L110.807343,150.828765 L110.807343,149.045746 C110.807343,148.978463 110.753133,148.917907 110.678593,148.917907 L110.048396,148.917907 C109.980633,148.917907 109.919646,148.978463 109.919646,149.045746 L109.919646,153.499928 Z M114.276523,153.627767 L114.866062,153.627767 C114.974483,153.627767 115.03547,153.560483 115.062575,153.493199 L115.394614,152.766535 L117.420732,152.766535 L117.752772,153.493199 C117.800206,153.587396 117.84764,153.627767 117.949285,153.627767 L118.538824,153.627767 C118.640469,153.627767 118.694679,153.540298 118.654021,153.452829 L116.566917,148.924636 C116.546588,148.884266 116.519482,148.850624 116.451719,148.850624 L116.383956,148.850624 C116.322969,148.850624 116.289088,148.884266 116.268759,148.924636 L114.161325,153.452829 C114.120667,153.540298 114.174878,153.627767 114.276523,153.627767 L114.276523,153.627767 Z M115.726654,152.019686 L116.390733,150.539445 L116.411061,150.539445 L117.088693,152.019686 L115.726654,152.019686 Z M118.918004,153.499928 C118.918004,153.567211 118.972215,153.627767 119.046754,153.627767 L121.526885,153.627767 C121.601424,153.627767 121.655635,153.567211 121.655635,153.499928 L121.655635,152.948201 C121.655635,152.880918 121.601424,152.820362 121.526885,152.820362 L119.798925,152.820362 L119.798925,149.045746 C119.798925,148.978463 119.737938,148.917907 119.670175,148.917907 L119.046754,148.917907 C118.972215,148.917907 118.918004,148.978463 118.918004,149.045746 L118.918004,153.499928 Z M121.987381,153.499928 C121.987381,153.567211 122.041592,153.627767 122.116131,153.627767 L124.596262,153.627767 C124.670801,153.627767 124.725012,153.567211 124.725012,153.499928 L124.725012,152.948201 C124.725012,152.880918 124.670801,152.820362 124.596262,152.820362 L122.868302,152.820362 L122.868302,149.045746 C122.868302,148.978463 122.807315,148.917907 122.739552,148.917907 L122.116131,148.917907 C122.041592,148.917907 121.987381,148.978463 121.987381,149.045746 L121.987381,153.499928 Z" id="TURBINE-" fill="#484848"></path>
                <g id="marker" transform="translate(46.000000, 214.000000)">
                    <ellipse id="marker-auditorium" fill="#FF5D73" cx="2.28896429" cy="9.73156246" rx="1.37337858" ry="1.36385883"></ellipse>
                    <path d="M2.28896176,9.73679895 C2.28896176,9.73679895 4.57792352,3.62373486 4.57792352,2.3344524 C4.57792352,1.04516994 3.55312043,0 2.28896176,0 C1.02480309,0 0,1.04516994 0,2.3344524 C0,3.62373486 2.28896176,9.73679895 2.28896176,9.73679895 L2.28896176,9.73679895 L2.28896176,9.73679895 Z" id="Oval-209-Copy" stroke="#EFF1F3" stroke-width="0.600000024" fill="#FF5D73"></path>
                    <path d="M2.28896429,2.89609529 C2.76561481,2.89609529 3.15201641,2.52331531 3.15201641,2.06346789 C3.15201641,1.60362048 2.76561481,1.2308405 2.28896429,1.2308405 C1.81231378,1.2308405 1.42591218,1.60362048 1.42591218,2.06346789 C1.42591218,2.52331531 1.81231378,2.89609529 2.28896429,2.89609529 L2.28896429,2.89609529 L2.28896429,2.89609529 Z" id="Path" fill="#EFF1F3"></path>
                </g>
                <g id="Group-6" transform="translate(140.024782, 95.451039)">
                    <ellipse id="Oval" stroke="#9B9B9B" stroke-width="0.5" fill="#223843" cx="3.91917621" cy="3.96183855" rx="3.8912393" ry="3.86426668"></ellipse>
                    <path d="M3.62630991,3.90798022 L4.27916275,3.90798022 C4.416847,3.90798022 4.52859074,3.80283896 4.52859074,3.67328991 L4.5287404,3.67328991 L4.5287404,2.9288992 L5.1813937,2.9288992 C5.31907795,2.9288992 5.43082169,2.82375794 5.43082169,2.69420889 C5.43082169,2.69146422 5.43077154,2.6887305 5.43067204,2.6860085 L5.43067204,1.95071 L6.0841235,1.95071 C6.22180776,1.95071 6.3335515,1.84556874 6.3335515,1.7160197 C6.3335515,1.58647065 6.22180776,1.48132939 6.0841235,1.48132939 L5.18119415,1.48132939 C5.0435099,1.48132939 4.93176616,1.58647065 4.93176616,1.7160197 C4.93176616,1.71760251 4.93178284,1.71918168 4.93181604,1.72075706 L4.93181604,2.45951859 L4.2789632,2.45951859 C4.14127895,2.45951859 4.02953521,2.56465984 4.02953521,2.69420889 C4.02953521,2.69840752 4.02965258,2.70258051 4.0298844,2.70672512 L4.0298844,3.43859961 L3.37673225,3.43859961 C3.239048,3.43859961 3.12730425,3.54374086 3.12730425,3.67328991 C3.12730425,3.67603459 3.12735441,3.67876831 3.12745391,3.6814903 L3.12745391,4.41678881 L2.47350359,4.41678881 C2.33581933,4.41678881 2.22407559,4.52193006 2.22407559,4.65147911 C2.22407559,4.65624259 2.22422667,4.66097307 2.22452456,4.66566653 L2.22452456,5.394978 L1.57132252,5.394978 C1.43363827,5.394978 1.32189453,5.50011926 1.32189453,5.62966831 C1.32189453,5.75921736 1.43363827,5.86435862 1.57132252,5.86435862 L2.47375302,5.86435862 C2.61143727,5.86435862 2.72318101,5.75921736 2.72318101,5.62966831 L2.72338056,5.62966831 L2.72338056,4.88616942 L3.37693179,4.88616942 C3.51461605,4.88616942 3.62635979,4.78102816 3.62635979,4.65147911 C3.62635979,4.6498963 3.62634311,4.64831713 3.62630991,4.64674175 L3.62630991,3.90798022 Z" id="Fill-1" fill="#FFFFFF"></path>
                </g>
                <g id="Group-8" transform="translate(140.289537, 187.965231)">
                    <ellipse id="Oval" stroke="#9B9B9B" stroke-width="0.5" fill="#223843" cx="3.91917621" cy="3.96183855" rx="3.8912393" ry="3.86426668"></ellipse>
                    <path d="M3.62630991,3.90798022 L4.27916275,3.90798022 C4.416847,3.90798022 4.52859074,3.80283896 4.52859074,3.67328991 L4.5287404,3.67328991 L4.5287404,2.9288992 L5.1813937,2.9288992 C5.31907795,2.9288992 5.43082169,2.82375794 5.43082169,2.69420889 C5.43082169,2.69146422 5.43077154,2.6887305 5.43067204,2.6860085 L5.43067204,1.95071 L6.0841235,1.95071 C6.22180776,1.95071 6.3335515,1.84556874 6.3335515,1.7160197 C6.3335515,1.58647065 6.22180776,1.48132939 6.0841235,1.48132939 L5.18119415,1.48132939 C5.0435099,1.48132939 4.93176616,1.58647065 4.93176616,1.7160197 C4.93176616,1.71760251 4.93178284,1.71918168 4.93181604,1.72075706 L4.93181604,2.45951859 L4.2789632,2.45951859 C4.14127895,2.45951859 4.02953521,2.56465984 4.02953521,2.69420889 C4.02953521,2.69840752 4.02965258,2.70258051 4.0298844,2.70672512 L4.0298844,3.43859961 L3.37673225,3.43859961 C3.239048,3.43859961 3.12730425,3.54374086 3.12730425,3.67328991 C3.12730425,3.67603459 3.12735441,3.67876831 3.12745391,3.6814903 L3.12745391,4.41678881 L2.47350359,4.41678881 C2.33581933,4.41678881 2.22407559,4.52193006 2.22407559,4.65147911 C2.22407559,4.65624259 2.22422667,4.66097307 2.22452456,4.66566653 L2.22452456,5.394978 L1.57132252,5.394978 C1.43363827,5.394978 1.32189453,5.50011926 1.32189453,5.62966831 C1.32189453,5.75921736 1.43363827,5.86435862 1.57132252,5.86435862 L2.47375302,5.86435862 C2.61143727,5.86435862 2.72318101,5.75921736 2.72318101,5.62966831 L2.72338056,5.62966831 L2.72338056,4.88616942 L3.37693179,4.88616942 C3.51461605,4.88616942 3.62635979,4.78102816 3.62635979,4.65147911 C3.62635979,4.6498963 3.62634311,4.64831713 3.62630991,4.64674175 L3.62630991,3.90798022 Z" id="Fill-1" fill="#FFFFFF"></path>
                </g>
                <g id="Restroom" transform="translate(139.161133, 211.659960)">
                    <ellipse id="Oval" stroke="#9B9B9B" stroke-width="0.5" fill="#223843" cx="4.22484514" cy="4.22689936" rx="4.0874867" ry="4.0646957"></ellipse>
                    <g id="Group" transform="translate(0.707180, 1.770065)" fill="#FFFFFF">
                        <ellipse id="Oval" cx="1.56674575" cy="0.540803173" rx="0.539775745" ry="0.536766064"></ellipse>
                        <path id="Shape" d="M1.66493557,5.12359017 C1.66493557,5.24737718 1.74434592,5.34875447 1.84253574,5.34875447 L1.84253574,5.34875447 C1.94072556,5.34875447 2.01959936,5.24791074 2.02013591,5.12359017 L2.02013591,2.68840099 C2.02013591,2.56408042 1.94072556,2.4632367 1.84253574,2.4632367 L1.84253574,2.4632367 C1.74434592,2.4632367 1.66493557,2.56354686 1.66493557,2.68840099 L1.66493557,5.12359017 L1.66493557,5.12359017 Z"></path>
                        <path id="Shape" d="M1.13428129,5.12359017 C1.13428129,5.24684361 1.21422819,5.3482209 1.31188146,5.34875447 L1.31188146,5.34875447 C1.40953472,5.34875447 1.48948163,5.24791074 1.48948163,5.12359017 L1.48948163,2.68840099 C1.48948163,2.56408042 1.41007128,2.4632367 1.31188146,2.4632367 L1.31188146,2.4632367 C1.21422819,2.46270313 1.13428129,2.56354686 1.13428129,2.68840099 L1.13428129,5.12359017 L1.13428129,5.12359017 Z"></path>
                        <path d="M2.38394098,2.42764423 C2.29805104,2.44102735 2.22759152,2.45298423 2.22885635,2.45843462 C2.40216407,3.17341128 2.6135673,3.83663217 2.59478782,3.84463564 C2.48264754,3.89265647 1.9477008,3.92253609 1.8602421,3.92253609 L1.52596746,3.92253609 L1.19222938,3.92253609 C1.11228247,3.92253609 0.627235481,3.90546202 0.560702487,3.87344814 C0.538167118,3.86277684 0.782836839,2.93917639 0.894977128,2.51552604 C0.896781677,2.50834809 0.8176021,2.49711522 0.725410347,2.48515753 L0.482901808,3.16487425 C0.441586965,3.28172491 0.33481224,3.34095059 0.24520732,3.29933255 C0.1556024,3.25611381 0.116433782,3.12805829 0.157748626,3.01227475 L0.60507009,1.84165724 C0.655944252,1.69093455 0.708265376,1.55853172 0.749542366,1.46358065 L0.805908765,1.31607265 C0.811538959,1.31559103 0.817229871,1.31512224 0.822966771,1.31467219 C0.825209438,1.31172091 0.826874586,1.31020344 0.827907577,1.31020344 L0.904476585,1.31020344 C0.921206206,1.30977913 0.937751709,1.30973301 0.953767936,1.31020344 L2.12895344,1.31020344 C2.18552609,1.29996139 2.25589929,1.30047187 2.31953439,1.30593492 L2.97520632,3.02027822 C3.01652116,3.13606176 2.97735254,3.26411728 2.88721107,3.30733602 C2.79760615,3.34895406 2.69136798,3.28972838 2.65005313,3.17287772 L2.38394098,2.42764423 Z" id="Shape"></path>
                    </g>
                    <g id="Group" transform="translate(5.170255, 1.600694)" fill="#FFFFFF">
                        <path id="Shape" d="M0.501682324,5.18198013 C0.501682324,5.3063007 0.581092673,5.40661086 0.679282495,5.40661086 L0.679282495,5.40661086 C0.776935761,5.40661086 0.856346109,5.3063007 0.856346109,5.18144657 L0.856346109,2.74679095 C0.856346109,2.62300395 0.776935761,2.52109309 0.679282495,2.52109309 L0.679282495,2.52109309 C0.581092673,2.52109309 0.501682324,2.62247038 0.501682324,2.74785808 L0.501682324,5.18198013 L0.501682324,5.18198013 Z"></path>
                        <path id="Shape" d="M1.02214204,5.18198013 C1.02214204,5.3063007 1.10155239,5.40661086 1.19974221,5.40661086 L1.19974221,5.40661086 C1.29793203,5.40661086 1.37734238,5.3063007 1.37734238,5.18144657 L1.37734238,2.74679095 C1.37734238,2.62300395 1.29793203,2.52109309 1.19974221,2.52109309 L1.19974221,2.52109309 C1.10155239,2.52109309 1.02214204,2.62247038 1.02214204,2.74785808 L1.02214204,5.18198013 L1.02214204,5.18198013 Z"></path>
                        <path d="M0.36056799,2.49548199 L0.501682324,2.49548199 L0.501682324,3.82459159 L1.37680582,3.82459159 L1.37680582,2.49548199 L1.48549153,2.49548199 L1.51845671,3.25581165 C1.51845671,3.38066578 1.59786706,3.48150951 1.69605689,3.48150951 C1.79424671,3.48150951 1.8731205,3.38013222 1.87365706,3.25581165 L1.84521957,1.89095321 C1.84575612,1.76663264 1.66171728,1.39473806 1.56352745,1.39473806 L1.38220271,1.39473806 C1.38064846,1.39539514 1.37911032,1.39605565 1.37758812,1.39671957 L1.37734238,1.39527163 L0.42763754,1.40060727 L0.295108108,1.39473806 C0.196381729,1.39473806 0.0327320251,1.76663264 0.0327320251,1.89095321 L0.00536764841,3.25581165 C0.00536764841,3.38013222 0.0847779966,3.48150951 0.182967819,3.48150951 C0.280621085,3.48150951 0.360031433,3.38066578 0.36056799,3.25581165 L0.36056799,2.49548199 Z" id="Shape"></path>
                        <ellipse id="Oval" cx="0.939512352" cy="0.700570419" rx="0.539775745" ry="0.536766064"></ellipse>
                    </g>
                    <path d="M4.22484514,1.1599696 L4.22484514,7.29436268" id="Shape" stroke="#FFFFFF" stroke-width="0.5"></path>
                </g>
                <g id="Chem-Lab" transform="translate(146.784486, 144.376258)">
                    <rect id="Rectangle-path" stroke="#000000" fill="#EFF1F3" x="-3.81815648e-14" y="3.77824795e-14" width="36.1818464" height="19.6501496"></rect>
                    <path d="M5.7768073,6.06226157 C5.7768073,7.40793561 6.86779378,8.47774648 8.22305649,8.47774648 C8.8261484,8.47774648 9.40891136,8.269167 9.86970068,7.82509457 C9.91713488,7.77799598 9.93068751,7.69052716 9.876477,7.64342857 L9.45634556,7.21281288 C9.41568768,7.17244266 9.34114823,7.16571429 9.28693772,7.21281288 C9.00233255,7.44157746 8.65674056,7.59632998 8.25016175,7.59632998 C7.38279361,7.59632998 6.73226751,6.88312274 6.73226751,6.04207646 C6.73226751,5.19430181 7.3760173,4.4743662 8.24338543,4.4743662 C8.62285899,4.4743662 9.00233255,4.62239034 9.28693772,4.87134004 C9.34114823,4.925167 9.40891136,4.925167 9.45634556,4.87134004 L9.86970068,4.44745272 C9.92391119,4.39362575 9.92391119,4.31288531 9.86292437,4.25905835 C9.40213505,3.84862777 8.90746416,3.63331992 8.22305649,3.63331992 C6.86779378,3.63331992 5.7768073,4.71658753 5.7768073,6.06226157 L5.7768073,6.06226157 Z M10.4047363,8.28262374 C10.4047363,8.34990744 10.4657231,8.41046278 10.5334863,8.41046278 L11.1636834,8.41046278 C11.2382229,8.41046278 11.2924334,8.34990744 11.2924334,8.28262374 L11.2924334,6.42559356 L13.5015116,6.42559356 L13.5015116,8.28262374 C13.5015116,8.34990744 13.5557221,8.41046278 13.6302616,8.41046278 L14.2536824,8.41046278 C14.3214455,8.41046278 14.3824324,8.34990744 14.3824324,8.28262374 L14.3824324,3.82844266 C14.3824324,3.76115895 14.3214455,3.70060362 14.2536824,3.70060362 L13.6302616,3.70060362 C13.5557221,3.70060362 13.5015116,3.76115895 13.5015116,3.82844266 L13.5015116,5.61146076 L11.2924334,5.61146076 L11.2924334,3.82844266 C11.2924334,3.76115895 11.2382229,3.70060362 11.1636834,3.70060362 L10.5334863,3.70060362 C10.4657231,3.70060362 10.4047363,3.76115895 10.4047363,3.82844266 L10.4047363,8.28262374 Z M15.26306,8.28262374 C15.26306,8.34990744 15.3172705,8.41046278 15.39181,8.41046278 L18.1497696,8.41046278 C18.224309,8.41046278 18.2785195,8.34990744 18.2785195,8.28262374 L18.2785195,7.73089738 C18.2785195,7.66361368 18.224309,7.60305835 18.1497696,7.60305835 L16.1439808,7.60305835 L16.1439808,6.42559356 L17.8177302,6.42559356 C17.8854933,6.42559356 17.9464802,6.3717666 17.9464802,6.29775453 L17.9464802,5.7392998 C17.9464802,5.6720161 17.8854933,5.61146076 17.8177302,5.61146076 L16.1439808,5.61146076 L16.1439808,4.50800805 L18.1497696,4.50800805 C18.224309,4.50800805 18.2785195,4.44745272 18.2785195,4.38016901 L18.2785195,3.82844266 C18.2785195,3.76115895 18.224309,3.70060362 18.1497696,3.70060362 L15.39181,3.70060362 C15.3172705,3.70060362 15.26306,3.76115895 15.26306,3.82844266 L15.26306,8.28262374 Z M18.5831605,8.25571026 C18.5696079,8.34990744 18.6238184,8.41046278 18.7119105,8.41046278 L19.3217787,8.41046278 C19.3827655,8.41046278 19.436976,8.35663581 19.4437523,8.30953722 L19.8367785,5.75948491 L19.8571074,5.75948491 L21.0565149,8.40373441 C21.0768439,8.44410463 21.1107255,8.47774648 21.1717123,8.47774648 L21.2936859,8.47774648 C21.3546727,8.47774648 21.3953306,8.44410463 21.4088832,8.40373441 L22.5947381,5.75948491 L22.6150671,5.75948491 L23.0148696,8.30953722 C23.0284222,8.35663581 23.0826327,8.41046278 23.1436195,8.41046278 L23.760264,8.41046278 C23.8483561,8.41046278 23.9025666,8.34990744 23.8822377,8.25571026 L23.0826327,3.73424547 C23.0758564,3.68041851 23.0351985,3.63331992 22.960659,3.63331992 L22.852238,3.63331992 C22.7912512,3.63331992 22.7573696,3.6602334 22.7370407,3.70060362 L21.2462517,6.87639437 L21.2259228,6.87639437 L19.7351338,3.70060362 C19.7148049,3.6602334 19.674147,3.63331992 19.6199365,3.63331992 L19.5115155,3.63331992 C19.436976,3.63331992 19.3963181,3.68041851 19.3895418,3.73424547 L18.5831605,8.25571026 Z M6.12239929,15.4315171 C6.12239929,15.4988008 6.1766098,15.5593561 6.25114925,15.5593561 L8.73128001,15.5593561 C8.80581946,15.5593561 8.86002997,15.4988008 8.86002997,15.4315171 L8.86002997,14.8797907 C8.86002997,14.812507 8.80581946,14.7519517 8.73128001,14.7519517 L7.00332005,14.7519517 L7.00332005,10.977336 C7.00332005,10.9100523 6.94233323,10.849497 6.8745701,10.849497 L6.25114925,10.849497 C6.1766098,10.849497 6.12239929,10.9100523 6.12239929,10.977336 L6.12239929,15.4315171 Z M8.90717102,15.5593561 L9.4967103,15.5593561 C9.60513132,15.5593561 9.66611814,15.4920724 9.69322339,15.4247887 L10.0252628,14.6981247 L12.0513805,14.6981247 L12.3834199,15.4247887 C12.4308541,15.5189859 12.4782883,15.5593561 12.579933,15.5593561 L13.1694722,15.5593561 C13.2711169,15.5593561 13.3253275,15.4718873 13.2846696,15.3844185 L11.197565,10.8562254 C11.1772361,10.8158551 11.1501308,10.7822133 11.0823677,10.7822133 L11.0146045,10.7822133 C10.9536177,10.7822133 10.9197361,10.8158551 10.8994072,10.8562254 L8.79197369,15.3844185 C8.75131581,15.4718873 8.80552632,15.5593561 8.90717102,15.5593561 L8.90717102,15.5593561 Z M10.3573021,13.9512757 L11.0213809,12.4710342 L11.0417098,12.4710342 L11.7193411,13.9512757 L10.3573021,13.9512757 Z M13.5486527,15.4315171 C13.5486527,15.4988008 13.6028632,15.5593561 13.6774026,15.5593561 L15.3172705,15.5593561 C16.1439808,15.5593561 16.7945069,15.0143581 16.7945069,14.2607807 C16.7945069,13.6417706 16.2727307,13.2784386 15.9135861,13.1640563 C16.2320728,13.0160322 16.6589806,12.61233 16.6589806,12.0942455 C16.6589806,11.3877666 16.0355597,10.849497 15.2291784,10.849497 L13.6774026,10.849497 C13.6028632,10.849497 13.5486527,10.9100523 13.5486527,10.977336 L13.5486527,15.4315171 Z M14.4227971,12.8276378 L14.4227971,11.650173 L15.1478627,11.650173 C15.4934547,11.650173 15.7306256,11.885666 15.7306256,12.2220845 C15.7306256,12.558503 15.4934547,12.8276378 15.1478627,12.8276378 L14.4227971,12.8276378 Z M14.4227971,14.7654085 L14.4227971,13.5677586 L15.1614153,13.5677586 C15.5137836,13.5677586 15.8525993,13.8167082 15.8525993,14.1531268 C15.8525993,14.503002 15.5815467,14.7654085 15.2427311,14.7654085 L14.4227971,14.7654085 Z" id="CHEM-LAB" fill="#C9C9C9"></path>
                </g>
                <g id="Laser-Lab" transform="translate(146.784486, 113.257545)">
                    <rect id="Rectangle-path" stroke="#000000" fill="#EFF1F3" x="0.0819340445" y="0.033001398" width="13.1518288" height="16.3938921"></rect>
                    <path d="M17.8432406,6.63353259 C17.8432406,6.70081629 17.8974511,6.76137162 17.9719906,6.76137162 L20.4521213,6.76137162 C20.5266608,6.76137162 20.5808713,6.70081629 20.5808713,6.63353259 L20.5808713,6.08180623 C20.5808713,6.01452252 20.5266608,5.95396719 20.4521213,5.95396719 L18.7241614,5.95396719 L18.7241614,2.1793515 C18.7241614,2.1120678 18.6631746,2.05151246 18.5954114,2.05151246 L17.9719906,2.05151246 C17.8974511,2.05151246 17.8432406,2.1120678 17.8432406,2.1793515 L17.8432406,6.63353259 Z M20.6280124,6.76137162 L21.2175516,6.76137162 C21.3259726,6.76137162 21.3869595,6.69408792 21.4140647,6.62680421 L21.7461041,5.90014023 L23.7722218,5.90014023 L24.1042612,6.62680421 C24.1516954,6.7210014 24.1991296,6.76137162 24.3007743,6.76137162 L24.8903136,6.76137162 C24.9919583,6.76137162 25.0461688,6.67390281 25.0055109,6.58643399 L22.9184063,2.05824083 C22.8980774,2.01787061 22.8709721,1.98422876 22.803209,1.98422876 L22.7354459,1.98422876 C22.674459,1.98422876 22.6405775,2.01787061 22.6202485,2.05824083 L20.512815,6.58643399 C20.4721571,6.67390281 20.5263677,6.76137162 20.6280124,6.76137162 L20.6280124,6.76137162 Z M22.0781435,5.15329114 L22.7422222,3.67304969 L22.7625511,3.67304969 L23.4401825,5.15329114 L22.0781435,5.15329114 Z M25.0255467,6.30384244 C25.161073,6.43168148 25.6625202,6.82865532 26.5163357,6.82865532 C27.4717959,6.82865532 28.0748878,6.18946015 28.0748878,5.49643802 C28.0748878,4.62847826 27.3159407,4.23823279 26.6586383,3.97582635 C26.1097569,3.75379013 25.8590333,3.53848228 25.8590333,3.22224888 C25.8590333,3.00694104 26.069099,2.75126297 26.4553489,2.75126297 C26.8280461,2.75126297 27.3430459,3.08768148 27.3972565,3.12132333 C27.4785722,3.17515029 27.5802169,3.12132333 27.6344274,3.04058289 L27.8919273,2.65706578 C27.9393615,2.58978208 27.9190326,2.47539979 27.8512695,2.43502957 C27.7157432,2.33410401 27.1871907,1.98422876 26.4960067,1.98422876 C25.4185729,1.98422876 24.9713362,2.6772509 24.9713362,3.27607584 C24.9713362,4.07002353 25.6083097,4.47372574 26.2452831,4.72940381 C26.8144935,4.9581684 27.105875,5.19366136 27.105875,5.53680824 C27.105875,5.82612816 26.8415987,6.05489275 26.4892304,6.05489275 C26.0487701,6.05489275 25.4998887,5.6579189 25.4660071,5.63773379 C25.4050203,5.5906352 25.2898229,5.5906352 25.2356124,5.68483238 L24.9916651,6.10199134 C24.9306783,6.20964526 24.9645599,6.24328711 25.0255467,6.30384244 L25.0255467,6.30384244 Z M28.5895945,6.63353259 C28.5895945,6.70081629 28.643805,6.76137162 28.7183445,6.76137162 L31.4763041,6.76137162 C31.5508435,6.76137162 31.605054,6.70081629 31.605054,6.63353259 L31.605054,6.08180623 C31.605054,6.01452252 31.5508435,5.95396719 31.4763041,5.95396719 L29.4705153,5.95396719 L29.4705153,4.7765024 L31.1442647,4.7765024 C31.2120278,4.7765024 31.2730147,4.72267544 31.2730147,4.64866337 L31.2730147,4.09020864 C31.2730147,4.02292494 31.2120278,3.96236961 31.1442647,3.96236961 L29.4705153,3.96236961 L29.4705153,2.85891689 L31.4763041,2.85891689 C31.5508435,2.85891689 31.605054,2.79836156 31.605054,2.73107786 L31.605054,2.1793515 C31.605054,2.1120678 31.5508435,2.05151246 31.4763041,2.05151246 L28.7183445,2.05151246 C28.643805,2.05151246 28.5895945,2.1120678 28.5895945,2.1793515 L28.5895945,6.63353259 Z M32.2214054,6.63353259 C32.2214054,6.70081629 32.2756159,6.76137162 32.3501554,6.76137162 L32.9735762,6.76137162 C33.0413394,6.76137162 33.1023262,6.70081629 33.1023262,6.63353259 L33.1023262,4.91779818 L33.854497,4.91779818 L34.7557467,6.70081629 C34.7692993,6.72772977 34.8031809,6.76137162 34.8641677,6.76137162 L35.5756806,6.76137162 C35.690878,6.76137162 35.7383122,6.6537177 35.690878,6.56624888 L34.762523,4.85724285 C35.3520623,4.62174989 35.7654174,4.11712212 35.7654174,3.49811206 C35.7654174,2.69743601 35.1013387,2.05151246 34.2881811,2.05151246 L32.3501554,2.05151246 C32.2756159,2.05151246 32.2214054,2.1120678 32.2214054,2.1793515 L32.2214054,6.63353259 Z M33.1091025,4.19786257 L33.1091025,2.85891689 L34.2136416,2.85891689 C34.5727862,2.85891689 34.8844966,3.15496518 34.8844966,3.5115688 C34.8844966,3.88835753 34.5727862,4.19786257 34.2136416,4.19786257 L33.1091025,4.19786257 Z M17.8432406,13.7824259 C17.8432406,13.8497096 17.8974511,13.910265 17.9719906,13.910265 L20.4521213,13.910265 C20.5266608,13.910265 20.5808713,13.8497096 20.5808713,13.7824259 L20.5808713,13.2306996 C20.5808713,13.1634159 20.5266608,13.1028606 20.4521213,13.1028606 L18.7241614,13.1028606 L18.7241614,9.32824486 C18.7241614,9.26096116 18.6631746,9.20040582 18.5954114,9.20040582 L17.9719906,9.20040582 C17.8974511,9.20040582 17.8432406,9.26096116 17.8432406,9.32824486 L17.8432406,13.7824259 Z M20.6280124,13.910265 L21.2175516,13.910265 C21.3259726,13.910265 21.3869595,13.8429813 21.4140647,13.7756976 L21.7461041,13.0490336 L23.7722218,13.0490336 L24.1042612,13.7756976 C24.1516954,13.8698948 24.1991296,13.910265 24.3007743,13.910265 L24.8903136,13.910265 C24.9919583,13.910265 25.0461688,13.8227962 25.0055109,13.7353274 L22.9184063,9.20713419 C22.8980774,9.16676397 22.8709721,9.13312212 22.803209,9.13312212 L22.7354459,9.13312212 C22.674459,9.13312212 22.6405775,9.16676397 22.6202485,9.20713419 L20.512815,13.7353274 C20.4721571,13.8227962 20.5263677,13.910265 20.6280124,13.910265 L20.6280124,13.910265 Z M22.0781435,12.3021845 L22.7422222,10.821943 L22.7625511,10.821943 L23.4401825,12.3021845 L22.0781435,12.3021845 Z M25.269494,13.7824259 C25.269494,13.8497096 25.3237045,13.910265 25.398244,13.910265 L27.0381118,13.910265 C27.8648221,13.910265 28.5153482,13.365267 28.5153482,12.6116895 C28.5153482,11.9926795 27.993572,11.6293475 27.6344274,11.5149652 C27.9529142,11.366941 28.3798219,10.9632388 28.3798219,10.4451543 C28.3798219,9.73867544 27.7564011,9.20040582 26.9500198,9.20040582 L25.398244,9.20040582 C25.3237045,9.20040582 25.269494,9.26096116 25.269494,9.32824486 L25.269494,13.7824259 Z M26.1436384,11.1785467 L26.1436384,10.0010819 L26.868704,10.0010819 C27.214296,10.0010819 27.451467,10.2365748 27.451467,10.5729933 C27.451467,10.9094119 27.214296,11.1785467 26.868704,11.1785467 L26.1436384,11.1785467 Z M26.1436384,13.1163173 L26.1436384,11.9186674 L26.8822566,11.9186674 C27.2346249,11.9186674 27.5734406,12.1676171 27.5734406,12.5040356 C27.5734406,12.8539109 27.3023881,13.1163173 26.9635724,13.1163173 L26.1436384,13.1163173 Z" id="LASER" fill="#C9C9C9"></path>
                </g>
                <g id="Design-Lab" transform="translate(70.974478, 117.462777)">
                    <rect id="Rectangle-path" stroke="#000000" fill="#EFF1F3" x="0" y="0" width="29.3002769" height="32.8977391"></rect>
                    <path d="M4.4283209,14.1699477 C4.4283209,14.2372314 4.48253141,14.2977867 4.55029455,14.2977867 L6.15628086,14.2977867 C7.46410937,14.2977867 8.53476692,13.2414326 8.53476692,11.9361288 C8.53476692,10.6442817 7.46410937,9.58792757 6.15628086,9.58792757 L4.55029455,9.58792757 C4.48253141,9.58792757 4.4283209,9.6484829 4.4283209,9.7157666 L4.4283209,14.1699477 Z M5.30246535,13.4769256 L5.30246535,10.4020604 L6.0749651,10.4020604 C6.95588586,10.4020604 7.59963565,11.0614406 7.59963565,11.9361288 C7.59963565,12.8175453 6.95588586,13.4769256 6.0749651,13.4769256 L5.30246535,13.4769256 Z M9.07657886,14.1699477 C9.07657886,14.2372314 9.13078937,14.2977867 9.20532882,14.2977867 L11.9632884,14.2977867 C12.0378279,14.2977867 12.0920384,14.2372314 12.0920384,14.1699477 L12.0920384,13.6182213 C12.0920384,13.5509376 12.0378279,13.4903823 11.9632884,13.4903823 L9.95749962,13.4903823 L9.95749962,12.3129175 L11.6312491,12.3129175 C11.6990122,12.3129175 11.759999,12.2590905 11.759999,12.1850785 L11.759999,11.6266237 C11.759999,11.55934 11.6990122,11.4987847 11.6312491,11.4987847 L9.95749962,11.4987847 L9.95749962,10.395332 L11.9632884,10.395332 C12.0378279,10.395332 12.0920384,10.3347767 12.0920384,10.267493 L12.0920384,9.7157666 C12.0920384,9.6484829 12.0378279,9.58792757 11.9632884,9.58792757 L9.20532882,9.58792757 C9.13078937,9.58792757 9.07657886,9.6484829 9.07657886,9.7157666 L9.07657886,14.1699477 Z M12.4644425,13.8402575 C12.5999688,13.9680966 13.101416,14.3650704 13.9552315,14.3650704 C14.9106917,14.3650704 15.5137836,13.7258753 15.5137836,13.0328531 C15.5137836,12.1648934 14.7548365,11.7746479 14.0975341,11.5122414 C13.5486527,11.2902052 13.2979291,11.0748974 13.2979291,10.758664 C13.2979291,10.5433561 13.5079948,10.2876781 13.8942447,10.2876781 C14.2669419,10.2876781 14.7819417,10.6240966 14.8361522,10.6577384 C14.917468,10.7115654 15.0191127,10.6577384 15.0733232,10.576998 L15.3308231,10.1934809 C15.3782573,10.1261972 15.3579284,10.0118149 15.2901652,9.97144467 C15.154639,9.87051911 14.6260865,9.52064386 13.9349025,9.52064386 C12.8574687,9.52064386 12.410232,10.213666 12.410232,10.8124909 C12.410232,11.6064386 13.0472055,12.0101408 13.6841789,12.2658189 C14.2533893,12.4945835 14.5447708,12.7300765 14.5447708,13.0732233 C14.5447708,13.3625433 14.2804945,13.5913078 13.9281262,13.5913078 C13.4876658,13.5913078 12.9387844,13.194334 12.9049029,13.1741489 C12.8439161,13.1270503 12.7287187,13.1270503 12.6745082,13.2212475 L12.4305609,13.6384064 C12.3695741,13.7460604 12.4034557,13.7797022 12.4644425,13.8402575 L12.4644425,13.8402575 Z M16.0284903,14.1699477 C16.0284903,14.2372314 16.0894771,14.2977867 16.1572402,14.2977867 L16.7874374,14.2977867 C16.8552005,14.2977867 16.9161874,14.2372314 16.9161874,14.1699477 L16.9161874,9.7157666 C16.9161874,9.6484829 16.8552005,9.58792757 16.7874374,9.58792757 L16.1572402,9.58792757 C16.0894771,9.58792757 16.0284903,9.6484829 16.0284903,9.7157666 L16.0284903,14.1699477 Z M17.4579993,11.9495855 C17.4579993,13.2952596 18.5422095,14.3583421 19.8906959,14.3583421 C20.8732613,14.3583421 21.5712216,13.920998 21.5712216,13.920998 C21.5983269,13.9008129 21.6254321,13.867171 21.6254321,13.8133441 L21.6254321,12.0908813 C21.6254321,12.0235976 21.5712216,11.9630423 21.5034585,11.9630423 L20.2024063,11.9630423 C20.1278668,11.9630423 20.0736563,12.0168692 20.0736563,12.0908813 L20.0736563,12.6224225 C20.0736563,12.6897062 20.1278668,12.7435332 20.2024063,12.7435332 L20.7445114,12.7435332 L20.7445114,13.3154447 C20.6089851,13.3692716 20.3176036,13.4836539 19.9381301,13.4836539 C19.0843146,13.4836539 18.4134595,12.7771751 18.4134595,11.9428571 C18.4134595,11.1018109 19.0843146,10.3818753 19.9313538,10.3818753 C20.304051,10.3818753 20.6631956,10.5164427 20.9545771,10.7721207 C21.0155639,10.8259477 21.0765507,10.8259477 21.1307613,10.7721207 L21.5508927,10.3347767 C21.6051032,10.2809497 21.5983269,10.2002093 21.5441164,10.1463823 C21.0833271,9.75613682 20.5005641,9.52064386 19.8906959,9.52064386 C18.5422095,9.52064386 17.4579993,10.6039115 17.4579993,11.9495855 L17.4579993,11.9495855 Z M22.2688888,14.1699477 C22.2688888,14.2372314 22.3298756,14.2977867 22.3976387,14.2977867 L23.0142833,14.2977867 C23.0888227,14.2977867 23.1430332,14.2372314 23.1430332,14.1699477 L23.1430332,11.2767485 L23.1498096,11.2767485 L25.9823086,14.3650704 L26.1449401,14.3650704 C26.2127033,14.3650704 26.2736901,14.3112435 26.2736901,14.2439598 L26.2736901,9.7157666 C26.2736901,9.6484829 26.2127033,9.58792757 26.1449401,9.58792757 L25.5215193,9.58792757 C25.4469798,9.58792757 25.3927693,9.6484829 25.3927693,9.7157666 L25.3927693,12.4945835 L25.385993,12.4945835 L22.5670466,9.52064386 L22.3976387,9.52064386 C22.3298756,9.52064386 22.2688888,9.57447082 22.2688888,9.64175453 L22.2688888,14.1699477 Z M4.4283209,21.318841 C4.4283209,21.3861247 4.48253141,21.4466801 4.55707086,21.4466801 L7.03720162,21.4466801 C7.11174107,21.4466801 7.16595158,21.3861247 7.16595158,21.318841 L7.16595158,20.7671147 C7.16595158,20.699831 7.11174107,20.6392757 7.03720162,20.6392757 L5.30924167,20.6392757 L5.30924167,16.86466 C5.30924167,16.7973763 5.24825484,16.7368209 5.18049171,16.7368209 L4.55707086,16.7368209 C4.48253141,16.7368209 4.4283209,16.7973763 4.4283209,16.86466 L4.4283209,21.318841 Z M7.21309264,21.4466801 L7.80263191,21.4466801 C7.91105293,21.4466801 7.97203975,21.3793964 7.99914501,21.3121127 L8.33118437,20.5854487 L10.3573021,20.5854487 L10.6893415,21.3121127 C10.7367757,21.4063099 10.7842099,21.4466801 10.8858546,21.4466801 L11.4753939,21.4466801 C11.5770386,21.4466801 11.6312491,21.3592113 11.5905912,21.2717425 L9.50348662,16.7435493 C9.48315767,16.7031791 9.45605242,16.6695372 9.38828928,16.6695372 L9.32052615,16.6695372 C9.25953933,16.6695372 9.22565776,16.7031791 9.20532882,16.7435493 L7.09789531,21.2717425 C7.05723742,21.3592113 7.11144793,21.4466801 7.21309264,21.4466801 L7.21309264,21.4466801 Z M8.66322374,19.8385996 L9.32730246,18.3583581 L9.3476314,18.3583581 L10.0252628,19.8385996 L8.66322374,19.8385996 Z M11.8545743,21.318841 C11.8545743,21.3861247 11.9087848,21.4466801 11.9833242,21.4466801 L13.6231921,21.4466801 C14.4499024,21.4466801 15.1004285,20.9016821 15.1004285,20.1481046 C15.1004285,19.5290946 14.5786523,19.1657626 14.2195077,19.0513803 C14.5379944,18.9033561 14.9649022,18.4996539 14.9649022,17.9815694 C14.9649022,17.2750905 14.3414814,16.7368209 13.5351,16.7368209 L11.9833242,16.7368209 C11.9087848,16.7368209 11.8545743,16.7973763 11.8545743,16.86466 L11.8545743,21.318841 Z M12.7287187,18.7149618 L12.7287187,17.537497 L13.4537843,17.537497 C13.7993763,17.537497 14.0365472,17.7729899 14.0365472,18.1094085 C14.0365472,18.445827 13.7993763,18.7149618 13.4537843,18.7149618 L12.7287187,18.7149618 Z M12.7287187,20.6527324 L12.7287187,19.4550825 L13.4673369,19.4550825 C13.8197052,19.4550825 14.1585209,19.7040322 14.1585209,20.0404507 C14.1585209,20.390326 13.8874683,20.6527324 13.5486527,20.6527324 L12.7287187,20.6527324 Z" id="DESIGN-LAB" fill="#C9C9C9"></path>
                </g>
                <rect id="Rectangle-path" stroke="#000000" fill="#EFF1F3" x="55.412265" y="202.768741" width="31.7441863" height="52.326654"></rect>
                <g id="Arrow" transform="translate(45.986822, 224.275654)" stroke-linecap="square" stroke="#C9C9C9" fill="#C9C9C9">
                    <path id="Line"></path>
                    <path id="Line-decoration-1" d="M0,0 L-10.8,-3 L-10.8,3 L0,0 Z"></path>
                </g>
                <path d="M29.2816794,189.957746 L29.8712187,189.957746 C29.9796397,189.957746 30.0406265,189.890463 30.0677318,189.823179 L30.3997712,189.096515 L32.4258889,189.096515 L32.7579283,189.823179 C32.8053625,189.917376 32.8527967,189.957746 32.9544414,189.957746 L33.5439806,189.957746 C33.6456253,189.957746 33.6998359,189.870278 33.659178,189.782809 L31.5720734,185.254616 C31.5517445,185.214245 31.5246392,185.180604 31.4568761,185.180604 L31.3891129,185.180604 C31.3281261,185.180604 31.2942445,185.214245 31.2739156,185.254616 L29.1664821,189.782809 C29.1258242,189.870278 29.1800347,189.957746 29.2816794,189.957746 L29.2816794,189.957746 Z M30.7318105,188.349666 L31.3958892,186.869425 L31.4162182,186.869425 L32.0938495,188.349666 L30.7318105,188.349666 Z M33.7876348,188.174728 C33.7876348,189.197441 34.6075687,190.02503 35.67145,190.02503 C36.7421075,190.02503 37.5620414,189.197441 37.5620414,188.174728 L37.5620414,185.375726 C37.5620414,185.308443 37.5010546,185.247887 37.4332915,185.247887 L36.7895417,185.247887 C36.7150022,185.247887 36.6607917,185.308443 36.6607917,185.375726 L36.6607917,188.134358 C36.6607917,188.699541 36.2609892,189.150342 35.67145,189.150342 C35.0819107,189.150342 34.6888845,188.699541 34.6888845,188.12763 L34.6888845,185.375726 C34.6888845,185.308443 34.634674,185.247887 34.5601345,185.247887 L33.9163847,185.247887 C33.8486216,185.247887 33.7876348,185.308443 33.7876348,185.375726 L33.7876348,188.174728 Z M38.3749059,189.829907 C38.3749059,189.897191 38.4291164,189.957746 38.4968796,189.957746 L40.1028659,189.957746 C41.4106944,189.957746 42.4813519,188.901392 42.4813519,187.596089 C42.4813519,186.304241 41.4106944,185.247887 40.1028659,185.247887 L38.4968796,185.247887 C38.4291164,185.247887 38.3749059,185.308443 38.3749059,185.375726 L38.3749059,189.829907 Z M39.2490504,189.136885 L39.2490504,186.06202 L40.0215501,186.06202 C40.9024709,186.06202 41.5462207,186.7214 41.5462207,187.596089 C41.5462207,188.477505 40.9024709,189.136885 40.0215501,189.136885 L39.2490504,189.136885 Z M43.0231639,189.829907 C43.0231639,189.897191 43.0841507,189.957746 43.1519138,189.957746 L43.782111,189.957746 C43.8498741,189.957746 43.910861,189.897191 43.910861,189.829907 L43.910861,185.375726 C43.910861,185.308443 43.8498741,185.247887 43.782111,185.247887 L43.1519138,185.247887 C43.0841507,185.247887 43.0231639,185.308443 43.0231639,185.375726 L43.0231639,189.829907 Z M45.4284621,189.829907 C45.4284621,189.897191 45.4894489,189.957746 45.557212,189.957746 L46.1874092,189.957746 C46.2551723,189.957746 46.3161591,189.897191 46.3161591,189.829907 L46.3161591,186.055292 L47.3529351,186.055292 C47.4274746,186.055292 47.4816851,185.994736 47.4816851,185.927453 L47.4816851,185.375726 C47.4816851,185.308443 47.4274746,185.247887 47.3529351,185.247887 L44.3916861,185.247887 C44.3171466,185.247887 44.2629361,185.308443 44.2629361,185.375726 L44.2629361,185.927453 C44.2629361,185.994736 44.3171466,186.055292 44.3916861,186.055292 L45.4284621,186.055292 L45.4284621,189.829907 Z M47.4475104,187.609545 C47.4475104,188.955219 48.5249442,190.02503 49.8802069,190.02503 C51.2354696,190.02503 52.3196798,188.955219 52.3196798,187.609545 C52.3196798,186.263871 51.2354696,185.180604 49.8802069,185.180604 C48.5249442,185.180604 47.4475104,186.263871 47.4475104,187.609545 L47.4475104,187.609545 Z M48.3284311,187.609545 C48.3284311,186.761771 49.0263914,186.055292 49.8802069,186.055292 C50.7340224,186.055292 51.438759,186.761771 51.438759,187.609545 C51.438759,188.45732 50.7340224,189.150342 49.8802069,189.150342 C49.0263914,189.150342 48.3284311,188.45732 48.3284311,187.609545 L48.3284311,187.609545 Z M52.8547154,189.829907 C52.8547154,189.897191 52.9089259,189.957746 52.9834654,189.957746 L53.6068862,189.957746 C53.6746494,189.957746 53.7356362,189.897191 53.7356362,189.829907 L53.7356362,188.114173 L54.487807,188.114173 L55.3890567,189.897191 C55.4026093,189.924105 55.4364909,189.957746 55.4974777,189.957746 L56.2089906,189.957746 C56.324188,189.957746 56.3716222,189.850093 56.324188,189.762624 L55.395833,188.053618 C55.9853723,187.818125 56.3987274,187.313497 56.3987274,186.694487 C56.3987274,185.893811 55.7346487,185.247887 54.9214911,185.247887 L52.9834654,185.247887 C52.9089259,185.247887 52.8547154,185.308443 52.8547154,185.375726 L52.8547154,189.829907 Z M53.7424125,187.394237 L53.7424125,186.055292 L54.8469516,186.055292 C55.2060962,186.055292 55.5178067,186.35134 55.5178067,186.707944 C55.5178067,187.084732 55.2060962,187.394237 54.8469516,187.394237 L53.7424125,187.394237 Z M57.0150788,189.829907 C57.0150788,189.897191 57.0760656,189.957746 57.1438288,189.957746 L57.7740259,189.957746 C57.8417891,189.957746 57.9027759,189.897191 57.9027759,189.829907 L57.9027759,185.375726 C57.9027759,185.308443 57.8417891,185.247887 57.7740259,185.247887 L57.1438288,185.247887 C57.0760656,185.247887 57.0150788,185.308443 57.0150788,185.375726 L57.0150788,189.829907 Z M58.7156404,188.174728 C58.7156404,189.197441 59.5355743,190.02503 60.5994555,190.02503 C61.6701131,190.02503 62.490047,189.197441 62.490047,188.174728 L62.490047,185.375726 C62.490047,185.308443 62.4290602,185.247887 62.3612971,185.247887 L61.7175473,185.247887 C61.6430078,185.247887 61.5887973,185.308443 61.5887973,185.375726 L61.5887973,188.134358 C61.5887973,188.699541 61.1889948,189.150342 60.5994555,189.150342 C60.0099163,189.150342 59.6168901,188.699541 59.6168901,188.12763 L59.6168901,185.375726 C59.6168901,185.308443 59.5626796,185.247887 59.4881401,185.247887 L58.8443903,185.247887 C58.7766272,185.247887 58.7156404,185.308443 58.7156404,185.375726 L58.7156404,188.174728 Z M62.9912011,189.802994 C62.9776485,189.897191 63.031859,189.957746 63.119951,189.957746 L63.7298193,189.957746 C63.7908061,189.957746 63.8450166,189.90392 63.8517929,189.856821 L64.2448191,187.306769 L64.265148,187.306769 L65.4645555,189.951018 C65.4848845,189.991388 65.518766,190.02503 65.5797529,190.02503 L65.7017265,190.02503 C65.7627133,190.02503 65.8033712,189.991388 65.8169238,189.951018 L67.0027787,187.306769 L67.0231076,187.306769 L67.4229101,189.856821 C67.4364628,189.90392 67.4906733,189.957746 67.5516601,189.957746 L68.1683046,189.957746 C68.2563967,189.957746 68.3106072,189.897191 68.2902783,189.802994 L67.4906733,185.281529 C67.483897,185.227702 67.4432391,185.180604 67.3686996,185.180604 L67.2602786,185.180604 C67.1992918,185.180604 67.1654102,185.207517 67.1450813,185.247887 L65.6542923,188.423678 L65.6339634,188.423678 L64.1431744,185.247887 C64.1228454,185.207517 64.0821876,185.180604 64.0279771,185.180604 L63.919556,185.180604 C63.8450166,185.180604 63.8043587,185.227702 63.7975824,185.281529 L62.9912011,189.802994 Z" id="AUDITORIUM" fill="#C9C9C9" transform="translate(48.877447, 187.602817) rotate(-90.000000) translate(-48.877447, -187.602817) "></path>
                <g id="svg-lunch-room" transform="translate(85.797664, 218.388330)">
                    <rect id="Rectangle-path" stroke="#000000" fill="#EFF1F3" x="1.35878724" y="0.277518262" width="13.0958919" height="36.4295465"></rect>
                    <g id="Arrow" transform="translate(8.258632, 31.328974) rotate(-90.000000) translate(-8.258632, -31.328974) translate(-2.541118, 31.118712)" stroke-linecap="square" stroke="#484848" fill="#484848">
                        <path id="Line"></path>
                        <path id="Line-decoration-1" d="M0,0 L-10.8,-3 L-10.8,3 L0,0 Z"></path>
                    </g>
                    <path d="M0.193124936,49.9144145 C0.193124936,49.9816982 0.247335445,50.0422535 0.321874894,50.0422535 L2.80200565,50.0422535 C2.8765451,50.0422535 2.93075561,49.9816982 2.93075561,49.9144145 L2.93075561,49.3626881 C2.93075561,49.2954044 2.8765451,49.2348491 2.80200565,49.2348491 L1.0740457,49.2348491 L1.0740457,45.4602334 C1.0740457,45.3929497 1.01305888,45.3323944 0.94529574,45.3323944 L0.321874894,45.3323944 C0.247335445,45.3323944 0.193124936,45.3929497 0.193124936,45.4602334 L0.193124936,49.9144145 Z M3.12697557,48.2592354 C3.12697557,49.2819477 3.9469095,50.1095372 5.01079073,50.1095372 C6.08144827,50.1095372 6.90138221,49.2819477 6.90138221,48.2592354 L6.90138221,45.4602334 C6.90138221,45.3929497 6.84039539,45.3323944 6.77263225,45.3323944 L6.12888247,45.3323944 C6.05434302,45.3323944 6.00013251,45.3929497 6.00013251,45.4602334 L6.00013251,48.2188652 C6.00013251,48.7840483 5.60033001,49.2348491 5.01079073,49.2348491 C4.42125145,49.2348491 4.02822527,48.7840483 4.02822527,48.2121368 L4.02822527,45.4602334 C4.02822527,45.3929497 3.97401476,45.3323944 3.89947531,45.3323944 L3.25572552,45.3323944 C3.18796239,45.3323944 3.12697557,45.3929497 3.12697557,45.4602334 L3.12697557,48.2592354 Z M7.7142467,49.9144145 C7.7142467,49.9816982 7.77523352,50.0422535 7.84299666,50.0422535 L8.45964119,50.0422535 C8.53418064,50.0422535 8.58839115,49.9816982 8.58839115,49.9144145 L8.58839115,47.0212153 L8.59516746,47.0212153 L11.4276665,50.1095372 L11.5902981,50.1095372 C11.6580612,50.1095372 11.719048,50.0557103 11.719048,49.9884266 L11.719048,45.4602334 C11.719048,45.3929497 11.6580612,45.3323944 11.5902981,45.3323944 L10.9668772,45.3323944 C10.8923378,45.3323944 10.8381272,45.3929497 10.8381272,45.4602334 L10.8381272,48.2390503 L10.8313509,48.2390503 L8.0124045,45.2651107 L7.84299666,45.2651107 C7.77523352,45.2651107 7.7142467,45.3189376 7.7142467,45.3862213 L7.7142467,49.9144145 Z M12.2540836,47.6940523 C12.2540836,49.0397264 13.3450701,50.1095372 14.7003328,50.1095372 C15.3034247,50.1095372 15.8861877,49.9009577 16.346977,49.4568853 C16.3944112,49.4097867 16.4079638,49.3223179 16.3537533,49.2752193 L15.9336219,48.8446036 C15.892964,48.8042334 15.8184246,48.797505 15.7642141,48.8446036 C15.4796089,49.0733682 15.1340169,49.2281207 14.7274381,49.2281207 C13.86007,49.2281207 13.2095439,48.5149135 13.2095439,47.6738672 C13.2095439,46.8260926 13.8532936,46.1061569 14.7206618,46.1061569 C15.1001353,46.1061569 15.4796089,46.2541811 15.7642141,46.5031308 C15.8184246,46.5569577 15.8861877,46.5569577 15.9336219,46.5031308 L16.346977,46.0792435 C16.4011875,46.0254165 16.4011875,45.9446761 16.3402007,45.8908491 C15.8794114,45.4804185 15.3847405,45.2651107 14.7003328,45.2651107 C13.3450701,45.2651107 12.2540836,46.3483783 12.2540836,47.6940523 L12.2540836,47.6940523 Z M16.8820127,49.9144145 C16.8820127,49.9816982 16.9429995,50.0422535 17.0107626,50.0422535 L17.6409598,50.0422535 C17.7154992,50.0422535 17.7697097,49.9816982 17.7697097,49.9144145 L17.7697097,48.0573843 L19.9787879,48.0573843 L19.9787879,49.9144145 C19.9787879,49.9816982 20.0329985,50.0422535 20.1075379,50.0422535 L20.7309588,50.0422535 C20.7987219,50.0422535 20.8597087,49.9816982 20.8597087,49.9144145 L20.8597087,45.4602334 C20.8597087,45.3929497 20.7987219,45.3323944 20.7309588,45.3323944 L20.1075379,45.3323944 C20.0329985,45.3323944 19.9787879,45.3929497 19.9787879,45.4602334 L19.9787879,47.2432515 L17.7697097,47.2432515 L17.7697097,45.4602334 C17.7697097,45.3929497 17.7154992,45.3323944 17.6409598,45.3323944 L17.0107626,45.3323944 C16.9429995,45.3323944 16.8820127,45.3929497 16.8820127,45.4602334 L16.8820127,49.9144145 Z M0.193124936,57.0633078 C0.193124936,57.1305915 0.247335445,57.1911469 0.321874894,57.1911469 L0.94529574,57.1911469 C1.01305888,57.1911469 1.0740457,57.1305915 1.0740457,57.0633078 L1.0740457,55.3475734 L1.8262165,55.3475734 L2.7274662,57.1305915 C2.74101883,57.157505 2.7749004,57.1911469 2.83588722,57.1911469 L3.54740014,57.1911469 C3.66259747,57.1911469 3.71003167,57.083493 3.66259747,56.9960241 L2.73424252,55.2870181 C3.3237818,55.0515252 3.73713692,54.5468974 3.73713692,53.9278873 C3.73713692,53.1272113 3.07305819,52.4812877 2.25990057,52.4812877 L0.321874894,52.4812877 C0.247335445,52.4812877 0.193124936,52.5418431 0.193124936,52.6091268 L0.193124936,57.0633078 Z M1.08082201,54.6276378 L1.08082201,53.2886922 L2.18536112,53.2886922 C2.54450574,53.2886922 2.85621616,53.5847404 2.85621616,53.9413441 C2.85621616,54.3181328 2.54450574,54.6276378 2.18536112,54.6276378 L1.08082201,54.6276378 Z M4.01467264,54.8429457 C4.01467264,56.1886197 5.09210649,57.2584306 6.4473692,57.2584306 C7.80263191,57.2584306 8.88684208,56.1886197 8.88684208,54.8429457 C8.88684208,53.4972716 7.80263191,52.414004 6.4473692,52.414004 C5.09210649,52.414004 4.01467264,53.4972716 4.01467264,54.8429457 L4.01467264,54.8429457 Z M4.8955934,54.8429457 C4.8955934,53.995171 5.5935537,53.2886922 6.4473692,53.2886922 C7.30118471,53.2886922 8.00592132,53.995171 8.00592132,54.8429457 C8.00592132,55.6907203 7.30118471,56.3837425 6.4473692,56.3837425 C5.5935537,56.3837425 4.8955934,55.6907203 4.8955934,54.8429457 L4.8955934,54.8429457 Z M9.08306204,54.8429457 C9.08306204,56.1886197 10.1604959,57.2584306 11.5157586,57.2584306 C12.8710213,57.2584306 13.9552315,56.1886197 13.9552315,54.8429457 C13.9552315,53.4972716 12.8710213,52.414004 11.5157586,52.414004 C10.1604959,52.414004 9.08306204,53.4972716 9.08306204,54.8429457 L9.08306204,54.8429457 Z M9.9639828,54.8429457 C9.9639828,53.995171 10.6619431,53.2886922 11.5157586,53.2886922 C12.3695741,53.2886922 13.0743107,53.995171 13.0743107,54.8429457 C13.0743107,55.6907203 12.3695741,56.3837425 11.5157586,56.3837425 C10.6619431,56.3837425 9.9639828,55.6907203 9.9639828,54.8429457 L9.9639828,54.8429457 Z M14.1785567,57.0363944 C14.1650041,57.1305915 14.2192146,57.1911469 14.3073066,57.1911469 L14.9171749,57.1911469 C14.9781617,57.1911469 15.0323722,57.1373199 15.0391485,57.0902213 L15.4321747,54.540169 L15.4525036,54.540169 L16.6519111,57.1844185 C16.6722401,57.2247887 16.7061216,57.2584306 16.7671085,57.2584306 L16.8890821,57.2584306 C16.9500689,57.2584306 16.9907268,57.2247887 17.0042794,57.1844185 L18.1901343,54.540169 L18.2104633,54.540169 L18.6102658,57.0902213 C18.6238184,57.1373199 18.6780289,57.1911469 18.7390157,57.1911469 L19.3556602,57.1911469 C19.4437523,57.1911469 19.4979628,57.1305915 19.4776339,57.0363944 L18.6780289,52.5149296 C18.6712526,52.4611026 18.6305947,52.414004 18.5560552,52.414004 L18.4476342,52.414004 C18.3866474,52.414004 18.3527658,52.4409175 18.3324369,52.4812877 L16.8416479,55.6570785 L16.821319,55.6570785 L15.33053,52.4812877 C15.3102011,52.4409175 15.2695432,52.414004 15.2153327,52.414004 L15.1069116,52.414004 C15.0323722,52.414004 14.9917143,52.4611026 14.984938,52.5149296 L14.1785567,57.0363944 Z" id="LUNCH-ROOM" fill="#484848"></path>
                </g>
                <g id="Lobby" transform="translate(29.469558, 67.000000)">
                    <path d="M70.7827855,50.3270872 L0.194423098,50.3270872 L0.194423098,0.208806414 L49.9169929,0.208806414 L49.9169929,22.2792906 L70.7827855,22.2792906 L70.7827855,50.3270872 Z" id="Shape" stroke="#000000" fill="#EFF1F3"></path>
                    <text id="SUB-QUEUE" font-family="Brandon Grotesque" font-size="6.72142547" font-weight="bold" line-spacing="17" letter-spacing="-0.832692146" fill="#C9C9C9">
                        <tspan x="44.7027419" y="32.7056259">SUB </tspan>
                        <tspan x="44.7027419" y="49.7056259">QUEUE</tspan>
                    </text>
                    <text id="MAIN-LOBBY" font-family="Brandon Grotesque" font-size="6.72142547" font-weight="bold" line-spacing="17" letter-spacing="-0.832692146" fill="#C9C9C9">
                        <tspan x="4.65871557" y="32.7056259">MAIN </tspan>
                        <tspan x="4.65871557" y="49.7056259">LOBBY</tspan>
                    </text>
                </g>
                <rect id="lab_rect" stroke="#000000" fill="#EFF1F3" x="146.784486" y="163.720322" width="36.1818464" height="19.6501496"></rect>
                <path d="M152.906885,172.002946 C152.906885,172.070229 152.961096,172.130785 153.035635,172.130785 L153.659056,172.130785 C153.726819,172.130785 153.787806,172.070229 153.787806,172.002946 L153.787806,170.421779 L154.634845,170.421779 C155.461555,170.421779 156.145963,169.742213 156.145963,168.907895 C156.145963,168.093763 155.461555,167.420926 154.628069,167.420926 L153.035635,167.420926 C152.961096,167.420926 152.906885,167.481481 152.906885,167.548765 L152.906885,172.002946 Z M153.787806,169.600918 L153.787806,168.248515 L154.573858,168.248515 C154.953332,168.248515 155.271819,168.531107 155.271819,168.901167 C155.271819,169.298141 154.953332,169.600918 154.573858,169.600918 L153.787806,169.600918 Z M156.565801,172.002946 C156.565801,172.070229 156.626788,172.130785 156.694551,172.130785 L157.324749,172.130785 C157.399288,172.130785 157.453499,172.070229 157.453499,172.002946 L157.453499,170.145915 L159.662577,170.145915 L159.662577,172.002946 C159.662577,172.070229 159.716787,172.130785 159.791327,172.130785 L160.414748,172.130785 C160.482511,172.130785 160.543498,172.070229 160.543498,172.002946 L160.543498,167.548765 C160.543498,167.481481 160.482511,167.420926 160.414748,167.420926 L159.791327,167.420926 C159.716787,167.420926 159.662577,167.481481 159.662577,167.548765 L159.662577,169.331783 L157.453499,169.331783 L157.453499,167.548765 C157.453499,167.481481 157.399288,167.420926 157.324749,167.420926 L156.694551,167.420926 C156.626788,167.420926 156.565801,167.481481 156.565801,167.548765 L156.565801,172.002946 Z M162.332151,172.002946 C162.332151,172.070229 162.386362,172.130785 162.460901,172.130785 L163.084322,172.130785 C163.152085,172.130785 163.213072,172.070229 163.213072,172.002946 L163.213072,169.856596 L164.7784,167.616048 C164.832611,167.528579 164.7784,167.420926 164.669979,167.420926 L163.972019,167.420926 C163.917809,167.420926 163.883927,167.454567 163.863598,167.481481 L162.779388,169.029006 L161.695178,167.481481 C161.674849,167.454567 161.640967,167.420926 161.586757,167.420926 L160.895573,167.420926 C160.787152,167.420926 160.732941,167.528579 160.787152,167.616048 L162.332151,169.863324 L162.332151,172.002946 Z M164.778107,171.673256 C164.913633,171.801095 165.415081,172.198068 166.268896,172.198068 C167.224356,172.198068 167.827448,171.558873 167.827448,170.865851 C167.827448,169.997891 167.068501,169.607646 166.411199,169.345239 C165.862317,169.123203 165.611594,168.907895 165.611594,168.591662 C165.611594,168.376354 165.821659,168.120676 166.207909,168.120676 C166.580607,168.120676 167.095606,168.457095 167.149817,168.490736 C167.231133,168.544563 167.332777,168.490736 167.386988,168.409996 L167.644488,168.026479 C167.691922,167.959195 167.671593,167.844813 167.60383,167.804443 C167.468304,167.703517 166.939751,167.353642 166.248567,167.353642 C165.171133,167.353642 164.723897,168.046664 164.723897,168.645489 C164.723897,169.439437 165.36087,169.843139 165.997844,170.098817 C166.567054,170.327581 166.858435,170.563074 166.858435,170.906221 C166.858435,171.195541 166.594159,171.424306 166.241791,171.424306 C165.801331,171.424306 165.252449,171.027332 165.218568,171.007147 C165.157581,170.960048 165.042383,170.960048 164.988173,171.054245 L164.744226,171.471404 C164.683239,171.579058 164.71712,171.6127 164.778107,171.673256 L164.778107,171.673256 Z M168.342155,172.002946 C168.342155,172.070229 168.403142,172.130785 168.470905,172.130785 L169.101102,172.130785 C169.168865,172.130785 169.229852,172.070229 169.229852,172.002946 L169.229852,167.548765 C169.229852,167.481481 169.168865,167.420926 169.101102,167.420926 L168.470905,167.420926 C168.403142,167.420926 168.342155,167.481481 168.342155,167.548765 L168.342155,172.002946 Z M169.764888,169.782584 C169.764888,171.128258 170.855874,172.198068 172.211137,172.198068 C172.814229,172.198068 173.396992,171.989489 173.857781,171.545416 C173.905215,171.498318 173.918768,171.410849 173.864557,171.363751 L173.444426,170.933135 C173.403768,170.892765 173.329229,170.886036 173.275018,170.933135 C172.990413,171.161899 172.644821,171.316652 172.238242,171.316652 C171.370874,171.316652 170.720348,170.603445 170.720348,169.762398 C170.720348,168.914624 171.364098,168.194688 172.231466,168.194688 C172.610939,168.194688 172.990413,168.342712 173.275018,168.591662 C173.329229,168.645489 173.396992,168.645489 173.444426,168.591662 L173.857781,168.167775 C173.911992,168.113948 173.911992,168.033207 173.851005,167.97938 C173.390215,167.56895 172.895545,167.353642 172.211137,167.353642 C170.855874,167.353642 169.764888,168.436909 169.764888,169.782584 L169.764888,169.782584 Z M174.148869,171.673256 C174.284396,171.801095 174.785843,172.198068 175.639658,172.198068 C176.595119,172.198068 177.198211,171.558873 177.198211,170.865851 C177.198211,169.997891 176.439263,169.607646 175.781961,169.345239 C175.23308,169.123203 174.982356,168.907895 174.982356,168.591662 C174.982356,168.376354 175.192422,168.120676 175.578672,168.120676 C175.951369,168.120676 176.466369,168.457095 176.520579,168.490736 C176.601895,168.544563 176.70354,168.490736 176.75775,168.409996 L177.01525,168.026479 C177.062684,167.959195 177.042355,167.844813 176.974592,167.804443 C176.839066,167.703517 176.310513,167.353642 175.619329,167.353642 C174.541896,167.353642 174.094659,168.046664 174.094659,168.645489 C174.094659,169.439437 174.731632,169.843139 175.368606,170.098817 C175.937816,170.327581 176.229198,170.563074 176.229198,170.906221 C176.229198,171.195541 175.964921,171.424306 175.612553,171.424306 C175.172093,171.424306 174.623211,171.027332 174.58933,171.007147 C174.528343,170.960048 174.413146,170.960048 174.358935,171.054245 L174.114988,171.471404 C174.054001,171.579058 174.087883,171.6127 174.148869,171.673256 L174.148869,171.673256 Z M152.906885,179.151839 C152.906885,179.219123 152.961096,179.279678 153.035635,179.279678 L155.515766,179.279678 C155.590305,179.279678 155.644516,179.219123 155.644516,179.151839 L155.644516,178.600113 C155.644516,178.532829 155.590305,178.472274 155.515766,178.472274 L153.787806,178.472274 L153.787806,174.697658 C153.787806,174.630374 153.726819,174.569819 153.659056,174.569819 L153.035635,174.569819 C152.961096,174.569819 152.906885,174.630374 152.906885,174.697658 L152.906885,179.151839 Z M155.691657,179.279678 L156.281196,179.279678 C156.389617,179.279678 156.450604,179.212394 156.477709,179.145111 L156.809749,178.418447 L158.835866,178.418447 L159.167906,179.145111 C159.21534,179.239308 159.262774,179.279678 159.364419,179.279678 L159.953958,179.279678 C160.055603,179.279678 160.109813,179.192209 160.069156,179.10474 L157.982051,174.576547 C157.961722,174.536177 157.934617,174.502535 157.866854,174.502535 L157.799091,174.502535 C157.738104,174.502535 157.704222,174.536177 157.683893,174.576547 L155.57646,179.10474 C155.535802,179.192209 155.590012,179.279678 155.691657,179.279678 L155.691657,179.279678 Z M157.141788,177.671598 L157.805867,176.191356 L157.826196,176.191356 L158.503827,177.671598 L157.141788,177.671598 Z M160.333139,179.151839 C160.333139,179.219123 160.387349,179.279678 160.461889,179.279678 L162.101756,179.279678 C162.928467,179.279678 163.578993,178.73468 163.578993,177.981103 C163.578993,177.362093 163.057217,176.998761 162.698072,176.884378 C163.016559,176.736354 163.443467,176.332652 163.443467,175.814567 C163.443467,175.108089 162.820046,174.569819 162.013664,174.569819 L160.461889,174.569819 C160.387349,174.569819 160.333139,174.630374 160.333139,174.697658 L160.333139,179.151839 Z M161.207283,176.54796 L161.207283,175.370495 L161.932349,175.370495 C162.277941,175.370495 162.515112,175.605988 162.515112,175.942406 C162.515112,176.278825 162.277941,176.54796 161.932349,176.54796 L161.207283,176.54796 Z M161.207283,178.48573 L161.207283,177.28808 L161.945901,177.28808 C162.29827,177.28808 162.637085,177.53703 162.637085,177.873449 C162.637085,178.223324 162.366033,178.48573 162.027217,178.48573 L161.207283,178.48573 Z" id="PHYSICS-LAB" fill="#484848"></path>
            </g>
        </g>
    </g>
</svg>