<?xml version="1.0" encoding="UTF-8" standalone="no"?>
<svg width="166px" height="38px" viewBox="0 0 166 38" version="1.1" xmlns="http://www.w3.org/2000/svg" xmlns:xlink="http://www.w3.org/1999/xlink">
    <defs></defs>
    <g stroke="none" stroke-width="1" fill="none" fill-rule="evenodd">
        <g transform="translate(-101.000000, -430.000000)" fill="#FFFFFF">
            <path d="M102.526044,456.4 L102.526044,453.28 L102.142044,446.8 L101.902044,443.536 C101.806044,441.856 101.758044,440.896 101.710044,440.656 C101.710044,440.512 101.710044,440.224 101.662044,439.696 C101.614044,439.168 101.518044,438.592 101.470044,437.968 C101.326044,436.72 101.278044,434.896 101.470044,433.504 C101.614044,432.544 101.950044,431.536 102.910044,431.104 C105.406044,430.096 107.806044,431.968 109.774044,434.512 C113.038044,438.688 114.238044,442.576 114.862044,446.464 C115.582044,450.448 115.342044,454.864 114.046044,458.512 C112.750044,462.208 109.726044,465.52 105.454044,467.296 C104.830044,467.536 104.350044,467.392 103.918044,466.96 C103.534044,467.104 102.814044,467.056 102.382044,466.432 C102.142044,466.144 102.046044,465.808 102.094044,465.424 C102.334044,463.696 102.478044,461.392 102.526044,459.664 C102.574044,458.848 102.574044,457.744 102.526044,456.4 L102.526044,456.4 Z M104.686044,443.488 L104.926044,447.088 C104.974044,448.096 105.262044,452.512 105.262044,454.192 C105.262044,455.056 105.262044,456.16 105.310044,457.552 C105.358044,460.336 105.214044,462.4 105.022044,464.464 C109.054044,462.544 111.550044,458.944 112.222044,454.768 C112.894044,450.592 112.318044,446.032 110.734044,441.616 C110.110044,439.888 109.054044,438.112 107.566044,436.24 C106.750044,435.184 106.030044,434.416 105.358044,433.984 C104.926044,433.744 104.590044,433.6 104.302044,433.6 C104.254044,433.696 104.254044,433.792 104.206044,433.936 C104.062044,435.04 104.158044,436.672 104.254044,437.872 L104.398044,439.504 L104.494044,440.464 C104.494044,440.56 104.542044,441.568 104.686044,443.488 L104.686044,443.488 Z M131.623235,458.848 L132.295235,460.768 L132.967235,462.928 L133.687235,464.608 C134.023235,465.328 133.735235,466.144 133.063235,466.48 C132.391235,466.816 131.527235,466.48 131.191235,465.856 C130.615235,464.656 130.135235,463.312 129.607235,461.536 C129.319235,460.672 129.127235,460.048 129.031235,459.712 C128.599235,458.56 127.975235,456.928 127.111235,454.816 L125.623235,451.024 C124.759235,451.456 123.799235,451.84 122.743235,452.08 C122.791235,454.144 122.791235,455.824 122.839235,457.168 L122.935235,459.136 C122.983235,460.288 122.983235,461.104 122.983235,461.536 C122.983235,462.496 122.935235,464.56 122.599235,465.952 C122.455235,466.672 121.735235,467.2 121.015235,467.008 C120.247235,466.864 119.719235,466.144 119.911235,465.376 C120.103235,464.224 120.199235,462.4 120.199235,461.584 C120.199235,461.152 120.199235,460.384 120.151235,459.28 L120.055235,457.264 C120.007235,455.968 120.007235,453.472 119.959235,449.776 C119.911235,446.08 119.815235,443.2 119.719235,441.136 L119.575235,439.264 C119.335235,437.104 119.191235,435.184 119.239235,433.696 C119.383235,432.736 119.527235,431.68 120.439235,431.152 C120.919235,430.912 121.447235,430.864 122.071235,430.912 C122.167235,430.912 122.359235,430.912 122.599235,430.96 C122.743235,431.008 122.839235,431.008 122.887235,431.008 C130.327235,431.344 132.295235,440.992 129.991235,446.368 C129.511235,447.52 128.839235,448.528 127.975235,449.344 C128.263235,450.16 128.839235,451.6 129.751235,453.76 C130.615235,455.92 131.239235,457.648 131.623235,458.848 L131.623235,458.848 Z M122.215235,433.744 L122.071235,433.696 C122.023235,433.744 122.023235,433.84 122.023235,433.936 C121.975235,435.088 122.071235,436.864 122.311235,439.072 C122.455235,440.176 122.503235,440.848 122.503235,441.04 C122.599235,443.104 122.647235,445.84 122.695235,449.248 C127.351235,447.856 129.271235,443.776 127.399235,437.488 C126.679235,435.04 125.287235,433.936 122.791235,433.792 C122.647235,433.792 122.455235,433.792 122.215235,433.744 L122.215235,433.744 Z M141.184426,450.592 L140.992426,450.592 L141.232426,455.824 L141.232426,456.832 C141.184426,457.36 141.184426,457.984 141.136426,458.8 C141.088426,460.432 141.040426,462.304 141.040426,463.6 C141.088426,463.792 141.088426,463.936 141.088426,464.032 L141.136426,464.032 C142.144426,464.08 143.536426,464.08 145.456426,463.936 L147.088426,463.84 C147.856426,463.84 148.480426,464.464 148.480426,465.232 C148.480426,466 147.856426,466.624 147.088426,466.624 L145.504426,466.72 C143.728426,466.864 142.144426,466.864 140.944426,466.816 C140.176426,466.768 139.264426,466.624 138.736426,466 C138.400426,465.616 138.352426,465.184 138.352426,464.8 C138.304426,464.512 138.304426,464.128 138.256426,463.648 C138.256426,462.256 138.304426,460.336 138.352426,458.8 C138.400426,458.032 138.400426,457.408 138.448426,456.928 L138.448426,455.92 C138.448426,455.68 138.400426,454.144 138.256426,451.36 C138.016426,445.84 137.824426,440.8 137.872426,437.344 C137.872426,435.232 137.920426,433.744 138.256426,433.024 C139.024426,431.44 140.992426,431.056 142.912426,431.104 C144.352426,431.152 145.744426,431.392 147.040426,431.776 C147.808426,432.016 148.192426,432.784 148.000426,433.504 C147.760426,434.272 146.992426,434.656 146.272426,434.464 C145.168426,434.128 144.016426,433.936 142.816426,433.888 C142.144426,433.888 141.616426,433.936 141.184426,434.032 C140.944426,434.08 140.848426,434.176 140.800426,434.224 L140.800426,434.32 C140.752426,434.464 140.704426,434.656 140.704426,434.992 C140.656426,435.568 140.656426,436.336 140.656426,437.344 C140.608426,438.88 140.656426,441.136 140.752426,444.16 L140.896426,447.808 L140.992426,447.808 C143.584426,447.664 145.072426,447.568 145.504426,447.568 C146.272426,447.568 146.896426,448.192 146.896426,448.96 C146.896426,449.728 146.272426,450.352 145.504426,450.352 C145.168426,450.352 143.728426,450.448 141.184426,450.592 L141.184426,450.592 Z M151.129618,459.04 L150.937618,453.088 C150.745618,447.76 150.601618,443.824 150.601618,440.032 C150.601618,439.936 150.601618,439.36 150.553618,438.256 C150.505618,436.096 150.457618,434.464 150.793618,433.072 C151.321618,430.816 152.137618,430.432 154.201618,430.24 C158.761618,429.808 160.777618,433.264 161.401618,437.68 C162.025618,441.952 162.457618,448.432 162.697618,457.072 C162.745618,458.176 162.745618,459.136 162.697618,459.952 C162.649618,461.536 162.745618,463.6 162.985618,465.136 C163.129618,465.904 162.601618,466.624 161.833618,466.768 C161.065618,466.912 160.345618,466.384 160.201618,465.616 C159.961618,463.888 159.865618,461.536 159.913618,459.856 C159.961618,459.184 159.961618,458.272 159.913618,457.168 C159.865618,454.48 159.769618,452.368 159.721618,450.88 C159.097618,450.832 158.281618,450.784 157.177618,450.736 C155.545618,450.64 154.489618,450.592 154.009618,450.592 C153.865618,450.592 153.769618,450.592 153.625618,450.544 C153.769618,455.584 153.865618,458.416 153.913618,458.944 C154.057618,460.72 154.105618,463.648 153.577618,465.712 C153.385618,466.48 152.665618,466.912 151.897618,466.72 C151.129618,466.528 150.697618,465.808 150.889618,465.04 C151.273618,463.36 151.273618,461.104 151.129618,459.04 L151.129618,459.04 Z M153.529618,447.904 C153.673618,447.856 153.865618,447.808 154.009618,447.808 C155.401618,447.808 158.665618,448.048 159.577618,448.096 C159.385618,444.4 159.049618,441.088 158.617618,438.064 C158.089618,434.608 156.937618,432.784 154.489618,433.024 C154.057618,433.072 153.817618,433.072 153.721618,433.072 C153.625618,433.216 153.529618,433.408 153.481618,433.696 C153.289618,434.704 153.289618,435.904 153.337618,438.16 C153.385618,439.264 153.385618,439.888 153.385618,440.032 C153.385618,442.288 153.433618,444.88 153.529618,447.904 L153.529618,447.904 Z M173.026809,464.464 L173.026809,463.792 L172.258809,460.672 C171.874809,459.232 171.586809,458.128 171.442809,457.36 C170.722809,453.952 169.714809,449.872 168.418809,445.12 L168.658809,449.296 C169.042809,456.064 169.186809,461.44 169.042809,465.328 C169.042809,466.096 168.370809,466.672 167.602809,466.672 C166.834809,466.672 166.258809,466 166.258809,465.232 C166.402809,461.44 166.258809,456.16 165.874809,449.488 C165.442809,441.664 165.202809,436.48 165.202809,433.84 L164.914809,432.784 C164.722809,432.016 165.154809,431.248 165.922809,431.056 C166.642809,430.864 167.410809,431.296 167.602809,432.016 L167.842809,432.832 C167.938809,433.024 167.986809,433.216 167.986809,433.456 C168.226809,434.416 168.898809,436.768 170.002809,440.464 C172.114809,447.952 173.170809,452.032 174.130809,456.784 L174.706809,459.232 C174.754809,458.8 174.802809,458.416 174.850809,458.176 C175.762809,451.216 176.626809,445.552 177.346809,441.712 L179.122809,432.976 C179.170809,432.64 179.314809,432.4 179.554809,432.208 C179.794809,431.632 180.226809,431.344 180.850809,431.344 C181.618809,431.344 182.242809,431.968 182.242809,432.736 C182.242809,443.344 182.626809,454.144 183.346809,465.136 C183.394809,465.904 182.818809,466.576 182.050809,466.624 C181.282809,466.672 180.610809,466.096 180.562809,465.328 C180.130809,458.512 179.794809,451.696 179.602809,444.928 C178.834809,449.296 178.162809,453.808 177.634809,458.464 C177.394809,460.72 176.914809,463.312 176.578809,464.464 C176.386809,465.184 176.098809,465.568 175.858809,465.904 C175.138809,466.528 173.842809,466.528 173.266809,465.424 C173.122809,465.184 173.074809,464.848 173.026809,464.464 L173.026809,464.464 Z M209.189191,456.4 L209.189191,453.28 L208.805191,446.8 L208.565191,443.536 C208.469191,441.856 208.421191,440.896 208.373191,440.656 C208.373191,440.512 208.373191,440.224 208.325191,439.696 C208.277191,439.168 208.181191,438.592 208.133191,437.968 C207.989191,436.72 207.941191,434.896 208.133191,433.504 C208.277191,432.544 208.613191,431.536 209.573191,431.104 C212.069191,430.096 214.469191,431.968 216.437191,434.512 C219.701191,438.688 220.901191,442.576 221.525191,446.464 C222.245191,450.448 222.005191,454.864 220.709191,458.512 C219.413191,462.208 216.389191,465.52 212.117191,467.296 C211.493191,467.536 211.013191,467.392 210.581191,466.96 C210.197191,467.104 209.477191,467.056 209.045191,466.432 C208.805191,466.144 208.709191,465.808 208.757191,465.424 C208.997191,463.696 209.141191,461.392 209.189191,459.664 C209.237191,458.848 209.237191,457.744 209.189191,456.4 L209.189191,456.4 Z M211.349191,443.488 L211.589191,447.088 C211.637191,448.096 211.925191,452.512 211.925191,454.192 C211.925191,455.056 211.925191,456.16 211.973191,457.552 C212.021191,460.336 211.877191,462.4 211.685191,464.464 C215.717191,462.544 218.213191,458.944 218.885191,454.768 C219.557191,450.592 218.981191,446.032 217.397191,441.616 C216.773191,439.888 215.717191,438.112 214.229191,436.24 C213.413191,435.184 212.693191,434.416 212.021191,433.984 C211.589191,433.744 211.253191,433.6 210.965191,433.6 C210.917191,433.696 210.917191,433.792 210.869191,433.936 C210.725191,435.04 210.821191,436.672 210.917191,437.872 L211.061191,439.504 L211.157191,440.464 C211.157191,440.56 211.205191,441.568 211.349191,443.488 L211.349191,443.488 Z M224.558382,459.04 L224.366382,453.088 C224.174382,447.76 224.030382,443.824 224.030382,440.032 C224.030382,439.936 224.030382,439.36 223.982382,438.256 C223.934382,436.096 223.886382,434.464 224.222382,433.072 C224.750382,430.816 225.566382,430.432 227.630382,430.24 C232.190382,429.808 234.206382,433.264 234.830382,437.68 C235.454382,441.952 235.886382,448.432 236.126382,457.072 C236.174382,458.176 236.174382,459.136 236.126382,459.952 C236.078382,461.536 236.174382,463.6 236.414382,465.136 C236.558382,465.904 236.030382,466.624 235.262382,466.768 C234.494382,466.912 233.774382,466.384 233.630382,465.616 C233.390382,463.888 233.294382,461.536 233.342382,459.856 C233.390382,459.184 233.390382,458.272 233.342382,457.168 C233.294382,454.48 233.198382,452.368 233.150382,450.88 C232.526382,450.832 231.710382,450.784 230.606382,450.736 C228.974382,450.64 227.918382,450.592 227.438382,450.592 C227.294382,450.592 227.198382,450.592 227.054382,450.544 C227.198382,455.584 227.294382,458.416 227.342382,458.944 C227.486382,460.72 227.534382,463.648 227.006382,465.712 C226.814382,466.48 226.094382,466.912 225.326382,466.72 C224.558382,466.528 224.126382,465.808 224.318382,465.04 C224.702382,463.36 224.702382,461.104 224.558382,459.04 L224.558382,459.04 Z M226.958382,447.904 C227.102382,447.856 227.294382,447.808 227.438382,447.808 C228.830382,447.808 232.094382,448.048 233.006382,448.096 C232.814382,444.4 232.478382,441.088 232.046382,438.064 C231.518382,434.608 230.366382,432.784 227.918382,433.024 C227.486382,433.072 227.246382,433.072 227.150382,433.072 C227.054382,433.216 226.958382,433.408 226.910382,433.696 C226.718382,434.704 226.718382,435.904 226.766382,438.16 C226.814382,439.264 226.814382,439.888 226.814382,440.032 C226.814382,442.288 226.862382,444.88 226.958382,447.904 L226.958382,447.904 Z M239.351574,431.584 C240.551574,431.584 242.327574,431.44 244.727574,431.2 C247.175574,430.912 249.047574,430.768 250.343574,430.768 C251.111574,430.768 251.735574,431.392 251.735574,432.16 C251.735574,432.928 251.111574,433.552 250.343574,433.552 C249.191574,433.552 247.655574,433.648 245.687574,433.888 C245.687574,437.2 245.783574,442.288 245.975574,449.152 C246.167574,456.016 246.263574,461.248 246.263574,464.8 C246.263574,465.568 245.639574,466.192 244.871574,466.192 C244.103574,466.192 243.479574,465.568 243.479574,464.8 C243.479574,461.248 243.383574,456.064 243.239574,449.248 C243.047574,442.432 242.951574,437.392 242.903574,434.176 C241.559574,434.32 240.359574,434.368 239.351574,434.368 C238.583574,434.368 237.959574,433.744 237.959574,432.976 C237.959574,432.208 238.583574,431.584 239.351574,431.584 L239.351574,431.584 Z M259.088765,450.592 L258.896765,450.592 L259.136765,455.824 L259.136765,456.832 C259.088765,457.36 259.088765,457.984 259.040765,458.8 C258.992765,460.432 258.944765,462.304 258.944765,463.6 C258.992765,463.792 258.992765,463.936 258.992765,464.032 L259.040765,464.032 C260.048765,464.08 261.440765,464.08 263.360765,463.936 L264.992765,463.84 C265.760765,463.84 266.384765,464.464 266.384765,465.232 C266.384765,466 265.760765,466.624 264.992765,466.624 L263.408765,466.72 C261.632765,466.864 260.048765,466.864 258.848765,466.816 C258.080765,466.768 257.168765,466.624 256.640765,466 C256.304765,465.616 256.256765,465.184 256.256765,464.8 C256.208765,464.512 256.208765,464.128 256.160765,463.648 C256.160765,462.256 256.208765,460.336 256.256765,458.8 C256.304765,458.032 256.304765,457.408 256.352765,456.928 L256.352765,455.92 C256.352765,455.68 256.304765,454.144 256.160765,451.36 C255.920765,445.84 255.728765,440.8 255.776765,437.344 C255.776765,435.232 255.824765,433.744 256.160765,433.024 C256.928765,431.44 258.896765,431.056 260.816765,431.104 C262.256765,431.152 263.648765,431.392 264.944765,431.776 C265.712765,432.016 266.096765,432.784 265.904765,433.504 C265.664765,434.272 264.896765,434.656 264.176765,434.464 C263.072765,434.128 261.920765,433.936 260.720765,433.888 C260.048765,433.888 259.520765,433.936 259.088765,434.032 C258.848765,434.08 258.752765,434.176 258.704765,434.224 L258.704765,434.32 C258.656765,434.464 258.608765,434.656 258.608765,434.992 C258.560765,435.568 258.560765,436.336 258.560765,437.344 C258.512765,438.88 258.560765,441.136 258.656765,444.16 L258.800765,447.808 L258.896765,447.808 C261.488765,447.664 262.976765,447.568 263.408765,447.568 C264.176765,447.568 264.800765,448.192 264.800765,448.96 C264.800765,449.728 264.176765,450.352 263.408765,450.352 C263.072765,450.352 261.632765,450.448 259.088765,450.592 L259.088765,450.592 Z"></path>
        </g>
    </g>
</svg>