<?xml version="1.0" encoding="UTF-8" standalone="no"?>
<svg width="1016px" height="1016px" viewBox="0 0 1016 1016" version="1.1" xmlns="http://www.w3.org/2000/svg" xmlns:xlink="http://www.w3.org/1999/xlink" xmlns:sketch="http://www.bohemiancoding.com/sketch/ns">
    <!-- Generator: Sketch 3.5.1 (25234) - http://www.bohemiancoding.com/sketch -->
    <title>Map Branded</title>
    <desc>Created with Sketch.</desc>
    <defs></defs>
    <g id="Page-1" stroke="none" stroke-width="1" fill="none" fill-rule="evenodd" sketch:type="MSPage">
        <g id="Map-Branded" sketch:type="MSArtboardGroup">
            <rect id="Rectangle-path" stroke="#000000" fill="#EFF1F3" sketch:type="MSShapeGroup" x="277.467571" y="37.1881095" width="209.384927" height="121.811263"></rect>
            <rect id="Rectangle-path" stroke="#000000" fill="#EFF1F3" sketch:type="MSShapeGroup" x="277.467571" y="158.999372" width="65.5129788" height="42.5285656"></rect>
            <rect id="Rectangle-path" stroke="#000000" fill="#EFF1F3" sketch:type="MSShapeGroup" x="342.98055" y="158.999372" width="86.4785156" height="42.5285656"></rect>
            <rect id="Rectangle-path" stroke="#000000" fill="#EFF1F3" sketch:type="MSShapeGroup" x="277.467571" y="201.527938" width="151.991494" height="176.41164"></rect>
            <rect id="Rectangle-path" stroke="#000000" fill="#142314" sketch:type="MSShapeGroup" x="298.433108" y="484.503562" width="45.5977628" height="25.7502589"></rect>
            <path d="M123.664745,503.68237 C123.664745,461.601142 157.718412,427.483782 199.728102,427.483782 C227.372925,427.483782 251.574331,442.25537 264.892022,464.354473 L264.892022,404.187579 L298.436252,404.187579 L344.034015,404.187579 L344.034015,484.497262 L298.436252,484.497262 L298.436252,510.247521 L399.590958,510.247521 L399.590958,377.936428 L115.516896,377.936428 L115.516896,569.053501 L160.627234,569.053501 C138.482445,555.737335 123.664745,531.445648 123.664745,503.68237 L123.664745,503.68237 Z" id="Shape" stroke="#000000" fill="#EFF1F3" sketch:type="MSShapeGroup"></path>
            <rect id="Rectangle-path" stroke="#000000" fill="#EFF1F3" sketch:type="MSShapeGroup" x="344.03087" y="414.690559" width="85.4281947" height="95.5601118"></rect>
            <rect id="Rectangle-path" stroke="#000000" fill="#EFF1F3" sketch:type="MSShapeGroup" x="298.433108" y="404.190729" width="45.5977628" height="80.3096832"></rect>
            <path d="M265.233567,463.883292 C251.91902,441.777889 227.711325,427 200.063358,427 C158.056812,427 124,461.11421 124,503.198588 C124,530.958716 138.817701,555.250403 160.96249,568.572869 L265.233567,568.572869 L265.233567,463.883292 L265.233567,463.883292 Z" id="Shape" stroke="#000000" fill="#EFF1F3" sketch:type="MSShapeGroup"></path>
            <rect id="Rectangle-path" stroke="#000000" fill="#EFF1F3" sketch:type="MSShapeGroup" x="298.433108" y="484.503562" width="45.5977628" height="25.7502589"></rect>
            <rect id="Rectangle-path" stroke="#000000" fill="#EFF1F3" sketch:type="MSShapeGroup" x="596.129895" y="525.97994" width="110.063565" height="394.309109"></rect>
            <rect id="Rectangle-path" stroke="#000000" fill="#EFF1F3" sketch:type="MSShapeGroup" x="527" y="593" width="69.1828125" height="78.2305088"></rect>
            <rect id="Rectangle-path" stroke="#000000" fill="#EFF1F3" sketch:type="MSShapeGroup" x="490.255034" y="795.856766" width="74.953288" height="124.432282"></rect>
            <rect id="Rectangle-path" stroke="#000000" fill="#EFF1F3" sketch:type="MSShapeGroup" x="565.208322" y="833.659936" width="30.9215725" height="86.629113"></rect>
            <rect id="Rectangle-path" stroke="#000000" fill="#EFF1F3" sketch:type="MSShapeGroup" x="490.255034" y="920.289049" width="65.5161234" height="40.4430908"></rect>
            <rect id="Rectangle-path" stroke="#000000" fill="#EFF1F3" sketch:type="MSShapeGroup" x="421.2326" y="882.832408" width="36.528525" height="77.9028814"></rect>
            <rect id="Rectangle-path" stroke="#000000" fill="#EFF1F3" sketch:type="MSShapeGroup" x="706.19346" y="800.185229" width="35.6385825" height="74.1666681"></rect>
            <rect id="Rectangle-path" stroke="#000000" fill="#EFF1F3" sketch:type="MSShapeGroup" x="706" y="703" width="85.4313394" height="46.7278677"></rect>
            <rect id="Rectangle-path" stroke="#000000" fill="#EFF1F3" sketch:type="MSShapeGroup" x="706" y="657" width="85.4313394" height="46.7278677"></rect>
            <rect id="Rectangle-path" stroke="#000000" fill="#EFF1F3" sketch:type="MSShapeGroup" x="706.19346" y="583.078477" width="31.0536488" height="38.9845185"></rect>
            <path d="M596.129895,839.424919 L596.129895,670.907841 L526.947082,670.907841 L526.947082,592.677332 L498.645022,592.677332 L498.645022,624.706067 L490.255034,624.706067 L490.255034,795.856766 L565.208322,795.856766 L565.208322,839.424919 L596.129895,839.424919 Z" id="Shape" stroke="#000000" fill="#EFF1F3" sketch:type="MSShapeGroup"></path>
            <path d="M298.433108,404.190729 L298.433108,510.250671 L429.459065,510.250671 L429.459065,569.056651 L264.895167,569.056651 L264.895167,404.190729 L298.433108,404.190729 Z" id="Shape" stroke="#000000" fill="#EFF1F3" sketch:type="MSShapeGroup"></path>
            <path d="M486.852497,473.49654 L429.459065,473.49654 L429.459065,414.690559 L399.587814,414.690559 L399.587814,377.939578 L429.459065,377.939578 L429.459065,158.999372 L486.852497,158.999372 L486.852497,473.49654 Z" id="Shape" stroke="#000000" fill="#EFF1F3" sketch:type="MSShapeGroup"></path>
            <path d="M596.129895,592.677332 L429.459065,592.677332 L429.459065,473.49654 L546.862298,473.49654 L546.862298,525.97994 L596.129895,525.97994 L596.129895,592.677332 Z" id="Shape" stroke="#000000" fill="#EFF1F3" sketch:type="MSShapeGroup"></path>
            <path d="M457.761125,592.677332 L498.645022,592.677332 L498.645022,624.706067 L490.255034,624.706067 L490.255034,960.73214 L457.761125,960.73214 L457.761125,592.677332 Z" id="Shape" stroke="#000000" fill="#EFF1F3" sketch:type="MSShapeGroup"></path>
            <ellipse id="Oval" stroke="#000000" fill="#EFF1F3" sketch:type="MSShapeGroup" cx="543.582404" cy="733.894221" rx="47.9562678" ry="48.0415278"></ellipse>
            <g id="Group" sketch:type="MSLayerGroup" transform="translate(275.376363, 416.246790)">
                <ellipse id="Oval" stroke="#000000" stroke-width="0.5" fill="#FF5D73" sketch:type="MSShapeGroup" cx="24.7611575" cy="24.9563923" rx="23.9561212" ry="23.9987121"></ellipse>
                <g transform="translate(4.144673, 10.450792)" stroke="#484848" stroke-width="0.25" fill="#484848" sketch:type="MSShapeGroup">
                    <ellipse id="Oval" cx="9.18245213" cy="3.19300154" rx="3.16354134" ry="3.1691657"></ellipse>
                    <path d="M9.75792734,30.2506201 C9.75792734,30.9814813 10.223339,31.5800315 10.7988142,31.5800315 L10.7988142,31.5800315 C11.3742894,31.5800315 11.8365564,30.9846316 11.8397011,30.2506201 L11.8397011,15.8728146 C11.8397011,15.1388031 11.3742894,14.5434032 10.7988142,14.5434032 L10.7988142,14.5434032 C10.223339,14.5434032 9.75792734,15.1356528 9.75792734,15.8728146 L9.75792734,30.2506201 L9.75792734,30.2506201 Z" id="Shape"></path>
                    <path d="M6.64784546,30.2506201 C6.64784546,30.9783311 7.11640178,31.5768812 7.68873232,31.5800315 L7.68873232,31.5800315 C8.26106286,31.5800315 8.72961918,30.9846316 8.72961918,30.2506201 L8.72961918,15.8728146 C8.72961918,15.1388031 8.26420753,14.5434032 7.68873232,14.5434032 L7.68873232,14.5434032 C7.11640178,14.5402529 6.64784546,15.1356528 6.64784546,15.8728146 L6.64784546,30.2506201 L6.64784546,30.2506201 Z" id="Shape"></path>
                    <path d="M15.2076462,22.699437 C14.5504094,22.9829607 11.4151702,23.1593755 10.9025884,23.1593755 L8.94345696,23.1593755 L6.98747017,23.1593755 C6.51891385,23.1593755 3.67612919,23.0585671 3.2861897,22.8695512 C3.15411342,22.8065459 4.58808445,17.3534388 5.24532117,14.852129 C5.27047855,14.7513206 2.61008494,14.5150508 2.62580831,14.4079418 C3.16983679,11.226175 4.73273942,7.7356824 4.852237,7.7356824 L13.0063749,7.7356824 C13.1353065,7.7356824 15.2170802,10.8890968 15.7359513,14.0173091 C15.74853,14.1023662 13.0441109,14.4331439 13.062979,14.5150508 C14.0787085,18.7364047 15.3177097,22.652183 15.2076462,22.699437 L15.2076462,22.699437 Z" id="Shape"></path>
                    <path d="M0.924540057,17.7850249 C0.682400213,18.4686323 0.911961364,19.2246956 1.4371218,19.479867 L1.4371218,19.479867 C1.96228224,19.7255876 2.58807223,19.3759083 2.83021207,18.6860005 L6.48746712,8.3594347 C6.72960696,7.67267712 5.60066925,7.69472897 4.7233054,7.77033531 L0.924540057,17.7850249 L0.924540057,17.7850249 Z" id="Shape"></path>
                    <path d="M17.4372195,17.8322789 C17.6793594,18.5158862 17.4497982,19.2719496 16.9214931,19.527121 L16.9214931,19.527121 C16.3963327,19.7728416 15.7736874,19.4231623 15.5315475,18.7332544 L11.8711478,8.40668866 C11.629008,7.71993108 12.7202096,7.63487395 13.5944288,7.71048029 L17.4372195,17.8322789 L17.4372195,17.8322789 Z" id="Shape"></path>
                </g>
                <g transform="translate(30.302060, 9.450792)" stroke="#484848" stroke-width="0.2" sketch:type="MSShapeGroup" fill="#484848">
                    <path d="M2.94028175,30.5953651 C2.94028175,31.3293767 3.4056934,31.9216263 3.98116861,31.9216263 L3.98116861,31.9216263 C4.55349915,31.9216263 5.0189108,31.3293767 5.0189108,30.5922149 L5.0189108,16.2175597 C5.0189108,15.4866984 4.55349915,14.884998 3.98116861,14.884998 L3.98116861,14.884998 C3.4056934,14.884998 2.94028175,15.4835481 2.94028175,16.2238602 L2.94028175,30.5953651 L2.94028175,30.5953651 Z" id="Shape"></path>
                    <path d="M5.99061484,30.5953651 C5.99061484,31.3293767 6.45602649,31.9216263 7.03150171,31.9216263 L7.03150171,31.9216263 C7.60697692,31.9216263 8.07238857,31.3293767 8.07238857,30.5922149 L8.07238857,16.2175597 C8.07238857,15.4866984 7.60697692,14.884998 7.03150171,14.884998 L7.03150171,14.884998 C6.45602649,14.884998 5.99061484,15.4835481 5.99061484,16.2238602 L5.99061484,30.5953651 L5.99061484,30.5953651 Z" id="Shape"></path>
                    <path d="M9.16673487,14.7337853 L1.44027259,14.7337853 L2.50631683,8.26944331 L8.07238857,8.23794067 L9.16673487,14.7337853 Z" id="Shape"></path>
                    <rect id="Rectangle-path" x="2.94028175" y="13.1050987" width="5.12896215" height="9.47599447"></rect>
                    <ellipse id="Oval" cx="5.50633516" cy="4.13629679" rx="3.16354134" ry="3.1691657"></ellipse>
                    <path d="M9.9403245,20.5554734 C9.36484929,20.5554734 8.89943764,19.9600735 8.89943764,19.2229116 L8.50635349,10.0895272 C8.50635349,9.3618162 6.92476637,8.7356824 8.10087418,8.23479041 L9.1635902,8.23479041 C9.73906541,8.23479041 10.8176884,10.4305245 10.8145437,11.164536 L10.9812114,19.2229116 C10.9780667,19.9569232 10.5157997,20.5554734 9.9403245,20.5554734 Z" id="Shape"></path>
                    <path d="M0.031458949,19.2229116 C0.031458949,19.9569232 0.496870597,20.5554734 1.07234581,20.5554734 L1.07234581,20.5554734 C1.64467635,20.5554734 2.110088,19.9600735 2.11323267,19.2229116 L2.11323267,9.99893831 C2.11323267,9.2712273 3.67927997,8.56556814 2.50631683,8.26944331 L1.72958253,8.23479041 C1.15096264,8.23479041 0.191837287,10.4305245 0.191837287,11.164536 L0.031458949,19.2229116 L0.031458949,19.2229116 Z" id="Shape"></path>
                </g>
                <path d="M24.7611575,6.84867419 L24.7611575,43.0672608" id="Shape" stroke="#484848" stroke-width="0.5" sketch:type="MSShapeGroup"></path>
            </g>
            <g id="Group" sketch:type="MSLayerGroup" transform="translate(361.000000, 138.000000)">
                <ellipse id="Oval" stroke="#000000" stroke-width="0.5" fill="#FF5D73" sketch:type="MSShapeGroup" cx="24.7611575" cy="24.9563923" rx="23.9561212" ry="23.9987121"></ellipse>
                <g transform="translate(4.144673, 10.450792)" stroke="#484848" stroke-width="0.25" fill="#484848" sketch:type="MSShapeGroup">
                    <ellipse id="Oval" cx="9.18245213" cy="3.19300154" rx="3.16354134" ry="3.1691657"></ellipse>
                    <path d="M9.75792734,30.2506201 C9.75792734,30.9814813 10.223339,31.5800315 10.7988142,31.5800315 L10.7988142,31.5800315 C11.3742894,31.5800315 11.8365564,30.9846316 11.8397011,30.2506201 L11.8397011,15.8728146 C11.8397011,15.1388031 11.3742894,14.5434032 10.7988142,14.5434032 L10.7988142,14.5434032 C10.223339,14.5434032 9.75792734,15.1356528 9.75792734,15.8728146 L9.75792734,30.2506201 L9.75792734,30.2506201 Z" id="Shape"></path>
                    <path d="M6.64784546,30.2506201 C6.64784546,30.9783311 7.11640178,31.5768812 7.68873232,31.5800315 L7.68873232,31.5800315 C8.26106286,31.5800315 8.72961918,30.9846316 8.72961918,30.2506201 L8.72961918,15.8728146 C8.72961918,15.1388031 8.26420753,14.5434032 7.68873232,14.5434032 L7.68873232,14.5434032 C7.11640178,14.5402529 6.64784546,15.1356528 6.64784546,15.8728146 L6.64784546,30.2506201 L6.64784546,30.2506201 Z" id="Shape"></path>
                    <path d="M15.2076462,22.699437 C14.5504094,22.9829607 11.4151702,23.1593755 10.9025884,23.1593755 L8.94345696,23.1593755 L6.98747017,23.1593755 C6.51891385,23.1593755 3.67612919,23.0585671 3.2861897,22.8695512 C3.15411342,22.8065459 4.58808445,17.3534388 5.24532117,14.852129 C5.27047855,14.7513206 2.61008494,14.5150508 2.62580831,14.4079418 C3.16983679,11.226175 4.73273942,7.7356824 4.852237,7.7356824 L13.0063749,7.7356824 C13.1353065,7.7356824 15.2170802,10.8890968 15.7359513,14.0173091 C15.74853,14.1023662 13.0441109,14.4331439 13.062979,14.5150508 C14.0787085,18.7364047 15.3177097,22.652183 15.2076462,22.699437 L15.2076462,22.699437 Z" id="Shape"></path>
                    <path d="M0.924540057,17.7850249 C0.682400213,18.4686323 0.911961364,19.2246956 1.4371218,19.479867 L1.4371218,19.479867 C1.96228224,19.7255876 2.58807223,19.3759083 2.83021207,18.6860005 L6.48746712,8.3594347 C6.72960696,7.67267712 5.60066925,7.69472897 4.7233054,7.77033531 L0.924540057,17.7850249 L0.924540057,17.7850249 Z" id="Shape"></path>
                    <path d="M17.4372195,17.8322789 C17.6793594,18.5158862 17.4497982,19.2719496 16.9214931,19.527121 L16.9214931,19.527121 C16.3963327,19.7728416 15.7736874,19.4231623 15.5315475,18.7332544 L11.8711478,8.40668866 C11.629008,7.71993108 12.7202096,7.63487395 13.5944288,7.71048029 L17.4372195,17.8322789 L17.4372195,17.8322789 Z" id="Shape"></path>
                </g>
                <g transform="translate(30.302060, 9.450792)" stroke="#484848" stroke-width="0.2" sketch:type="MSShapeGroup" fill="#484848">
                    <path d="M2.94028175,30.5953651 C2.94028175,31.3293767 3.4056934,31.9216263 3.98116861,31.9216263 L3.98116861,31.9216263 C4.55349915,31.9216263 5.0189108,31.3293767 5.0189108,30.5922149 L5.0189108,16.2175597 C5.0189108,15.4866984 4.55349915,14.884998 3.98116861,14.884998 L3.98116861,14.884998 C3.4056934,14.884998 2.94028175,15.4835481 2.94028175,16.2238602 L2.94028175,30.5953651 L2.94028175,30.5953651 Z" id="Shape"></path>
                    <path d="M5.99061484,30.5953651 C5.99061484,31.3293767 6.45602649,31.9216263 7.03150171,31.9216263 L7.03150171,31.9216263 C7.60697692,31.9216263 8.07238857,31.3293767 8.07238857,30.5922149 L8.07238857,16.2175597 C8.07238857,15.4866984 7.60697692,14.884998 7.03150171,14.884998 L7.03150171,14.884998 C6.45602649,14.884998 5.99061484,15.4835481 5.99061484,16.2238602 L5.99061484,30.5953651 L5.99061484,30.5953651 Z" id="Shape"></path>
                    <path d="M9.16673487,14.7337853 L1.44027259,14.7337853 L2.50631683,8.26944331 L8.07238857,8.23794067 L9.16673487,14.7337853 Z" id="Shape"></path>
                    <rect id="Rectangle-path" x="2.94028175" y="13.1050987" width="5.12896215" height="9.47599447"></rect>
                    <ellipse id="Oval" cx="5.50633516" cy="4.13629679" rx="3.16354134" ry="3.1691657"></ellipse>
                    <path d="M9.9403245,20.5554734 C9.36484929,20.5554734 8.89943764,19.9600735 8.89943764,19.2229116 L8.50635349,10.0895272 C8.50635349,9.3618162 6.92476637,8.7356824 8.10087418,8.23479041 L9.1635902,8.23479041 C9.73906541,8.23479041 10.8176884,10.4305245 10.8145437,11.164536 L10.9812114,19.2229116 C10.9780667,19.9569232 10.5157997,20.5554734 9.9403245,20.5554734 Z" id="Shape"></path>
                    <path d="M0.031458949,19.2229116 C0.031458949,19.9569232 0.496870597,20.5554734 1.07234581,20.5554734 L1.07234581,20.5554734 C1.64467635,20.5554734 2.110088,19.9600735 2.11323267,19.2229116 L2.11323267,9.99893831 C2.11323267,9.2712273 3.67927997,8.56556814 2.50631683,8.26944331 L1.72958253,8.23479041 C1.15096264,8.23479041 0.191837287,10.4305245 0.191837287,11.164536 L0.031458949,19.2229116 L0.031458949,19.2229116 Z" id="Shape"></path>
                </g>
                <path d="M24.7611575,6.84867419 L24.7611575,43.0672608" id="Shape" stroke="#484848" stroke-width="0.5" sketch:type="MSShapeGroup"></path>
            </g>
            <g id="Group" sketch:type="MSLayerGroup" transform="translate(688.328565, 813.029805)">
                <ellipse id="Oval" stroke="#000000" stroke-width="0.5" fill="#FF5D73" sketch:type="MSShapeGroup" cx="24.2831733" cy="24.0576185" rx="23.9529765" ry="23.9955618"></ellipse>
                <g transform="translate(4.144673, 9.450792)" stroke="#484848" stroke-width="0.25" fill="#484848" sketch:type="MSShapeGroup">
                    <ellipse id="Oval" cx="8.7044679" cy="3.29422771" rx="3.16668601" ry="3.17231597"></ellipse>
                    <path d="M9.27994311,30.3518462 C9.27994311,31.0827075 9.74535476,31.6812577 10.32083,31.6812577 L10.32083,31.6812577 C10.8963052,31.6812577 11.3585722,31.0858578 11.3617168,30.3518462 L11.3617168,15.9740408 C11.3617168,15.2400292 10.8963052,14.6446293 10.32083,14.6446293 L10.32083,14.6446293 C9.74535476,14.6446293 9.27994311,15.236879 9.27994311,15.9740408 L9.27994311,30.3518462 L9.27994311,30.3518462 Z" id="Shape"></path>
                    <path d="M6.16986122,30.3518462 C6.16986122,31.0795572 6.63841754,31.6781074 7.21074808,31.6812577 L7.21074808,31.6812577 C7.78307862,31.6812577 8.24849027,31.0858578 8.24849027,30.3518462 L8.24849027,15.9740408 C8.24849027,15.2400292 7.78307862,14.6446293 7.21074808,14.6446293 L7.21074808,14.6446293 C6.63841754,14.6414791 6.16986122,15.236879 6.1730059,15.9740408 L6.16986122,30.3518462 L6.16986122,30.3518462 Z" id="Shape"></path>
                    <path d="M14.7296619,22.8006631 C14.0724252,23.0841869 10.9371859,23.2606017 10.4277489,23.2606017 L8.4686174,23.2606017 L6.50948594,23.2606017 C6.04407429,23.2606017 3.19814496,23.1597932 2.80820547,22.9707774 C2.67612919,22.9077721 4.10695554,17.4546649 4.76419226,14.9533552 C4.79249432,14.8525468 2.12895604,14.6162769 2.14782408,14.509168 C2.69185256,11.3274012 4.25475519,7.83690857 4.3711081,7.83690857 L12.5283906,7.83690857 C12.6573222,7.83690857 14.7359513,10.9903229 15.2548224,14.1185352 C15.2705457,14.2035924 12.5661267,14.5343701 12.5818501,14.6162769 C13.6038689,18.8376309 14.8397255,22.7534092 14.7296619,22.8006631 L14.7296619,22.8006631 Z" id="Shape"></path>
                    <path d="M0.446555824,17.8862511 C0.207560654,18.5698584 0.433977131,19.3259218 0.959137571,19.5810932 L0.959137571,19.5810932 C1.48429801,19.8268138 2.110088,19.4771345 2.35222784,18.7872266 L6.00948288,8.46066086 C6.25162273,7.77390328 5.12268501,7.79595513 4.24532117,7.87156147 L0.446555824,17.8862511 L0.446555824,17.8862511 Z" id="Shape"></path>
                    <path d="M16.9592353,17.9335051 C17.2013751,18.6171124 16.971814,19.3731758 16.4466536,19.6283472 L16.4466536,19.6283472 C15.9183484,19.8740678 15.2988478,19.5243884 15.0535633,18.8344806 L11.3931636,8.50791482 C11.1541684,7.82115725 12.24537,7.73610012 13.1195892,7.81170645 L16.9592353,17.9335051 L16.9592353,17.9335051 Z" id="Shape"></path>
                </g>
                <g transform="translate(29.302060, 9.450792)" stroke="#484848" stroke-width="0.2" sketch:type="MSShapeGroup" fill="#484848">
                    <path d="M3.46229751,29.6965913 C3.46229751,30.4306028 3.92770916,31.0228525 4.50318438,31.0228525 L4.50318438,31.0228525 C5.07865959,31.0228525 5.54092656,30.4306028 5.54092656,29.693441 L5.54092656,15.3187858 C5.54092656,14.5879246 5.07865959,13.9862241 4.50318438,13.9862241 L4.50318438,13.9862241 C3.92770916,13.9862241 3.46229751,14.5847743 3.46229751,15.3250864 L3.46229751,29.6965913 L3.46229751,29.6965913 Z" id="Shape"></path>
                    <path d="M6.51263061,29.6965913 C6.51263061,30.4306028 6.97804226,31.0228525 7.55351747,31.0228525 L7.55351747,31.0228525 C8.12899269,31.0228525 8.59125966,30.4306028 8.59125966,29.693441 L8.59125966,15.3187858 C8.59125966,14.5879246 8.12899269,13.9862241 7.55351747,13.9862241 L7.55351747,13.9862241 C6.97804226,13.9862241 6.51263061,14.5847743 6.51263061,15.3250864 L6.51263061,29.6965913 L6.51263061,29.6965913 Z" id="Shape"></path>
                    <path d="M9.68875064,13.8350114 L1.96543303,13.8350114 L3.0283326,7.37066948 L8.59125966,7.33916684 L9.68875064,13.8350114 Z" id="Shape"></path>
                    <rect id="Rectangle-path" x="3.46229751" y="12.2063249" width="5.12896215" height="9.47599447"></rect>
                    <ellipse id="Oval" cx="6.02835092" cy="3.23752295" rx="3.16354134" ry="3.1691657"></ellipse>
                    <path d="M10.4623403,19.6566995 C9.88686506,19.6566995 9.42145341,19.0612996 9.42145341,18.3241378 L9.02836926,9.11583856 C9.02836926,8.38812755 7.85540611,7.87156147 9.02836925,7.37066948 L9.68875064,7.33601657 C10.2642259,7.33601657 11.3428488,9.53175066 11.3397041,10.2657622 L11.5032271,18.3241378 C11.5000825,19.0581494 11.0378155,19.6566995 10.4623403,19.6566995 Z" id="Shape"></path>
                    <path d="M0.553474716,18.3241378 C0.553474716,19.0581494 1.01574169,19.6566995 1.59436158,19.6566995 L1.59436158,19.6566995 C2.16669212,19.6566995 2.63210376,19.0612996 2.63210376,18.3241378 L2.63210376,9.10016448 C2.63210376,8.37245347 4.19815107,7.6667943 3.02518793,7.37066948 L2.2515983,7.33601657 C1.67297841,7.33601657 0.713853054,9.53175066 0.716997727,10.2657622 L0.553474716,18.3241378 L0.553474716,18.3241378 Z" id="Shape"></path>
                </g>
                <path d="M24.2831733,5.94990036 L24.2831733,42.1684869" id="Shape" stroke="#484848" stroke-width="0.5" sketch:type="MSShapeGroup"></path>
            </g>
            <g id="Group" sketch:type="MSLayerGroup" transform="translate(396.873948, 896.086936)">
                <ellipse id="Oval" stroke="#000000" stroke-width="0.5" fill="#FF5D73" sketch:type="MSShapeGroup" cx="24.3586516" cy="24.2021129" rx="23.9529765" ry="23.9955618"></ellipse>
                <g transform="translate(4.289347, 9.450792)" stroke="#484848" stroke-width="0.25" fill="#484848" sketch:type="MSShapeGroup">
                    <ellipse id="Oval" cx="8.63527287" cy="3.43557188" rx="3.16668601" ry="3.17231597"></ellipse>
                    <path d="M9.21074808,30.4963407 C9.21074808,31.2272019 9.67615973,31.8257521 10.2516349,31.8257521 L10.2516349,31.8257521 C10.8271102,31.8257521 11.2893771,31.2303522 11.2925218,30.4963407 L11.2925218,16.1185352 C11.2925218,15.3845237 10.8271102,14.7891238 10.2516349,14.7891238 L10.2516349,14.7891238 C9.67615973,14.7891238 9.21074808,15.3813734 9.21074808,16.1185352 L9.21074808,30.4963407 L9.21074808,30.4963407 Z" id="Shape"></path>
                    <path d="M6.09752152,30.4963407 C6.09752152,31.2240517 6.56607784,31.8226018 7.13840838,31.8257521 L7.13840838,31.8257521 C7.71073892,31.8257521 8.17615057,31.2303522 8.17615057,30.4963407 L8.17615057,16.1185352 C8.17615057,15.3845237 7.71073892,14.7891238 7.13840838,14.7891238 L7.13840838,14.7891238 C6.56607784,14.7859735 6.09752152,15.3813734 6.10066619,16.1185352 L6.09752152,30.4963407 L6.09752152,30.4963407 Z" id="Shape"></path>
                    <path d="M14.6604669,22.9420073 C14.0032302,23.2255311 10.8679909,23.4019459 10.3585538,23.4019459 L8.39942237,23.4019459 L6.44029091,23.4019459 C5.97487926,23.4019459 3.12894993,23.3011374 2.73901044,23.1121216 C2.60693416,23.0491163 4.03776051,17.5960091 4.69499723,15.0946994 C4.72329929,14.9938909 2.05976101,14.7576211 2.07862905,14.6505121 C2.62265753,11.4687454 4.18556016,7.97825274 4.30191307,7.97825274 L12.4591956,7.97825274 C12.5881272,7.97825274 14.6667563,11.1316671 15.1856273,14.2598794 C15.2013507,14.3449365 12.4969317,14.6757143 12.512655,14.7576211 C13.5346739,18.978975 14.7705305,22.8947533 14.6604669,22.9420073 L14.6604669,22.9420073 Z" id="Shape"></path>
                    <path d="M0.377360795,18.0307455 C0.138365625,18.7143529 0.364782102,19.4704162 0.889942543,19.7255876 L0.889942543,19.7255876 C1.41510298,19.9713082 2.04089297,19.6216289 2.28303281,18.9317211 L5.94028786,8.6051553 C6.1824277,7.91839772 5.05348999,7.94044957 4.17612614,8.01605591 L0.377360795,18.0307455 L0.377360795,18.0307455 Z" id="Shape"></path>
                    <path d="M16.8900403,18.0748492 C17.1321801,18.7584565 16.902619,19.5145199 16.3774585,19.7696913 L16.3774585,19.7696913 C15.8491534,20.0154119 15.2296528,19.6657326 14.9843683,18.9758248 L11.3239685,8.64925899 C11.0849734,7.96250142 12.176175,7.87744429 13.0503942,7.95305062 L16.8900403,18.0748492 L16.8900403,18.0748492 Z" id="Shape"></path>
                </g>
                <g transform="translate(29.446733, 9.450792)" stroke="#484848" stroke-width="0.2" sketch:type="MSShapeGroup" fill="#484848">
                    <path d="M3.39310249,29.8410857 C3.39310249,30.5750973 3.85851413,31.1673469 4.43398935,31.1673469 L4.43398935,31.1673469 C5.00946456,31.1673469 5.47173153,30.5750973 5.47173153,29.8379355 L5.47173153,15.4632803 C5.47173153,14.732419 5.00946456,14.1307186 4.43398935,14.1307186 L4.43398935,14.1307186 C3.85851413,14.1307186 3.39310249,14.7292687 3.39310249,15.4695808 L3.39310249,29.8410857 L3.39310249,29.8410857 Z" id="Shape"></path>
                    <path d="M6.44343558,29.8410857 C6.44343558,30.5750973 6.90884723,31.1673469 7.48432244,31.1673469 L7.48432244,31.1673469 C8.05979766,31.1673469 8.52206463,30.5750973 8.52206463,29.8379355 L8.52206463,15.4632803 C8.52206463,14.732419 8.05979766,14.1307186 7.48432244,14.1307186 L7.48432244,14.1307186 C6.90884723,14.1307186 6.44343558,14.7292687 6.44343558,15.4695808 L6.44343558,29.8410857 L6.44343558,29.8410857 Z" id="Shape"></path>
                    <path d="M9.61955561,13.9763556 L1.896238,13.9763556 L2.9559929,7.51516391 L8.52206463,7.48051101 L9.61955561,13.9763556 Z" id="Shape"></path>
                    <rect id="Rectangle-path" x="3.39310249" y="12.3476691" width="5.12896215" height="9.47599447"></rect>
                    <ellipse id="Oval" cx="5.9591559" cy="3.37886712" rx="3.16354134" ry="3.1691657"></ellipse>
                    <path d="M10.3931452,19.7980437 C9.81767003,19.7980437 9.35225838,19.2026438 9.35225838,18.465482 L8.95917423,9.21752085 C8.95917423,8.48980984 7.35633122,7.97825274 8.52929436,7.47736074 L9.61955561,7.47736074 C10.1950308,7.47736074 11.2736538,9.67309483 11.2705091,10.4071064 L11.4340321,18.465482 C11.4308874,19.1994935 10.9686205,19.7980437 10.3931452,19.7980437 Z" id="Shape"></path>
                    <path d="M0.484279688,18.465482 C0.484279688,19.1994935 0.946546662,19.7980437 1.52516655,19.7980437 L1.52516655,19.7980437 C2.09749709,19.7980437 2.56290874,19.2026438 2.56290874,18.465482 L2.56290874,9.24150865 C2.56290874,8.51379764 4.12895604,7.80813847 2.9559929,7.51201365 L2.18240327,7.47736074 C1.60378338,7.47736074 0.644658026,9.67309483 0.647802699,10.4071064 L0.484279688,18.465482 L0.484279688,18.465482 Z" id="Shape"></path>
                </g>
                <path d="M24.3586516,6.09124453 L24.3586516,42.3129814" id="Shape" stroke="#000000" stroke-width="0.5" sketch:type="MSShapeGroup"></path>
            </g>
            <g id="Group" sketch:type="MSLayerGroup" transform="translate(460.912087, 444.599167)"></g>
            <g id="Group-2" sketch:type="MSLayerGroup" transform="translate(460.912087, 449.749431)">
                <ellipse id="Oval" stroke="#000000" stroke-width="0.5" fill="#FF5D73" sketch:type="MSShapeGroup" cx="9.59205499" cy="9.27199927" rx="9.52204671" ry="9.02568161"></ellipse>
                <path d="M9.08732526,9.86559454 L10.7233371,9.86559454 C11.068366,9.86559454 11.3483894,9.60016817 11.3483894,9.27312496 L11.3487645,9.27312496 L11.3487645,7.39392994 L12.9842763,7.39392994 C13.3293052,7.39392994 13.6093286,7.12850357 13.6093286,6.80146036 C13.6093286,6.7945315 13.6092029,6.78763029 13.6089536,6.78075869 L13.6089536,4.92451672 L15.2464656,4.92451672 C15.5914945,4.92451672 15.8715179,4.65909035 15.8715179,4.33204714 C15.8715179,4.00500393 15.5914945,3.73957756 15.2464656,3.73957756 L12.9837763,3.73957756 C12.6387474,3.73957756 12.358724,4.00500393 12.358724,4.33204714 C12.358724,4.33604291 12.3587658,4.34002949 12.358849,4.34400649 L12.358849,6.20899078 L10.7228371,6.20899078 C10.3778082,6.20899078 10.0977848,6.47441715 10.0977848,6.80146036 C10.0977848,6.81205969 10.0980789,6.82259429 10.0986599,6.83305724 L10.0986599,8.68065538 L8.46189793,8.68065538 C8.11686907,8.68065538 7.83684564,8.94608175 7.83684564,9.27312496 C7.83684564,9.28005382 7.83697133,9.28695502 7.83722067,9.29382663 L7.83722067,11.1500686 L6.19845855,11.1500686 C5.85342968,11.1500686 5.57340625,11.415495 5.57340625,11.7425382 C5.57340625,11.7545635 5.57378485,11.7665054 5.57453135,11.778354 L5.57453135,13.6194818 L3.93764439,13.6194818 C3.59261552,13.6194818 3.31259209,13.8849082 3.31259209,14.2119514 C3.31259209,14.5389946 3.59261552,14.804421 3.93764439,14.804421 L6.1990836,14.804421 C6.54411247,14.804421 6.8241359,14.5389946 6.8241359,14.2119514 L6.82463594,14.2119514 L6.82463594,12.3350078 L8.46239798,12.3350078 C8.80742684,12.3350078 9.08745027,12.0695814 9.08745027,11.7425382 C9.08745027,11.7385424 9.08740847,11.7345558 9.08732526,11.7305788 L9.08732526,9.86559454 Z" id="Fill-1" fill="#484848" sketch:type="MSShapeGroup"></path>
            </g>
            <g id="Group-3" sketch:type="MSLayerGroup" transform="translate(404.625902, 235.592060)">
                <ellipse id="Oval" stroke="#000000" stroke-width="0.5" fill="#FF5D73" sketch:type="MSShapeGroup" cx="9.59205499" cy="9.27199927" rx="9.52204671" ry="9.02568161"></ellipse>
                <path d="M9.08732526,9.86559454 L10.7233371,9.86559454 C11.068366,9.86559454 11.3483894,9.60016817 11.3483894,9.27312496 L11.3487645,9.27312496 L11.3487645,7.39392994 L12.9842763,7.39392994 C13.3293052,7.39392994 13.6093286,7.12850357 13.6093286,6.80146036 C13.6093286,6.7945315 13.6092029,6.78763029 13.6089536,6.78075869 L13.6089536,4.92451672 L15.2464656,4.92451672 C15.5914945,4.92451672 15.8715179,4.65909035 15.8715179,4.33204714 C15.8715179,4.00500393 15.5914945,3.73957756 15.2464656,3.73957756 L12.9837763,3.73957756 C12.6387474,3.73957756 12.358724,4.00500393 12.358724,4.33204714 C12.358724,4.33604291 12.3587658,4.34002949 12.358849,4.34400649 L12.358849,6.20899078 L10.7228371,6.20899078 C10.3778082,6.20899078 10.0977848,6.47441715 10.0977848,6.80146036 C10.0977848,6.81205969 10.0980789,6.82259429 10.0986599,6.83305724 L10.0986599,8.68065538 L8.46189793,8.68065538 C8.11686907,8.68065538 7.83684564,8.94608175 7.83684564,9.27312496 C7.83684564,9.28005382 7.83697133,9.28695502 7.83722067,9.29382663 L7.83722067,11.1500686 L6.19845855,11.1500686 C5.85342968,11.1500686 5.57340625,11.415495 5.57340625,11.7425382 C5.57340625,11.7545635 5.57378485,11.7665054 5.57453135,11.778354 L5.57453135,13.6194818 L3.93764439,13.6194818 C3.59261552,13.6194818 3.31259209,13.8849082 3.31259209,14.2119514 C3.31259209,14.5389946 3.59261552,14.804421 3.93764439,14.804421 L6.1990836,14.804421 C6.54411247,14.804421 6.8241359,14.5389946 6.8241359,14.2119514 L6.82463594,14.2119514 L6.82463594,12.3350078 L8.46239798,12.3350078 C8.80742684,12.3350078 9.08745027,12.0695814 9.08745027,11.7425382 C9.08745027,11.7385424 9.08740847,11.7345558 9.08732526,11.7305788 L9.08732526,9.86559454 Z" id="Fill-1" fill="#484848" sketch:type="MSShapeGroup"></path>
            </g>
            <g id="Group-6" sketch:type="MSLayerGroup" transform="translate(681.039218, 529.656298)">
                <ellipse id="Oval" stroke="#000000" stroke-width="0.5" fill="#FF5D73" sketch:type="MSShapeGroup" cx="9.59205499" cy="9.27199927" rx="9.52204671" ry="9.02568161"></ellipse>
                <path d="M9.08732526,9.86559454 L10.7233371,9.86559454 C11.068366,9.86559454 11.3483894,9.60016817 11.3483894,9.27312496 L11.3487645,9.27312496 L11.3487645,7.39392994 L12.9842763,7.39392994 C13.3293052,7.39392994 13.6093286,7.12850357 13.6093286,6.80146036 C13.6093286,6.7945315 13.6092029,6.78763029 13.6089536,6.78075869 L13.6089536,4.92451672 L15.2464656,4.92451672 C15.5914945,4.92451672 15.8715179,4.65909035 15.8715179,4.33204714 C15.8715179,4.00500393 15.5914945,3.73957756 15.2464656,3.73957756 L12.9837763,3.73957756 C12.6387474,3.73957756 12.358724,4.00500393 12.358724,4.33204714 C12.358724,4.33604291 12.3587658,4.34002949 12.358849,4.34400649 L12.358849,6.20899078 L10.7228371,6.20899078 C10.3778082,6.20899078 10.0977848,6.47441715 10.0977848,6.80146036 C10.0977848,6.81205969 10.0980789,6.82259429 10.0986599,6.83305724 L10.0986599,8.68065538 L8.46189793,8.68065538 C8.11686907,8.68065538 7.83684564,8.94608175 7.83684564,9.27312496 C7.83684564,9.28005382 7.83697133,9.28695502 7.83722067,9.29382663 L7.83722067,11.1500686 L6.19845855,11.1500686 C5.85342968,11.1500686 5.57340625,11.415495 5.57340625,11.7425382 C5.57340625,11.7545635 5.57378485,11.7665054 5.57453135,11.778354 L5.57453135,13.6194818 L3.93764439,13.6194818 C3.59261552,13.6194818 3.31259209,13.8849082 3.31259209,14.2119514 C3.31259209,14.5389946 3.59261552,14.804421 3.93764439,14.804421 L6.1990836,14.804421 C6.54411247,14.804421 6.8241359,14.5389946 6.8241359,14.2119514 L6.82463594,14.2119514 L6.82463594,12.3350078 L8.46239798,12.3350078 C8.80742684,12.3350078 9.08745027,12.0695814 9.08745027,11.7425382 C9.08745027,11.7385424 9.08740847,11.7345558 9.08732526,11.7305788 L9.08732526,9.86559454 Z" id="Fill-1" fill="#484848" sketch:type="MSShapeGroup"></path>
            </g>
            <g id="Group-8" sketch:type="MSLayerGroup" transform="translate(685.664347, 750.654163)">
                <ellipse id="Oval" stroke="#000000" stroke-width="0.5" fill="#FF5D73" sketch:type="MSShapeGroup" cx="9.59205499" cy="9.27199927" rx="9.52204671" ry="9.02568161"></ellipse>
                <path d="M9.08732526,9.86559454 L10.7233371,9.86559454 C11.068366,9.86559454 11.3483894,9.60016817 11.3483894,9.27312496 L11.3487645,9.27312496 L11.3487645,7.39392994 L12.9842763,7.39392994 C13.3293052,7.39392994 13.6093286,7.12850357 13.6093286,6.80146036 C13.6093286,6.7945315 13.6092029,6.78763029 13.6089536,6.78075869 L13.6089536,4.92451672 L15.2464656,4.92451672 C15.5914945,4.92451672 15.8715179,4.65909035 15.8715179,4.33204714 C15.8715179,4.00500393 15.5914945,3.73957756 15.2464656,3.73957756 L12.9837763,3.73957756 C12.6387474,3.73957756 12.358724,4.00500393 12.358724,4.33204714 C12.358724,4.33604291 12.3587658,4.34002949 12.358849,4.34400649 L12.358849,6.20899078 L10.7228371,6.20899078 C10.3778082,6.20899078 10.0977848,6.47441715 10.0977848,6.80146036 C10.0977848,6.81205969 10.0980789,6.82259429 10.0986599,6.83305724 L10.0986599,8.68065538 L8.46189793,8.68065538 C8.11686907,8.68065538 7.83684564,8.94608175 7.83684564,9.27312496 C7.83684564,9.28005382 7.83697133,9.28695502 7.83722067,9.29382663 L7.83722067,11.1500686 L6.19845855,11.1500686 C5.85342968,11.1500686 5.57340625,11.415495 5.57340625,11.7425382 C5.57340625,11.7545635 5.57378485,11.7665054 5.57453135,11.778354 L5.57453135,13.6194818 L3.93764439,13.6194818 C3.59261552,13.6194818 3.31259209,13.8849082 3.31259209,14.2119514 C3.31259209,14.5389946 3.59261552,14.804421 3.93764439,14.804421 L6.1990836,14.804421 C6.54411247,14.804421 6.8241359,14.5389946 6.8241359,14.2119514 L6.82463594,14.2119514 L6.82463594,12.3350078 L8.46239798,12.3350078 C8.80742684,12.3350078 9.08745027,12.0695814 9.08745027,11.7425382 C9.08745027,11.7385424 9.08740847,11.7345558 9.08732526,11.7305788 L9.08732526,9.86559454 Z" id="Fill-1" fill="#484848" sketch:type="MSShapeGroup"></path>
            </g>
            <text id="TURBINE-" sketch:type="MSTextLayer" font-family="Bitstream Vera Sans Mono" font-size="16" font-weight="normal" letter-spacing="-0.832692138" fill="#484848">
                <tspan x="617.5" y="666">TURBINE </tspan>
                <tspan x="617.5" y="685">HALL</tspan>
            </text>
            <text id="CHEM-LAB" sketch:type="MSTextLayer" font-family="Bitstream Vera Sans Mono" font-size="16" font-weight="normal" letter-spacing="-0.832692138" fill="#484848">
                <tspan x="716" y="676">CHEM </tspan>
                <tspan x="716" y="695">LAB</tspan>
            </text>
            <text id="LASER" sketch:type="MSTextLayer" font-family="Bitstream Vera Sans Mono" font-size="16" font-weight="normal" letter-spacing="-0.832692138" fill="#484848">
                <tspan x="746.67485" y="598.078477">LASER</tspan>
                <tspan x="746.67485" y="617.078477">LAB</tspan>
            </text>
            <text id="DESIGN-LAB" sketch:type="MSTextLayer" font-family="Bitstream Vera Sans Mono" font-size="16" font-weight="normal" letter-spacing="-0.832692138" fill="#484848">
                <tspan x="536" y="626">DESIGN </tspan>
                <tspan x="536" y="645">LAB</tspan>
            </text>
            <text id="AUDITORIUM" sketch:type="MSTextLayer" font-family="Bitstream Vera Sans Mono" font-size="16" font-weight="normal" sketch:alignment="middle" letter-spacing="-0.832692138" fill="#484848">
                <tspan x="374.480594" y="855">AUDITORIUM</tspan>
            </text>
            <text id="LUNCH-ROOM" sketch:type="MSTextLayer" font-family="Bitstream Vera Sans Mono" font-size="16" font-weight="normal" letter-spacing="-0.832692138" fill="#484848">
                <tspan x="561" y="956">LUNCH </tspan>
                <tspan x="561" y="975">ROOM</tspan>
            </text>
            <text id="PLANETARIUM" sketch:type="MSTextLayer" font-family="Bitstream Vera Sans Mono" font-size="16" font-weight="normal" sketch:alignment="middle" letter-spacing="-0.832692138" fill="#484848">
                <tspan x="354.631121" y="738">PLANETARIUM</tspan>
            </text>
            <text id="CONCIERGE" sketch:type="MSTextLayer" font-family="Bitstream Vera Sans Mono" font-size="16" font-weight="normal" sketch:alignment="middle" letter-spacing="-0.832692138" fill="#484848">
                <tspan x="338.848872" y="618">CONCIERGE</tspan>
            </text>
            <text id="SUB-QUEUE" sketch:type="MSTextLayer" font-family="Bitstream Vera Sans Mono" font-size="16" font-weight="normal" letter-spacing="-0.832692138" fill="#484848">
                <tspan x="534.550587" y="549.127732">SUB </tspan>
                <tspan x="534.550587" y="568.127732">QUEUE</tspan>
            </text>
            <text id="MAIN-LOBBY" sketch:type="MSTextLayer" font-family="Bitstream Vera Sans Mono" font-size="16" font-weight="normal" letter-spacing="-0.832692138" fill="#484848">
                <tspan x="440" y="549.127732">MAIN </tspan>
                <tspan x="440" y="568.127732">LOBBY</tspan>
            </text>
            <text id="SCIENCE" sketch:type="MSTextLayer" font-family="Bitstream Vera Sans Mono" font-size="16" font-weight="normal" letter-spacing="-0.832692138" fill="#484848">
                <tspan x="358" y="457">SCIENCE</tspan>
                <tspan x="358" y="476">STORE</tspan>
            </text>
            <text id="EMPIRICAL-THEATER" sketch:type="MSTextLayer" font-family="Bitstream Vera Sans Mono" font-size="16" font-weight="normal" letter-spacing="-0.832692138" fill="#484848">
                <tspan x="157" y="499">EMPIRICAL </tspan>
                <tspan x="157" y="518">THEATER</tspan>
            </text>
            <text id="FEATURED" sketch:type="MSTextLayer" font-family="Bitstream Vera Sans Mono" font-size="16" font-weight="normal" letter-spacing="-0.832692138" fill="#484848">
                <tspan x="314" y="288.71939">FEATURED</tspan>
                <tspan x="314" y="307.71939">HALL</tspan>
            </text>
            <text id="THEORY-" sketch:type="MSTextLayer" font-family="Bitstream Vera Sans Mono" font-size="16" font-weight="normal" letter-spacing="-0.832692138" fill="#484848">
                <tspan x="353" y="86.3164959">THEORY </tspan>
                <tspan x="353" y="105.316496">EATERY</tspan>
            </text>
            <text id="PHYSICS-LAB" sketch:type="MSTextLayer" font-family="Bitstream Vera Sans Mono" font-size="16" font-weight="normal" letter-spacing="-0.832692138" fill="#484848">
                <tspan x="716" y="723">PHYSICS </tspan>
                <tspan x="716" y="742">LAB</tspan>
            </text>
            <path d="M468.5,847.5 L518.5,847.5" id="Line" stroke="#484848" stroke-linecap="square" opacity="0.554104478" fill="#484848" sketch:type="MSShapeGroup"></path>
            <path id="Line-decoration-1" d="M518.5,847.5 L507.7,844.5 L507.7,850.5 L518.5,847.5 Z" stroke="#484848" stroke-linecap="square" opacity="0.554104478" fill="#484848"></path>
            <path d="M581.208322,941 L581.208322,891" id="Line-Copy-3" stroke="#484848" stroke-linecap="square" opacity="0.554104478" fill="#484848" sketch:type="MSShapeGroup"></path>
            <path id="Line-Copy-3-decoration-1" d="M581.208322,891 L578.208322,901.8 L584.208322,901.8 L581.208322,891 Z" stroke="#484848" stroke-linecap="square" opacity="0.554104478" fill="#484848"></path>
            <path d="M459.5,731.5 L509.5,731.5" id="Line-Copy" stroke="#484848" stroke-linecap="square" opacity="0.554104478" fill="#484848" sketch:type="MSShapeGroup"></path>
            <path id="Line-Copy-decoration-1" d="M509.5,731.5 L498.7,728.5 L498.7,734.5 L509.5,731.5 Z" stroke="#484848" stroke-linecap="square" opacity="0.554104478" fill="#484848"></path>
            <path d="M423.5,611.5 L473.5,611.5" id="Line-Copy-2" stroke="#484848" stroke-linecap="square" opacity="0.554104478" fill="#484848" sketch:type="MSShapeGroup"></path>
            <path id="Line-Copy-2-decoration-1" d="M473.5,611.5 L462.7,608.5 L462.7,614.5 L473.5,611.5 Z" stroke="#484848" stroke-linecap="square" opacity="0.554104478" fill="#484848"></path>
            <g id="Group-7" sketch:type="MSLayerGroup" transform="translate(552.000000, 37.000000)">
                <rect id="Rectangle-path" stroke="#000000" fill="#EFF1F3" sketch:type="MSShapeGroup" x="90.1892524" y="0.188109534" width="50.8399332" height="58.8059803"></rect>
                <rect id="Rectangle-path" stroke="#000000" fill="#EFF1F3" sketch:type="MSShapeGroup" x="90.1892524" y="58.9940898" width="50.8399332" height="51.4532638"></rect>
                <rect id="Rectangle-path" stroke="#000000" fill="#EFF1F3" sketch:type="MSShapeGroup" x="90.1892524" y="110.447354" width="50.8399332" height="80.8578291"></rect>
                <rect id="Rectangle-path" stroke="#000000" fill="#EFF1F3" sketch:type="MSShapeGroup" x="90.1892524" y="191.305183" width="50.8399332" height="191.117073"></rect>
                <rect id="Rectangle-path" stroke="#000000" fill="#EFF1F3" sketch:type="MSShapeGroup" x="141.029186" y="340.413484" width="77.5665115" height="42.0056218"></rect>
                <rect id="Rectangle-path" stroke="#000000" fill="#EFF1F3" sketch:type="MSShapeGroup" x="218.595697" y="340.413484" width="62.3714501" height="42.0056218"></rect>
                <rect id="Rectangle-path" stroke="#000000" fill="#EFF1F3" sketch:type="MSShapeGroup" x="141.029186" y="110.447354" width="139.937962" height="116.033678"></rect>
                <rect id="Rectangle-path" stroke="#000000" fill="#EFF1F3" sketch:type="MSShapeGroup" x="280.967147" y="0.188109534" width="47.1700994" height="68.2567727"></rect>
                <path d="M280.967147,68.4448822 L253.187103,68.4448822 L253.187103,110.447354 L141.029186,110.447354 L141.029186,68.4448822 L141.029186,0.188109534 L280.967147,0.188109534 L280.967147,68.4448822 Z" id="Shape" stroke="#000000" fill="#EFF1F3" sketch:type="MSShapeGroup"></path>
                <path d="M141.029186,226.481032 L280.967147,226.481032 L280.967147,239.608183 L249.520414,239.608183 L249.520414,276.885258 L280.967147,276.885258 L280.967147,340.413484 L141.029186,340.413484 L141.029186,226.481032 Z" id="Shape" stroke="#000000" fill="#EFF1F3" sketch:type="MSShapeGroup"></path>
                <path d="M327.947994,68 L252.997851,68 L252.997851,110.002471 L280.777895,110.002471 L280.777895,239.1633 L249.331162,239.1633 L249.331162,276.440376 L280.777895,276.440376 L280.777895,381.974224 L90,381.974224 L90,413.476865 L327.947994,413.476865 L327.947994,68 Z" id="Shape" stroke="#000000" fill="#EFF1F3" sketch:type="MSShapeGroup"></path>
                <g id="Group" transform="translate(225.000000, 355.000000)" sketch:type="MSShapeGroup">
                    <ellipse id="Oval" stroke="#000000" stroke-width="0.5" fill="#FF5D73" cx="24.7611575" cy="24.9563923" rx="23.9561212" ry="23.9987121"></ellipse>
                    <g transform="translate(4.144673, 10.450792)" stroke="#484848" stroke-width="0.25" fill="#484848">
                        <ellipse id="Oval" cx="9.18245213" cy="3.19300154" rx="3.16354134" ry="3.1691657"></ellipse>
                        <path d="M9.75792734,30.2506201 C9.75792734,30.9814813 10.223339,31.5800315 10.7988142,31.5800315 L10.7988142,31.5800315 C11.3742894,31.5800315 11.8365564,30.9846316 11.8397011,30.2506201 L11.8397011,15.8728146 C11.8397011,15.1388031 11.3742894,14.5434032 10.7988142,14.5434032 L10.7988142,14.5434032 C10.223339,14.5434032 9.75792734,15.1356528 9.75792734,15.8728146 L9.75792734,30.2506201 L9.75792734,30.2506201 Z" id="Shape"></path>
                        <path d="M6.64784546,30.2506201 C6.64784546,30.9783311 7.11640178,31.5768812 7.68873232,31.5800315 L7.68873232,31.5800315 C8.26106286,31.5800315 8.72961918,30.9846316 8.72961918,30.2506201 L8.72961918,15.8728146 C8.72961918,15.1388031 8.26420753,14.5434032 7.68873232,14.5434032 L7.68873232,14.5434032 C7.11640178,14.5402529 6.64784546,15.1356528 6.64784546,15.8728146 L6.64784546,30.2506201 L6.64784546,30.2506201 Z" id="Shape"></path>
                        <path d="M15.2076462,22.699437 C14.5504094,22.9829607 11.4151702,23.1593755 10.9025884,23.1593755 L8.94345696,23.1593755 L6.98747017,23.1593755 C6.51891385,23.1593755 3.67612919,23.0585671 3.2861897,22.8695512 C3.15411342,22.8065459 4.58808445,17.3534388 5.24532117,14.852129 C5.27047855,14.7513206 2.61008494,14.5150508 2.62580831,14.4079418 C3.16983679,11.226175 4.73273942,7.7356824 4.852237,7.7356824 L13.0063749,7.7356824 C13.1353065,7.7356824 15.2170802,10.8890968 15.7359513,14.0173091 C15.74853,14.1023662 13.0441109,14.4331439 13.062979,14.5150508 C14.0787085,18.7364047 15.3177097,22.652183 15.2076462,22.699437 L15.2076462,22.699437 Z" id="Shape"></path>
                        <path d="M0.924540057,17.7850249 C0.682400213,18.4686323 0.911961364,19.2246956 1.4371218,19.479867 L1.4371218,19.479867 C1.96228224,19.7255876 2.58807223,19.3759083 2.83021207,18.6860005 L6.48746712,8.3594347 C6.72960696,7.67267712 5.60066925,7.69472897 4.7233054,7.77033531 L0.924540057,17.7850249 L0.924540057,17.7850249 Z" id="Shape"></path>
                        <path d="M17.4372195,17.8322789 C17.6793594,18.5158862 17.4497982,19.2719496 16.9214931,19.527121 L16.9214931,19.527121 C16.3963327,19.7728416 15.7736874,19.4231623 15.5315475,18.7332544 L11.8711478,8.40668866 C11.629008,7.71993108 12.7202096,7.63487395 13.5944288,7.71048029 L17.4372195,17.8322789 L17.4372195,17.8322789 Z" id="Shape"></path>
                    </g>
                    <g transform="translate(30.302060, 9.450792)" stroke="#484848" stroke-width="0.2" fill="#484848">
                        <path d="M2.94028175,30.5953651 C2.94028175,31.3293767 3.4056934,31.9216263 3.98116861,31.9216263 L3.98116861,31.9216263 C4.55349915,31.9216263 5.0189108,31.3293767 5.0189108,30.5922149 L5.0189108,16.2175597 C5.0189108,15.4866984 4.55349915,14.884998 3.98116861,14.884998 L3.98116861,14.884998 C3.4056934,14.884998 2.94028175,15.4835481 2.94028175,16.2238602 L2.94028175,30.5953651 L2.94028175,30.5953651 Z" id="Shape"></path>
                        <path d="M5.99061484,30.5953651 C5.99061484,31.3293767 6.45602649,31.9216263 7.03150171,31.9216263 L7.03150171,31.9216263 C7.60697692,31.9216263 8.07238857,31.3293767 8.07238857,30.5922149 L8.07238857,16.2175597 C8.07238857,15.4866984 7.60697692,14.884998 7.03150171,14.884998 L7.03150171,14.884998 C6.45602649,14.884998 5.99061484,15.4835481 5.99061484,16.2238602 L5.99061484,30.5953651 L5.99061484,30.5953651 Z" id="Shape"></path>
                        <path d="M9.16673487,14.7337853 L1.44027259,14.7337853 L2.50631683,8.26944331 L8.07238857,8.23794067 L9.16673487,14.7337853 Z" id="Shape"></path>
                        <rect id="Rectangle-path" x="2.94028175" y="13.1050987" width="5.12896215" height="9.47599447"></rect>
                        <ellipse id="Oval" cx="5.50633516" cy="4.13629679" rx="3.16354134" ry="3.1691657"></ellipse>
                        <path d="M9.9403245,20.5554734 C9.36484929,20.5554734 8.89943764,19.9600735 8.89943764,19.2229116 L8.50635349,10.0895272 C8.50635349,9.3618162 6.92476637,8.7356824 8.10087418,8.23479041 L9.1635902,8.23479041 C9.73906541,8.23479041 10.8176884,10.4305245 10.8145437,11.164536 L10.9812114,19.2229116 C10.9780667,19.9569232 10.5157997,20.5554734 9.9403245,20.5554734 Z" id="Shape"></path>
                        <path d="M0.031458949,19.2229116 C0.031458949,19.9569232 0.496870597,20.5554734 1.07234581,20.5554734 L1.07234581,20.5554734 C1.64467635,20.5554734 2.110088,19.9600735 2.11323267,19.2229116 L2.11323267,9.99893831 C2.11323267,9.2712273 3.67927997,8.56556814 2.50631683,8.26944331 L1.72958253,8.23479041 C1.15096264,8.23479041 0.191837287,10.4305245 0.191837287,11.164536 L0.031458949,19.2229116 L0.031458949,19.2229116 Z" id="Shape"></path>
                    </g>
                    <path d="M24.7611575,6.84867419 L24.7611575,43.0672608" id="Shape" stroke="#484848" stroke-width="0.5"></path>
                </g>
                <g id="Group-5" transform="translate(303.431679, 298.228320)" sketch:type="MSShapeGroup">
                    <ellipse id="Oval" stroke="#000000" stroke-width="0.5" fill="#FF5D73" cx="9.59205499" cy="9.27199927" rx="9.52204671" ry="9.02568161"></ellipse>
                    <path d="M9.08732526,9.86559454 L10.7233371,9.86559454 C11.068366,9.86559454 11.3483894,9.60016817 11.3483894,9.27312496 L11.3487645,9.27312496 L11.3487645,7.39392994 L12.9842763,7.39392994 C13.3293052,7.39392994 13.6093286,7.12850357 13.6093286,6.80146036 C13.6093286,6.7945315 13.6092029,6.78763029 13.6089536,6.78075869 L13.6089536,4.92451672 L15.2464656,4.92451672 C15.5914945,4.92451672 15.8715179,4.65909035 15.8715179,4.33204714 C15.8715179,4.00500393 15.5914945,3.73957756 15.2464656,3.73957756 L12.9837763,3.73957756 C12.6387474,3.73957756 12.358724,4.00500393 12.358724,4.33204714 C12.358724,4.33604291 12.3587658,4.34002949 12.358849,4.34400649 L12.358849,6.20899078 L10.7228371,6.20899078 C10.3778082,6.20899078 10.0977848,6.47441715 10.0977848,6.80146036 C10.0977848,6.81205969 10.0980789,6.82259429 10.0986599,6.83305724 L10.0986599,8.68065538 L8.46189793,8.68065538 C8.11686907,8.68065538 7.83684564,8.94608175 7.83684564,9.27312496 C7.83684564,9.28005382 7.83697133,9.28695502 7.83722067,9.29382663 L7.83722067,11.1500686 L6.19845855,11.1500686 C5.85342968,11.1500686 5.57340625,11.415495 5.57340625,11.7425382 C5.57340625,11.7545635 5.57378485,11.7665054 5.57453135,11.778354 L5.57453135,13.6194818 L3.93764439,13.6194818 C3.59261552,13.6194818 3.31259209,13.8849082 3.31259209,14.2119514 C3.31259209,14.5389946 3.59261552,14.804421 3.93764439,14.804421 L6.1990836,14.804421 C6.54411247,14.804421 6.8241359,14.5389946 6.8241359,14.2119514 L6.82463594,14.2119514 L6.82463594,12.3350078 L8.46239798,12.3350078 C8.80742684,12.3350078 9.08745027,12.0695814 9.08745027,11.7425382 C9.08745027,11.7385424 9.08740847,11.7345558 9.08732526,11.7305788 L9.08732526,9.86559454 Z" id="Fill-1" fill="#484848"></path>
                </g>
                <g id="Group-4" transform="translate(262.797352, 78.287453)" sketch:type="MSShapeGroup">
                    <ellipse id="Oval" stroke="#000000" stroke-width="0.5" fill="#FF5D73" cx="9.59205499" cy="9.27199927" rx="9.52204671" ry="9.02568161"></ellipse>
                    <path d="M9.08732526,9.86559454 L10.7233371,9.86559454 C11.068366,9.86559454 11.3483894,9.60016817 11.3483894,9.27312496 L11.3487645,9.27312496 L11.3487645,7.39392994 L12.9842763,7.39392994 C13.3293052,7.39392994 13.6093286,7.12850357 13.6093286,6.80146036 C13.6093286,6.7945315 13.6092029,6.78763029 13.6089536,6.78075869 L13.6089536,4.92451672 L15.2464656,4.92451672 C15.5914945,4.92451672 15.8715179,4.65909035 15.8715179,4.33204714 C15.8715179,4.00500393 15.5914945,3.73957756 15.2464656,3.73957756 L12.9837763,3.73957756 C12.6387474,3.73957756 12.358724,4.00500393 12.358724,4.33204714 C12.358724,4.33604291 12.3587658,4.34002949 12.358849,4.34400649 L12.358849,6.20899078 L10.7228371,6.20899078 C10.3778082,6.20899078 10.0977848,6.47441715 10.0977848,6.80146036 C10.0977848,6.81205969 10.0980789,6.82259429 10.0986599,6.83305724 L10.0986599,8.68065538 L8.46189793,8.68065538 C8.11686907,8.68065538 7.83684564,8.94608175 7.83684564,9.27312496 C7.83684564,9.28005382 7.83697133,9.28695502 7.83722067,9.29382663 L7.83722067,11.1500686 L6.19845855,11.1500686 C5.85342968,11.1500686 5.57340625,11.415495 5.57340625,11.7425382 C5.57340625,11.7545635 5.57378485,11.7665054 5.57453135,11.778354 L5.57453135,13.6194818 L3.93764439,13.6194818 C3.59261552,13.6194818 3.31259209,13.8849082 3.31259209,14.2119514 C3.31259209,14.5389946 3.59261552,14.804421 3.93764439,14.804421 L6.1990836,14.804421 C6.54411247,14.804421 6.8241359,14.5389946 6.8241359,14.2119514 L6.82463594,14.2119514 L6.82463594,12.3350078 L8.46239798,12.3350078 C8.80742684,12.3350078 9.08745027,12.0695814 9.08745027,11.7425382 C9.08745027,11.7385424 9.08740847,11.7345558 9.08732526,11.7305788 L9.08732526,9.86559454 Z" id="Fill-1" fill="#484848"></path>
                </g>
                <text id="EARTH" sketch:type="MSTextLayer" font-family="Bitstream Vera Sans Mono" font-size="16" font-weight="normal" letter-spacing="-0.832692138" fill="#484848">
                    <tspan x="181" y="45">EARTH</tspan>
                    <tspan x="181" y="64">HALL</tspan>
                </text>
                <text id="FLOOR-2" sketch:type="MSTextLayer" font-family="Bitstream Vera Sans Mono" font-size="10" font-weight="bold" sketch:alignment="middle" letter-spacing="-0.520432591" fill="#484848">
                    <tspan x="189.988995" y="439">FLOOR 2</tspan>
                </text>
                <text id="LIFE-" sketch:type="MSTextLayer" font-family="Bitstream Vera Sans Mono" font-size="16" font-weight="normal" letter-spacing="-0.832692138" fill="#484848">
                    <tspan x="181" y="165">LIFE </tspan>
                    <tspan x="181" y="184">HALL</tspan>
                </text>
                <text id="SCIENCE-" sketch:type="MSTextLayer" font-family="Bitstream Vera Sans Mono" font-size="16" font-weight="normal" letter-spacing="-0.832692138" fill="#484848">
                    <tspan x="181" y="286">SCIENCE </tspan>
                    <tspan x="181" y="305">PLAYGROUND</tspan>
                </text>
                <text id="LIFE-" sketch:type="MSTextLayer" font-family="Bitstream Vera Sans Mono" font-size="16" font-weight="normal" letter-spacing="-0.832692138" fill="#484848">
                    <tspan x="97" y="149.420002">LIFE </tspan>
                    <tspan x="97" y="168.420002">LAB</tspan>
                </text>
                <text id="WATERSHED" sketch:type="MSTextLayer" font-family="Bitstream Vera Sans Mono" font-size="16" font-weight="normal" letter-spacing="-0.832692138" fill="#484848">
                    <tspan x="0" y="81">WATERSHED</tspan>
                    <tspan x="0" y="100">LAB</tspan>
                </text>
                <text id="PALEO-" sketch:type="MSTextLayer" font-family="Bitstream Vera Sans Mono" font-size="16" font-weight="normal" letter-spacing="-0.832692138" fill="#484848">
                    <tspan x="0" y="25">PALEO </tspan>
                    <tspan x="0" y="44">LAB</tspan>
                </text>
                <path d="M47.5,36.0910997 L105.5,36.0910997" id="Line-Copy-4" stroke="#484848" stroke-linecap="square" opacity="0.554104478" fill="#484848" sketch:type="MSShapeGroup"></path>
                <path id="Line-Copy-4-decoration-1" d="M105.5,36.0910997 L94.7,33.0910997 L94.7,39.0910997 L105.5,36.0910997 Z" stroke="#484848" stroke-linecap="square" opacity="0.554104478" fill="#484848"></path>
                <path d="M47.5,93.2207218 L105.5,93.2207218" id="Line-Copy-5" stroke="#484848" stroke-linecap="square" opacity="0.554104478" fill="#484848" sketch:type="MSShapeGroup"></path>
                <path id="Line-Copy-5-decoration-1" d="M105.5,93.2207218 L94.7,90.2207218 L94.7,96.2207218 L105.5,93.2207218 Z" stroke="#484848" stroke-linecap="square" opacity="0.554104478" fill="#484848"></path>
            </g>
            <text id="FLOOR-1" sketch:type="MSTextLayer" font-family="Bitstream Vera Sans Mono" font-size="10" font-weight="bold" sketch:alignment="middle" letter-spacing="-0.520432591" fill="#484848">
                <tspan x="240.988995" y="594.549599">FLOOR 1</tspan>
            </text>
        </g>
    </g>
</svg>