<?xml version="1.0" encoding="UTF-8" standalone="no"?>
<svg width="766px" height="934px" viewBox="0 0 766 934" version="1.1" xmlns="http://www.w3.org/2000/svg" xmlns:xlink="http://www.w3.org/1999/xlink">
    <defs></defs>
    <g id="Page-1" stroke="none" stroke-width="1" fill="none" fill-rule="evenodd">
        <g id="Map-Branded" transform="translate(-115.000000, -36.000000)">
            <g id="map-branded" transform="translate(115.000000, 37.000000)">
                <rect id="Rectangle-path" stroke="#000000" fill="#EFF1F3" x="162.467571" y="121.999372" width="65.5129788" height="42.5285656"></rect>
                <rect id="Rectangle-path" stroke="#000000" fill="#EFF1F3" x="227.98055" y="121.999372" width="86.4785156" height="42.5285656"></rect>
                <rect id="Rectangle-path" stroke="#000000" fill="#EFF1F3" x="183.433108" y="447.503562" width="45.5977628" height="25.7502589"></rect>
                <path d="M8.66474456,466.68237 C8.66474456,424.601142 42.7184117,390.483782 84.7281022,390.483782 C112.372925,390.483782 136.574331,405.25537 149.892022,427.354473 L149.892022,367.187579 L183.436252,367.187579 L229.034015,367.187579 L229.034015,447.497262 L183.436252,447.497262 L183.436252,473.247521 L284.590958,473.247521 L284.590958,340.936428 L0.516896049,340.936428 L0.516896049,532.053501 L45.6272345,532.053501 C23.4824451,518.737335 8.66474456,494.445648 8.66474456,466.68237 L8.66474456,466.68237 Z" id="Shape" stroke="#000000" fill="#EFF1F3"></path>
                <rect id="Rectangle-path" stroke="#000000" fill="#EFF1F3" x="183.433108" y="367.190729" width="45.5977628" height="80.3096832"></rect>
                <rect id="Rectangle-path" stroke="#000000" fill="#EFF1F3" x="183.433108" y="447.503562" width="45.5977628" height="25.7502589"></rect>
                <rect id="Rectangle-path" stroke="#000000" fill="#EFF1F3" x="375.255034" y="883.289049" width="65.5161234" height="40.4430908"></rect>
                <rect id="Rectangle-path" stroke="#000000" fill="#EFF1F3" x="306.2326" y="845.832408" width="36.528525" height="77.9028814"></rect>
                <rect id="Rectangle-path" stroke="#000000" fill="#EFF1F3" x="591.19346" y="763.185229" width="35.6385825" height="74.1666681"></rect>
                <path d="M481.129895,802.424919 L481.129895,633.907841 L411.947082,633.907841 L411.947082,555.677332 L383.645022,555.677332 L383.645022,587.706067 L375.255034,587.706067 L375.255034,758.856766 L450.208322,758.856766 L450.208322,802.424919 L481.129895,802.424919 Z" id="Shape" stroke="#000000" fill="#EFF1F3"></path>
                <path d="M183.433108,367.190729 L183.433108,473.250671 L314.459065,473.250671 L314.459065,532.056651 L149.895167,532.056651 L149.895167,367.190729 L183.433108,367.190729 Z" id="Shape" stroke="#000000" fill="#EFF1F3"></path>
                <path d="M371.852497,436.49654 L314.459065,436.49654 L314.459065,377.690559 L284.587814,377.690559 L284.587814,340.939578 L314.459065,340.939578 L314.459065,121.999372 L371.852497,121.999372 L371.852497,436.49654 Z" id="Shape" stroke="#000000" fill="#EFF1F3"></path>
                <path d="M342.761125,555.677332 L383.645022,555.677332 L383.645022,587.706067 L375.255034,587.706067 L375.255034,923.73214 L342.761125,923.73214 L342.761125,555.677332 Z" id="Shape" stroke="#000000" fill="#EFF1F3"></path>
                <g id="Restroom" transform="translate(160.376363, 379.246790)">
                    <ellipse id="Oval" stroke="#9B9B9B" stroke-width="0.5" fill="#223843" cx="24.7611575" cy="24.9563923" rx="23.9561212" ry="23.9987121"></ellipse>
                    <g id="Group" transform="translate(4.144673, 10.450792)" fill="#FFFFFF">
                        <ellipse id="Oval" cx="9.18245213" cy="3.19300154" rx="3.16354134" ry="3.1691657"></ellipse>
                        <path d="M9.75792734,30.2506201 C9.75792734,30.9814813 10.223339,31.5800315 10.7988142,31.5800315 L10.7988142,31.5800315 C11.3742894,31.5800315 11.8365564,30.9846316 11.8397011,30.2506201 L11.8397011,15.8728146 C11.8397011,15.1388031 11.3742894,14.5434032 10.7988142,14.5434032 L10.7988142,14.5434032 C10.223339,14.5434032 9.75792734,15.1356528 9.75792734,15.8728146 L9.75792734,30.2506201 L9.75792734,30.2506201 Z" id="Shape"></path>
                        <path d="M6.64784546,30.2506201 C6.64784546,30.9783311 7.11640178,31.5768812 7.68873232,31.5800315 L7.68873232,31.5800315 C8.26106286,31.5800315 8.72961918,30.9846316 8.72961918,30.2506201 L8.72961918,15.8728146 C8.72961918,15.1388031 8.26420753,14.5434032 7.68873232,14.5434032 L7.68873232,14.5434032 C7.11640178,14.5402529 6.64784546,15.1356528 6.64784546,15.8728146 L6.64784546,30.2506201 L6.64784546,30.2506201 Z" id="Shape"></path>
                        <path d="M13.9719058,14.3332587 C13.4685182,14.4122751 13.055566,14.4828707 13.062979,14.5150508 C14.0787085,18.7364047 15.3177097,22.652183 15.2076462,22.699437 C14.5504094,22.9829607 11.4151702,23.1593755 10.9025884,23.1593755 L8.94345696,23.1593755 L6.98747017,23.1593755 C6.51891385,23.1593755 3.67612919,23.0585671 3.2861897,22.8695512 C3.15411342,22.8065459 4.58808445,17.3534388 5.24532117,14.852129 C5.25589735,14.8097491 4.79183821,14.7434282 4.25151674,14.6728278 L2.83021207,18.6860005 C2.58807223,19.3759083 1.96228224,19.7255876 1.4371218,19.479867 C0.911961364,19.2246956 0.682400213,18.4686323 0.924540057,17.7850249 L3.54622129,10.8734836 C3.84438681,9.98358904 4.15103275,9.20185836 4.39295074,8.64124969 L4.7233054,7.77033531 C4.75630309,7.76749175 4.78965663,7.76472394 4.82327971,7.76206675 C4.83642363,7.74464187 4.8461828,7.7356824 4.852237,7.7356824 L5.300996,7.7356824 C5.39904569,7.73317725 5.4960163,7.73290495 5.58988491,7.7356824 L12.4774636,7.7356824 C12.8090271,7.67521149 13.2214734,7.67822546 13.5944288,7.71048029 L17.4372195,17.8322789 C17.6793594,18.5158862 17.4497982,19.2719496 16.9214931,19.527121 C16.3963327,19.7728416 15.7736874,19.4231623 15.5315475,18.7332544 L13.9719058,14.3332587 Z" id="Shape"></path>
                    </g>
                    <g id="Group" transform="translate(30.302060, 9.450792)" fill="#FFFFFF">
                        <path d="M2.94028175,30.5953651 C2.94028175,31.3293767 3.4056934,31.9216263 3.98116861,31.9216263 L3.98116861,31.9216263 C4.55349915,31.9216263 5.0189108,31.3293767 5.0189108,30.5922149 L5.0189108,16.2175597 C5.0189108,15.4866984 4.55349915,14.884998 3.98116861,14.884998 L3.98116861,14.884998 C3.4056934,14.884998 2.94028175,15.4835481 2.94028175,16.2238602 L2.94028175,30.5953651 L2.94028175,30.5953651 Z" id="Shape"></path>
                        <path d="M5.99061484,30.5953651 C5.99061484,31.3293767 6.45602649,31.9216263 7.03150171,31.9216263 L7.03150171,31.9216263 C7.60697692,31.9216263 8.07238857,31.3293767 8.07238857,30.5922149 L8.07238857,16.2175597 C8.07238857,15.4866984 7.60697692,14.884998 7.03150171,14.884998 L7.03150171,14.884998 C6.45602649,14.884998 5.99061484,15.4835481 5.99061484,16.2238602 L5.99061484,30.5953651 L5.99061484,30.5953651 Z" id="Shape"></path>
                        <path d="M2.11323267,14.7337853 L2.94028175,14.7337853 L2.94028175,22.5810932 L8.06924389,22.5810932 L8.06924389,14.7337853 L8.70623386,14.7337853 C8.81886972,17.3509008 8.89943764,19.2229116 8.89943764,19.2229116 C8.89943764,19.9600735 9.36484929,20.5554734 9.9403245,20.5554734 C10.5157997,20.5554734 10.9780667,19.9569232 10.9812114,19.2229116 L10.8145437,11.164536 C10.8176884,10.4305245 9.73906541,8.23479041 9.1635902,8.23479041 L8.10087418,8.23479041 C8.091765,8.23866991 8.08275017,8.2425697 8.07382879,8.24648956 L8.07238857,8.23794067 L2.50631683,8.26944331 L1.72958253,8.23479041 C1.15096264,8.23479041 0.191837287,10.4305245 0.191837287,11.164536 L0.031458949,19.2229116 C0.031458949,19.9569232 0.496870597,20.5554734 1.07234581,20.5554734 C1.64467635,20.5554734 2.110088,19.9600735 2.11323267,19.2229116 L2.11323267,14.7337853 Z" id="Shape"></path>
                        <ellipse id="Oval" cx="5.50633516" cy="4.13629679" rx="3.16354134" ry="3.1691657"></ellipse>
                    </g>
                    <path d="M24.7611575,6.84867419 L24.7611575,43.0672608" id="Shape" stroke="#FFFFFF" stroke-width="0.5"></path>
                </g>
                <g id="Group-2" transform="translate(345.912087, 412.749431)">
                    <ellipse id="Oval" stroke="#9B9B9B" stroke-width="0.5" fill="#223843" cx="9.59205499" cy="9.27199927" rx="9.52204671" ry="9.02568161"></ellipse>
                    <path d="M9.08732526,9.86559454 L10.7233371,9.86559454 C11.068366,9.86559454 11.3483894,9.60016817 11.3483894,9.27312496 L11.3487645,9.27312496 L11.3487645,7.39392994 L12.9842763,7.39392994 C13.3293052,7.39392994 13.6093286,7.12850357 13.6093286,6.80146036 C13.6093286,6.7945315 13.6092029,6.78763029 13.6089536,6.78075869 L13.6089536,4.92451672 L15.2464656,4.92451672 C15.5914945,4.92451672 15.8715179,4.65909035 15.8715179,4.33204714 C15.8715179,4.00500393 15.5914945,3.73957756 15.2464656,3.73957756 L12.9837763,3.73957756 C12.6387474,3.73957756 12.358724,4.00500393 12.358724,4.33204714 C12.358724,4.33604291 12.3587658,4.34002949 12.358849,4.34400649 L12.358849,6.20899078 L10.7228371,6.20899078 C10.3778082,6.20899078 10.0977848,6.47441715 10.0977848,6.80146036 C10.0977848,6.81205969 10.0980789,6.82259429 10.0986599,6.83305724 L10.0986599,8.68065538 L8.46189793,8.68065538 C8.11686907,8.68065538 7.83684564,8.94608175 7.83684564,9.27312496 C7.83684564,9.28005382 7.83697133,9.28695502 7.83722067,9.29382663 L7.83722067,11.1500686 L6.19845855,11.1500686 C5.85342968,11.1500686 5.57340625,11.415495 5.57340625,11.7425382 C5.57340625,11.7545635 5.57378485,11.7665054 5.57453135,11.778354 L5.57453135,13.6194818 L3.93764439,13.6194818 C3.59261552,13.6194818 3.31259209,13.8849082 3.31259209,14.2119514 C3.31259209,14.5389946 3.59261552,14.804421 3.93764439,14.804421 L6.1990836,14.804421 C6.54411247,14.804421 6.8241359,14.5389946 6.8241359,14.2119514 L6.82463594,14.2119514 L6.82463594,12.3350078 L8.46239798,12.3350078 C8.80742684,12.3350078 9.08745027,12.0695814 9.08745027,11.7425382 C9.08745027,11.7385424 9.08740847,11.7345558 9.08732526,11.7305788 L9.08732526,9.86559454 Z" id="Fill-1" fill="#FFFFFF"></path>
                </g>
                <g id="svg-turbine-hall" transform="translate(481.000000, 488.000000)">
                    <rect id="rectangle" stroke="#000000" fill="#EFF1F3" x="0.129894518" y="0.979939865" width="110.063565" height="394.309109"></rect>
                    <g id="Group-6" transform="translate(85.039218, 4.656298)">
                        <ellipse id="Oval" stroke="#9B9B9B" stroke-width="0.5" fill="#223843" cx="9.59205499" cy="9.27199927" rx="9.52204671" ry="9.02568161"></ellipse>
                        <path d="M9.08732526,9.86559454 L10.7233371,9.86559454 C11.068366,9.86559454 11.3483894,9.60016817 11.3483894,9.27312496 L11.3487645,9.27312496 L11.3487645,7.39392994 L12.9842763,7.39392994 C13.3293052,7.39392994 13.6093286,7.12850357 13.6093286,6.80146036 C13.6093286,6.7945315 13.6092029,6.78763029 13.6089536,6.78075869 L13.6089536,4.92451672 L15.2464656,4.92451672 C15.5914945,4.92451672 15.8715179,4.65909035 15.8715179,4.33204714 C15.8715179,4.00500393 15.5914945,3.73957756 15.2464656,3.73957756 L12.9837763,3.73957756 C12.6387474,3.73957756 12.358724,4.00500393 12.358724,4.33204714 C12.358724,4.33604291 12.3587658,4.34002949 12.358849,4.34400649 L12.358849,6.20899078 L10.7228371,6.20899078 C10.3778082,6.20899078 10.0977848,6.47441715 10.0977848,6.80146036 C10.0977848,6.81205969 10.0980789,6.82259429 10.0986599,6.83305724 L10.0986599,8.68065538 L8.46189793,8.68065538 C8.11686907,8.68065538 7.83684564,8.94608175 7.83684564,9.27312496 C7.83684564,9.28005382 7.83697133,9.28695502 7.83722067,9.29382663 L7.83722067,11.1500686 L6.19845855,11.1500686 C5.85342968,11.1500686 5.57340625,11.415495 5.57340625,11.7425382 C5.57340625,11.7545635 5.57378485,11.7665054 5.57453135,11.778354 L5.57453135,13.6194818 L3.93764439,13.6194818 C3.59261552,13.6194818 3.31259209,13.8849082 3.31259209,14.2119514 C3.31259209,14.5389946 3.59261552,14.804421 3.93764439,14.804421 L6.1990836,14.804421 C6.54411247,14.804421 6.8241359,14.5389946 6.8241359,14.2119514 L6.82463594,14.2119514 L6.82463594,12.3350078 L8.46239798,12.3350078 C8.80742684,12.3350078 9.08745027,12.0695814 9.08745027,11.7425382 C9.08745027,11.7385424 9.08740847,11.7345558 9.08732526,11.7305788 L9.08732526,9.86559454 Z" id="Fill-1" fill="#FFFFFF"></path>
                    </g>
                    <g id="Group-8" transform="translate(89.664347, 225.654163)">
                        <ellipse id="Oval" stroke="#9B9B9B" stroke-width="0.5" fill="#223843" cx="9.59205499" cy="9.27199927" rx="9.52204671" ry="9.02568161"></ellipse>
                        <path d="M9.08732526,9.86559454 L10.7233371,9.86559454 C11.068366,9.86559454 11.3483894,9.60016817 11.3483894,9.27312496 L11.3487645,9.27312496 L11.3487645,7.39392994 L12.9842763,7.39392994 C13.3293052,7.39392994 13.6093286,7.12850357 13.6093286,6.80146036 C13.6093286,6.7945315 13.6092029,6.78763029 13.6089536,6.78075869 L13.6089536,4.92451672 L15.2464656,4.92451672 C15.5914945,4.92451672 15.8715179,4.65909035 15.8715179,4.33204714 C15.8715179,4.00500393 15.5914945,3.73957756 15.2464656,3.73957756 L12.9837763,3.73957756 C12.6387474,3.73957756 12.358724,4.00500393 12.358724,4.33204714 C12.358724,4.33604291 12.3587658,4.34002949 12.358849,4.34400649 L12.358849,6.20899078 L10.7228371,6.20899078 C10.3778082,6.20899078 10.0977848,6.47441715 10.0977848,6.80146036 C10.0977848,6.81205969 10.0980789,6.82259429 10.0986599,6.83305724 L10.0986599,8.68065538 L8.46189793,8.68065538 C8.11686907,8.68065538 7.83684564,8.94608175 7.83684564,9.27312496 C7.83684564,9.28005382 7.83697133,9.28695502 7.83722067,9.29382663 L7.83722067,11.1500686 L6.19845855,11.1500686 C5.85342968,11.1500686 5.57340625,11.415495 5.57340625,11.7425382 C5.57340625,11.7545635 5.57378485,11.7665054 5.57453135,11.778354 L5.57453135,13.6194818 L3.93764439,13.6194818 C3.59261552,13.6194818 3.31259209,13.8849082 3.31259209,14.2119514 C3.31259209,14.5389946 3.59261552,14.804421 3.93764439,14.804421 L6.1990836,14.804421 C6.54411247,14.804421 6.8241359,14.5389946 6.8241359,14.2119514 L6.82463594,14.2119514 L6.82463594,12.3350078 L8.46239798,12.3350078 C8.80742684,12.3350078 9.08745027,12.0695814 9.08745027,11.7425382 C9.08745027,11.7385424 9.08740847,11.7345558 9.08732526,11.7305788 L9.08732526,9.86559454 Z" id="Fill-1" fill="#FFFFFF"></path>
                    </g>
                    <text id="TURBINE-" font-family="Brandon Grotesque" font-size="16" font-weight="420" line-spacing="17" letter-spacing="-0.832692146" fill="#484848">
                        <tspan x="21.5" y="143">TURBINE </tspan>
                        <tspan x="21.5" y="160">HALL</tspan>
                    </text>
                </g>
                <g id="Restroom" transform="translate(573.000000, 775.000000)">
                    <ellipse id="Oval" stroke="#9B9B9B" stroke-width="0.5" fill="#223843" cx="24.7611575" cy="24.9563923" rx="23.9561212" ry="23.9987121"></ellipse>
                    <g id="Group" transform="translate(4.144673, 10.450792)" fill="#FFFFFF">
                        <ellipse id="Oval" cx="9.18245213" cy="3.19300154" rx="3.16354134" ry="3.1691657"></ellipse>
                        <path d="M9.75792734,30.2506201 C9.75792734,30.9814813 10.223339,31.5800315 10.7988142,31.5800315 L10.7988142,31.5800315 C11.3742894,31.5800315 11.8365564,30.9846316 11.8397011,30.2506201 L11.8397011,15.8728146 C11.8397011,15.1388031 11.3742894,14.5434032 10.7988142,14.5434032 L10.7988142,14.5434032 C10.223339,14.5434032 9.75792734,15.1356528 9.75792734,15.8728146 L9.75792734,30.2506201 L9.75792734,30.2506201 Z" id="Shape"></path>
                        <path d="M6.64784546,30.2506201 C6.64784546,30.9783311 7.11640178,31.5768812 7.68873232,31.5800315 L7.68873232,31.5800315 C8.26106286,31.5800315 8.72961918,30.9846316 8.72961918,30.2506201 L8.72961918,15.8728146 C8.72961918,15.1388031 8.26420753,14.5434032 7.68873232,14.5434032 L7.68873232,14.5434032 C7.11640178,14.5402529 6.64784546,15.1356528 6.64784546,15.8728146 L6.64784546,30.2506201 L6.64784546,30.2506201 Z" id="Shape"></path>
                        <path d="M13.9719058,14.3332587 C13.4685182,14.4122751 13.055566,14.4828707 13.062979,14.5150508 C14.0787085,18.7364047 15.3177097,22.652183 15.2076462,22.699437 C14.5504094,22.9829607 11.4151702,23.1593755 10.9025884,23.1593755 L8.94345696,23.1593755 L6.98747017,23.1593755 C6.51891385,23.1593755 3.67612919,23.0585671 3.2861897,22.8695512 C3.15411342,22.8065459 4.58808445,17.3534388 5.24532117,14.852129 C5.25589735,14.8097491 4.79183821,14.7434282 4.25151674,14.6728278 L2.83021207,18.6860005 C2.58807223,19.3759083 1.96228224,19.7255876 1.4371218,19.479867 C0.911961364,19.2246956 0.682400213,18.4686323 0.924540057,17.7850249 L3.54622129,10.8734836 C3.84438681,9.98358904 4.15103275,9.20185836 4.39295074,8.64124969 L4.7233054,7.77033531 C4.75630309,7.76749175 4.78965663,7.76472394 4.82327971,7.76206675 C4.83642363,7.74464187 4.8461828,7.7356824 4.852237,7.7356824 L5.300996,7.7356824 C5.39904569,7.73317725 5.4960163,7.73290495 5.58988491,7.7356824 L12.4774636,7.7356824 C12.8090271,7.67521149 13.2214734,7.67822546 13.5944288,7.71048029 L17.4372195,17.8322789 C17.6793594,18.5158862 17.4497982,19.2719496 16.9214931,19.527121 C16.3963327,19.7728416 15.7736874,19.4231623 15.5315475,18.7332544 L13.9719058,14.3332587 Z" id="Shape"></path>
                    </g>
                    <g id="Group" transform="translate(30.302060, 9.450792)" fill="#FFFFFF">
                        <path d="M2.94028175,30.5953651 C2.94028175,31.3293767 3.4056934,31.9216263 3.98116861,31.9216263 L3.98116861,31.9216263 C4.55349915,31.9216263 5.0189108,31.3293767 5.0189108,30.5922149 L5.0189108,16.2175597 C5.0189108,15.4866984 4.55349915,14.884998 3.98116861,14.884998 L3.98116861,14.884998 C3.4056934,14.884998 2.94028175,15.4835481 2.94028175,16.2238602 L2.94028175,30.5953651 L2.94028175,30.5953651 Z" id="Shape"></path>
                        <path d="M5.99061484,30.5953651 C5.99061484,31.3293767 6.45602649,31.9216263 7.03150171,31.9216263 L7.03150171,31.9216263 C7.60697692,31.9216263 8.07238857,31.3293767 8.07238857,30.5922149 L8.07238857,16.2175597 C8.07238857,15.4866984 7.60697692,14.884998 7.03150171,14.884998 L7.03150171,14.884998 C6.45602649,14.884998 5.99061484,15.4835481 5.99061484,16.2238602 L5.99061484,30.5953651 L5.99061484,30.5953651 Z" id="Shape"></path>
                        <path d="M2.11323267,14.7337853 L2.94028175,14.7337853 L2.94028175,22.5810932 L8.06924389,22.5810932 L8.06924389,14.7337853 L8.70623386,14.7337853 C8.81886972,17.3509008 8.89943764,19.2229116 8.89943764,19.2229116 C8.89943764,19.9600735 9.36484929,20.5554734 9.9403245,20.5554734 C10.5157997,20.5554734 10.9780667,19.9569232 10.9812114,19.2229116 L10.8145437,11.164536 C10.8176884,10.4305245 9.73906541,8.23479041 9.1635902,8.23479041 L8.10087418,8.23479041 C8.091765,8.23866991 8.08275017,8.2425697 8.07382879,8.24648956 L8.07238857,8.23794067 L2.50631683,8.26944331 L1.72958253,8.23479041 C1.15096264,8.23479041 0.191837287,10.4305245 0.191837287,11.164536 L0.031458949,19.2229116 C0.031458949,19.9569232 0.496870597,20.5554734 1.07234581,20.5554734 C1.64467635,20.5554734 2.110088,19.9600735 2.11323267,19.2229116 L2.11323267,14.7337853 Z" id="Shape"></path>
                        <ellipse id="Oval" cx="5.50633516" cy="4.13629679" rx="3.16354134" ry="3.1691657"></ellipse>
                    </g>
                    <path d="M24.7611575,6.84867419 L24.7611575,43.0672608" id="Shape" stroke="#FFFFFF" stroke-width="0.5"></path>
                </g>
                <g id="Chem-Lab" transform="translate(591.000000, 620.000000)">
                    <rect id="Rectangle-path" stroke="#000000" fill="#EFF1F3" x="-8.93769907e-14" y="8.95358914e-14" width="85.4313394" height="46.7278677"></rect>
                    <text id="CHEM-LAB" font-family="Brandon Grotesque" font-size="16" font-weight="420" line-spacing="17" letter-spacing="-0.832692146" fill="#C9C9C9">
                        <tspan x="10" y="21">CHEM </tspan>
                        <tspan x="10" y="38">LAB</tspan>
                    </text>
                </g>
                <g id="Laser-Lab" transform="translate(591.000000, 546.000000)">
                    <rect id="Rectangle-path" stroke="#000000" fill="#EFF1F3" x="0.193459866" y="0.0784770087" width="31.0536488" height="38.9845185"></rect>
                    <text id="LASER" font-family="Brandon Grotesque" font-size="16" font-weight="420" line-spacing="17" letter-spacing="-0.832692146" fill="#C9C9C9">
                        <tspan x="40.67485" y="17.078477">LASER</tspan>
                        <tspan x="40.67485" y="34.078477">LAB</tspan>
                    </text>
                </g>
                <g id="Design-Lab" transform="translate(412.000000, 556.000000)">
                    <rect id="Rectangle-path" stroke="#000000" fill="#EFF1F3" x="0" y="0" width="69.1828125" height="78.2305088"></rect>
                    <text id="DESIGN-LAB" font-family="Brandon Grotesque" font-size="16" font-weight="420" line-spacing="17" letter-spacing="-0.832692146" fill="#C9C9C9">
                        <tspan x="9" y="35">DESIGN </tspan>
                        <tspan x="9" y="52">LAB</tspan>
                    </text>
                </g>
                <g id="Auditorium" transform="translate(248.000000, 758.000000)">
                    <rect id="Rectangle-path" stroke="#000000" fill="#EFF1F3" x="127.255034" y="0.856766351" width="74.953288" height="124.432282"></rect>
                    <g id="Arrow" transform="translate(105.000000, 52.000000)" stroke="#223843" stroke-linecap="square" fill="#223843">
                        <path d="M0.5,0.5 L50.5,0.5" id="Line"></path>
                        <path id="Line-decoration-1" d="M50.5,0.5 L39.7,-2.5 L39.7,3.5 L50.5,0.5 Z"></path>
                    </g>
                    <text id="AUDITORIUM" font-family="Brandon Grotesque" font-size="16" font-weight="420" line-spacing="17" letter-spacing="-0.832692146" fill="#C9C9C9">
                        <tspan x="0.44941342" y="62">AUDITORIUM</tspan>
                    </text>
                </g>
                <g id="Lunch-Room" transform="translate(446.000000, 796.000000)">
                    <rect id="Rectangle-path" stroke="#000000" fill="#EFF1F3" x="4.208322" y="0.65993577" width="30.9215725" height="86.629113"></rect>
                    <g id="Arrow" transform="translate(20.500000, 74.500000) rotate(-90.000000) translate(-20.500000, -74.500000) translate(-5.000000, 74.000000)" stroke="#223843" stroke-linecap="square" fill="#223843">
                        <path d="M0.5,0.5 L50.5,0.5" id="Line"></path>
                        <path id="Line-decoration-1" d="M50.5,0.5 L39.7,-2.5 L39.7,3.5 L50.5,0.5 Z"></path>
                    </g>
                    <text id="LUNCH-ROOM" font-family="Brandon Grotesque" font-size="16" font-weight="420" line-spacing="17" letter-spacing="-0.832692146" fill="#484848">
                        <tspan x="0" y="125">LUNCH </tspan>
                        <tspan x="0" y="142">ROOM</tspan>
                    </text>
                </g>
                <g id="Lobby" transform="translate(314.000000, 436.000000)">
                    <path d="M167.129895,119.677332 L0.459065174,119.677332 L0.459065174,0.496539654 L117.862298,0.496539654 L117.862298,52.9799399 L167.129895,52.9799399 L167.129895,119.677332 Z" id="Shape" stroke="#000000" fill="#EFF1F3"></path>
                    <text id="SUB-QUEUE" font-family="Brandon Grotesque" font-size="16" font-weight="420" line-spacing="17" letter-spacing="-0.832692146" fill="#C9C9C9">
                        <tspan x="105.550587" y="78.1277325">SUB </tspan>
                        <tspan x="105.550587" y="95.1277325">QUEUE</tspan>
                    </text>
                    <text id="MAIN-LOBBY" font-family="Brandon Grotesque" font-size="16" font-weight="420" line-spacing="17" letter-spacing="-0.832692146" fill="#C9C9C9">
                        <tspan x="11" y="78.1277325">MAIN </tspan>
                        <tspan x="11" y="95.1277325">LOBBY</tspan>
                    </text>
                </g>
                <g id="Science-Store" transform="translate(229.000000, 377.000000)">
                    <rect id="Rectangle-path" stroke="#000000" fill="#EFF1F3" x="0.0308704245" y="0.690559358" width="85.4281947" height="95.5601118"></rect>
                    <text id="SCIENCE" font-family="Brandon Grotesque" font-size="16" font-weight="420" line-spacing="17" letter-spacing="-0.832692146" fill="#C9C9C9">
                        <tspan x="14" y="45">SCIENCE</tspan>
                        <tspan x="14" y="62">STORE</tspan>
                    </text>
                </g>
                <g id="Empirical-Theater" transform="translate(8.800003, 390.500000)">
                    <path d="M141.233567,36.8832923 C127.91902,14.777889 103.711325,0 76.0633577,0 C34.0568118,0 -1.42108547e-14,34.1142101 -1.42108547e-14,76.1985885 C-1.42108547e-14,103.958716 14.8177006,128.250403 36.9624899,141.572869 L141.233567,141.572869 L141.233567,36.8832923 L141.233567,36.8832923 Z" id="Shape" stroke="#000000" fill="#EFF1F3"></path>
                    <text id="EMPIRICAL-THEATER" font-family="Brandon Grotesque" font-size="16" font-weight="420" line-spacing="17" letter-spacing="-0.832692146" fill="#C9C9C9">
                        <tspan x="33" y="74">EMPIRICAL </tspan>
                        <tspan x="33" y="91">THEATER</tspan>
                    </text>
                </g>
                <g id="Featured-Hall" transform="translate(162.000000, 164.000000)">
                    <rect id="Rectangle-path" stroke="#000000" fill="#EFF1F3" x="0.467570775" y="0.527937793" width="151.991494" height="176.41164"></rect>
                    <g id="Group-3" transform="translate(127.625902, 34.592060)">
                        <ellipse id="Oval" stroke="#9B9B9B" stroke-width="0.5" fill="#223843" cx="9.59205499" cy="9.27199927" rx="9.52204671" ry="9.02568161"></ellipse>
                        <path d="M9.08732526,9.86559454 L10.7233371,9.86559454 C11.068366,9.86559454 11.3483894,9.60016817 11.3483894,9.27312496 L11.3487645,9.27312496 L11.3487645,7.39392994 L12.9842763,7.39392994 C13.3293052,7.39392994 13.6093286,7.12850357 13.6093286,6.80146036 C13.6093286,6.7945315 13.6092029,6.78763029 13.6089536,6.78075869 L13.6089536,4.92451672 L15.2464656,4.92451672 C15.5914945,4.92451672 15.8715179,4.65909035 15.8715179,4.33204714 C15.8715179,4.00500393 15.5914945,3.73957756 15.2464656,3.73957756 L12.9837763,3.73957756 C12.6387474,3.73957756 12.358724,4.00500393 12.358724,4.33204714 C12.358724,4.33604291 12.3587658,4.34002949 12.358849,4.34400649 L12.358849,6.20899078 L10.7228371,6.20899078 C10.3778082,6.20899078 10.0977848,6.47441715 10.0977848,6.80146036 C10.0977848,6.81205969 10.0980789,6.82259429 10.0986599,6.83305724 L10.0986599,8.68065538 L8.46189793,8.68065538 C8.11686907,8.68065538 7.83684564,8.94608175 7.83684564,9.27312496 C7.83684564,9.28005382 7.83697133,9.28695502 7.83722067,9.29382663 L7.83722067,11.1500686 L6.19845855,11.1500686 C5.85342968,11.1500686 5.57340625,11.415495 5.57340625,11.7425382 C5.57340625,11.7545635 5.57378485,11.7665054 5.57453135,11.778354 L5.57453135,13.6194818 L3.93764439,13.6194818 C3.59261552,13.6194818 3.31259209,13.8849082 3.31259209,14.2119514 C3.31259209,14.5389946 3.59261552,14.804421 3.93764439,14.804421 L6.1990836,14.804421 C6.54411247,14.804421 6.8241359,14.5389946 6.8241359,14.2119514 L6.82463594,14.2119514 L6.82463594,12.3350078 L8.46239798,12.3350078 C8.80742684,12.3350078 9.08745027,12.0695814 9.08745027,11.7425382 C9.08745027,11.7385424 9.08740847,11.7345558 9.08732526,11.7305788 L9.08732526,9.86559454 Z" id="Fill-1" fill="#FFFFFF"></path>
                    </g>
                    <text id="FEATURED" font-family="Brandon Grotesque" font-size="16" font-weight="420" line-spacing="17" letter-spacing="-0.832692146" fill="#C9C9C9">
                        <tspan x="37" y="89.7193903">FEATURED</tspan>
                        <tspan x="37" y="106.71939">HALL</tspan>
                    </text>
                </g>
                <g id="Theory" transform="translate(162.000000, 0.000000)">
                    <rect id="Rectangle-path" stroke="#000000" fill="#EFF1F3" x="0.467570775" y="0.188109534" width="209.384927" height="121.811263"></rect>
                    <text id="THEORY-" font-family="Brandon Grotesque" font-size="16" font-weight="420" line-spacing="17" letter-spacing="-0.832692146" fill="#C9C9C9">
                        <tspan x="76" y="51.3164959">THEORY </tspan>
                        <tspan x="76" y="68.3164959">EATERY</tspan>
                    </text>
                </g>
                <g id="Restroom" transform="translate(246.000000, 101.000000)">
                    <ellipse id="Oval" stroke="#9B9B9B" stroke-width="0.5" fill="#223843" cx="24.7611575" cy="24.9563923" rx="23.9561212" ry="23.9987121"></ellipse>
                    <g id="Group" transform="translate(4.144673, 10.450792)" fill="#FFFFFF">
                        <ellipse id="Oval" cx="9.18245213" cy="3.19300154" rx="3.16354134" ry="3.1691657"></ellipse>
                        <path d="M9.75792734,30.2506201 C9.75792734,30.9814813 10.223339,31.5800315 10.7988142,31.5800315 L10.7988142,31.5800315 C11.3742894,31.5800315 11.8365564,30.9846316 11.8397011,30.2506201 L11.8397011,15.8728146 C11.8397011,15.1388031 11.3742894,14.5434032 10.7988142,14.5434032 L10.7988142,14.5434032 C10.223339,14.5434032 9.75792734,15.1356528 9.75792734,15.8728146 L9.75792734,30.2506201 L9.75792734,30.2506201 Z" id="Shape"></path>
                        <path d="M6.64784546,30.2506201 C6.64784546,30.9783311 7.11640178,31.5768812 7.68873232,31.5800315 L7.68873232,31.5800315 C8.26106286,31.5800315 8.72961918,30.9846316 8.72961918,30.2506201 L8.72961918,15.8728146 C8.72961918,15.1388031 8.26420753,14.5434032 7.68873232,14.5434032 L7.68873232,14.5434032 C7.11640178,14.5402529 6.64784546,15.1356528 6.64784546,15.8728146 L6.64784546,30.2506201 L6.64784546,30.2506201 Z" id="Shape"></path>
                        <path d="M13.9719058,14.3332587 C13.4685182,14.4122751 13.055566,14.4828707 13.062979,14.5150508 C14.0787085,18.7364047 15.3177097,22.652183 15.2076462,22.699437 C14.5504094,22.9829607 11.4151702,23.1593755 10.9025884,23.1593755 L8.94345696,23.1593755 L6.98747017,23.1593755 C6.51891385,23.1593755 3.67612919,23.0585671 3.2861897,22.8695512 C3.15411342,22.8065459 4.58808445,17.3534388 5.24532117,14.852129 C5.25589735,14.8097491 4.79183821,14.7434282 4.25151674,14.6728278 L2.83021207,18.6860005 C2.58807223,19.3759083 1.96228224,19.7255876 1.4371218,19.479867 C0.911961364,19.2246956 0.682400213,18.4686323 0.924540057,17.7850249 L3.54622129,10.8734836 C3.84438681,9.98358904 4.15103275,9.20185836 4.39295074,8.64124969 L4.7233054,7.77033531 C4.75630309,7.76749175 4.78965663,7.76472394 4.82327971,7.76206675 C4.83642363,7.74464187 4.8461828,7.7356824 4.852237,7.7356824 L5.300996,7.7356824 C5.39904569,7.73317725 5.4960163,7.73290495 5.58988491,7.7356824 L12.4774636,7.7356824 C12.8090271,7.67521149 13.2214734,7.67822546 13.5944288,7.71048029 L17.4372195,17.8322789 C17.6793594,18.5158862 17.4497982,19.2719496 16.9214931,19.527121 C16.3963327,19.7728416 15.7736874,19.4231623 15.5315475,18.7332544 L13.9719058,14.3332587 Z" id="Shape"></path>
                    </g>
                    <g id="Group" transform="translate(30.302060, 9.450792)" fill="#FFFFFF">
                        <path d="M2.94028175,30.5953651 C2.94028175,31.3293767 3.4056934,31.9216263 3.98116861,31.9216263 L3.98116861,31.9216263 C4.55349915,31.9216263 5.0189108,31.3293767 5.0189108,30.5922149 L5.0189108,16.2175597 C5.0189108,15.4866984 4.55349915,14.884998 3.98116861,14.884998 L3.98116861,14.884998 C3.4056934,14.884998 2.94028175,15.4835481 2.94028175,16.2238602 L2.94028175,30.5953651 L2.94028175,30.5953651 Z" id="Shape"></path>
                        <path d="M5.99061484,30.5953651 C5.99061484,31.3293767 6.45602649,31.9216263 7.03150171,31.9216263 L7.03150171,31.9216263 C7.60697692,31.9216263 8.07238857,31.3293767 8.07238857,30.5922149 L8.07238857,16.2175597 C8.07238857,15.4866984 7.60697692,14.884998 7.03150171,14.884998 L7.03150171,14.884998 C6.45602649,14.884998 5.99061484,15.4835481 5.99061484,16.2238602 L5.99061484,30.5953651 L5.99061484,30.5953651 Z" id="Shape"></path>
                        <path d="M2.11323267,14.7337853 L2.94028175,14.7337853 L2.94028175,22.5810932 L8.06924389,22.5810932 L8.06924389,14.7337853 L8.70623386,14.7337853 C8.81886972,17.3509008 8.89943764,19.2229116 8.89943764,19.2229116 C8.89943764,19.9600735 9.36484929,20.5554734 9.9403245,20.5554734 C10.5157997,20.5554734 10.9780667,19.9569232 10.9812114,19.2229116 L10.8145437,11.164536 C10.8176884,10.4305245 9.73906541,8.23479041 9.1635902,8.23479041 L8.10087418,8.23479041 C8.091765,8.23866991 8.08275017,8.2425697 8.07382879,8.24648956 L8.07238857,8.23794067 L2.50631683,8.26944331 L1.72958253,8.23479041 C1.15096264,8.23479041 0.191837287,10.4305245 0.191837287,11.164536 L0.031458949,19.2229116 C0.031458949,19.9569232 0.496870597,20.5554734 1.07234581,20.5554734 C1.64467635,20.5554734 2.110088,19.9600735 2.11323267,19.2229116 L2.11323267,14.7337853 Z" id="Shape"></path>
                        <ellipse id="Oval" cx="5.50633516" cy="4.13629679" rx="3.16354134" ry="3.1691657"></ellipse>
                    </g>
                    <path d="M24.7611575,6.84867419 L24.7611575,43.0672608" id="Shape" stroke="#FFFFFF" stroke-width="0.5"></path>
                </g>
                <g id="Physics-Lab" transform="translate(591.000000, 666.000000)">
                    <rect id="svg-physics-lab" stroke="#000000" fill="#EFF1F3" x="-8.93769907e-14" y="0" width="85.4313394" height="46.7278677"></rect>
                    <text id="PHYSICS-LAB" font-family="Brandon Grotesque" font-size="16" font-weight="420" line-spacing="17" letter-spacing="-0.832692146" fill="#484848">
                        <tspan x="10" y="22">PHYSICS </tspan>
                        <tspan x="10" y="39">LAB</tspan>
                    </text>
                </g>
                <g id="Planetarium" transform="translate(233.000000, 648.000000)">
                    <ellipse id="svg-planetarium" stroke="#000000" fill="#EFF1F3" cx="195.582404" cy="48.8942214" rx="47.9562678" ry="48.0415278"></ellipse>
                    <text id="PLANETARIUM" font-family="Brandon Grotesque" font-size="16" font-weight="420" line-spacing="17" letter-spacing="-0.832692146" fill="#484848">
                        <tspan x="0" y="55">PLANETARIUM</tspan>
                    </text>
                    <g id="Arrow" transform="translate(111.000000, 46.000000)" stroke="#223843" stroke-linecap="square" fill="#223843">
                        <path d="M0.5,0.5 L50.5,0.5" id="Line"></path>
                        <path id="Line-decoration-1" d="M50.5,0.5 L39.7,-2.5 L39.7,3.5 L50.5,0.5 Z"></path>
                    </g>
                </g>
                <g id="Concierge" transform="translate(208.000000, 566.000000)">
                    <text id="CONCIERGE" font-family="Brandon Grotesque" font-size="16" font-weight="420" line-spacing="17" letter-spacing="-0.832692146" fill="#C9C9C9">
                        <tspan x="0.417630746" y="17">CONCIERGE</tspan>
                    </text>
                    <g id="Arrow" transform="translate(100.000000, 8.000000)" stroke="#223843" stroke-linecap="square" fill="#223843">
                        <path d="M0.5,0.5 L50.5,0.5" id="Line"></path>
                        <path id="Line-decoration-1" d="M50.5,0.5 L39.7,-2.5 L39.7,3.5 L50.5,0.5 Z"></path>
                    </g>
                </g>
                <g id="Second-Floor" transform="translate(437.000000, 0.000000)">
                    <rect id="Rectangle-path" stroke="#000000" fill="#EFF1F3" x="90.1892524" y="191.305183" width="50.8399332" height="191.117073"></rect>
                    <rect id="Rectangle-path" stroke="#000000" fill="#EFF1F3" x="141.029186" y="340.413484" width="77.5665115" height="42.0056218"></rect>
                    <rect id="Rectangle-path" stroke="#000000" fill="#EFF1F3" x="218.595697" y="340.413484" width="62.3714501" height="42.0056218"></rect>
                    <rect id="Rectangle-path" stroke="#000000" fill="#EFF1F3" x="280.967147" y="0.188109534" width="47.1700994" height="68.2567727"></rect>
                    <path d="M327.947994,68 L252.997851,68 L252.997851,110.002471 L280.777895,110.002471 L280.777895,239.1633 L249.331162,239.1633 L249.331162,276.440376 L280.777895,276.440376 L280.777895,381.974224 L90,381.974224 L90,413.476865 L327.947994,413.476865 L327.947994,68 Z" id="Shape" stroke="#000000" fill="#EFF1F3"></path>
                    <g id="Restroom" transform="translate(225.000000, 355.000000)">
                        <ellipse id="Oval" stroke="#9B9B9B" stroke-width="0.5" fill="#223843" cx="24.7611575" cy="24.9563923" rx="23.9561212" ry="23.9987121"></ellipse>
                        <g id="Group" transform="translate(4.144673, 10.450792)" fill="#FFFFFF">
                            <ellipse id="Oval" cx="9.18245213" cy="3.19300154" rx="3.16354134" ry="3.1691657"></ellipse>
                            <path d="M9.75792734,30.2506201 C9.75792734,30.9814813 10.223339,31.5800315 10.7988142,31.5800315 L10.7988142,31.5800315 C11.3742894,31.5800315 11.8365564,30.9846316 11.8397011,30.2506201 L11.8397011,15.8728146 C11.8397011,15.1388031 11.3742894,14.5434032 10.7988142,14.5434032 L10.7988142,14.5434032 C10.223339,14.5434032 9.75792734,15.1356528 9.75792734,15.8728146 L9.75792734,30.2506201 L9.75792734,30.2506201 Z" id="Shape"></path>
                            <path d="M6.64784546,30.2506201 C6.64784546,30.9783311 7.11640178,31.5768812 7.68873232,31.5800315 L7.68873232,31.5800315 C8.26106286,31.5800315 8.72961918,30.9846316 8.72961918,30.2506201 L8.72961918,15.8728146 C8.72961918,15.1388031 8.26420753,14.5434032 7.68873232,14.5434032 L7.68873232,14.5434032 C7.11640178,14.5402529 6.64784546,15.1356528 6.64784546,15.8728146 L6.64784546,30.2506201 L6.64784546,30.2506201 Z" id="Shape"></path>
                            <path d="M13.9719058,14.3332587 C13.4685182,14.4122751 13.055566,14.4828707 13.062979,14.5150508 C14.0787085,18.7364047 15.3177097,22.652183 15.2076462,22.699437 C14.5504094,22.9829607 11.4151702,23.1593755 10.9025884,23.1593755 L8.94345696,23.1593755 L6.98747017,23.1593755 C6.51891385,23.1593755 3.67612919,23.0585671 3.2861897,22.8695512 C3.15411342,22.8065459 4.58808445,17.3534388 5.24532117,14.852129 C5.25589735,14.8097491 4.79183821,14.7434282 4.25151674,14.6728278 L2.83021207,18.6860005 C2.58807223,19.3759083 1.96228224,19.7255876 1.4371218,19.479867 C0.911961364,19.2246956 0.682400213,18.4686323 0.924540057,17.7850249 L3.54622129,10.8734836 C3.84438681,9.98358904 4.15103275,9.20185836 4.39295074,8.64124969 L4.7233054,7.77033531 C4.75630309,7.76749175 4.78965663,7.76472394 4.82327971,7.76206675 C4.83642363,7.74464187 4.8461828,7.7356824 4.852237,7.7356824 L5.300996,7.7356824 C5.39904569,7.73317725 5.4960163,7.73290495 5.58988491,7.7356824 L12.4774636,7.7356824 C12.8090271,7.67521149 13.2214734,7.67822546 13.5944288,7.71048029 L17.4372195,17.8322789 C17.6793594,18.5158862 17.4497982,19.2719496 16.9214931,19.527121 C16.3963327,19.7728416 15.7736874,19.4231623 15.5315475,18.7332544 L13.9719058,14.3332587 Z" id="Shape"></path>
                        </g>
                        <g id="Group" transform="translate(30.302060, 9.450792)" fill="#FFFFFF">
                            <path d="M2.94028175,30.5953651 C2.94028175,31.3293767 3.4056934,31.9216263 3.98116861,31.9216263 L3.98116861,31.9216263 C4.55349915,31.9216263 5.0189108,31.3293767 5.0189108,30.5922149 L5.0189108,16.2175597 C5.0189108,15.4866984 4.55349915,14.884998 3.98116861,14.884998 L3.98116861,14.884998 C3.4056934,14.884998 2.94028175,15.4835481 2.94028175,16.2238602 L2.94028175,30.5953651 L2.94028175,30.5953651 Z" id="Shape"></path>
                            <path d="M5.99061484,30.5953651 C5.99061484,31.3293767 6.45602649,31.9216263 7.03150171,31.9216263 L7.03150171,31.9216263 C7.60697692,31.9216263 8.07238857,31.3293767 8.07238857,30.5922149 L8.07238857,16.2175597 C8.07238857,15.4866984 7.60697692,14.884998 7.03150171,14.884998 L7.03150171,14.884998 C6.45602649,14.884998 5.99061484,15.4835481 5.99061484,16.2238602 L5.99061484,30.5953651 L5.99061484,30.5953651 Z" id="Shape"></path>
                            <path d="M2.11323267,14.7337853 L2.94028175,14.7337853 L2.94028175,22.5810932 L8.06924389,22.5810932 L8.06924389,14.7337853 L8.70623386,14.7337853 C8.81886972,17.3509008 8.89943764,19.2229116 8.89943764,19.2229116 C8.89943764,19.9600735 9.36484929,20.5554734 9.9403245,20.5554734 C10.5157997,20.5554734 10.9780667,19.9569232 10.9812114,19.2229116 L10.8145437,11.164536 C10.8176884,10.4305245 9.73906541,8.23479041 9.1635902,8.23479041 L8.10087418,8.23479041 C8.091765,8.23866991 8.08275017,8.2425697 8.07382879,8.24648956 L8.07238857,8.23794067 L2.50631683,8.26944331 L1.72958253,8.23479041 C1.15096264,8.23479041 0.191837287,10.4305245 0.191837287,11.164536 L0.031458949,19.2229116 C0.031458949,19.9569232 0.496870597,20.5554734 1.07234581,20.5554734 C1.64467635,20.5554734 2.110088,19.9600735 2.11323267,19.2229116 L2.11323267,14.7337853 Z" id="Shape"></path>
                            <ellipse id="Oval" cx="5.50633516" cy="4.13629679" rx="3.16354134" ry="3.1691657"></ellipse>
                        </g>
                        <path d="M24.7611575,6.84867419 L24.7611575,43.0672608" id="Shape" stroke="#FFFFFF" stroke-width="0.5"></path>
                    </g>
                    <g id="Group-5" transform="translate(303.431679, 298.228320)">
                        <ellipse id="Oval" stroke="#9B9B9B" stroke-width="0.5" fill="#223843" cx="9.59205499" cy="9.27199927" rx="9.52204671" ry="9.02568161"></ellipse>
                        <path d="M9.08732526,9.86559454 L10.7233371,9.86559454 C11.068366,9.86559454 11.3483894,9.60016817 11.3483894,9.27312496 L11.3487645,9.27312496 L11.3487645,7.39392994 L12.9842763,7.39392994 C13.3293052,7.39392994 13.6093286,7.12850357 13.6093286,6.80146036 C13.6093286,6.7945315 13.6092029,6.78763029 13.6089536,6.78075869 L13.6089536,4.92451672 L15.2464656,4.92451672 C15.5914945,4.92451672 15.8715179,4.65909035 15.8715179,4.33204714 C15.8715179,4.00500393 15.5914945,3.73957756 15.2464656,3.73957756 L12.9837763,3.73957756 C12.6387474,3.73957756 12.358724,4.00500393 12.358724,4.33204714 C12.358724,4.33604291 12.3587658,4.34002949 12.358849,4.34400649 L12.358849,6.20899078 L10.7228371,6.20899078 C10.3778082,6.20899078 10.0977848,6.47441715 10.0977848,6.80146036 C10.0977848,6.81205969 10.0980789,6.82259429 10.0986599,6.83305724 L10.0986599,8.68065538 L8.46189793,8.68065538 C8.11686907,8.68065538 7.83684564,8.94608175 7.83684564,9.27312496 C7.83684564,9.28005382 7.83697133,9.28695502 7.83722067,9.29382663 L7.83722067,11.1500686 L6.19845855,11.1500686 C5.85342968,11.1500686 5.57340625,11.415495 5.57340625,11.7425382 C5.57340625,11.7545635 5.57378485,11.7665054 5.57453135,11.778354 L5.57453135,13.6194818 L3.93764439,13.6194818 C3.59261552,13.6194818 3.31259209,13.8849082 3.31259209,14.2119514 C3.31259209,14.5389946 3.59261552,14.804421 3.93764439,14.804421 L6.1990836,14.804421 C6.54411247,14.804421 6.8241359,14.5389946 6.8241359,14.2119514 L6.82463594,14.2119514 L6.82463594,12.3350078 L8.46239798,12.3350078 C8.80742684,12.3350078 9.08745027,12.0695814 9.08745027,11.7425382 C9.08745027,11.7385424 9.08740847,11.7345558 9.08732526,11.7305788 L9.08732526,9.86559454 Z" id="Fill-1" fill="#FFFFFF"></path>
                    </g>
                    <g id="Group-4" transform="translate(262.797352, 78.287453)">
                        <ellipse id="Oval" stroke="#9B9B9B" stroke-width="0.5" fill="#223843" cx="9.59205499" cy="9.27199927" rx="9.52204671" ry="9.02568161"></ellipse>
                        <path d="M9.08732526,9.86559454 L10.7233371,9.86559454 C11.068366,9.86559454 11.3483894,9.60016817 11.3483894,9.27312496 L11.3487645,9.27312496 L11.3487645,7.39392994 L12.9842763,7.39392994 C13.3293052,7.39392994 13.6093286,7.12850357 13.6093286,6.80146036 C13.6093286,6.7945315 13.6092029,6.78763029 13.6089536,6.78075869 L13.6089536,4.92451672 L15.2464656,4.92451672 C15.5914945,4.92451672 15.8715179,4.65909035 15.8715179,4.33204714 C15.8715179,4.00500393 15.5914945,3.73957756 15.2464656,3.73957756 L12.9837763,3.73957756 C12.6387474,3.73957756 12.358724,4.00500393 12.358724,4.33204714 C12.358724,4.33604291 12.3587658,4.34002949 12.358849,4.34400649 L12.358849,6.20899078 L10.7228371,6.20899078 C10.3778082,6.20899078 10.0977848,6.47441715 10.0977848,6.80146036 C10.0977848,6.81205969 10.0980789,6.82259429 10.0986599,6.83305724 L10.0986599,8.68065538 L8.46189793,8.68065538 C8.11686907,8.68065538 7.83684564,8.94608175 7.83684564,9.27312496 C7.83684564,9.28005382 7.83697133,9.28695502 7.83722067,9.29382663 L7.83722067,11.1500686 L6.19845855,11.1500686 C5.85342968,11.1500686 5.57340625,11.415495 5.57340625,11.7425382 C5.57340625,11.7545635 5.57378485,11.7665054 5.57453135,11.778354 L5.57453135,13.6194818 L3.93764439,13.6194818 C3.59261552,13.6194818 3.31259209,13.8849082 3.31259209,14.2119514 C3.31259209,14.5389946 3.59261552,14.804421 3.93764439,14.804421 L6.1990836,14.804421 C6.54411247,14.804421 6.8241359,14.5389946 6.8241359,14.2119514 L6.82463594,14.2119514 L6.82463594,12.3350078 L8.46239798,12.3350078 C8.80742684,12.3350078 9.08745027,12.0695814 9.08745027,11.7425382 C9.08745027,11.7385424 9.08740847,11.7345558 9.08732526,11.7305788 L9.08732526,9.86559454 Z" id="Fill-1" fill="#FFFFFF"></path>
                    </g>
                    <g id="Earth-Hall" transform="translate(141.000000, 0.000000)">
                        <path d="M139.967147,68.4448822 L112.187103,68.4448822 L112.187103,110.447354 L0.0291855681,110.447354 L0.0291855681,68.4448822 L0.0291855681,0.188109534 L139.967147,0.188109534 L139.967147,68.4448822 Z" id="svg-earth-hall" stroke="#000000" fill="#EFF1F3"></path>
                        <text id="EARTH" font-family="Brandon Grotesque" font-size="16" font-weight="420" line-spacing="17" letter-spacing="-0.832692146" fill="#484848">
                            <tspan x="40" y="47">EARTH</tspan>
                            <tspan x="40" y="64">HALL</tspan>
                        </text>
                    </g>
                    <text id="FLOOR-2" font-family="Brandon Grotesque" font-size="10" font-weight="bold" line-spacing="10" letter-spacing="-0.520432591" fill="#484848">
                        <tspan x="189.155772" y="441">FLOOR 2</tspan>
                    </text>
                    <g id="Life-Hall" transform="translate(141.000000, 110.000000)">
                        <rect id="Rectangle-path" stroke="#000000" fill="#EFF1F3" x="0.0291855681" y="0.447353674" width="139.937962" height="116.033678"></rect>
                        <text id="LIFE-" font-family="Brandon Grotesque" font-size="16" font-weight="420" line-spacing="17" letter-spacing="-0.832692146" fill="#C9C9C9">
                            <tspan x="40" y="57">LIFE </tspan>
                            <tspan x="40" y="74">HALL</tspan>
                        </text>
                    </g>
                    <g id="Science-Playground" transform="translate(141.000000, 226.000000)">
                        <path d="M0.0291855681,0.481031943 L139.967147,0.481031943 L139.967147,13.6081825 L108.520414,13.6081825 L108.520414,50.8852578 L139.967147,50.8852578 L139.967147,114.413484 L0.0291855681,114.413484 L0.0291855681,0.481031943 Z" id="Shape" stroke="#000000" fill="#EFF1F3"></path>
                        <text id="SCIENCE-" font-family="Brandon Grotesque" font-size="16" font-weight="420" line-spacing="17" letter-spacing="-0.832692146" fill="#C9C9C9">
                            <tspan x="40" y="62">SCIENCE </tspan>
                            <tspan x="40" y="79">PLAYGROUND</tspan>
                        </text>
                    </g>
                    <g id="Life-Lab" transform="translate(90.000000, 110.000000)">
                        <rect id="Rectangle-path" stroke="#000000" fill="#EFF1F3" x="0.189252397" y="0.447353674" width="50.8399332" height="80.8578291"></rect>
                        <text id="LIFE-" font-family="Brandon Grotesque" font-size="16" font-weight="420" line-spacing="17" letter-spacing="-0.832692146" fill="#C9C9C9">
                            <tspan x="7" y="41.4200022">LIFE </tspan>
                            <tspan x="7" y="58.4200022">LAB</tspan>
                        </text>
                    </g>
                    <g id="Paleo-Lab">
                        <rect id="Rectangle-path" stroke="#000000" fill="#EFF1F3" x="90.1892524" y="0.188109534" width="50.8399332" height="58.8059803"></rect>
                        <text id="PALEO-" font-family="Brandon Grotesque" font-size="16" font-weight="420" line-spacing="17" letter-spacing="-0.832692146" fill="#C9C9C9">
                            <tspan x="0" y="27">PALEO </tspan>
                            <tspan x="0" y="44">LAB</tspan>
                        </text>
                        <g id="Arrow" transform="translate(55.500000, 34.955910)" stroke="#223843" stroke-linecap="square" fill="#223843">
                            <path d="M0.5,0.5 L50.5,0.5" id="Line"></path>
                            <path id="Line-decoration-1" d="M50.5,0.5 L39.7,-2.5 L39.7,3.5 L50.5,0.5 Z"></path>
                        </g>
                    </g>
                    <g id="Watershed-Lab" transform="translate(0.000000, 58.000000)">
                        <rect id="Rectangle-path" stroke="#000000" fill="#EFF1F3" x="90.1892524" y="0.99408983" width="50.8399332" height="51.4532638"></rect>
                        <text id="WATERSHED" font-family="Brandon Grotesque" font-size="16" font-weight="420" line-spacing="17" letter-spacing="-0.832692146" fill="#C9C9C9">
                            <tspan x="0" y="25">WATERSHED</tspan>
                            <tspan x="0" y="42">LAB</tspan>
                        </text>
                        <g id="Arrow" transform="translate(55.500000, 34.955910)" stroke="#223843" stroke-linecap="square" fill="#223843">
                            <path d="M0.5,0.5 L50.5,0.5" id="Line"></path>
                            <path id="Line-decoration-1" d="M50.5,0.5 L39.7,-2.5 L39.7,3.5 L50.5,0.5 Z"></path>
                        </g>
                    </g>
                </g>
                <text id="FLOOR-1" font-family="Brandon Grotesque" font-size="10" font-weight="bold" line-spacing="10" letter-spacing="-0.520432591" fill="#484848">
                    <tspan x="127.239258" y="559.549599">FLOOR 1</tspan>
                </text>
                <g id="Restroom" transform="translate(282.000000, 859.000000)">
                    <ellipse id="Oval" stroke="#9B9B9B" stroke-width="0.5" fill="#223843" cx="24.7611575" cy="24.9563923" rx="23.9561212" ry="23.9987121"></ellipse>
                    <g id="Group" transform="translate(4.144673, 10.450792)" fill="#FFFFFF">
                        <ellipse id="Oval" cx="9.18245213" cy="3.19300154" rx="3.16354134" ry="3.1691657"></ellipse>
                        <path d="M9.75792734,30.2506201 C9.75792734,30.9814813 10.223339,31.5800315 10.7988142,31.5800315 L10.7988142,31.5800315 C11.3742894,31.5800315 11.8365564,30.9846316 11.8397011,30.2506201 L11.8397011,15.8728146 C11.8397011,15.1388031 11.3742894,14.5434032 10.7988142,14.5434032 L10.7988142,14.5434032 C10.223339,14.5434032 9.75792734,15.1356528 9.75792734,15.8728146 L9.75792734,30.2506201 L9.75792734,30.2506201 Z" id="Shape"></path>
                        <path d="M6.64784546,30.2506201 C6.64784546,30.9783311 7.11640178,31.5768812 7.68873232,31.5800315 L7.68873232,31.5800315 C8.26106286,31.5800315 8.72961918,30.9846316 8.72961918,30.2506201 L8.72961918,15.8728146 C8.72961918,15.1388031 8.26420753,14.5434032 7.68873232,14.5434032 L7.68873232,14.5434032 C7.11640178,14.5402529 6.64784546,15.1356528 6.64784546,15.8728146 L6.64784546,30.2506201 L6.64784546,30.2506201 Z" id="Shape"></path>
                        <path d="M13.9719058,14.3332587 C13.4685182,14.4122751 13.055566,14.4828707 13.062979,14.5150508 C14.0787085,18.7364047 15.3177097,22.652183 15.2076462,22.699437 C14.5504094,22.9829607 11.4151702,23.1593755 10.9025884,23.1593755 L8.94345696,23.1593755 L6.98747017,23.1593755 C6.51891385,23.1593755 3.67612919,23.0585671 3.2861897,22.8695512 C3.15411342,22.8065459 4.58808445,17.3534388 5.24532117,14.852129 C5.25589735,14.8097491 4.79183821,14.7434282 4.25151674,14.6728278 L2.83021207,18.6860005 C2.58807223,19.3759083 1.96228224,19.7255876 1.4371218,19.479867 C0.911961364,19.2246956 0.682400213,18.4686323 0.924540057,17.7850249 L3.54622129,10.8734836 C3.84438681,9.98358904 4.15103275,9.20185836 4.39295074,8.64124969 L4.7233054,7.77033531 C4.75630309,7.76749175 4.78965663,7.76472394 4.82327971,7.76206675 C4.83642363,7.74464187 4.8461828,7.7356824 4.852237,7.7356824 L5.300996,7.7356824 C5.39904569,7.73317725 5.4960163,7.73290495 5.58988491,7.7356824 L12.4774636,7.7356824 C12.8090271,7.67521149 13.2214734,7.67822546 13.5944288,7.71048029 L17.4372195,17.8322789 C17.6793594,18.5158862 17.4497982,19.2719496 16.9214931,19.527121 C16.3963327,19.7728416 15.7736874,19.4231623 15.5315475,18.7332544 L13.9719058,14.3332587 Z" id="Shape"></path>
                    </g>
                    <g id="Group" transform="translate(30.302060, 9.450792)" fill="#FFFFFF">
                        <path d="M2.94028175,30.5953651 C2.94028175,31.3293767 3.4056934,31.9216263 3.98116861,31.9216263 L3.98116861,31.9216263 C4.55349915,31.9216263 5.0189108,31.3293767 5.0189108,30.5922149 L5.0189108,16.2175597 C5.0189108,15.4866984 4.55349915,14.884998 3.98116861,14.884998 L3.98116861,14.884998 C3.4056934,14.884998 2.94028175,15.4835481 2.94028175,16.2238602 L2.94028175,30.5953651 L2.94028175,30.5953651 Z" id="Shape"></path>
                        <path d="M5.99061484,30.5953651 C5.99061484,31.3293767 6.45602649,31.9216263 7.03150171,31.9216263 L7.03150171,31.9216263 C7.60697692,31.9216263 8.07238857,31.3293767 8.07238857,30.5922149 L8.07238857,16.2175597 C8.07238857,15.4866984 7.60697692,14.884998 7.03150171,14.884998 L7.03150171,14.884998 C6.45602649,14.884998 5.99061484,15.4835481 5.99061484,16.2238602 L5.99061484,30.5953651 L5.99061484,30.5953651 Z" id="Shape"></path>
                        <path d="M2.11323267,14.7337853 L2.94028175,14.7337853 L2.94028175,22.5810932 L8.06924389,22.5810932 L8.06924389,14.7337853 L8.70623386,14.7337853 C8.81886972,17.3509008 8.89943764,19.2229116 8.89943764,19.2229116 C8.89943764,19.9600735 9.36484929,20.5554734 9.9403245,20.5554734 C10.5157997,20.5554734 10.9780667,19.9569232 10.9812114,19.2229116 L10.8145437,11.164536 C10.8176884,10.4305245 9.73906541,8.23479041 9.1635902,8.23479041 L8.10087418,8.23479041 C8.091765,8.23866991 8.08275017,8.2425697 8.07382879,8.24648956 L8.07238857,8.23794067 L2.50631683,8.26944331 L1.72958253,8.23479041 C1.15096264,8.23479041 0.191837287,10.4305245 0.191837287,11.164536 L0.031458949,19.2229116 C0.031458949,19.9569232 0.496870597,20.5554734 1.07234581,20.5554734 C1.64467635,20.5554734 2.110088,19.9600735 2.11323267,19.2229116 L2.11323267,14.7337853 Z" id="Shape"></path>
                        <ellipse id="Oval" cx="5.50633516" cy="4.13629679" rx="3.16354134" ry="3.1691657"></ellipse>
                    </g>
                    <path d="M24.7611575,6.84867419 L24.7611575,43.0672608" id="Shape" stroke="#FFFFFF" stroke-width="0.5"></path>
                </g>
            </g>
        </g>
    </g>
</svg>