<?xml version="1.0" encoding="UTF-8" standalone="no"?>
<svg width="679px" height="926px" viewBox="0 0 679 926" version="1.1" xmlns="http://www.w3.org/2000/svg" xmlns:xlink="http://www.w3.org/1999/xlink">
    <defs></defs>
    <g stroke="none" stroke-width="1" fill="none" fill-rule="evenodd">
        <g transform="translate(-175.000000, -36.000000)">
            <g transform="translate(174.998025, 37.064832)">
                <rect stroke="#000000" fill="#142314" x="162.469546" y="0.123278016" width="209.384927" height="121.811263"></rect>
                <rect stroke="#000000" fill="#383736" x="162.469546" y="121.934541" width="65.5129788" height="42.5285656"></rect>
                <rect stroke="#000000" fill="#EADBAD" x="227.982525" y="121.934541" width="86.4785156" height="42.5285656"></rect>
                <rect stroke="#000000" fill="#CB872A" x="162.469546" y="164.463106" width="151.991494" height="176.41164"></rect>
                <rect stroke="#000000" fill="#142314" x="183.435083" y="447.438731" width="45.5977628" height="25.7502589"></rect>
                <path d="M8.6667196,466.617539 C8.6667196,424.536311 42.7203867,390.41895 84.7300773,390.41895 C112.3749,390.41895 136.576306,405.190539 149.893997,427.289642 L149.893997,367.122747 L183.438227,367.122747 L229.03599,367.122747 L229.03599,447.43243 L183.438227,447.43243 L183.438227,473.182689 L284.592933,473.182689 L284.592933,340.871596 L0.518871094,340.871596 L0.518871094,531.98867 L45.6292095,531.98867 C23.4844202,518.672503 8.6667196,494.380817 8.6667196,466.617539 L8.6667196,466.617539 Z" stroke="#000000" fill="#383736"></path>
                <rect stroke="#000000" fill="#142314" x="229.032845" y="377.625728" width="85.4281947" height="95.5601118"></rect>
                <rect stroke="#000000" fill="#EADBAD" x="183.435083" y="367.125898" width="45.5977628" height="80.3096832"></rect>
                <path d="M149.897142,427.305393 C136.582595,405.19999 112.3749,390.422101 84.7269326,390.422101 C42.7203867,390.422101 8.66357493,424.536311 8.66357493,466.620689 C8.66357493,494.380817 23.4812755,518.672503 45.6260648,531.99497 L149.897142,531.99497 L149.897142,427.305393 L149.897142,427.305393 Z" stroke="#000000" fill="#8F1D1D"></path>
                <rect stroke="#000000" fill="#142314" x="183.435083" y="447.438731" width="45.5977628" height="25.7502589"></rect>
                <rect stroke="#000000" fill="#2B2739" x="481.13187" y="488.915108" width="110.063565" height="394.309109"></rect>
                <rect stroke="#000000" fill="#4F395B" x="411.949057" y="555.6125" width="69.1828125" height="78.2305088"></rect>
                <rect stroke="#000000" fill="#6B6968" x="375.257009" y="758.791935" width="74.953288" height="124.432282"></rect>
                <rect stroke="#000000" fill="#6B6968" x="450.210297" y="796.595104" width="30.9215725" height="86.629113"></rect>
                <rect stroke="#000000" fill="#6B6968" x="375.257009" y="883.224217" width="65.5161234" height="40.4430908"></rect>
                <rect stroke="#000000" fill="#EADBAD" x="306.234575" y="845.767577" width="36.528525" height="77.9028814"></rect>
                <rect stroke="#000000" fill="#EADBAD" x="591.195435" y="763.120398" width="35.6385825" height="74.1666681"></rect>
                <rect stroke="#000000" fill="#4F395B" x="591.195435" y="666.394688" width="85.4313394" height="46.7278677"></rect>
                <rect stroke="#000000" fill="#4F395B" x="591.195435" y="619.666821" width="85.4313394" height="46.7278677"></rect>
                <rect stroke="#000000" fill="#4F395B" x="591.195435" y="546.013645" width="31.0536488" height="38.9845185"></rect>
                <path d="M481.13187,802.360088 L481.13187,633.843009 L411.949057,633.843009 L411.949057,555.6125 L383.646997,555.6125 L383.646997,587.641236 L375.257009,587.641236 L375.257009,758.791935 L450.210297,758.791935 L450.210297,802.360088 L481.13187,802.360088 Z" stroke="#000000" fill="#383736"></path>
                <path d="M183.435083,367.125898 L183.435083,473.18584 L314.46104,473.18584 L314.46104,531.99182 L149.897142,531.99182 L149.897142,367.125898 L183.435083,367.125898 Z" stroke="#000000" fill="#6B6968"></path>
                <path d="M371.854473,436.431708 L314.46104,436.431708 L314.46104,377.625728 L284.589789,377.625728 L284.589789,340.874747 L314.46104,340.874747 L314.46104,121.934541 L371.854473,121.934541 L371.854473,436.431708 Z" stroke="#000000" fill="#6B6968"></path>
                <path d="M481.13187,555.6125 L314.46104,555.6125 L314.46104,436.431708 L431.864273,436.431708 L431.864273,488.915108 L481.13187,488.915108 L481.13187,555.6125 Z" stroke="#000000" fill="#6B6968"></path>
                <path d="M342.7631,555.6125 L383.646997,555.6125 L383.646997,587.641236 L375.257009,587.641236 L375.257009,923.667308 L342.7631,923.667308 L342.7631,555.6125 Z" stroke="#000000" fill="#6B6968"></path>
                <rect stroke="#000000" fill="#478487" x="417.191227" y="0.123278016" width="50.8399332" height="58.8059803"></rect>
                <rect stroke="#000000" fill="#478487" x="417.191227" y="58.9292583" width="50.8399332" height="51.4532638"></rect>
                <rect stroke="#000000" fill="#7F471F" x="417.191227" y="110.382522" width="50.8399332" height="80.8578291"></rect>
                <rect stroke="#000000" fill="#383736" x="417.191227" y="191.240351" width="50.8399332" height="191.117073"></rect>
                <rect stroke="#000000" fill="#8DCB87" x="468.031161" y="340.348653" width="77.5665115" height="42.0056218"></rect>
                <rect stroke="#000000" fill="#EADBAD" x="545.597672" y="340.348653" width="62.3714501" height="42.0056218"></rect>
                <rect stroke="#000000" fill="#C06728" x="468.031161" y="110.382522" width="139.937962" height="116.033678"></rect>
                <rect stroke="#000000" fill="#383736" x="607.969122" y="0.123278016" width="47.1700994" height="68.2567727"></rect>
                <path d="M607.969122,68.3800507 L580.189078,68.3800507 L580.189078,110.382522 L468.031161,110.382522 L468.031161,68.3800507 L468.031161,0.123278016 L607.969122,0.123278016 L607.969122,68.3800507 Z" stroke="#000000" fill="#107688"></path>
                <path d="M468.031161,226.4162 L607.969122,226.4162 L607.969122,239.543351 L576.522389,239.543351 L576.522389,276.820426 L607.969122,276.820426 L607.969122,340.348653 L468.031161,340.348653 L468.031161,226.4162 Z" stroke="#000000" fill="#04713A"></path>
                <path d="M655.139222,68.3800507 L580.189078,68.3800507 L580.189078,110.382522 L607.969122,110.382522 L607.969122,239.543351 L576.522389,239.543351 L576.522389,276.820426 L607.969122,276.820426 L607.969122,382.354274 L417.191227,382.354274 L417.191227,413.856915 L655.139222,413.856915 L655.139222,68.3800507 Z" stroke="#000000" fill="#6B6968"></path>
                <ellipse stroke="#000000" fill="#8F1D1D" cx="428.584379" cy="696.82939" rx="47.9562678" ry="48.0415278"></ellipse>
                <g transform="translate(160.378338, 379.181958)" stroke="#000000">
                    <ellipse stroke-width="0.5" fill="#39B54A" cx="24.7611575" cy="24.9563923" rx="23.9561212" ry="23.9987121"></ellipse>
                    <g transform="translate(3.144673, 9.450792)" stroke-width="0.25" fill="#000000">
                        <ellipse cx="10.1824521" cy="4.19300154" rx="3.16354134" ry="3.1691657"></ellipse>
                        <path d="M10.7579273,31.2506201 C10.7579273,31.9814813 11.223339,32.5800315 11.7988142,32.5800315 L11.7988142,32.5800315 C12.3742894,32.5800315 12.8365564,31.9846316 12.8397011,31.2506201 L12.8397011,16.8728146 C12.8397011,16.1388031 12.3742894,15.5434032 11.7988142,15.5434032 L11.7988142,15.5434032 C11.223339,15.5434032 10.7579273,16.1356528 10.7579273,16.8728146 L10.7579273,31.2506201 L10.7579273,31.2506201 Z"></path>
                        <path d="M7.64784546,31.2506201 C7.64784546,31.9783311 8.11640178,32.5768812 8.68873232,32.5800315 L8.68873232,32.5800315 C9.26106286,32.5800315 9.72961918,31.9846316 9.72961918,31.2506201 L9.72961918,16.8728146 C9.72961918,16.1388031 9.26420753,15.5434032 8.68873232,15.5434032 L8.68873232,15.5434032 C8.11640178,15.5402529 7.64784546,16.1356528 7.64784546,16.8728146 L7.64784546,31.2506201 L7.64784546,31.2506201 Z"></path>
                        <path d="M16.2076462,23.699437 C15.5504094,23.9829607 12.4151702,24.1593755 11.9025884,24.1593755 L9.94345696,24.1593755 L7.98747017,24.1593755 C7.51891385,24.1593755 4.67612919,24.0585671 4.2861897,23.8695512 C4.15411342,23.8065459 5.58808445,18.3534388 6.24532117,15.852129 C6.27047855,15.7513206 3.61008494,15.5150508 3.62580831,15.4079418 C4.16983679,12.226175 5.73273942,8.7356824 5.852237,8.7356824 L14.0063749,8.7356824 C14.1353065,8.7356824 16.2170802,11.8890968 16.7359513,15.0173091 C16.74853,15.1023662 14.0441109,15.4331439 14.062979,15.5150508 C15.0787085,19.7364047 16.3177097,23.652183 16.2076462,23.699437 L16.2076462,23.699437 Z"></path>
                        <path d="M1.92454006,18.7850249 C1.68240021,19.4686323 1.91196136,20.2246956 2.4371218,20.479867 L2.4371218,20.479867 C2.96228224,20.7255876 3.58807223,20.3759083 3.83021207,19.6860005 L7.48746712,9.3594347 C7.72960696,8.67267712 6.60066925,8.69472897 5.7233054,8.77033531 L1.92454006,18.7850249 L1.92454006,18.7850249 Z"></path>
                        <path d="M18.4372195,18.8322789 C18.6793594,19.5158862 18.4497982,20.2719496 17.9214931,20.527121 L17.9214931,20.527121 C17.3963327,20.7728416 16.7736874,20.4231623 16.5315475,19.7332544 L12.8711478,9.40668866 C12.629008,8.71993108 13.7202096,8.63487395 14.5944288,8.71048029 L18.4372195,18.8322789 L18.4372195,18.8322789 Z"></path>
                    </g>
                    <g transform="translate(28.302060, 9.450792)" stroke-width="0.2" fill="#000000">
                        <path d="M4.94028175,30.5953651 C4.94028175,31.3293767 5.4056934,31.9216263 5.98116861,31.9216263 L5.98116861,31.9216263 C6.55349915,31.9216263 7.0189108,31.3293767 7.0189108,30.5922149 L7.0189108,16.2175597 C7.0189108,15.4866984 6.55349915,14.884998 5.98116861,14.884998 L5.98116861,14.884998 C5.4056934,14.884998 4.94028175,15.4835481 4.94028175,16.2238602 L4.94028175,30.5953651 L4.94028175,30.5953651 Z"></path>
                        <path d="M7.99061484,30.5953651 C7.99061484,31.3293767 8.45602649,31.9216263 9.03150171,31.9216263 L9.03150171,31.9216263 C9.60697692,31.9216263 10.0723886,31.3293767 10.0723886,30.5922149 L10.0723886,16.2175597 C10.0723886,15.4866984 9.60697692,14.884998 9.03150171,14.884998 L9.03150171,14.884998 C8.45602649,14.884998 7.99061484,15.4835481 7.99061484,16.2238602 L7.99061484,30.5953651 L7.99061484,30.5953651 Z"></path>
                        <path d="M11.1667349,14.7337853 L3.44027259,14.7337853 L4.50631683,8.26944331 L10.0723886,8.23794067 L11.1667349,14.7337853 Z"></path>
                        <rect x="4.94028175" y="13.1050987" width="5.12896215" height="9.47599447"></rect>
                        <ellipse cx="7.50633516" cy="4.13629679" rx="3.16354134" ry="3.1691657"></ellipse>
                        <path d="M12.9812114,19.2229116 C12.9780667,19.9569232 12.5157997,20.5554734 11.9403245,20.5554734 L11.9403245,20.5554734 C11.3648493,20.5554734 10.8994376,19.9600735 10.8994376,19.2229116 L10.8994376,9.99893831 C10.8994376,9.2712273 9.33024567,8.77033531 10.5063535,8.26944331 L11.1635902,8.23479041 C11.7390654,8.23479041 12.8176884,10.4305245 12.8145437,11.164536 L12.9812114,19.2229116 L12.9812114,19.2229116 Z"></path>
                        <path d="M2.03145895,19.2229116 C2.03145895,19.9569232 2.4968706,20.5554734 3.07234581,20.5554734 L3.07234581,20.5554734 C3.64467635,20.5554734 4.110088,19.9600735 4.11323267,19.2229116 L4.11323267,9.99893831 C4.11323267,9.2712273 5.67927997,8.56556814 4.50631683,8.26944331 L3.72958253,8.23479041 C3.15096264,8.23479041 2.19183729,10.4305245 2.19183729,11.164536 L2.03145895,19.2229116 L2.03145895,19.2229116 Z"></path>
                    </g>
                    <path d="M24.7611575,6.84867419 L24.7611575,43.0672608" stroke-width="0.5"></path>
                </g>
                <g transform="translate(245.284517, 98.808452)" stroke="#000000">
                    <ellipse stroke-width="0.5" fill="#39B54A" cx="25.1542417" cy="27.0576185" rx="23.9561212" ry="23.9987121"></ellipse>
                    <g transform="translate(3.144673, 9.450792)" stroke-width="0.25" fill="#000000">
                        <ellipse cx="10.5755363" cy="6.29107744" rx="3.16354134" ry="3.1691657"></ellipse>
                        <path d="M11.1478668,33.3518462 C11.1478668,34.0827075 11.6132785,34.6812577 12.1887537,34.6812577 L12.1887537,34.6812577 C12.7642289,34.6812577 13.2264959,34.0858578 13.2296406,33.3518462 L13.2296406,18.9740408 C13.2296406,18.2400292 12.7642289,17.6446293 12.1887537,17.6446293 L12.1887537,17.6446293 C11.6132785,17.6446293 11.1478668,18.236879 11.1478668,18.9740408 L11.1478668,33.3518462 L11.1478668,33.3518462 Z"></path>
                        <path d="M8.03778494,33.3518462 C8.03778494,34.0795572 8.50634126,34.6781074 9.0786718,34.6812577 L9.0786718,34.6812577 C9.65100234,34.6812577 10.1195587,34.0858578 10.1195587,33.3518462 L10.1195587,18.9740408 C10.1195587,18.2400292 9.65414702,17.6446293 9.0786718,17.6446293 L9.0786718,17.6446293 C8.50634126,17.6414791 8.03778494,18.236879 8.03778494,18.9740408 L8.03778494,33.3518462 L8.03778494,33.3518462 Z"></path>
                        <path d="M16.6007303,25.7975129 C15.9434936,26.0810366 12.8082543,26.2574514 12.2956726,26.2574514 L10.3365411,26.2574514 L8.37740966,26.2574514 C7.90885334,26.2574514 5.06606868,26.156643 4.67612919,25.9676271 C4.54405291,25.9046218 5.97802394,20.4515147 6.63526065,17.9502049 C6.66041804,17.8493965 4.00002443,17.6131267 4.0157478,17.5060177 C4.55977628,14.3242509 6.12267891,10.8337583 6.24217649,10.8337583 L14.3963143,10.8337583 C14.525246,10.8337583 16.6070197,13.9871727 17.1258908,17.115385 C17.1384695,17.2004421 14.4340504,17.5312198 14.4529185,17.6131267 C15.4717926,21.8376309 16.7107939,25.7534092 16.6007303,25.7975129 L16.6007303,25.7975129 Z"></path>
                        <path d="M2.31762422,20.8862511 C2.07548438,21.5698584 2.30504553,22.3259218 2.83020597,22.5810932 L2.83020597,22.5810932 C3.35536641,22.8268138 3.98115639,22.4771345 4.22329624,21.7872266 L7.88055128,11.4606609 C8.12269112,10.7739033 6.99375341,10.7959551 6.11638956,10.8715615 L2.31762422,20.8862511 L2.31762422,20.8862511 Z"></path>
                        <path d="M18.8303037,20.9335051 C19.0724435,21.6171124 18.8428824,22.3731758 18.3145773,22.6283472 L18.3145773,22.6283472 C17.7894168,22.8740678 17.1667715,22.5243884 16.9246317,21.8344806 L13.264232,11.5079148 C13.0220921,10.8211572 14.1132938,10.7361001 14.9875129,10.8117065 L18.8303037,20.9335051 L18.8303037,20.9335051 Z"></path>
                    </g>
                    <g transform="translate(28.302060, 9.450792)" stroke-width="0.2" fill="#000000">
                        <path d="M5.33336591,32.6965913 C5.33336591,33.4306028 5.79877756,34.0228525 6.37425277,34.0228525 L6.37425277,34.0228525 C6.94658331,34.0228525 7.41199496,33.4306028 7.41199496,32.693441 L7.41199496,18.3187858 C7.41199496,17.5879246 6.94658331,16.9862241 6.37425277,16.9862241 L6.37425277,16.9862241 C5.79877756,16.9862241 5.33336591,17.5847743 5.33336591,18.3250864 L5.33336591,32.6965913 L5.33336591,32.6965913 Z"></path>
                        <path d="M8.38369901,32.6965913 C8.38369901,33.4306028 8.84911065,34.0228525 9.42458587,34.0228525 L9.42458587,34.0228525 C10.0000611,34.0228525 10.4654727,33.4306028 10.4654727,32.693441 L10.4654727,18.3187858 C10.4654727,17.5879246 10.0000611,16.9862241 9.42458587,16.9862241 L9.42458587,16.9862241 C8.84911065,16.9862241 8.38369901,17.5847743 8.38369901,18.3250864 L8.38369901,32.6965913 L8.38369901,32.6965913 Z"></path>
                        <path d="M11.5566744,16.8350114 L3.83335675,16.8350114 L4.89940099,10.3706695 L10.4623281,10.3360166 L11.5566744,16.8350114 Z"></path>
                        <rect x="5.33336591" y="15.2031746" width="5.12896215" height="9.47599447"></rect>
                        <ellipse cx="7.89627465" cy="6.23437269" rx="3.16354134" ry="3.1691657"></ellipse>
                        <path d="M13.3711509,21.3241378 C13.3680062,22.0581494 12.9057392,22.6566995 12.330264,22.6566995 L12.330264,22.6566995 C11.7547888,22.6566995 11.2893771,22.0612996 11.2893771,21.3241378 L11.2893771,12.1001645 C11.2893771,11.3724535 9.72018516,10.8715615 10.896293,10.3706695 L11.5535297,10.3360166 C12.1290049,10.3360166 13.2076278,12.5317507 13.2044832,13.2657622 L13.3711509,21.3241378 L13.3711509,21.3241378 Z"></path>
                        <path d="M2.42454311,21.3241378 C2.42454311,22.0581494 2.88995476,22.6566995 3.46542997,22.6566995 L3.46542997,22.6566995 C4.03776051,22.6566995 4.50317216,22.0612996 4.50631683,21.3241378 L4.50631683,12.1001645 C4.50631683,11.3724535 6.07236413,10.6667943 4.89940099,10.3706695 L4.12266669,10.3360166 C3.5440468,10.3360166 2.58492145,12.5317507 2.58492145,13.2657622 L2.42454311,21.3241378 L2.42454311,21.3241378 Z"></path>
                    </g>
                    <path d="M25.1542417,8.94990036 L25.1542417,45.1684869" stroke-width="0.5"></path>
                </g>
                <g transform="translate(550.317827, 353.979845)" stroke="#000000">
                    <ellipse stroke-width="0.5" fill="#39B54A" cx="26.2045626" cy="26.1597932" rx="23.9529765" ry="23.9955618"></ellipse>
                    <g transform="translate(6.289347, 9.450792)" stroke-width="0.25" fill="#000000">
                        <ellipse cx="8.48118388" cy="5.39325217" rx="3.16668601" ry="3.17231597"></ellipse>
                        <path d="M9.05665909,32.4540209 C9.05665909,33.1848822 9.52207074,33.7834324 10.097546,33.7834324 L10.097546,33.7834324 C10.6730212,33.7834324 11.1352881,33.1880325 11.1384328,32.4540209 L11.1384328,18.0762155 C11.1384328,17.3453542 10.6730212,16.7468041 10.097546,16.7468041 L10.097546,16.7468041 C9.52207074,16.7468041 9.05665909,17.342204 9.05665909,18.0762155 L9.05665909,32.4540209 L9.05665909,32.4540209 Z"></path>
                        <path d="M5.9465772,32.4540209 C5.9465772,33.1848822 6.41513352,33.7834324 6.98746406,33.7834324 L6.98746406,33.7834324 C7.5597946,33.7834324 8.02520625,33.1880325 8.02520625,32.4540209 L8.02520625,18.0762155 C8.02520625,17.3453542 7.5597946,16.7468041 6.98746406,16.7468041 L6.98746406,16.7468041 C6.41513352,16.7468041 5.9465772,17.342204 5.94972188,18.0762155 L5.9465772,32.4540209 L5.9465772,32.4540209 Z"></path>
                        <path d="M14.5063779,24.9059881 C13.8491412,25.1895119 10.7139019,25.3627764 10.2044648,25.3627764 L8.24533338,25.3627764 L6.28620192,25.3627764 C5.82079027,25.3627764 2.97486094,25.2651182 2.58492145,25.0729521 C2.45284517,25.0099468 3.88367152,19.5599899 4.54090824,17.0555299 C4.5692103,16.9578717 1.90567202,16.7184517 1.92454006,16.6113427 C2.46856854,13.4295759 4.03147117,9.94223356 4.14782408,9.94223356 L12.3051066,9.94223356 C12.4340382,9.94223356 14.5126673,13.0924977 15.0315384,16.2238602 C15.0472617,16.3089173 12.3428427,16.6365448 12.3585661,16.7216019 C13.3805849,20.9429559 14.6164415,24.8555839 14.5063779,24.9059881 L14.5063779,24.9059881 Z"></path>
                        <path d="M0.223271804,19.9884258 C-0.0157233665,20.6720331 0.210693111,21.4280965 0.735853551,21.6864182 L0.735853551,21.6864182 C1.26101399,21.9321388 1.88680398,21.5824595 2.12894382,20.8925516 L5.78619886,10.5628356 C6.02833871,9.87922827 4.89940099,9.89812986 4.02203715,9.97688646 L0.223271804,19.9884258 L0.223271804,19.9884258 Z"></path>
                        <path d="M16.7359513,20.0388301 C16.9780911,20.7224374 16.74853,21.4785008 16.2233695,21.7305219 L16.2233695,21.7305219 C15.6950644,21.9762425 15.0755638,21.6265632 14.8302793,20.9366553 L11.1698795,10.6132398 C10.9308844,9.92333197 12.022086,9.83827484 12.8963052,9.91703144 L16.7359513,20.0388301 L16.7359513,20.0388301 Z"></path>
                    </g>
                    <g transform="translate(31.446733, 9.450792)" stroke-width="0.2" fill="#000000">
                        <path d="M3.23901349,31.8019163 C3.23901349,32.5327775 3.70442514,33.1250272 4.27990036,33.1250272 L4.27990036,33.1250272 C4.85537557,33.1250272 5.31764254,32.5327775 5.31764254,31.7956157 L5.31764254,17.4241108 C5.31764254,16.6932496 4.85537557,16.0883989 4.27990036,16.0883989 L4.27990036,16.0883989 C3.70442514,16.0883989 3.23901349,16.6900993 3.23901349,17.4304114 L3.23901349,31.8019163 L3.23901349,31.8019163 Z"></path>
                        <path d="M6.28934659,31.8019163 C6.28934659,32.5327775 6.75475824,33.1250272 7.33023345,33.1250272 L7.33023345,33.1250272 C7.90570867,33.1250272 8.36797564,32.5327775 8.36797564,31.7956157 L8.36797564,17.4241108 C8.36797564,16.6932496 7.90570867,16.0883989 7.33023345,16.0883989 L7.33023345,16.0883989 C6.75475824,16.0883989 6.28934659,16.6900993 6.28934659,17.4304114 L6.28934659,31.8019163 L6.28934659,31.8019163 Z"></path>
                        <path d="M9.46546662,15.9403364 L1.74214901,15.9403364 L2.80504858,9.4728442 L8.36797564,9.44449183 L9.46546662,15.9403364 Z"></path>
                        <rect x="3.23901349" y="14.3084996" width="5.12896215" height="9.47599447"></rect>
                        <ellipse cx="5.8050669" cy="5.33969768" rx="3.16354134" ry="3.1691657"></ellipse>
                        <path d="M11.2799431,20.4263125 C11.2767984,21.1634743 10.8145315,21.7620245 10.2390563,21.7620245 L10.2390563,21.7620245 C9.66358104,21.7620245 9.19816939,21.1666246 9.19816939,20.4263125 L9.19816939,11.2023392 C9.19816939,10.4777785 7.63212209,9.97688646 8.80508523,9.4728442 L9.46546662,9.44134156 C10.0409418,9.44134156 11.1195648,11.6370757 11.1164201,12.3710872 L11.2799431,20.4263125 L11.2799431,20.4263125 Z"></path>
                        <path d="M0.330190696,20.4263125 C0.330190696,21.1634743 0.792457671,21.7620245 1.37107756,21.7620245 L1.37107756,21.7620245 C1.9434081,21.7620245 2.40881974,21.1666246 2.40881974,20.4263125 L2.40881974,11.2023392 C2.40881974,10.4777785 3.97486705,9.76896903 2.80190391,9.4728442 L2.02831428,9.44134156 C1.44969439,9.44134156 0.490569034,11.6370757 0.493713707,12.3710872 L0.330190696,20.4263125 L0.330190696,20.4263125 Z"></path>
                    </g>
                    <path d="M26.2045626,8.05207509 L26.2045626,44.2738119" stroke-width="0.5"></path>
                </g>
                <g transform="translate(572.330540, 772.964973)" stroke="#000000">
                    <ellipse stroke-width="0.5" fill="#39B54A" cx="25.2831733" cy="27.0576185" rx="23.9529765" ry="23.9955618"></ellipse>
                    <g transform="translate(3.144673, 9.450792)" stroke-width="0.25" fill="#000000">
                        <ellipse cx="10.7044679" cy="6.29422771" rx="3.16668601" ry="3.17231597"></ellipse>
                        <path d="M11.2799431,33.3518462 C11.2799431,34.0827075 11.7453548,34.6812577 12.32083,34.6812577 L12.32083,34.6812577 C12.8963052,34.6812577 13.3585722,34.0858578 13.3617168,33.3518462 L13.3617168,18.9740408 C13.3617168,18.2400292 12.8963052,17.6446293 12.32083,17.6446293 L12.32083,17.6446293 C11.7453548,17.6446293 11.2799431,18.236879 11.2799431,18.9740408 L11.2799431,33.3518462 L11.2799431,33.3518462 Z"></path>
                        <path d="M8.16986122,33.3518462 C8.16986122,34.0795572 8.63841754,34.6781074 9.21074808,34.6812577 L9.21074808,34.6812577 C9.78307862,34.6812577 10.2484903,34.0858578 10.2484903,33.3518462 L10.2484903,18.9740408 C10.2484903,18.2400292 9.78307862,17.6446293 9.21074808,17.6446293 L9.21074808,17.6446293 C8.63841754,17.6414791 8.16986122,18.236879 8.1730059,18.9740408 L8.16986122,33.3518462 L8.16986122,33.3518462 Z"></path>
                        <path d="M16.7296619,25.8006631 C16.0724252,26.0841869 12.9371859,26.2606017 12.4277489,26.2606017 L10.4686174,26.2606017 L8.50948594,26.2606017 C8.04407429,26.2606017 5.19814496,26.1597932 4.80820547,25.9707774 C4.67612919,25.9077721 6.10695554,20.4546649 6.76419226,17.9533552 C6.79249432,17.8525468 4.12895604,17.6162769 4.14782408,17.509168 C4.69185256,14.3274012 6.25475519,10.8369086 6.3711081,10.8369086 L14.5283906,10.8369086 C14.6573222,10.8369086 16.7359513,13.9903229 17.2548224,17.1185352 C17.2705457,17.2035924 14.5661267,17.5343701 14.5818501,17.6162769 C15.6038689,21.8376309 16.8397255,25.7534092 16.7296619,25.8006631 L16.7296619,25.8006631 Z"></path>
                        <path d="M2.44655582,20.8862511 C2.20756065,21.5698584 2.43397713,22.3259218 2.95913757,22.5810932 L2.95913757,22.5810932 C3.48429801,22.8268138 4.110088,22.4771345 4.35222784,21.7872266 L8.00948288,11.4606609 C8.25162273,10.7739033 7.12268501,10.7959551 6.24532117,10.8715615 L2.44655582,20.8862511 L2.44655582,20.8862511 Z"></path>
                        <path d="M18.9592353,20.9335051 C19.2013751,21.6171124 18.971814,22.3731758 18.4466536,22.6283472 L18.4466536,22.6283472 C17.9183484,22.8740678 17.2988478,22.5243884 17.0535633,21.8344806 L13.3931636,11.5079148 C13.1541684,10.8211572 14.24537,10.7361001 15.1195892,10.8117065 L18.9592353,20.9335051 L18.9592353,20.9335051 Z"></path>
                    </g>
                    <g transform="translate(28.302060, 9.450792)" stroke-width="0.2" fill="#000000">
                        <path d="M5.46229751,32.6965913 C5.46229751,33.4306028 5.92770916,34.0228525 6.50318438,34.0228525 L6.50318438,34.0228525 C7.07865959,34.0228525 7.54092656,33.4306028 7.54092656,32.693441 L7.54092656,18.3187858 C7.54092656,17.5879246 7.07865959,16.9862241 6.50318438,16.9862241 L6.50318438,16.9862241 C5.92770916,16.9862241 5.46229751,17.5847743 5.46229751,18.3250864 L5.46229751,32.6965913 L5.46229751,32.6965913 Z"></path>
                        <path d="M8.51263061,32.6965913 C8.51263061,33.4306028 8.97804226,34.0228525 9.55351747,34.0228525 L9.55351747,34.0228525 C10.1289927,34.0228525 10.5912597,33.4306028 10.5912597,32.693441 L10.5912597,18.3187858 C10.5912597,17.5879246 10.1289927,16.9862241 9.55351747,16.9862241 L9.55351747,16.9862241 C8.97804226,16.9862241 8.51263061,17.5847743 8.51263061,18.3250864 L8.51263061,32.6965913 L8.51263061,32.6965913 Z"></path>
                        <path d="M11.6887506,16.8350114 L3.96543303,16.8350114 L5.0283326,10.3706695 L10.5912597,10.3391668 L11.6887506,16.8350114 Z"></path>
                        <rect x="5.46229751" y="15.2063249" width="5.12896215" height="9.47599447"></rect>
                        <ellipse cx="8.02835092" cy="6.23752295" rx="3.16354134" ry="3.1691657"></ellipse>
                        <path d="M13.5032271,21.3241378 C13.5000825,22.0581494 13.0378155,22.6566995 12.4623403,22.6566995 L12.4623403,22.6566995 C11.8868651,22.6566995 11.4214534,22.0612996 11.4214534,21.3241378 L11.4214534,12.1001645 C11.4214534,11.3724535 9.85540611,10.8715615 11.0283692,10.3706695 L11.6887506,10.3360166 C12.2642259,10.3360166 13.3428488,12.5317507 13.3397041,13.2657622 L13.5032271,21.3241378 L13.5032271,21.3241378 Z"></path>
                        <path d="M2.55347472,21.3241378 C2.55347472,22.0581494 3.01574169,22.6566995 3.59436158,22.6566995 L3.59436158,22.6566995 C4.16669212,22.6566995 4.63210376,22.0612996 4.63210376,21.3241378 L4.63210376,12.1001645 C4.63210376,11.3724535 6.19815107,10.6667943 5.02518793,10.3706695 L4.2515983,10.3360166 C3.67297841,10.3360166 2.71385305,12.5317507 2.71699773,13.2657622 L2.55347472,21.3241378 L2.55347472,21.3241378 Z"></path>
                    </g>
                    <path d="M25.2831733,8.94990036 L25.2831733,45.1684869" stroke-width="0.5"></path>
                </g>
                <g transform="translate(279.875923, 858.022104)" stroke="#000000">
                    <ellipse stroke-width="0.5" fill="#39B54A" cx="26.3586516" cy="25.2021129" rx="23.9529765" ry="23.9955618"></ellipse>
                    <g transform="translate(6.289347, 9.450792)" stroke-width="0.25" fill="#000000">
                        <ellipse cx="8.63527287" cy="4.43557188" rx="3.16668601" ry="3.17231597"></ellipse>
                        <path d="M9.21074808,31.4963407 C9.21074808,32.2272019 9.67615973,32.8257521 10.2516349,32.8257521 L10.2516349,32.8257521 C10.8271102,32.8257521 11.2893771,32.2303522 11.2925218,31.4963407 L11.2925218,17.1185352 C11.2925218,16.3845237 10.8271102,15.7891238 10.2516349,15.7891238 L10.2516349,15.7891238 C9.67615973,15.7891238 9.21074808,16.3813734 9.21074808,17.1185352 L9.21074808,31.4963407 L9.21074808,31.4963407 Z"></path>
                        <path d="M6.09752152,31.4963407 C6.09752152,32.2240517 6.56607784,32.8226018 7.13840838,32.8257521 L7.13840838,32.8257521 C7.71073892,32.8257521 8.17615057,32.2303522 8.17615057,31.4963407 L8.17615057,17.1185352 C8.17615057,16.3845237 7.71073892,15.7891238 7.13840838,15.7891238 L7.13840838,15.7891238 C6.56607784,15.7859735 6.09752152,16.3813734 6.10066619,17.1185352 L6.09752152,31.4963407 L6.09752152,31.4963407 Z"></path>
                        <path d="M14.6604669,23.9420073 C14.0032302,24.2255311 10.8679909,24.4019459 10.3585538,24.4019459 L8.39942237,24.4019459 L6.44029091,24.4019459 C5.97487926,24.4019459 3.12894993,24.3011374 2.73901044,24.1121216 C2.60693416,24.0491163 4.03776051,18.5960091 4.69499723,16.0946994 C4.72329929,15.9938909 2.05976101,15.7576211 2.07862905,15.6505121 C2.62265753,12.4687454 4.18556016,8.97825274 4.30191307,8.97825274 L12.4591956,8.97825274 C12.5881272,8.97825274 14.6667563,12.1316671 15.1856273,15.2598794 C15.2013507,15.3449365 12.4969317,15.6757143 12.512655,15.7576211 C13.5346739,19.978975 14.7705305,23.8947533 14.6604669,23.9420073 L14.6604669,23.9420073 Z"></path>
                        <path d="M0.377360795,19.0307455 C0.138365625,19.7143529 0.364782102,20.4704162 0.889942543,20.7255876 L0.889942543,20.7255876 C1.41510298,20.9713082 2.04089297,20.6216289 2.28303281,19.9317211 L5.94028786,9.6051553 C6.1824277,8.91839772 5.05348999,8.94044957 4.17612614,9.01605591 L0.377360795,19.0307455 L0.377360795,19.0307455 Z"></path>
                        <path d="M16.8900403,19.0748492 C17.1321801,19.7584565 16.902619,20.5145199 16.3774585,20.7696913 L16.3774585,20.7696913 C15.8491534,21.0154119 15.2296528,20.6657326 14.9843683,19.9758248 L11.3239685,9.64925899 C11.0849734,8.96250142 12.176175,8.87744429 13.0503942,8.95305062 L16.8900403,19.0748492 L16.8900403,19.0748492 Z"></path>
                    </g>
                    <g transform="translate(31.446733, 9.450792)" stroke-width="0.2" fill="#000000">
                        <path d="M3.39310249,30.8410857 C3.39310249,31.5750973 3.85851413,32.1673469 4.43398935,32.1673469 L4.43398935,32.1673469 C5.00946456,32.1673469 5.47173153,31.5750973 5.47173153,30.8379355 L5.47173153,16.4632803 C5.47173153,15.732419 5.00946456,15.1307186 4.43398935,15.1307186 L4.43398935,15.1307186 C3.85851413,15.1307186 3.39310249,15.7292687 3.39310249,16.4695808 L3.39310249,30.8410857 L3.39310249,30.8410857 Z"></path>
                        <path d="M6.44343558,30.8410857 C6.44343558,31.5750973 6.90884723,32.1673469 7.48432244,32.1673469 L7.48432244,32.1673469 C8.05979766,32.1673469 8.52206463,31.5750973 8.52206463,30.8379355 L8.52206463,16.4632803 C8.52206463,15.732419 8.05979766,15.1307186 7.48432244,15.1307186 L7.48432244,15.1307186 C6.90884723,15.1307186 6.44343558,15.7292687 6.44343558,16.4695808 L6.44343558,30.8410857 L6.44343558,30.8410857 Z"></path>
                        <path d="M9.61955561,14.9763556 L1.896238,14.9763556 L2.9559929,8.51516391 L8.52206463,8.48051101 L9.61955561,14.9763556 Z"></path>
                        <rect x="3.39310249" y="13.3476691" width="5.12896215" height="9.47599447"></rect>
                        <ellipse cx="5.9591559" cy="4.37886712" rx="3.16354134" ry="3.1691657"></ellipse>
                        <path d="M11.4340321,19.465482 C11.4308874,20.1994935 10.9686205,20.7980437 10.3931452,20.7980437 L10.3931452,20.7980437 C9.81767003,20.7980437 9.35225838,20.2026438 9.35225838,19.465482 L9.35225838,10.2415086 C9.35225838,9.51379764 7.78621108,9.01290564 8.95917422,8.51201365 L9.61955561,8.47736074 C10.1950308,8.47736074 11.2736538,10.6730948 11.2705091,11.4071064 L11.4340321,19.465482 L11.4340321,19.465482 Z"></path>
                        <path d="M0.484279688,19.465482 C0.484279688,20.1994935 0.946546662,20.7980437 1.52516655,20.7980437 L1.52516655,20.7980437 C2.09749709,20.7980437 2.56290874,20.2026438 2.56290874,19.465482 L2.56290874,10.2415086 C2.56290874,9.51379764 4.12895604,8.80813847 2.9559929,8.51201365 L2.18240327,8.47736074 C1.60378338,8.47736074 0.644658026,10.6730948 0.647802699,11.4071064 L0.484279688,19.465482 L0.484279688,19.465482 Z"></path>
                    </g>
                    <path d="M26.3586516,7.09124453 L26.3586516,43.3129814" stroke-width="0.5"></path>
                </g>
                <g transform="translate(345.914063, 407.534335)"></g>
                <g transform="translate(345.914063, 412.684599)">
                    <ellipse stroke="#000000" stroke-width="0.5" fill="#39B54A" cx="24.1290843" cy="24.6504188" rx="23.9529765" ry="23.9955618"></ellipse>
                    <path d="M22.8594225,26.2285436 L26.9748564,26.2285436 C27.8427862,26.2285436 28.5471931,25.5228844 28.5471931,24.6534115 L28.5481365,24.6534115 L28.5481365,19.6574077 L32.6623125,19.6574077 C33.5302424,19.6574077 34.2346492,18.9517485 34.2346492,18.0822756 C34.2346492,18.0638546 34.234333,18.0455072 34.2337058,18.0272384 L34.2337058,13.0922572 L38.3529133,13.0922572 C39.2208432,13.0922572 39.92525,12.3865981 39.92525,11.5171252 C39.92525,10.6476523 39.2208432,9.94199311 38.3529133,9.94199311 L32.6610547,9.94199311 C31.7931248,9.94199311 31.088718,10.6476523 31.088718,11.5171252 C31.088718,11.5277483 31.0888232,11.5383469 31.0890325,11.5489201 L31.0890325,16.5071435 L26.9735985,16.5071435 C26.1056687,16.5071435 25.4012619,17.2128027 25.4012619,18.0822756 C25.4012619,18.1104548 25.4020018,18.138462 25.4034632,18.1662787 L25.4034632,23.0782795 L21.2861424,23.0782795 C20.4182126,23.0782795 19.7138058,23.7839386 19.7138058,24.6534115 C19.7138058,24.6718325 19.7141219,24.69018 19.7147492,24.7084487 L19.7147492,29.6434299 L15.5923969,29.6434299 C14.7244671,29.6434299 14.0200603,30.349089 14.0200603,31.2185619 C14.0200603,31.2505322 14.0210127,31.282281 14.0228905,31.3137813 L14.0228905,36.2085803 L9.90525529,36.2085803 C9.03732546,36.2085803 8.33291864,36.9142395 8.33291864,37.7837124 C8.33291864,38.6531853 9.03732546,39.3588444 9.90525529,39.3588444 L15.5939693,39.3588444 C16.4618991,39.3588444 17.1663059,38.6531853 17.1663059,37.7837124 L17.1675638,37.7837124 L17.1675638,32.793694 L21.2874003,32.793694 C22.1553301,32.793694 22.8597369,32.0880348 22.8597369,31.2185619 C22.8597369,31.2079388 22.8596318,31.1973402 22.8594225,31.186767 L22.8594225,26.2285436 Z" fill="#000000"></path>
                </g>
                <g transform="translate(289.627877, 198.527228)">
                    <ellipse stroke="#000000" stroke-width="0.5" fill="#39B54A" cx="24.1290843" cy="24.6504188" rx="23.9529765" ry="23.9955618"></ellipse>
                    <path d="M22.8594225,26.2285436 L26.9748564,26.2285436 C27.8427862,26.2285436 28.5471931,25.5228844 28.5471931,24.6534115 L28.5481365,24.6534115 L28.5481365,19.6574077 L32.6623125,19.6574077 C33.5302424,19.6574077 34.2346492,18.9517485 34.2346492,18.0822756 C34.2346492,18.0638546 34.234333,18.0455072 34.2337058,18.0272384 L34.2337058,13.0922572 L38.3529133,13.0922572 C39.2208432,13.0922572 39.92525,12.3865981 39.92525,11.5171252 C39.92525,10.6476523 39.2208432,9.94199311 38.3529133,9.94199311 L32.6610547,9.94199311 C31.7931248,9.94199311 31.088718,10.6476523 31.088718,11.5171252 C31.088718,11.5277483 31.0888232,11.5383469 31.0890325,11.5489201 L31.0890325,16.5071435 L26.9735985,16.5071435 C26.1056687,16.5071435 25.4012619,17.2128027 25.4012619,18.0822756 C25.4012619,18.1104548 25.4020018,18.138462 25.4034632,18.1662787 L25.4034632,23.0782795 L21.2861424,23.0782795 C20.4182126,23.0782795 19.7138058,23.7839386 19.7138058,24.6534115 C19.7138058,24.6718325 19.7141219,24.69018 19.7147492,24.7084487 L19.7147492,29.6434299 L15.5923969,29.6434299 C14.7244671,29.6434299 14.0200603,30.349089 14.0200603,31.2185619 C14.0200603,31.2505322 14.0210127,31.282281 14.0228905,31.3137813 L14.0228905,36.2085803 L9.90525529,36.2085803 C9.03732546,36.2085803 8.33291864,36.9142395 8.33291864,37.7837124 C8.33291864,38.6531853 9.03732546,39.3588444 9.90525529,39.3588444 L15.5939693,39.3588444 C16.4618991,39.3588444 17.1663059,38.6531853 17.1663059,37.7837124 L17.1675638,37.7837124 L17.1675638,32.793694 L21.2874003,32.793694 C22.1553301,32.793694 22.8597369,32.0880348 22.8597369,31.2185619 C22.8597369,31.2079388 22.8596318,31.1973402 22.8594225,31.186767 L22.8594225,26.2285436 Z" fill="#000000"></path>
                </g>
                <g transform="translate(630.433654, 298.163488)">
                    <ellipse stroke="#000000" stroke-width="0.5" fill="#39B54A" cx="24.1290843" cy="24.6504188" rx="23.9529765" ry="23.9955618"></ellipse>
                    <path d="M22.8594225,26.2285436 L26.9748564,26.2285436 C27.8427862,26.2285436 28.5471931,25.5228844 28.5471931,24.6534115 L28.5481365,24.6534115 L28.5481365,19.6574077 L32.6623125,19.6574077 C33.5302424,19.6574077 34.2346492,18.9517485 34.2346492,18.0822756 C34.2346492,18.0638546 34.234333,18.0455072 34.2337058,18.0272384 L34.2337058,13.0922572 L38.3529133,13.0922572 C39.2208432,13.0922572 39.92525,12.3865981 39.92525,11.5171252 C39.92525,10.6476523 39.2208432,9.94199311 38.3529133,9.94199311 L32.6610547,9.94199311 C31.7931248,9.94199311 31.088718,10.6476523 31.088718,11.5171252 C31.088718,11.5277483 31.0888232,11.5383469 31.0890325,11.5489201 L31.0890325,16.5071435 L26.9735985,16.5071435 C26.1056687,16.5071435 25.4012619,17.2128027 25.4012619,18.0822756 C25.4012619,18.1104548 25.4020018,18.138462 25.4034632,18.1662787 L25.4034632,23.0782795 L21.2861424,23.0782795 C20.4182126,23.0782795 19.7138058,23.7839386 19.7138058,24.6534115 C19.7138058,24.6718325 19.7141219,24.69018 19.7147492,24.7084487 L19.7147492,29.6434299 L15.5923969,29.6434299 C14.7244671,29.6434299 14.0200603,30.349089 14.0200603,31.2185619 C14.0200603,31.2505322 14.0210127,31.282281 14.0228905,31.3137813 L14.0228905,36.2085803 L9.90525529,36.2085803 C9.03732546,36.2085803 8.33291864,36.9142395 8.33291864,37.7837124 C8.33291864,38.6531853 9.03732546,39.3588444 9.90525529,39.3588444 L15.5939693,39.3588444 C16.4618991,39.3588444 17.1663059,38.6531853 17.1663059,37.7837124 L17.1675638,37.7837124 L17.1675638,32.793694 L21.2874003,32.793694 C22.1553301,32.793694 22.8597369,32.0880348 22.8597369,31.2185619 C22.8597369,31.2079388 22.8596318,31.1973402 22.8594225,31.186767 L22.8594225,26.2285436 Z" fill="#000000"></path>
                </g>
                <g transform="translate(589.799327, 78.222621)">
                    <ellipse stroke="#000000" stroke-width="0.5" fill="#39B54A" cx="24.1290843" cy="24.6504188" rx="23.9529765" ry="23.9955618"></ellipse>
                    <path d="M22.8594225,26.2285436 L26.9748564,26.2285436 C27.8427862,26.2285436 28.5471931,25.5228844 28.5471931,24.6534115 L28.5481365,24.6534115 L28.5481365,19.6574077 L32.6623125,19.6574077 C33.5302424,19.6574077 34.2346492,18.9517485 34.2346492,18.0822756 C34.2346492,18.0638546 34.234333,18.0455072 34.2337058,18.0272384 L34.2337058,13.0922572 L38.3529133,13.0922572 C39.2208432,13.0922572 39.92525,12.3865981 39.92525,11.5171252 C39.92525,10.6476523 39.2208432,9.94199311 38.3529133,9.94199311 L32.6610547,9.94199311 C31.7931248,9.94199311 31.088718,10.6476523 31.088718,11.5171252 C31.088718,11.5277483 31.0888232,11.5383469 31.0890325,11.5489201 L31.0890325,16.5071435 L26.9735985,16.5071435 C26.1056687,16.5071435 25.4012619,17.2128027 25.4012619,18.0822756 C25.4012619,18.1104548 25.4020018,18.138462 25.4034632,18.1662787 L25.4034632,23.0782795 L21.2861424,23.0782795 C20.4182126,23.0782795 19.7138058,23.7839386 19.7138058,24.6534115 C19.7138058,24.6718325 19.7141219,24.69018 19.7147492,24.7084487 L19.7147492,29.6434299 L15.5923969,29.6434299 C14.7244671,29.6434299 14.0200603,30.349089 14.0200603,31.2185619 C14.0200603,31.2505322 14.0210127,31.282281 14.0228905,31.3137813 L14.0228905,36.2085803 L9.90525529,36.2085803 C9.03732546,36.2085803 8.33291864,36.9142395 8.33291864,37.7837124 C8.33291864,38.6531853 9.03732546,39.3588444 9.90525529,39.3588444 L15.5939693,39.3588444 C16.4618991,39.3588444 17.1663059,38.6531853 17.1663059,37.7837124 L17.1675638,37.7837124 L17.1675638,32.793694 L21.2874003,32.793694 C22.1553301,32.793694 22.8597369,32.0880348 22.8597369,31.2185619 C22.8597369,31.2079388 22.8596318,31.1973402 22.8594225,31.186767 L22.8594225,26.2285436 Z" fill="#000000"></path>
                </g>
                <g transform="translate(566.041193, 492.591467)">
                    <ellipse stroke="#000000" stroke-width="0.5" fill="#39B54A" cx="24.1290843" cy="24.6504188" rx="23.9529765" ry="23.9955618"></ellipse>
                    <path d="M22.8594225,26.2285436 L26.9748564,26.2285436 C27.8427862,26.2285436 28.5471931,25.5228844 28.5471931,24.6534115 L28.5481365,24.6534115 L28.5481365,19.6574077 L32.6623125,19.6574077 C33.5302424,19.6574077 34.2346492,18.9517485 34.2346492,18.0822756 C34.2346492,18.0638546 34.234333,18.0455072 34.2337058,18.0272384 L34.2337058,13.0922572 L38.3529133,13.0922572 C39.2208432,13.0922572 39.92525,12.3865981 39.92525,11.5171252 C39.92525,10.6476523 39.2208432,9.94199311 38.3529133,9.94199311 L32.6610547,9.94199311 C31.7931248,9.94199311 31.088718,10.6476523 31.088718,11.5171252 C31.088718,11.5277483 31.0888232,11.5383469 31.0890325,11.5489201 L31.0890325,16.5071435 L26.9735985,16.5071435 C26.1056687,16.5071435 25.4012619,17.2128027 25.4012619,18.0822756 C25.4012619,18.1104548 25.4020018,18.138462 25.4034632,18.1662787 L25.4034632,23.0782795 L21.2861424,23.0782795 C20.4182126,23.0782795 19.7138058,23.7839386 19.7138058,24.6534115 C19.7138058,24.6718325 19.7141219,24.69018 19.7147492,24.7084487 L19.7147492,29.6434299 L15.5923969,29.6434299 C14.7244671,29.6434299 14.0200603,30.349089 14.0200603,31.2185619 C14.0200603,31.2505322 14.0210127,31.282281 14.0228905,31.3137813 L14.0228905,36.2085803 L9.90525529,36.2085803 C9.03732546,36.2085803 8.33291864,36.9142395 8.33291864,37.7837124 C8.33291864,38.6531853 9.03732546,39.3588444 9.90525529,39.3588444 L15.5939693,39.3588444 C16.4618991,39.3588444 17.1663059,38.6531853 17.1663059,37.7837124 L17.1675638,37.7837124 L17.1675638,32.793694 L21.2874003,32.793694 C22.1553301,32.793694 22.8597369,32.0880348 22.8597369,31.2185619 C22.8597369,31.2079388 22.8596318,31.1973402 22.8594225,31.186767 L22.8594225,26.2285436 Z" fill="#000000"></path>
                </g>
                <g transform="translate(570.666322, 713.589331)">
                    <ellipse stroke="#000000" stroke-width="0.5" fill="#39B54A" cx="25.1290843" cy="25.6504188" rx="23.9529765" ry="23.9955618"></ellipse>
                    <path d="M23.8594225,27.2285436 L27.9748564,27.2285436 C28.8427862,27.2285436 29.5471931,26.5228844 29.5471931,25.6534115 L29.5481365,25.6534115 L29.5481365,20.6574077 L33.6623125,20.6574077 C34.5302424,20.6574077 35.2346492,19.9517485 35.2346492,19.0822756 C35.2346492,19.0638546 35.234333,19.0455072 35.2337058,19.0272384 L35.2337058,14.0922572 L39.3529133,14.0922572 C40.2208432,14.0922572 40.92525,13.3865981 40.92525,12.5171252 C40.92525,11.6476523 40.2208432,10.9419931 39.3529133,10.9419931 L33.6610547,10.9419931 C32.7931248,10.9419931 32.088718,11.6476523 32.088718,12.5171252 C32.088718,12.5277483 32.0888232,12.5383469 32.0890325,12.5489201 L32.0890325,17.5071435 L27.9735985,17.5071435 C27.1056687,17.5071435 26.4012619,18.2128027 26.4012619,19.0822756 C26.4012619,19.1104548 26.4020018,19.138462 26.4034632,19.1662787 L26.4034632,24.0782795 L22.2861424,24.0782795 C21.4182126,24.0782795 20.7138058,24.7839386 20.7138058,25.6534115 C20.7138058,25.6718325 20.7141219,25.69018 20.7147492,25.7084487 L20.7147492,30.6434299 L16.5923969,30.6434299 C15.7244671,30.6434299 15.0200603,31.349089 15.0200603,32.2185619 C15.0200603,32.2505322 15.0210127,32.282281 15.0228905,32.3137813 L15.0228905,37.2085803 L10.9052553,37.2085803 C10.0373255,37.2085803 9.33291864,37.9142395 9.33291864,38.7837124 C9.33291864,39.6531853 10.0373255,40.3588444 10.9052553,40.3588444 L16.5939693,40.3588444 C17.4618991,40.3588444 18.1663059,39.6531853 18.1663059,38.7837124 L18.1675638,38.7837124 L18.1675638,33.793694 L22.2874003,33.793694 C23.1553301,33.793694 23.8597369,33.0880348 23.8597369,32.2185619 C23.8597369,32.2079388 23.8596318,32.1973402 23.8594225,32.186767 L23.8594225,27.2285436 Z" fill="#000000"></path>
                </g>
            </g>
        </g>
    </g>
</svg>