<?xml version="1.0" encoding="UTF-8" standalone="no"?>
<svg width="210px" height="295px" viewBox="0 0 210 295" version="1.1" xmlns="http://www.w3.org/2000/svg" xmlns:xlink="http://www.w3.org/1999/xlink">
    <defs></defs>
    <g stroke="none" stroke-width="1" fill="none" fill-rule="evenodd">
        <g transform="translate(1.000000, 0.000000)" stroke="#000000">
            <path d="M137.332,155.833 L187.999,155.833"></path>
            <path d="M187.999,155.833 L187.999,281"></path>
            <path d="M152.999,155.833 L152.999,281"></path>
            <path></path>
            <path d="M152.999,281 L187.999,281"></path>
            <path d="M152.999,281 L119.331,281"></path>
            <path d="M119.331,293.838 L140.165,293.838"></path>
            <path d="M140.165,293.838 L140.165,281"></path>
            <path d="M119.331,293.838 L108.998,293.838"></path>
            <path d="M108.998,293.838 L108.998,177.005"></path>
            <path d="M99.166,177.005 L152.999,177.005"></path>
            <path d="M130.999,177.005 L130.999,201.838"></path>
            <path d="M130.999,201.838 L152.999,201.838"></path>
            <path d="M121.998,177.005 L121.998,187.172"></path>
            <path d="M119.331,293.838 L119.331,187.172"></path>
            <path d="M119.331,187.172 L121.998,187.172"></path>
            <path d="M119.331,241.501 L143.166,241.501"></path>
            <path d="M143.166,241.501 L143.166,281"></path>
            <path d="M143.166,253.501 L152.999,253.501"></path>
            <circle cx="136.166" cy="221.873" r="15.501"></circle>
            <path d="M99.166,177.005 L99.166,120.506"></path>
            <path d="M137.332,155.833 L137.332,139.006"></path>
            <path d="M137.332,139.006 L99.166,139.006"></path>
            <path d="M99.166,169.507 L0.165,169.507"></path>
            <path d="M0.165,169.507 L0.165,108.84"></path>
            <path d="M0.165,108.84 L99.998,108.84"></path>
            <path d="M99.166,120.506 L72.832,120.506"></path>
            <path d="M72.832,117.173 L72.832,150.84"></path>
            <path d="M58.332,150.84 L99.166,150.84"></path>
            <path d="M58.332,117.173 L58.332,150.84"></path>
            <path d="M47.665,117.173 L72.832,117.173"></path>
            <path d="M47.665,117.173 L47.665,169.507"></path>
            <path d="M90.499,108.84 L90.499,120.506"></path>
            <path d="M118.249,139.006 L118.249,0.674"></path>
            <path d="M118.249,0.674 L51.665,0.674"></path>
            <path d="M51.665,0.674 L51.665,108.84"></path>
            <path d="M51.665,39.341 L118.249,39.341"></path>
            <path d="M99.998,108.84 L99.998,39.341"></path>
            <path d="M99.998,52.841 L51.665,52.841"></path>
            <path d="M72.498,39.341 L72.498,52.841"></path>
            <path d="M14.51,169.507 C7.468,165.278 2.756,157.568 2.756,148.755 C2.756,135.397 13.585,124.567 26.944,124.567 C35.736,124.567 43.434,129.258 47.668,136.275"></path>
            <g transform="translate(132.000000, 0.000000)">
                <path d="M0.666,132.007 L76.333,132.007"></path>
                <path d="M76.333,132.007 L76.333,0.674"></path>
                <path d="M76.333,0.674 L0.666,0.674"></path>
                <path d="M0.666,0.674 L0.666,132.007"></path>
                <path d="M0.666,35.674 L61.333,35.674"></path>
                <path d="M61.333,35.674 L61.333,76.674"></path>
                <path d="M61.333,76.674 L51.333,76.674"></path>
                <path d="M51.333,76.674 L51.333,88.507"></path>
                <path d="M51.333,88.507 L61.333,88.507"></path>
                <path d="M61.333,88.507 L61.333,122.007"></path>
                <path d="M61.333,122.007 L0.666,122.007"></path>
                <path d="M16.833,122.007 L16.833,0.674"></path>
                <path d="M0.666,61.341 L16.833,61.341"></path>
                <path d="M16.833,72.507 L61.333,72.507"></path>
                <path d="M16.833,108.673 L61.333,108.673"></path>
                <path d="M41.499,108.673 L41.499,122.007"></path>
                <path d="M16.833,19.341 L0.666,19.341"></path>
                <path d="M61.333,22.341 L61.333,0.674"></path>
                <path d="M52.499,22.341 L76.333,22.341"></path>
                <path d="M52.499,22.341 L52.499,35.674"></path>
            </g>
            <path d="M72.498,142.667 L58.332,142.667"></path>
        </g>
    </g>
</svg>