<?xml version="1.0" encoding="UTF-8" standalone="no"?>
<svg width="29px" height="28px" viewBox="0 0 29 28" version="1.1" xmlns="http://www.w3.org/2000/svg" xmlns:xlink="http://www.w3.org/1999/xlink">
    <defs></defs>
    <g stroke="none" stroke-width="1" fill="none" fill-rule="evenodd">
        <g transform="translate(-596.000000, -18.000000)" fill="#000000">
            <path d="M613.442651,28.7949669 L613.442651,20.9964905 C613.442651,19.3504982 612.100139,18 610.444065,18 L610.031171,18 C608.376345,18 607.032585,19.3415745 607.032585,20.9964905 L607.032585,28.7949669 L599.234109,28.7949669 C597.588116,28.7949669 596.237618,30.1374795 596.237618,31.7935527 L596.237618,32.2064473 C596.237618,33.8612732 597.579193,35.2050331 599.234109,35.2050331 L607.032585,35.2050331 L607.032585,43.0035095 C607.032585,44.6495018 608.375098,46 610.031171,46 L610.444065,46 C612.098891,46 613.442651,44.6584255 613.442651,43.0035095 L613.442651,35.2050331 L621.241128,35.2050331 C622.88712,35.2050331 624.237618,33.8625205 624.237618,32.2064473 L624.237618,31.7935527 C624.237618,30.1387268 622.896044,28.7949669 621.241128,28.7949669 L613.442651,28.7949669 L613.442651,28.7949669 L613.442651,28.7949669 Z"></path>
        </g>
    </g>
</svg>