<?xml version="1.0" encoding="UTF-8" standalone="no"?>
<svg width="667px" height="375px" viewBox="0 0 667 375" version="1.1" xmlns="http://www.w3.org/2000/svg" xmlns:xlink="http://www.w3.org/1999/xlink">
    <defs></defs>
    <g id="Page-1" stroke="none" stroke-width="1" fill="none" fill-rule="evenodd">
        <g id="rotate-device">
            <g id="Group-2" transform="translate(189.000000, 41.000000)">
                <g id="phone-opacity-reduced" transform="translate(106.500000, 149.500000) rotate(-90.000000) translate(-106.500000, -149.500000) translate(43.000000, 43.000000)">
                    <rect id="Rectangle-36" fill="#EFF1F3" x="0" y="0" width="127" height="213" rx="33"></rect>
                    <rect id="Rectangle-36" fill="#484848" x="8.70564516" y="29.6971154" width="110.100806" height="152.581731" rx="3"></rect>
                    <ellipse id="Oval-283" fill="#484848" cx="43.016129" cy="14.3365385" rx="2.0483871" ry="2.04807692"></ellipse>
                    <ellipse id="Oval-283" fill="#484848" cx="63.7560484" cy="196.871394" rx="9.9858871" ry="9.984375"></ellipse>
                    <rect id="Rectangle-36" fill="#484848" x="52.233871" y="12.2884615" width="23.0443548" height="4.09615385" rx="22.11"></rect>
                </g>
                <g id="phone" transform="translate(163.000000, 0.000000)">
                    <rect id="Rectangle-36" fill="#EFF1F3" x="0" y="0" width="127" height="213" rx="33"></rect>
                    <rect id="Rectangle-36" fill="#484848" x="8.70564516" y="29.6971154" width="110.100806" height="152.581731" rx="3"></rect>
                    <ellipse id="Oval-283" fill="#484848" cx="43.016129" cy="14.3365385" rx="2.0483871" ry="2.04807692"></ellipse>
                    <ellipse id="Oval-283" fill="#484848" cx="63.7560484" cy="196.871394" rx="9.9858871" ry="9.984375"></ellipse>
                    <rect id="Rectangle-36" fill="#484848" x="52.233871" y="12.2884615" width="23.0443548" height="4.09615385" rx="22.11"></rect>
                </g>
                <g id="Arrow" transform="translate(78.000000, 31.000000)" fill="#EFF1F3">
                    <path d="M12.728686,11.4373379 C20.9746908,5.1827567 25.0247451,5.1827567 25.0247451,5.1827567 L25.024745,11.4373377 C25.024745,11.4373377 16.2246134,13.488413 12.7286861,15.7265972 C3.91387479,21.3700705 0.0525716146,34.9441964 0.0525716146,34.9441964 C0.0525716146,34.9441964 4.48268127,17.691919 12.728686,11.4373379 Z" id="Rectangle-179"></path>
                    <path d="M24.7916667,16.4285714 L24.7916667,0 L34,8.21428571 L24.7916667,16.4285714 Z" id="Triangle-1"></path>
                </g>
                <path d="M46.04,285.62 C46.04,285.82 46.2,286 46.42,286 L47.18,286 C47.38,286 47.56,285.82 47.56,285.62 L47.56,280.92 L50.86,280.92 C53.3,280.92 55.32,278.9 55.32,276.42 C55.32,274 53.3,272 50.84,272 L46.42,272 C46.2,272 46.04,272.18 46.04,272.38 L46.04,285.62 Z M47.56,279.44 L47.56,273.52 L50.74,273.52 C52.38,273.52 53.78,274.76 53.78,276.38 C53.78,278.1 52.38,279.44 50.74,279.44 L47.56,279.44 Z M58.0133333,285.62 C58.0133333,285.82 58.1933333,286 58.3933333,286 L59.0133333,286 C59.2133333,286 59.3933333,285.82 59.3933333,285.62 L59.3933333,272.38 C59.3933333,272.18 59.2133333,272 59.0133333,272 L58.3933333,272 C58.1933333,272 58.0133333,272.18 58.0133333,272.38 L58.0133333,285.62 Z M62.5066666,282 C62.5066666,284.3 64.0066666,286.2 66.4266666,286.2 C67.8066666,286.2 68.8866666,285.66 69.3666666,285.28 C69.6666666,285.06 69.5866666,284.94 69.4466666,284.76 C69.3266666,284.6 69.2266666,284.46 69.1066666,284.3 C68.9466666,284.08 68.8266666,284.18 68.5466666,284.34 C68.0866666,284.62 67.4066666,284.94 66.5666666,284.94 C65.1466666,284.94 63.9666666,283.68 63.8866666,282.34 L69.6466666,282.34 C69.8266666,282.34 69.9866666,282.2 70.0066666,282 C70.0266666,281.86 70.0466666,281.6 70.0466666,281.46 C70.0466666,279.36 68.5266666,277.8 66.4266666,277.8 C64.0066666,277.8 62.5066666,279.74 62.5066666,282 L62.5066666,282 Z M63.9066666,281.22 C64.0466666,279.98 65.0866666,279.02 66.4266666,279.02 C67.6466666,279.02 68.6066666,280.06 68.6666666,281.22 L63.9066666,281.22 Z M72.4799999,283.58 C72.4799999,285.18 73.5399999,286.2 74.9399999,286.2 C76.1799999,286.2 76.9999999,285.58 77.4199999,285.16 L77.5799999,285.7 C77.6399999,285.88 77.6999999,286 77.9199999,286 L78.2999999,286 C78.4999999,286 78.6799999,285.82 78.6799999,285.62 L78.6799999,281.18 C78.6799999,278.84 78.1799999,277.8 76.1399999,277.8 C74.6399999,277.8 73.4799999,278.26 73.3599999,278.32 C73.1799999,278.4 73.0599999,278.52 73.1399999,278.76 L73.2999999,279.26 C73.3599999,279.44 73.4799999,279.54 73.6799999,279.46 C74.0399999,279.32 74.9799999,279.02 76.0799999,279.02 C77.2199999,279.02 77.3999999,279.7 77.3799999,281.18 C77.3799999,281.18 76.5399999,280.92 75.6799999,280.92 C73.6199999,280.92 72.4799999,282.06 72.4799999,283.58 L72.4799999,283.58 Z M73.7599999,283.58 C73.7599999,282.54 74.5599999,281.98 75.6799999,281.98 C76.5599999,281.98 77.1199999,282.16 77.3599999,282.3 L77.3599999,283.88 C77.0199999,284.38 76.1599999,285 75.1599999,285 C74.2999999,285 73.7599999,284.38 73.7599999,283.58 L73.7599999,283.58 Z M81.9133333,285.3 C82.3533333,285.64 83.1733333,286.2 84.5133333,286.2 C86.1533333,286.2 87.2733333,285.1 87.2733333,283.94 C87.2733333,282.5 86.0333333,281.88 84.6533333,281.22 C83.8333333,280.82 83.1733333,280.52 83.1733333,279.86 C83.1733333,279.52 83.4133333,279.06 84.3133333,279.06 C85.0533333,279.06 85.9133333,279.54 85.9133333,279.54 C86.0933333,279.64 86.3733333,279.58 86.4933333,279.36 L86.6533333,279.04 C86.7733333,278.82 86.7133333,278.54 86.5333333,278.42 C86.1533333,278.16 85.3533333,277.8 84.3133333,277.8 C82.4533333,277.8 81.7733333,279.04 81.7733333,279.88 C81.7733333,281.24 82.9933333,281.94 84.0533333,282.46 C85.2133333,283.04 85.8133333,283.36 85.8133333,284.06 C85.8133333,284.6 85.3333333,285.02 84.5133333,285.02 C83.4933333,285.02 82.6333333,284.32 82.6333333,284.32 C82.4133333,284.18 82.1933333,284.22 82.0933333,284.38 C82.0333333,284.48 81.8933333,284.76 81.8133333,284.88 C81.7533333,285.02 81.8133333,285.22 81.9133333,285.3 L81.9133333,285.3 Z M89.6666666,282 C89.6666666,284.3 91.1666666,286.2 93.5866666,286.2 C94.9666666,286.2 96.0466666,285.66 96.5266666,285.28 C96.8266666,285.06 96.7466666,284.94 96.6066666,284.76 C96.4866666,284.6 96.3866666,284.46 96.2666666,284.3 C96.1066666,284.08 95.9866666,284.18 95.7066666,284.34 C95.2466666,284.62 94.5666666,284.94 93.7266666,284.94 C92.3066666,284.94 91.1266666,283.68 91.0466666,282.34 L96.8066666,282.34 C96.9866666,282.34 97.1466666,282.2 97.1666666,282 C97.1866666,281.86 97.2066666,281.6 97.2066666,281.46 C97.2066666,279.36 95.6866666,277.8 93.5866666,277.8 C91.1666666,277.8 89.6666666,279.74 89.6666666,282 L89.6666666,282 Z M91.0666666,281.22 C91.2066666,279.98 92.2466666,279.02 93.5866666,279.02 C94.8066666,279.02 95.7666666,280.06 95.8266666,281.22 L91.0666666,281.22 Z M108.093333,285.62 C108.093333,285.82 108.273333,286 108.473333,286 L109.233333,286 C109.433333,286 109.613333,285.82 109.613333,285.62 L109.613333,273.34 L113.093333,273.34 C113.313333,273.34 113.473333,273.16 113.473333,272.96 L113.473333,272.38 C113.473333,272.18 113.313333,272 113.093333,272 L104.613333,272 C104.393333,272 104.233333,272.18 104.233333,272.38 L104.233333,272.96 C104.233333,273.16 104.393333,273.34 104.613333,273.34 L108.093333,273.34 L108.093333,285.62 Z M114.566667,282.58 C114.566667,284.7 115.346667,286.2 117.666667,286.2 C119.326667,286.2 120.266667,285.14 120.266667,285.14 L120.406667,285.66 C120.466667,285.86 120.546667,286 120.766667,286 L121.146667,286 C121.346667,286 121.526667,285.82 121.526667,285.62 L121.526667,278.38 C121.526667,278.18 121.346667,278 121.146667,278 L120.526667,278 C120.326667,278 120.146667,278.18 120.146667,278.38 L120.146667,283.72 C120.146667,283.72 119.286667,284.86 117.766667,284.86 C116.646667,284.86 115.966667,284.12 115.966667,282.6 L115.966667,278.38 C115.966667,278.18 115.786667,278 115.586667,278 L114.946667,278 C114.746667,278 114.566667,278.18 114.566667,278.38 L114.566667,282.58 Z M125.2,285.62 C125.2,285.82 125.38,286 125.58,286 L126.2,286 C126.4,286 126.58,285.82 126.58,285.62 L126.58,280.28 C126.58,280.28 127.24,279.16 128.76,279.16 C129.06,279.16 129.36,279.24 129.54,279.32 C129.74,279.4 129.92,279.4 130.02,279.14 L130.26,278.46 C130.46,277.9 129.46,277.8 128.86,277.8 C127.2,277.8 126.46,278.86 126.46,278.86 L126.3,278.28 C126.26,278.1 126.12,278 125.96,278 L125.58,278 C125.38,278 125.2,278.18 125.2,278.38 L125.2,285.62 Z M132.713333,285.62 C132.713333,285.82 132.893333,286 133.093333,286 L133.713333,286 C133.913333,286 134.093333,285.82 134.093333,285.62 L134.093333,280.28 C134.093333,280.28 135.173333,279.14 136.673333,279.14 C137.793333,279.14 138.473333,279.88 138.473333,281.4 L138.473333,285.62 C138.473333,285.82 138.653333,286 138.853333,286 L139.493333,286 C139.693333,286 139.873333,285.82 139.873333,285.62 L139.873333,281.4 C139.873333,279.32 139.093333,277.8 136.773333,277.8 C135.113333,277.8 133.973333,278.86 133.973333,278.86 L133.793333,278.24 C133.753333,278.08 133.653333,278 133.473333,278 L133.093333,278 C132.893333,278 132.713333,278.18 132.713333,278.38 L132.713333,285.62 Z M152.16,285.62 C152.16,285.82 152.32,286 152.54,286 L153.32,286 C153.52,286 153.7,285.82 153.7,285.62 L153.7,279.24 L158.58,272.58 C158.74,272.32 158.58,272 158.26,272 L157.32,272 C157.18,272 157.06,272.1 157,272.18 L152.96,277.76 L148.92,272.18 C148.86,272.1 148.74,272 148.6,272 L147.66,272 C147.34,272 147.18,272.32 147.34,272.58 L152.16,279.26 L152.16,285.62 Z M158.093333,281.98 C158.093333,284.28 159.853333,286.2 162.073333,286.2 C164.293333,286.2 166.053333,284.28 166.053333,281.98 C166.053333,279.72 164.293333,277.8 162.073333,277.8 C159.853333,277.8 158.093333,279.72 158.093333,281.98 L158.093333,281.98 Z M159.473333,281.98 C159.473333,280.4 160.613333,279.12 162.073333,279.12 C163.533333,279.12 164.673333,280.4 164.673333,281.98 C164.673333,283.6 163.533333,284.9 162.073333,284.9 C160.613333,284.9 159.473333,283.6 159.473333,281.98 L159.473333,281.98 Z M169.046666,282.58 C169.046666,284.7 169.826666,286.2 172.146666,286.2 C173.806666,286.2 174.746666,285.14 174.746666,285.14 L174.886666,285.66 C174.946666,285.86 175.026666,286 175.246666,286 L175.626666,286 C175.826666,286 176.006666,285.82 176.006666,285.62 L176.006666,278.38 C176.006666,278.18 175.826666,278 175.626666,278 L175.006666,278 C174.806666,278 174.626666,278.18 174.626666,278.38 L174.626666,283.72 C174.626666,283.72 173.766666,284.86 172.246666,284.86 C171.126666,284.86 170.446666,284.12 170.446666,282.6 L170.446666,278.38 C170.446666,278.18 170.266666,278 170.066666,278 L169.426666,278 C169.226666,278 169.046666,278.18 169.046666,278.38 L169.046666,282.58 Z M179.68,285.62 C179.68,285.82 179.86,286 180.06,286 L180.68,286 C180.88,286 181.06,285.82 181.06,285.62 L181.06,280.28 C181.06,280.28 181.72,279.16 183.24,279.16 C183.54,279.16 183.84,279.24 184.02,279.32 C184.22,279.4 184.4,279.4 184.5,279.14 L184.74,278.46 C184.94,277.9 183.94,277.8 183.34,277.8 C181.68,277.8 180.94,278.86 180.94,278.86 L180.78,278.28 C180.74,278.1 180.6,278 180.44,278 L180.06,278 C179.86,278 179.68,278.18 179.68,278.38 L179.68,285.62 Z M193.086666,285.62 C193.086666,285.82 193.246666,286 193.446666,286 L197.926666,286 C201.786666,286 204.946666,282.86 204.946666,278.98 C204.946666,275.14 201.786666,272 197.926666,272 L193.446666,272 C193.246666,272 193.086666,272.18 193.086666,272.38 L193.086666,285.62 Z M194.606666,284.62 L194.606666,273.36 L197.606666,273.36 C200.886666,273.36 203.266666,275.7 203.266666,278.98 C203.266666,282.28 200.886666,284.62 197.606666,284.62 L194.606666,284.62 Z M207.44,282 C207.44,284.3 208.94,286.2 211.36,286.2 C212.74,286.2 213.82,285.66 214.3,285.28 C214.6,285.06 214.52,284.94 214.38,284.76 C214.26,284.6 214.16,284.46 214.04,284.3 C213.88,284.08 213.76,284.18 213.48,284.34 C213.02,284.62 212.34,284.94 211.5,284.94 C210.08,284.94 208.9,283.68 208.82,282.34 L214.58,282.34 C214.76,282.34 214.92,282.2 214.94,282 C214.96,281.86 214.98,281.6 214.98,281.46 C214.98,279.36 213.46,277.8 211.36,277.8 C208.94,277.8 207.44,279.74 207.44,282 L207.44,282 Z M208.84,281.22 C208.98,279.98 210.02,279.02 211.36,279.02 C212.58,279.02 213.54,280.06 213.6,281.22 L208.84,281.22 Z M220.273333,286 C220.313333,286.1 220.433333,286.2 220.613333,286.2 L220.713333,286.2 C220.893333,286.2 221.013333,286.1 221.053333,286 L224.473333,278.46 C224.593333,278.2 224.473333,278 224.173333,278 L223.653333,278 C223.493333,278 223.373333,278.1 223.313333,278.22 L220.673333,283.94 L220.653333,283.94 L218.173333,278.22 C218.113333,278.1 217.993333,278 217.813333,278 L217.193333,278 C216.893333,278 216.773333,278.2 216.893333,278.46 L220.273333,286 Z M227.706666,274.3 C228.246666,274.3 228.666666,273.88 228.666666,273.36 C228.666666,272.82 228.246666,272.4 227.706666,272.4 C227.186666,272.4 226.766666,272.82 226.766666,273.36 C226.766666,273.88 227.186666,274.3 227.706666,274.3 L227.706666,274.3 Z M227.046666,285.62 C227.046666,285.82 227.226666,286 227.426666,286 L228.046666,286 C228.246666,286 228.426666,285.82 228.426666,285.62 L228.426666,278.38 C228.426666,278.18 228.246666,278 228.046666,278 L227.426666,278 C227.226666,278 227.046666,278.18 227.046666,278.38 L227.046666,285.62 Z M231.5,282.02 C231.5,284.42 233.38,286.2 235.6,286.2 C236.96,286.2 238.06,285.48 238.66,284.52 C238.78,284.32 238.72,284.1 238.52,283.96 L238.3,283.8 C238.08,283.64 237.94,283.6 237.7,283.84 C237.24,284.28 236.78,284.88 235.58,284.88 C234.08,284.88 232.94,283.6 232.94,282 C232.94,280.4 234.1,279.16 235.6,279.16 C236.38,279.16 237.04,279.54 237.44,280 C237.62,280.16 237.72,280.36 238.02,280.08 L238.4,279.76 C238.58,279.62 238.62,279.38 238.48,279.2 C237.76,278.28 236.82,277.8 235.62,277.8 C233.44,277.8 231.5,279.66 231.5,282.02 L231.5,282.02 Z M241.173333,282 C241.173333,284.3 242.673333,286.2 245.093333,286.2 C246.473333,286.2 247.553333,285.66 248.033333,285.28 C248.333333,285.06 248.253333,284.94 248.113333,284.76 C247.993333,284.6 247.893333,284.46 247.773333,284.3 C247.613333,284.08 247.493333,284.18 247.213333,284.34 C246.753333,284.62 246.073333,284.94 245.233333,284.94 C243.813333,284.94 242.633333,283.68 242.553333,282.34 L248.313333,282.34 C248.493333,282.34 248.653333,282.2 248.673333,282 C248.693333,281.86 248.713333,281.6 248.713333,281.46 C248.713333,279.36 247.193333,277.8 245.093333,277.8 C242.673333,277.8 241.173333,279.74 241.173333,282 L241.173333,282 Z M242.573333,281.22 C242.713333,279.98 243.753333,279.02 245.093333,279.02 C246.313333,279.02 247.273333,280.06 247.333333,281.22 L242.573333,281.22 Z" id="Please-Turn-Your-Dev" fill="#EFF1F3"></path>
            </g>
        </g>
    </g>
</svg>