<?xml version="1.0" encoding="UTF-8" standalone="no"?>
<svg width="112px" height="75px" viewBox="0 0 112 75" version="1.1" xmlns="http://www.w3.org/2000/svg" xmlns:xlink="http://www.w3.org/1999/xlink">
    <defs></defs>
    <g id="Page-1" stroke="none" stroke-width="1" fill="none" fill-rule="evenodd">
        <g id="Group">
            <path d="M47.776,18.788 C46.962,18.897 46.187,18.217 46.043,17.269 C45.899,16.32 46.442,15.463 47.255,15.353 C48.068,15.244 48.844,15.924 48.988,16.872 C49.132,17.821 48.589,18.678 47.776,18.788 L47.776,18.788 L47.776,18.788 L47.776,18.788 Z M101.602,1.131 C100.549,1.65 92.169,4.863 89.092,4.711 C86.017,4.56 82.181,3.6 79.92,3.146 C78.279,2.817 77.345,2.77 76.366,3.248 C74.595,4.703 73.167,7.808 68.506,9.021 C67.165,9.37 66.313,8.94 66.357,8.46 C66.404,7.94 68.896,8.348 72.591,5.29 C67.764,3.26 62.537,2.717 58.237,2.751 C51.192,2.817 44.166,4.588 40.338,7.261 C38.959,8.224 37.717,9.504 36.516,10.742 C34.737,12.574 33.059,14.304 31.06,14.991 C27.288,16.289 16.927,18.812 13.603,19.133 L12.419,19.242 C9.38,19.513 7.185,19.709 6.793,21.55 C6.469,23.078 7.182,26.292 8.591,27.524 C8.657,27.788 8.724,28.062 8.793,28.345 C9.537,31.41 10.556,35.606 13.934,37.923 C17.359,40.272 22.895,42.951 35.517,42.834 C35.606,42.833 35.694,42.833 35.784,42.833 C46.663,42.833 52.039,49.167 55.509,54.702 C55.677,54.97 55.965,55.117 56.26,55.117 C56.42,55.117 56.583,55.073 56.729,54.981 C57.144,54.722 57.269,54.176 57.009,53.762 C53.266,47.791 47.439,40.948 35.499,41.063 C35.231,41.066 34.966,41.067 34.704,41.067 C23.154,41.067 18.075,38.616 14.936,36.463 C12.116,34.529 11.228,30.869 10.513,27.927 C10.448,27.658 10.385,27.412 10.322,27.161 C13.241,26.182 14.351,22.528 14.721,20.774 C18.996,20.146 28.382,17.785 31.636,16.666 C34.034,15.841 35.941,13.875 37.786,11.975 C38.64,11.096 39.515,10.195 40.419,9.434 C40.477,9.388 40.53,9.348 40.585,9.304 C40.734,9.183 40.884,9.071 41.034,8.959 C41.431,8.663 41.756,8.442 42.017,8.286 C42.049,8.267 42.084,8.249 42.115,8.23 C43.868,7.236 42.54,9.371 42.402,9.574 C42.389,9.592 42.391,9.599 42.381,9.615 C31.109,24.053 39.737,33.047 46.198,35.784 C52.445,38.43 58.797,36.637 65.339,46.12 C72.938,57.136 77.717,57.903 92.372,54.986 C101.201,53.229 93.543,34.076 86.154,25.503 C85.536,24.786 85.019,24.158 84.578,23.596 C102.123,18.352 103.547,6.175 103.996,3.533 C104.479,0.701 102.656,0.611 101.602,1.131 L101.602,1.131 L101.602,1.131 L101.602,1.131 Z" id="Fill-1" fill="#223843"></path>
            <path d="M7.365,68.934 L6.293,69.041 C6.245,68.684 6.142,68.376 5.982,68.117 C5.823,67.859 5.623,67.65 5.381,67.491 C5.139,67.333 4.86,67.216 4.547,67.14 C4.232,67.065 3.893,67.026 3.527,67.026 C3.368,67.026 3.193,67.037 3.003,67.057 C2.813,67.076 2.634,67.12 2.467,67.187 C2.3,67.255 2.161,67.354 2.05,67.485 C1.938,67.617 1.883,67.794 1.883,68.016 C1.883,68.207 1.944,68.363 2.067,68.487 C2.19,68.61 2.357,68.713 2.568,68.797 C2.778,68.88 3.022,68.95 3.301,69.005 C3.579,69.061 3.871,69.114 4.177,69.166 C4.482,69.218 4.797,69.279 5.118,69.351 C5.44,69.423 5.752,69.51 6.054,69.613 C6.626,69.82 7.071,70.122 7.389,70.519 C7.707,70.916 7.866,71.457 7.866,72.14 C7.866,72.608 7.782,73.021 7.615,73.379 C7.448,73.737 7.214,74.035 6.912,74.273 C6.61,74.512 6.251,74.692 5.834,74.815 C5.416,74.938 4.962,75 4.469,75 C3.881,75 3.402,74.944 3.033,74.833 C2.663,74.723 2.348,74.595 2.085,74.452 C1.902,74.349 1.739,74.297 1.597,74.297 C1.485,74.297 1.386,74.349 1.299,74.452 C1.211,74.556 1.14,74.675 1.084,74.81 L0,74.81 L0,71.663 L1.072,71.592 C1.136,72.291 1.434,72.821 1.966,73.183 C2.498,73.544 3.21,73.725 4.1,73.725 C4.346,73.725 4.582,73.709 4.809,73.678 C5.035,73.646 5.233,73.586 5.404,73.499 C5.575,73.411 5.71,73.288 5.81,73.129 C5.909,72.971 5.959,72.764 5.959,72.51 C5.959,72.239 5.852,72.034 5.637,71.895 C5.423,71.757 5.146,71.646 4.809,71.562 C4.471,71.479 4.092,71.409 3.671,71.354 C3.249,71.298 2.832,71.214 2.419,71.103 C1.593,70.889 0.986,70.564 0.602,70.132 C0.216,69.698 0.023,69.081 0.023,68.278 C0.023,67.944 0.079,67.627 0.19,67.325 C0.302,67.022 0.48,66.757 0.727,66.526 C0.973,66.296 1.287,66.111 1.668,65.972 C2.05,65.833 2.511,65.764 3.051,65.764 C3.623,65.764 4.092,65.815 4.457,65.918 C4.822,66.022 5.128,66.137 5.375,66.264 C5.462,66.312 5.54,66.348 5.607,66.371 C5.675,66.396 5.744,66.407 5.815,66.407 C5.982,66.407 6.107,66.369 6.191,66.294 C6.274,66.219 6.36,66.105 6.447,65.954 L7.365,65.954 L7.365,68.934" id="Fill-3" fill="#FFFFFF"></path>
            <path d="M17.591,68.636 L16.399,68.695 C16.352,67.679 15.906,67.17 15.064,67.17 L12.823,67.17 L12.823,69.661 L13.729,69.661 C14.103,69.661 14.325,69.216 14.396,68.326 L15.445,68.326 L15.267,72.045 L14.242,72.045 C14.154,71.123 13.956,70.662 13.646,70.662 L12.823,70.662 L12.823,73.594 L14.635,73.594 C15.891,73.594 16.565,72.839 16.661,71.329 L17.877,71.413 L17.591,74.81 L9.344,74.81 L9.344,73.832 C10.051,73.832 10.404,73.65 10.404,73.284 L10.404,67.479 C10.404,67.114 10.051,66.932 9.344,66.932 L9.344,65.954 L17.591,65.954 L17.591,68.636" id="Fill-5" fill="#FFFFFF"></path>
            <path d="M28.81,73.174 C28.81,73.549 29.271,73.735 30.197,73.735 L30.197,74.81 L24.619,74.81 L24.619,73.735 C25.701,73.735 26.243,73.549 26.243,73.174 L26.243,68.394 L24.501,68.394 L24.448,67.385 C25.671,67.358 26.513,66.84 26.976,65.827 L28.888,65.971 C28.861,66.206 28.842,66.406 28.829,66.572 C28.815,66.737 28.81,66.895 28.81,67.042 L28.81,73.174" id="Fill-6" fill="#FFFFFF"></path>
            <path d="M38.656,72.427 C38.674,72.54 38.685,72.678 38.688,72.839 C38.693,73 38.695,73.129 38.695,73.226 C38.695,73.461 38.665,73.684 38.604,73.893 C38.543,74.103 38.442,74.286 38.303,74.443 C38.163,74.6 37.986,74.725 37.772,74.816 C37.559,74.908 37.303,74.953 37.006,74.953 C36.526,74.953 36.138,74.912 35.841,74.829 C35.544,74.746 35.275,74.654 35.035,74.555 C34.795,74.454 34.556,74.362 34.315,74.279 C34.075,74.196 33.776,74.155 33.418,74.155 C33.112,74.155 32.861,74.209 32.665,74.318 C32.469,74.428 32.31,74.592 32.187,74.81 L31.244,74.81 C31.376,74.067 31.578,73.459 31.854,72.982 C32.129,72.507 32.434,72.11 32.771,71.791 C33.106,71.473 33.451,71.204 33.805,70.986 C34.158,70.768 34.481,70.545 34.773,70.318 C35.066,70.091 35.306,69.832 35.494,69.539 C35.682,69.247 35.775,68.864 35.775,68.394 C35.775,67.922 35.643,67.56 35.376,67.307 C35.109,67.054 34.749,66.927 34.296,66.927 C33.859,66.927 33.531,66.992 33.313,67.123 C33.096,67.254 32.938,67.416 32.842,67.607 C33.025,67.616 33.195,67.706 33.353,67.876 C33.51,68.046 33.589,68.258 33.589,68.511 C33.589,68.816 33.495,69.07 33.307,69.27 C33.119,69.472 32.855,69.571 32.515,69.571 C32.183,69.571 31.928,69.465 31.749,69.251 C31.569,69.037 31.481,68.765 31.481,68.433 C31.481,68.162 31.544,67.876 31.67,67.575 C31.797,67.273 31.997,66.999 32.272,66.75 C32.548,66.501 32.898,66.294 33.326,66.128 C33.754,65.962 34.265,65.879 34.858,65.879 C35.304,65.879 35.74,65.923 36.168,66.01 C36.596,66.098 36.976,66.246 37.308,66.455 C37.639,66.665 37.907,66.944 38.112,67.293 C38.317,67.643 38.421,68.079 38.421,68.603 C38.421,69.205 38.294,69.696 38.041,70.076 C37.787,70.456 37.467,70.766 37.078,71.006 C36.689,71.246 36.267,71.44 35.808,71.588 C35.35,71.737 34.911,71.885 34.492,72.033 C34.073,72.182 33.708,72.35 33.398,72.538 C33.089,72.726 32.89,72.98 32.803,73.304 C33.056,73.077 33.322,72.915 33.602,72.819 C33.881,72.724 34.195,72.675 34.545,72.675 C34.841,72.675 35.099,72.701 35.317,72.754 C35.535,72.806 35.736,72.863 35.919,72.924 C36.103,72.985 36.281,73.042 36.456,73.094 C36.631,73.146 36.823,73.173 37.032,73.173 C37.276,73.173 37.479,73.123 37.642,73.022 C37.803,72.922 37.905,72.724 37.949,72.427 L38.656,72.427" id="Fill-7" fill="#FFFFFF"></path>
            <path d="M52.571,68.934 L51.499,69.041 C51.451,68.684 51.348,68.376 51.188,68.117 C51.029,67.859 50.829,67.65 50.587,67.491 C50.345,67.333 50.066,67.216 49.753,67.14 C49.439,67.065 49.099,67.026 48.733,67.026 C48.574,67.026 48.399,67.037 48.209,67.057 C48.019,67.076 47.84,67.12 47.673,67.187 C47.506,67.255 47.367,67.354 47.256,67.485 C47.145,67.617 47.089,67.794 47.089,68.016 C47.089,68.207 47.15,68.363 47.273,68.487 C47.397,68.61 47.563,68.713 47.774,68.797 C47.984,68.88 48.229,68.95 48.507,69.005 C48.785,69.061 49.077,69.114 49.383,69.166 C49.688,69.218 50.003,69.279 50.324,69.351 C50.646,69.423 50.958,69.51 51.26,69.613 C51.832,69.82 52.277,70.122 52.595,70.519 C52.913,70.916 53.072,71.457 53.072,72.14 C53.072,72.608 52.988,73.021 52.821,73.379 C52.654,73.737 52.42,74.035 52.118,74.273 C51.816,74.512 51.457,74.692 51.04,74.815 C50.622,74.938 50.168,75 49.675,75 C49.087,75 48.608,74.944 48.239,74.833 C47.869,74.723 47.554,74.595 47.291,74.452 C47.108,74.349 46.945,74.297 46.803,74.297 C46.691,74.297 46.592,74.349 46.505,74.452 C46.417,74.556 46.346,74.675 46.29,74.81 L45.206,74.81 L45.206,71.663 L46.278,71.592 C46.342,72.291 46.64,72.821 47.172,73.183 C47.704,73.544 48.416,73.725 49.306,73.725 C49.552,73.725 49.788,73.709 50.015,73.678 C50.241,73.646 50.439,73.586 50.61,73.499 C50.781,73.411 50.916,73.288 51.016,73.129 C51.115,72.971 51.165,72.764 51.165,72.51 C51.165,72.239 51.058,72.034 50.843,71.895 C50.629,71.757 50.353,71.646 50.015,71.562 C49.677,71.479 49.298,71.409 48.877,71.354 C48.455,71.298 48.038,71.214 47.625,71.103 C46.799,70.889 46.192,70.564 45.808,70.132 C45.422,69.698 45.229,69.081 45.229,68.278 C45.229,67.944 45.285,67.627 45.396,67.325 C45.508,67.022 45.687,66.757 45.933,66.526 C46.179,66.296 46.493,66.111 46.874,65.972 C47.256,65.833 47.717,65.764 48.257,65.764 C48.829,65.764 49.298,65.815 49.663,65.918 C50.028,66.022 50.334,66.137 50.581,66.264 C50.668,66.312 50.746,66.348 50.813,66.371 C50.881,66.396 50.95,66.407 51.021,66.407 C51.188,66.407 51.314,66.369 51.397,66.294 C51.48,66.219 51.566,66.105 51.653,65.954 L52.571,65.954 L52.571,68.934" id="Fill-8" fill="#FFFFFF"></path>
            <path d="M63.644,69.602 L62.606,69.637 C62.566,68.739 62.426,68.104 62.184,67.731 C61.94,67.356 61.589,67.17 61.128,67.17 L60.318,67.17 L60.318,73.284 C60.318,73.65 60.676,73.832 61.391,73.832 L61.391,74.81 L56.826,74.81 L56.826,73.832 C57.533,73.832 57.887,73.65 57.887,73.284 L57.887,67.17 L57.064,67.17 C56.604,67.17 56.254,67.356 56.016,67.731 C55.777,68.104 55.634,68.739 55.586,69.637 L54.55,69.602 L54.55,65.954 L63.644,65.954 L63.644,69.602" id="Fill-9" fill="#FFFFFF"></path>
            <path d="M74.835,66.932 C74.12,66.932 73.763,67.114 73.763,67.479 L73.763,71.198 C73.763,71.786 73.703,72.315 73.584,72.783 C73.465,73.252 73.264,73.65 72.982,73.976 C72.7,74.301 72.324,74.554 71.855,74.732 C71.387,74.911 70.803,75 70.104,75 C69.389,75 68.781,74.911 68.28,74.732 C67.779,74.554 67.374,74.301 67.064,73.976 C66.755,73.65 66.528,73.252 66.385,72.783 C66.242,72.315 66.171,71.786 66.171,71.198 L66.171,67.479 C66.171,67.114 65.817,66.932 65.11,66.932 L65.11,65.954 L69.842,65.954 L69.842,66.932 C69.389,66.932 69.066,66.978 68.876,67.068 C68.686,67.16 68.59,67.297 68.59,67.479 L68.59,71.198 C68.59,71.636 68.62,72.011 68.68,72.324 C68.739,72.639 68.841,72.895 68.983,73.094 C69.126,73.292 69.321,73.438 69.567,73.534 C69.813,73.63 70.123,73.678 70.497,73.678 C70.87,73.678 71.187,73.63 71.444,73.534 C71.703,73.438 71.911,73.292 72.07,73.094 C72.229,72.895 72.343,72.639 72.41,72.324 C72.478,72.011 72.512,71.636 72.512,71.198 L72.512,67.479 C72.512,67.297 72.414,67.16 72.22,67.068 C72.024,66.978 71.701,66.932 71.248,66.932 L71.248,65.954 L74.835,65.954 L74.835,66.932" id="Fill-10" fill="#FFFFFF"></path>
            <path d="M79.757,67.17 L79.757,73.594 L81.247,73.594 C81.597,73.594 81.883,73.526 82.105,73.392 C82.327,73.256 82.5,73.05 82.623,72.772 C82.746,72.493 82.832,72.14 82.88,71.711 C82.928,71.281 82.951,70.774 82.951,70.186 C82.951,69.598 82.928,69.108 82.88,68.72 C82.832,68.33 82.746,68.021 82.623,67.79 C82.5,67.56 82.327,67.399 82.105,67.307 C81.883,67.216 81.597,67.17 81.247,67.17 L79.757,67.17 L79.757,67.17 L79.757,67.17 L79.757,67.17 Z M81.057,65.954 C81.811,65.954 82.465,66.006 83.017,66.109 C83.569,66.213 84.023,66.413 84.382,66.711 C84.739,67.009 85.005,67.435 85.18,67.986 C85.354,68.539 85.442,69.26 85.442,70.149 C85.442,71.071 85.354,71.832 85.18,72.432 C85.005,73.032 84.739,73.509 84.382,73.862 C84.023,74.216 83.569,74.462 83.017,74.601 C82.465,74.74 81.811,74.81 81.057,74.81 L76.277,74.81 L76.277,73.832 C76.984,73.832 77.338,73.65 77.338,73.284 L77.338,67.479 C77.338,67.114 76.984,66.932 76.277,66.932 L76.277,65.954 L81.057,65.954 L81.057,65.954 L81.057,65.954 L81.057,65.954 Z" id="Fill-11" fill="#FFFFFF"></path>
            <path d="M91.651,66.932 C90.943,66.932 90.591,67.114 90.591,67.479 L90.591,73.284 C90.591,73.65 90.943,73.832 91.651,73.832 L91.651,74.81 L87.099,74.81 L87.099,73.832 C87.813,73.832 88.171,73.65 88.171,73.284 L88.171,67.479 C88.171,67.114 87.813,66.932 87.099,66.932 L87.099,65.954 L91.651,65.954 L91.651,66.932" id="Fill-12" fill="#FFFFFF"></path>
            <path d="M97.92,67.026 C97.156,67.026 96.591,67.264 96.221,67.736 C95.852,68.209 95.667,68.97 95.667,70.019 C95.667,70.781 95.715,71.403 95.81,71.884 C95.905,72.364 96.04,72.74 96.215,73.01 C96.39,73.28 96.603,73.465 96.853,73.564 C97.104,73.663 97.379,73.713 97.681,73.713 C98.078,73.713 98.418,73.655 98.7,73.54 C98.982,73.425 99.213,73.238 99.392,72.98 C99.57,72.722 99.701,72.386 99.785,71.973 C99.868,71.56 99.91,71.056 99.91,70.459 C99.91,69.769 99.862,69.202 99.767,68.761 C99.672,68.32 99.536,67.971 99.361,67.712 C99.187,67.454 98.977,67.275 98.729,67.176 C98.483,67.076 98.213,67.026 97.92,67.026 L97.92,67.026 L97.92,67.026 L97.92,67.026 Z M97.859,65.764 C98.504,65.764 99.098,65.841 99.642,65.996 C100.186,66.15 100.654,66.407 101.048,66.765 C101.441,67.122 101.747,67.597 101.966,68.188 C102.185,68.781 102.294,69.51 102.294,70.376 C102.294,71.091 102.2,71.734 102.014,72.307 C101.826,72.879 101.543,73.363 101.161,73.761 C100.78,74.158 100.301,74.464 99.725,74.679 C99.148,74.893 98.468,75 97.681,75 C97.037,75 96.445,74.925 95.905,74.773 C95.365,74.623 94.898,74.375 94.505,74.029 C94.111,73.684 93.806,73.227 93.587,72.658 C93.368,72.09 93.26,71.394 93.26,70.566 C93.26,69.82 93.345,69.148 93.516,68.553 C93.687,67.956 93.957,67.452 94.326,67.039 C94.695,66.626 95.17,66.31 95.75,66.091 C96.33,65.873 97.033,65.764 97.859,65.764 L97.859,65.764 L97.859,65.764 L97.859,65.764 Z" id="Fill-13" fill="#FFFFFF"></path>
            <path d="M111.138,68.934 L110.065,69.041 C110.018,68.684 109.914,68.376 109.755,68.117 C109.596,67.859 109.396,67.65 109.153,67.491 C108.911,67.333 108.633,67.216 108.319,67.14 C108.005,67.065 107.665,67.026 107.3,67.026 C107.141,67.026 106.966,67.037 106.775,67.057 C106.585,67.076 106.406,67.12 106.239,67.187 C106.072,67.255 105.934,67.354 105.822,67.485 C105.711,67.617 105.655,67.794 105.655,68.016 C105.655,68.207 105.717,68.363 105.84,68.487 C105.963,68.61 106.13,68.713 106.341,68.797 C106.551,68.88 106.795,68.95 107.073,69.005 C107.352,69.061 107.644,69.114 107.949,69.166 C108.255,69.218 108.569,69.279 108.891,69.351 C109.213,69.423 109.524,69.51 109.826,69.613 C110.398,69.82 110.844,70.122 111.161,70.519 C111.479,70.916 111.639,71.457 111.639,72.14 C111.639,72.608 111.555,73.021 111.388,73.379 C111.221,73.737 110.986,74.035 110.685,74.273 C110.383,74.512 110.023,74.692 109.606,74.815 C109.188,74.938 108.734,75 108.241,75 C107.653,75 107.175,74.944 106.806,74.833 C106.436,74.723 106.12,74.595 105.857,74.452 C105.675,74.349 105.512,74.297 105.369,74.297 C105.258,74.297 105.158,74.349 105.071,74.452 C104.983,74.556 104.912,74.675 104.856,74.81 L103.772,74.81 L103.772,71.663 L104.845,71.592 C104.908,72.291 105.206,72.821 105.738,73.183 C106.271,73.544 106.982,73.725 107.872,73.725 C108.118,73.725 108.354,73.709 108.581,73.678 C108.808,73.646 109.006,73.586 109.177,73.499 C109.348,73.411 109.482,73.288 109.582,73.129 C109.682,72.971 109.731,72.764 109.731,72.51 C109.731,72.239 109.624,72.034 109.409,71.895 C109.195,71.757 108.919,71.646 108.581,71.562 C108.243,71.479 107.864,71.409 107.443,71.354 C107.021,71.298 106.604,71.214 106.191,71.103 C105.365,70.889 104.759,70.564 104.374,70.132 C103.988,69.698 103.796,69.081 103.796,68.278 C103.796,67.944 103.852,67.627 103.963,67.325 C104.074,67.022 104.253,66.757 104.499,66.526 C104.745,66.296 105.06,66.111 105.44,65.972 C105.822,65.833 106.283,65.764 106.823,65.764 C107.396,65.764 107.864,65.815 108.229,65.918 C108.595,66.022 108.9,66.137 109.147,66.264 C109.234,66.312 109.313,66.348 109.38,66.371 C109.447,66.396 109.517,66.407 109.588,66.407 C109.755,66.407 109.88,66.369 109.964,66.294 C110.047,66.219 110.133,66.105 110.22,65.954 L111.138,65.954 L111.138,68.934" id="Fill-14" fill="#FFFFFF"></path>
        </g>
    </g>
</svg>