<?xml version="1.0" encoding="UTF-8" standalone="no"?>
<svg width="23px" height="22px" viewBox="0 0 23 22" version="1.1" xmlns="http://www.w3.org/2000/svg" xmlns:xlink="http://www.w3.org/1999/xlink">
    <defs></defs>
    <g stroke="none" stroke-width="1" fill="none" fill-rule="evenodd">
        <g transform="translate(-449.000000, -21.000000)" fill="#FF5D73">
            <path d="M460.237618,27.4673987 L454.723263,21.9530432 C453.55937,20.7891509 451.655124,20.7835042 450.484103,21.9545248 L450.192143,22.2464853 C449.022004,23.4166239 449.020459,25.3154421 450.190661,26.4856444 L455.705017,32 L450.190661,37.5143556 C449.026769,38.6782479 449.021122,40.5824941 450.192143,41.7535147 L450.484103,42.0454752 C451.654242,43.2156138 453.55306,43.2171591 454.723263,42.0469568 L460.237618,36.5326013 L465.751974,42.0469568 C466.915866,43.2108491 468.820112,43.2164958 469.991133,42.0454752 L470.283093,41.7535147 C471.453232,40.5833761 471.454777,38.6845579 470.284575,37.5143556 L464.770219,32 L470.284575,26.4856444 C471.448467,25.3217521 471.454114,23.4175059 470.283093,22.2464853 L469.991133,21.9545248 C468.820994,20.7843862 466.922176,20.7828409 465.751974,21.9530432 L460.237618,27.4673987 L460.237618,27.4673987 Z"></path>
        </g>
    </g>
</svg>