<?xml version="1.0" encoding="UTF-8" standalone="no"?>
<svg width="167px" height="119px" viewBox="0 0 167 119" version="1.1" xmlns="http://www.w3.org/2000/svg" xmlns:xlink="http://www.w3.org/1999/xlink">
    <defs></defs>
    <g stroke="none" stroke-width="1" fill="none" fill-rule="evenodd">
        <g transform="translate(-100.000000, -182.000000)" fill="#FFFFFF">
            <g transform="translate(100.000000, 182.000000)">
                <path d="M125.99863,34.4980126 C125.999543,34.4060625 126,34.3140261 126,34.2219046 C126,24.4304803 122.79586,16.8569551 114.513672,10.6191406 C106.80888,4.81619752 94.4452691,0 83,0 C69.9438052,0 55.9388792,3.3084717 48.0527344,10.6191406 C41.5945702,16.606033 40,25.7125489 40,34.2219046 C40,34.2926062 40.0002694,34.3632577 40.0008074,34.4338585 C38.4051923,34.1498393 36.7459271,34 35.0426883,34 C22.5516127,34 12.4255952,42.0588745 12.4255952,52 C12.4255952,54.7592058 13.2056691,57.3734093 14.5998731,59.710543 C5.75369186,64.8138613 0,73.104631 0,82.4649123 C0,97.9757164 15.7992849,110.549708 35.2886905,110.549708 C35.4919146,110.549708 35.6947375,110.54834 35.8971455,110.545617 C42.3042788,115.7621 51.2439864,119 61.1339286,119 C71.2570037,119 80.3845168,115.607648 86.8195698,110.173435 C93.3063681,115.610116 102.4756,119 112.63967,119 C124.238604,119 134.541991,114.585457 141.041876,107.752349 C155.796011,105.668287 167,95.4102246 167,83.0695348 C167,75.2119864 162.457783,68.1987575 155.349054,63.6022302 C155.847107,61.8816071 156.110289,60.089533 156.110289,58.248538 C156.110289,45.1309678 142.748749,34.497076 126.266454,34.497076 C126.177087,34.497076 126.087812,34.4973886 125.99863,34.4980126 L125.99863,34.4980126 Z"></path>
            </g>
        </g>
    </g>
</svg>