<?xml version="1.0" encoding="UTF-8" standalone="no"?>
<svg width="244px" height="351px" viewBox="0 0 244 351" version="1.1" xmlns="http://www.w3.org/2000/svg" xmlns:xlink="http://www.w3.org/1999/xlink">
    <defs></defs>
    <g id="Page-1" stroke="none" stroke-width="1" fill="none" fill-rule="evenodd">
        <g id="Headphones" transform="translate(-58.000000, -103.000000)">
            <g id="headphone-onboard" transform="translate(58.000000, 104.000000)">
                <g id="Group-3" transform="translate(36.000000, 210.000000)">
                    <path d="M4,48.9629926 C4,46.2047486 5.94667522,42.8585368 8.34427839,41.4911537 L27.6557216,30.4775963 C30.0550003,29.1092576 33.9466752,29.1102132 36.3442784,30.4775963 L55.6557216,41.4911537 C58.0550003,42.8594924 60,46.1985738 60,48.9629926 L60,94.9745074 C60,97.7327514 57.7701762,99.96875 55.0057574,99.96875 L8.99424261,99.96875 C6.23599858,99.96875 4,97.7389262 4,94.9745074 L4,48.9629926 Z" id="Rectangle-142" fill="#484848"></path>
                    <rect id="Rectangle-143-Copy" fill="#484848" x="42" y="91" width="8" height="49"></rect>
                    <rect id="Rectangle-143-Copy-2" fill="#484848" x="18" y="91" width="8" height="49"></rect>
                    <path d="M48.5,54.5 L48.5,79.5" id="Line" stroke="#C9C9C9" stroke-linecap="square"></path>
                    <path d="M16.5,54.5 L16.5,79.5" id="Line-Copy" stroke="#C9C9C9" stroke-linecap="square"></path>
                    <g id="Group-2">
                        <path d="M58.4096582,31.7732693 C66.5453919,23.9489521 66.3718382,12.5447198 58.9748368,5.46988916 C51.5778355,-1.60680275 42.7134227,-3.89429878 32.2585325,11.511309 C22.8607051,-3.89429878 12.9398748,-1.60680275 5.54287343,5.46988916 C-1.85412791,12.5447198 -2.02703645,23.9489521 6.10805207,31.7732693 C15.1883309,40.5046638 30.0978175,54.8488635 30.0978175,54.8488635 C31.2911475,55.9969192 33.226936,55.9959334 34.4192542,54.8488635 C34.4192542,54.8488635 49.3287341,40.5046638 58.4096582,31.7732693 Z" id="Shape" opacity="0.566347948" fill="#C9C9C9"></path>
                        <g id="Group" transform="translate(17.000000, 17.000000)">
                            <circle id="Oval-367" fill="#EFF1F3" cx="3" cy="3" r="3"></circle>
                            <circle id="Oval-367-Copy" fill="#EFF1F3" cx="28" cy="3" r="3"></circle>
                            <path d="M8,18 C8,18 11.5,22 15,22 C18.5,22 22,18 22,18" id="Line" stroke="#EFF1F3" stroke-linecap="square"></path>
                        </g>
                    </g>
                </g>
                <g id="Group-3-Copy" transform="translate(198.000000, 129.000000)">
                    <path d="M1.78461538,22.0444467 C1.78461538,20.7971065 2.6630502,19.2806363 3.73653846,18.6631348 L12.325,13.7228027 C13.4030173,13.1026959 15.1553579,13.1053012 16.2288462,13.7228027 L24.8173077,18.6631348 C25.895325,19.2832416 26.7692308,20.7893582 26.7692308,22.0444467 L26.7692308,42.7274283 C26.7692308,43.9747685 25.7588598,44.9859375 24.5189973,44.9859375 L4.03484886,44.9859375 C2.79207923,44.9859375 1.78461538,43.9825168 1.78461538,42.7274283 L1.78461538,22.0444467 Z" id="Rectangle-142" fill="#484848"></path>
                    <rect id="Rectangle-143-Copy" fill="#484848" x="18.7384615" y="40.95" width="3.56923077" height="22.05"></rect>
                    <rect id="Rectangle-143-Copy-2" fill="#484848" x="8.03076923" y="40.95" width="3.56923077" height="22.05"></rect>
                    <path d="M21.6384615,24.525 L21.6384615,35.775" id="Line" stroke="#C9C9C9" stroke-width="0.5" stroke-linecap="square"></path>
                    <path d="M7.36153846,24.525 L7.36153846,35.775" id="Line-Copy" stroke="#C9C9C9" stroke-width="0.5" stroke-linecap="square"></path>
                    <g id="Group-2">
                        <path d="M26.0596936,14.2979712 C29.6894825,10.7770285 29.6120509,5.6451239 26.3118503,2.46145012 C23.0116497,-0.723061239 19.0567578,-1.75243445 14.3922684,5.18008905 C10.1993915,-1.75243445 5.7731749,-0.723061239 2.4729743,2.46145012 C-0.8272263,5.6451239 -0.904370109,10.7770285 2.72513093,14.2979712 C6.77633225,18.2270987 13.4241784,24.678031 13.4241784,24.678031 C13.9588397,25.1968417 14.8243253,25.19817 15.3603612,24.678031 C15.3603612,24.678031 22.0082045,18.2270987 26.0596936,14.2979712 Z" id="Shape" opacity="0.566347948" fill="#C9C9C9"></path>
                        <g id="Group" transform="translate(7.584615, 7.650000)">
                            <ellipse id="Oval-367" fill="#EFF1F3" cx="1.33846154" cy="1.35" rx="1.33846154" ry="1.35"></ellipse>
                            <ellipse id="Oval-367-Copy" fill="#EFF1F3" cx="12.4923077" cy="1.35" rx="1.33846154" ry="1.35"></ellipse>
                            <path d="M3.56923077,8.1 C3.56923077,8.1 5.13076923,9.9 6.69230769,9.9 C8.25384615,9.9 9.81538462,8.1 9.81538462,8.1" id="Line" stroke="#EFF1F3" stroke-width="0.5" stroke-linecap="square"></path>
                        </g>
                    </g>
                </g>
                <g id="Group-3-Copy-2" transform="translate(118.483871, 32.321069)">
                    <path d="M0.834739454,12.1455962 C0.834739454,10.9015044 1.69692022,9.36281384 2.74801387,8.7164964 L4.76464121,7.47647235 C5.8213135,6.82672461 7.5400964,6.83015491 8.59119005,7.47647235 L10.6078174,8.7164964 C11.6644897,9.36624414 12.5210918,10.9027806 12.5210918,12.1455962 L12.5210918,20.2403413 C12.5210918,21.4844331 11.5044481,22.4929687 10.2678455,22.4929687 L3.08798574,22.4929687 C1.84355218,22.4929687 0.834739454,21.4831569 0.834739454,20.2403413 L0.834739454,12.1455962 Z" id="Rectangle-142" fill="#484848"></path>
                    <rect id="Rectangle-143-Copy" fill="#484848" x="8.76476427" y="20.475" width="1.66947891" height="11.025"></rect>
                    <rect id="Rectangle-143-Copy-2" fill="#484848" x="3.75632754" y="20.475" width="1.66947891" height="11.025"></rect>
                    <path d="M10.1212159,12.2625 L10.1212159,17.8875" id="Line" stroke="#C9C9C9" stroke-width="0.5" stroke-linecap="square"></path>
                    <path d="M3.44330025,12.2625 L3.44330025,17.8875" id="Line-Copy" stroke="#C9C9C9" stroke-width="0.5" stroke-linecap="square"></path>
                    <g id="Group-2">
                        <path d="M12.1892115,7.14898559 C13.887016,5.38851423 13.850798,2.82256195 12.3071558,1.23072506 C10.7635136,-0.36153062 8.91364478,-0.876217226 6.73186746,2.59004452 C4.77068312,-0.876217226 2.700356,-0.36153062 1.15671378,1.23072506 C-0.386928431,2.82256195 -0.423011825,5.38851423 1.27465801,7.14898559 C3.16957476,9.11354935 5.79701178,11.8390205 5.79701178,11.8390205 C6.31331831,12.3745655 7.15829389,12.3663899 7.66672765,11.8390205 C7.66672765,11.8390205 10.2941602,9.11354935 12.1892115,7.14898559 Z" id="Shape" opacity="0.566347948" fill="#C9C9C9"></path>
                        <g id="Group" transform="translate(3.547643, 3.825000)">
                            <ellipse id="Oval-367" fill="#EFF1F3" cx="0.626054591" cy="0.675" rx="0.626054591" ry="0.675"></ellipse>
                            <ellipse id="Oval-367-Copy" fill="#EFF1F3" cx="5.84317618" cy="0.675" rx="0.626054591" ry="0.675"></ellipse>
                            <path d="M1.66947891,4.05 C1.66947891,4.05 2.39987593,4.95 3.13027295,4.95 C3.86066998,4.95 4.591067,4.05 4.591067,4.05" id="Line" stroke="#EFF1F3" stroke-width="0.5" stroke-linecap="square"></path>
                        </g>
                    </g>
                </g>
                <g id="headphones-big" transform="translate(0.000000, 99.000000)">
                    <path id="Path-44" stroke="#979797" d=""></path>
                    <path d="M23.0686025,80.6955177 C23.0686025,80.6955177 23.0686025,-1.20227294 70.5657978,0.0134012168 C118.062993,-1.20227294 118.062996,80.6955177 118.062996,80.6955177" id="Path-66" stroke="#223843" stroke-width="8"></path>
                    <g id="Group-Copy" transform="translate(21.510965, 80.715814) scale(-1, 1) rotate(-270.000000) translate(-21.510965, -80.715814) translate(-8.032530, 60.066551)" fill="#FFFFFF">
                        <ellipse id="Oval-1" cx="12.4856436" cy="28.6191549" rx="12.4856436" ry="9.74672847"></ellipse>
                        <ellipse id="Oval-1" cx="12.3986045" cy="18.0464153" rx="8.00225111" ry="6.24683607"></ellipse>
                        <ellipse id="Oval-1" cx="24.4437248" cy="26.7215618" rx="12.4856436" ry="9.74672847"></ellipse>
                        <ellipse id="Oval-1" cx="21.6300586" cy="31.5517989" rx="12.4856436" ry="9.74672847"></ellipse>
                        <path d="M29.3665875,23.7531809 C37.7690561,23.7531809 44.5806027,18.4358502 44.5806027,11.8765904 C44.5806027,8.47851143 43.4469321,5.8501464 40.5165755,3.68533504 C37.7905097,1.67144424 33.4160875,0 29.3665875,0 C24.747119,0 19.7919758,1.14819335 17.0017449,3.68533504 C14.716754,5.76306477 14.1525723,8.92344878 14.1525723,11.8765904 C14.1525723,18.4358502 20.9641189,23.7531809 29.3665875,23.7531809 Z" id="Oval-1"></path>
                        <ellipse id="Oval-1" cx="39.8535269" cy="31.4655447" rx="12.596136" ry="9.8329827"></ellipse>
                        <ellipse id="Oval-1-Copy" cx="47.9418387" cy="28.828987" rx="11.1451507" ry="8.700293"></ellipse>
                        <ellipse id="Oval-1" cx="44.6748779" cy="20.2149482" rx="10.5591757" ry="8.24286053"></ellipse>
                    </g>
                    <g id="Group-Copy-2" transform="translate(116.131956, 81.681332) rotate(-270.000000) translate(-116.131956, -81.681332) translate(86.588461, 61.032068)" fill="#FFFFFF">
                        <ellipse id="Oval-1" cx="12.4856436" cy="28.6191549" rx="12.4856436" ry="9.74672847"></ellipse>
                        <ellipse id="Oval-1" cx="12.3986045" cy="18.0464153" rx="8.00225111" ry="6.24683607"></ellipse>
                        <ellipse id="Oval-1" cx="24.4437248" cy="26.7215618" rx="12.4856436" ry="9.74672847"></ellipse>
                        <ellipse id="Oval-1" cx="21.6300586" cy="31.5517989" rx="12.4856436" ry="9.74672847"></ellipse>
                        <path d="M29.3665875,23.7531809 C37.7690561,23.7531809 44.5806027,18.4358502 44.5806027,11.8765904 C44.5806027,8.47851143 43.4469321,5.8501464 40.5165755,3.68533504 C37.7905097,1.67144424 33.4160875,0 29.3665875,0 C24.747119,0 19.7919758,1.14819335 17.0017449,3.68533504 C14.716754,5.76306477 14.1525723,8.92344878 14.1525723,11.8765904 C14.1525723,18.4358502 20.9641189,23.7531809 29.3665875,23.7531809 Z" id="Oval-1"></path>
                        <ellipse id="Oval-1" cx="39.8535269" cy="31.4655447" rx="12.596136" ry="9.8329827"></ellipse>
                        <ellipse id="Oval-1-Copy" cx="47.9418387" cy="28.828987" rx="11.1451507" ry="8.700293"></ellipse>
                        <ellipse id="Oval-1" cx="44.6748779" cy="20.2149482" rx="10.5591757" ry="8.24286053"></ellipse>
                    </g>
                </g>
                <g id="headphones-medium" transform="translate(182.000000, 66.000000)">
                    <path id="Path-44" stroke="#979797" stroke-width="0.5" d=""></path>
                    <path d="M10.4398055,36.0247847 C10.4398055,36.0247847 10.4398055,-0.536728992 31.9348866,0.00598268609 C53.4299677,-0.53672899 53.4299692,36.0247847 53.4299692,36.0247847" id="Path-66" stroke="#223843" stroke-width="3.6"></path>
                    <g id="Group-Copy" transform="translate(9.734889, 36.033846) scale(-1, 1) rotate(-270.000000) translate(-9.734889, -36.033846) translate(-3.635160, 26.815424)" fill="#FFFFFF">
                        <ellipse id="Oval-1" cx="5.65043724" cy="12.7764084" rx="5.65043724" ry="4.35121807"></ellipse>
                        <ellipse id="Oval-1" cx="5.61104728" cy="8.05643541" rx="3.6214567" ry="2.7887661"></ellipse>
                        <ellipse id="Oval-1" cx="11.0621236" cy="11.9292686" rx="5.65043724" ry="4.35121807"></ellipse>
                        <ellipse id="Oval-1" cx="9.78878564" cy="14.0856245" rx="5.65043724" ry="4.35121807"></ellipse>
                        <path d="M13.2899885,10.6040986 C17.0925655,10.6040986 20.1751633,8.23029028 20.1751633,5.30204931 C20.1751633,3.78504975 19.6621152,2.6116725 18.3359685,1.64523886 C17.1022745,0.746180466 15.1226089,0 13.2899885,0 C11.1994261,0 8.95695256,0.512586318 7.69422033,1.64523886 C6.66013686,2.57279677 6.40481374,3.98368249 6.40481374,5.30204931 C6.40481374,8.23029028 9.48741148,10.6040986 13.2899885,10.6040986 Z" id="Oval-1"></path>
                        <ellipse id="Oval-1" cx="18.0359027" cy="14.0471181" rx="5.70044111" ry="4.38972442"></ellipse>
                        <ellipse id="Oval-1-Copy" cx="21.6963065" cy="12.8700835" rx="5.04379082" ry="3.88405938"></ellipse>
                        <ellipse id="Oval-1" cx="20.217828" cy="9.02453046" rx="4.77860507" ry="3.67984845"></ellipse>
                    </g>
                    <g id="Group-Copy-2" transform="translate(52.556068, 36.464880) rotate(-270.000000) translate(-52.556068, -36.464880) translate(39.186019, 27.246459)" fill="#FFFFFF">
                        <ellipse id="Oval-1" cx="5.65043724" cy="12.7764084" rx="5.65043724" ry="4.35121807"></ellipse>
                        <ellipse id="Oval-1" cx="5.61104728" cy="8.05643541" rx="3.6214567" ry="2.7887661"></ellipse>
                        <ellipse id="Oval-1" cx="11.0621236" cy="11.9292686" rx="5.65043724" ry="4.35121807"></ellipse>
                        <ellipse id="Oval-1" cx="9.78878564" cy="14.0856245" rx="5.65043724" ry="4.35121807"></ellipse>
                        <path d="M13.2899885,10.6040986 C17.0925655,10.6040986 20.1751633,8.23029028 20.1751633,5.30204931 C20.1751633,3.78504975 19.6621152,2.6116725 18.3359685,1.64523886 C17.1022745,0.746180466 15.1226089,0 13.2899885,0 C11.1994261,0 8.95695256,0.512586318 7.69422033,1.64523886 C6.66013686,2.57279677 6.40481374,3.98368249 6.40481374,5.30204931 C6.40481374,8.23029028 9.48741148,10.6040986 13.2899885,10.6040986 Z" id="Oval-1"></path>
                        <ellipse id="Oval-1" cx="18.0359027" cy="14.0471181" rx="5.70044111" ry="4.38972442"></ellipse>
                        <ellipse id="Oval-1-Copy" cx="21.6963065" cy="12.8700835" rx="5.04379082" ry="3.88405938"></ellipse>
                        <ellipse id="Oval-1" cx="20.217828" cy="9.02453046" rx="4.77860507" ry="3.67984845"></ellipse>
                    </g>
                </g>
                <g id="headphones-small" transform="translate(111.000000, 0.821069)">
                    <path id="Path-44" stroke="#979797" stroke-width="0.5" d=""></path>
                    <path d="M4.88313484,18.0123924 C4.88313484,18.0123924 4.88313484,-0.268364496 14.9372857,0.00299134305 C24.9914365,-0.268364495 24.9914372,18.0123924 24.9914372,18.0123924" id="Path-66" stroke="#223843" stroke-width="3.6"></path>
                    <g id="Group-Copy" transform="translate(4.553416, 18.016923) scale(-1, 1) rotate(-270.000000) translate(-4.553416, -18.016923) translate(-1.700317, 13.407712)" fill="#FFFFFF">
                        <ellipse id="Oval-1" cx="2.64294645" cy="6.38820422" rx="2.64294645" ry="2.17560903"></ellipse>
                        <ellipse id="Oval-1" cx="2.62452212" cy="4.0282177" rx="1.69390717" ry="1.39438305"></ellipse>
                        <ellipse id="Oval-1" cx="5.17421911" cy="5.96463432" rx="2.64294645" ry="2.17560903"></ellipse>
                        <ellipse id="Oval-1" cx="4.57862554" cy="7.04281225" rx="2.64294645" ry="2.17560903"></ellipse>
                        <path d="M6.21628495,5.30204931 C7.99490969,5.30204931 9.43676992,4.11514514 9.43676992,2.65102465 C9.43676992,1.89252487 9.19679584,1.30583625 8.57650138,0.822619428 C7.99945096,0.373090233 7.07347837,0 6.21628495,0 C5.23844124,0 4.18954232,0.256293159 3.59890951,0.822619428 C3.11522531,1.28639839 2.99579997,1.99184125 2.99579997,2.65102465 C2.99579997,4.11514514 4.43766021,5.30204931 6.21628495,5.30204931 Z" id="Oval-1"></path>
                        <ellipse id="Oval-1" cx="8.43614803" cy="7.02355907" rx="2.66633536" ry="2.19486221"></ellipse>
                        <ellipse id="Oval-1-Copy" cx="10.1482724" cy="6.43504174" rx="2.35919248" ry="1.94202969"></ellipse>
                        <ellipse id="Oval-1" cx="9.45672598" cy="4.51226523" rx="2.23515398" ry="1.83992422"></ellipse>
                    </g>
                    <g id="Group-Copy-2" transform="translate(24.582677, 18.232440) rotate(-270.000000) translate(-24.582677, -18.232440) translate(18.328944, 13.623229)" fill="#FFFFFF">
                        <ellipse id="Oval-1" cx="2.64294645" cy="6.38820422" rx="2.64294645" ry="2.17560903"></ellipse>
                        <ellipse id="Oval-1" cx="2.62452212" cy="4.0282177" rx="1.69390717" ry="1.39438305"></ellipse>
                        <ellipse id="Oval-1" cx="5.17421911" cy="5.96463432" rx="2.64294645" ry="2.17560903"></ellipse>
                        <ellipse id="Oval-1" cx="4.57862554" cy="7.04281225" rx="2.64294645" ry="2.17560903"></ellipse>
                        <path d="M6.21628495,5.30204931 C7.99490969,5.30204931 9.43676992,4.11514514 9.43676992,2.65102465 C9.43676992,1.89252487 9.19679584,1.30583625 8.57650138,0.822619428 C7.99945096,0.373090233 7.07347837,0 6.21628495,0 C5.23844124,0 4.18954232,0.256293159 3.59890951,0.822619428 C3.11522531,1.28639839 2.99579997,1.99184125 2.99579997,2.65102465 C2.99579997,4.11514514 4.43766021,5.30204931 6.21628495,5.30204931 Z" id="Oval-1"></path>
                        <ellipse id="Oval-1" cx="8.43614803" cy="7.02355907" rx="2.66633536" ry="2.19486221"></ellipse>
                        <ellipse id="Oval-1-Copy" cx="10.1482724" cy="6.43504174" rx="2.35919248" ry="1.94202969"></ellipse>
                        <ellipse id="Oval-1" cx="9.45672598" cy="4.51226523" rx="2.23515398" ry="1.83992422"></ellipse>
                    </g>
                </g>
            </g>
        </g>
    </g>
</svg>