<?xml version="1.0" encoding="UTF-8" standalone="no"?>
<svg width="100px" height="100px" viewBox="0 0 158 134" version="1.1" xmlns="http://www.w3.org/2000/svg" xmlns:xlink="http://www.w3.org/1999/xlink" xmlns:sketch="http://www.bohemiancoding.com/sketch/ns">
    <!-- Generator: Sketch 3.5.1 (25234) - http://www.bohemiancoding.com/sketch -->
    <title>headphones</title>
    <desc>Created with Sketch.</desc>
    <defs></defs>
    <g id="Page-1" stroke="none" stroke-width="1" fill="none" fill-rule="evenodd" sketch:type="MSPage">
        <g id="Headphones" sketch:type="MSArtboardGroup" transform="translate(-118.000000, -115.000000)">
            <g id="headphones" sketch:type="MSLayerGroup" transform="translate(117.000000, 119.000000)">
                <path id="Path-44" stroke="#979797" sketch:type="MSShapeGroup" d=""></path>
                <path d="M26.7730496,93.6644402 C26.7730496,93.6644402 26.7730496,-1.39549538 81.8975318,0.0155549838 C137.022014,-1.39549537 137.022018,93.6644402 137.022018,93.6644402" id="Path-66" stroke="#223843" stroke-width="8" sketch:type="MSShapeGroup"></path>
                <g id="Group-Copy" transform="translate(24.965280, 93.687999) scale(-1, 1) rotate(-270.000000) translate(-24.965280, -93.687999) translate(-9.322425, 69.720103)" fill="#FFFFFF" sketch:type="MSShapeGroup">
                    <ellipse id="Oval-1" cx="14.4906374" cy="33.218662" rx="14.4906374" ry="11.313167"></ellipse>
                    <ellipse id="Oval-1" cx="14.3896213" cy="20.9467321" rx="9.28728413" ry="7.25079187"></ellipse>
                    <ellipse id="Oval-1" cx="28.3689944" cy="31.0160985" rx="14.4906374" ry="11.313167"></ellipse>
                    <ellipse id="Oval-1" cx="25.1034987" cy="36.6226237" rx="14.4906374" ry="11.313167"></ellipse>
                    <path d="M34.0823899,27.5706564 C43.83416,27.5706564 51.7395316,21.3987547 51.7395316,13.7853282 C51.7395316,9.84112934 50.4238117,6.7903485 47.0228869,4.27762103 C43.8590587,1.94006921 38.7821745,0 34.0823899,0 C28.7211089,0 22.9702493,1.33272443 19.7319521,4.27762103 C17.0800284,6.68927161 16.4252481,10.3575745 16.4252481,13.7853282 C16.4252481,21.3987547 24.3306198,27.5706564 34.0823899,27.5706564 Z" id="Oval-1"></path>
                    <ellipse id="Oval-1" cx="46.2533634" cy="36.5225072" rx="14.6188732" ry="11.4132835"></ellipse>
                    <ellipse id="Oval-1-Copy" cx="55.6405281" cy="33.4622171" rx="12.9348829" ry="10.0985544"></ellipse>
                    <ellipse id="Oval-1" cx="51.8489459" cy="23.4637792" rx="12.2548098" ry="9.56760597"></ellipse>
                </g>
                <g id="Group-Copy-2" transform="translate(134.780883, 94.808688) rotate(-270.000000) translate(-134.780883, -94.808688) translate(100.493178, 70.840793)" fill="#FFFFFF" sketch:type="MSShapeGroup">
                    <ellipse id="Oval-1" cx="14.4906374" cy="33.218662" rx="14.4906374" ry="11.313167"></ellipse>
                    <ellipse id="Oval-1" cx="14.3896213" cy="20.9467321" rx="9.28728413" ry="7.25079187"></ellipse>
                    <ellipse id="Oval-1" cx="28.3689944" cy="31.0160985" rx="14.4906374" ry="11.313167"></ellipse>
                    <ellipse id="Oval-1" cx="25.1034987" cy="36.6226237" rx="14.4906374" ry="11.313167"></ellipse>
                    <path d="M34.0823899,27.5706564 C43.83416,27.5706564 51.7395316,21.3987547 51.7395316,13.7853282 C51.7395316,9.84112934 50.4238117,6.7903485 47.0228869,4.27762103 C43.8590587,1.94006921 38.7821745,0 34.0823899,0 C28.7211089,0 22.9702493,1.33272443 19.7319521,4.27762103 C17.0800284,6.68927161 16.4252481,10.3575745 16.4252481,13.7853282 C16.4252481,21.3987547 24.3306198,27.5706564 34.0823899,27.5706564 Z" id="Oval-1"></path>
                    <ellipse id="Oval-1" cx="46.2533634" cy="36.5225072" rx="14.6188732" ry="11.4132835"></ellipse>
                    <ellipse id="Oval-1-Copy" cx="55.6405281" cy="33.4622171" rx="12.9348829" ry="10.0985544"></ellipse>
                    <ellipse id="Oval-1" cx="51.8489459" cy="23.4637792" rx="12.2548098" ry="9.56760597"></ellipse>
                </g>
            </g>
        </g>
    </g>
</svg>