<?xml version="1.0" encoding="UTF-8" standalone="no"?>
<svg width="160px" height="271px" viewBox="0 0 160 271" version="1.1" xmlns="http://www.w3.org/2000/svg" xmlns:xlink="http://www.w3.org/1999/xlink" xmlns:sketch="http://www.bohemiancoding.com/sketch/ns">
    <!-- Generator: Sketch 3.5.1 (25234) - http://www.bohemiancoding.com/sketch -->
    <title>Group 7</title>
    <desc>Created with Sketch.</desc>
    <defs></defs>
    <g id="Page-1" stroke="none" stroke-width="1" fill="none" fill-rule="evenodd" sketch:type="MSPage">
        <g id="Map-Onbaord-Static" sketch:type="MSArtboardGroup" transform="translate(-108.000000, -141.000000)">
            <rect id="Rectangle-36" fill="#EFF1F3" sketch:type="MSShapeGroup" x="64" y="68" width="248" height="416" rx="33"></rect>
            <rect id="Rectangle-36" fill="#484848" sketch:type="MSShapeGroup" x="81" y="126" width="215" height="298" rx="3"></rect>
            <g id="Group-7" sketch:type="MSLayerGroup" transform="translate(109.000000, 142.000000)">
                <rect id="Rectangle-path" stroke="#000000" fill="#EFF1F3" sketch:type="MSShapeGroup" x="0.123324308" y="0.122489929" width="33.1293007" height="38.2922662"></rect>
                <rect id="Rectangle-path" stroke="#000000" fill="#EFF1F3" sketch:type="MSShapeGroup" x="0.123324308" y="38.4147562" width="33.1293007" height="33.5044509"></rect>
                <rect id="Rectangle-path" stroke="#000000" fill="#EFF1F3" sketch:type="MSShapeGroup" x="0.123324308" y="71.919207" width="33.1293007" height="52.6516097"></rect>
                <rect id="Rectangle-path" stroke="#000000" fill="#EFF1F3" sketch:type="MSShapeGroup" x="0.123324308" y="124.570817" width="33.1293007" height="124.448327"></rect>
                <rect id="Rectangle-path" stroke="#000000" fill="#EFF1F3" sketch:type="MSShapeGroup" x="33.252625" y="221.664594" width="50.5453907" height="27.3524979"></rect>
                <rect id="Rectangle-path" stroke="#000000" fill="#EFF1F3" sketch:type="MSShapeGroup" x="83.7980157" y="221.664594" width="40.6436909" height="27.3524979"></rect>
                <rect id="Rectangle-path" stroke="#000000" fill="#EFF1F3" sketch:type="MSShapeGroup" x="33.252625" y="71.919207" width="91.1890816" height="75.5568138"></rect>
                <rect id="Rectangle-path" stroke="#000000" fill="#EFF1F3" sketch:type="MSShapeGroup" x="124.441707" y="0.122489929" width="30.7378927" height="44.4462706"></rect>
                <path d="M124.441707,44.5687605 L106.339137,44.5687605 L106.339137,71.919207 L33.252625,71.919207 L33.252625,44.5687605 L33.252625,0.122489929 L124.441707,0.122489929 L124.441707,44.5687605 Z" id="Shape" stroke="#000000" fill="#EFF1F3" sketch:type="MSShapeGroup"></path>
                <path d="M33.252625,147.476021 L124.441707,147.476021 L124.441707,156.023933 L103.949778,156.023933 L103.949778,180.297377 L124.441707,180.297377 L124.441707,221.664594 L33.252625,221.664594 L33.252625,147.476021 Z" id="Shape" stroke="#000000" fill="#EFF1F3" sketch:type="MSShapeGroup"></path>
                <path d="M155.056275,44.2790698 L106.215813,44.2790698 L106.215813,71.6295163 L124.318382,71.6295163 L124.318382,155.734242 L103.826454,155.734242 L103.826454,180.007686 L124.318382,180.007686 L124.318382,248.727401 L0,248.727401 L0,269.240749 L155.056275,269.240749 L155.056275,44.2790698 Z" id="Shape" stroke="#000000" fill="#EFF1F3" sketch:type="MSShapeGroup"></path>
                <g id="Group" transform="translate(87.971311, 231.162791)" sketch:type="MSShapeGroup">
                    <ellipse id="Oval" stroke="#000000" stroke-width="0.5" fill="#FF5D73" cx="16.1353445" cy="16.2506741" rx="15.6107511" ry="15.6270683"></ellipse>
                    <g transform="translate(2.700832, 6.805167)" stroke="#484848" stroke-width="0.25" fill="#484848">
                        <ellipse id="Oval" cx="5.98364709" cy="2.07916379" rx="2.061488" ry="2.06364278"></ellipse>
                        <path d="M6.35864938,19.6980782 C6.35864938,20.1739878 6.66192992,20.5637414 7.03693221,20.5637414 L7.03693221,20.5637414 C7.4119345,20.5637414 7.71316585,20.1760392 7.71521504,19.6980782 L7.71521504,10.3357863 C7.71521504,9.85782526 7.4119345,9.47012299 7.03693221,9.47012299 L7.03693221,9.47012299 C6.66192992,9.47012299 6.35864938,9.85577393 6.35864938,10.3357863 L6.35864938,19.6980782 L6.35864938,19.6980782 Z" id="Shape"></path>
                        <path d="M4.33199765,19.6980782 C4.33199765,20.1719365 4.63732739,20.5616901 5.01028048,20.5637414 L5.01028048,20.5637414 C5.38323358,20.5637414 5.68856332,20.1760392 5.68856332,19.6980782 L5.68856332,10.3357863 C5.68856332,9.85782526 5.38528278,9.47012299 5.01028048,9.47012299 L5.01028048,9.47012299 C4.63732739,9.46807165 4.33199765,9.85577393 4.33199765,10.3357863 L4.33199765,19.6980782 L4.33199765,19.6980782 Z" id="Shape"></path>
                        <path d="M9.90990058,14.7810287 C9.48161927,14.9656488 7.43857401,15.0805236 7.10455557,15.0805236 L5.82790843,15.0805236 L4.55331048,15.0805236 C4.24798075,15.0805236 2.39551042,15.0148809 2.1414105,14.8918008 C2.0553444,14.8507741 2.98977634,11.2999136 3.41805764,9.6711538 C3.43445119,9.60551108 1.70083404,9.45166097 1.71108001,9.38191559 C2.06559037,7.31006747 3.08403921,5.03718854 3.16190854,5.03718854 L8.47546558,5.03718854 C8.55948249,5.03718854 9.91604815,7.09057465 10.254165,9.12755008 C10.2623617,9.18293612 8.5000559,9.39832627 8.51235106,9.45166097 C9.17424034,12.2004496 9.98162232,14.7502587 9.90990058,14.7810287 L9.90990058,14.7810287 Z" id="Shape"></path>
                        <path d="M0.602466676,11.5809465 C0.444678827,12.0260861 0.594269905,12.5184065 0.93648511,12.6845646 L0.93648511,12.6845646 C1.27870032,12.8445687 1.68648969,12.6168705 1.84427754,12.1676282 L4.22748882,5.44335282 C4.38527667,4.99616184 3.64961644,5.01052119 3.07789163,5.05975322 L0.602466676,11.5809465 L0.602466676,11.5809465 Z" id="Shape"></path>
                        <path d="M11.3627783,11.6117165 C11.5205662,12.0568561 11.3709751,12.5491765 11.0267107,12.7153346 L11.0267107,12.7153346 C10.6844955,12.8753387 10.2787553,12.6476406 10.1209674,12.1983982 L7.73570697,5.47412285 C7.57791912,5.02693187 8.28898904,4.97154583 8.85866465,5.02077786 L11.3627783,11.6117165 L11.3627783,11.6117165 Z" id="Shape"></path>
                    </g>
                    <g transform="translate(19.746014, 6.154004)" stroke="#484848" stroke-width="0.2" fill="#484848">
                        <path d="M1.91600327,19.9225633 C1.91600327,20.4005243 2.21928381,20.7861753 2.5942861,20.7861753 L2.5942861,20.7861753 C2.9672392,20.7861753 3.27051974,20.4005243 3.27051974,19.920512 L3.27051974,10.5602714 C3.27051974,10.0843618 2.9672392,9.69255681 2.5942861,9.69255681 L2.5942861,9.69255681 C2.21928381,9.69255681 1.91600327,10.0823104 1.91600327,10.5643741 L1.91600327,19.9225633 L1.91600327,19.9225633 Z" id="Shape"></path>
                        <path d="M3.90372033,19.9225633 C3.90372033,20.4005243 4.20700087,20.7861753 4.58200316,20.7861753 L4.58200316,20.7861753 C4.95700545,20.7861753 5.26028599,20.4005243 5.26028599,19.920512 L5.26028599,10.5602714 C5.26028599,10.0843618 4.95700545,9.69255681 4.58200316,9.69255681 L4.58200316,9.69255681 C4.20700087,9.69255681 3.90372033,10.0823104 3.90372033,10.5643741 L3.90372033,19.9225633 L3.90372033,19.9225633 Z" id="Shape"></path>
                        <path d="M5.9734051,9.59409274 L0.938538283,9.59409274 L1.63321466,5.38475378 L5.26028599,5.36424044 L5.9734051,9.59409274 Z" id="Shape"></path>
                        <rect id="Rectangle-path" x="1.91600327" y="8.53355266" width="3.34223353" height="6.170415"></rect>
                        <ellipse id="Oval" cx="3.58814463" cy="2.69340256" rx="2.061488" ry="2.06364278"></ellipse>
                        <path d="M6.47750654,13.3849594 C6.10250425,13.3849594 5.79922371,12.9972571 5.79922371,12.5172448 L5.54307461,6.5699247 C5.54307461,6.09606636 4.51245021,5.68835133 5.27884834,5.3621891 L5.97135591,5.3621891 C6.3463582,5.3621891 7.04923134,6.79196944 7.04718215,7.26993044 L7.15578937,12.5172448 C7.15374018,12.9952058 6.85250883,13.3849594 6.47750654,13.3849594 Z" id="Shape"></path>
                        <path d="M0.0204998889,12.5172448 C0.0204998889,12.9952058 0.32378043,13.3849594 0.69878272,13.3849594 L0.69878272,13.3849594 C1.07173582,13.3849594 1.37501636,12.9972571 1.37706555,12.5172448 L1.37706555,6.51093657 C1.37706555,6.03707824 2.39756359,5.57757925 1.63321466,5.38475378 L1.12706402,5.3621891 C0.750012541,5.3621891 0.125008724,6.79196944 0.125008724,7.26993044 L0.0204998889,12.5172448 L0.0204998889,12.5172448 Z" id="Shape"></path>
                    </g>
                    <path d="M16.1353445,4.4596018 L16.1353445,28.0437977" id="Shape" stroke="#484848" stroke-width="0.5"></path>
                </g>
                <g id="Group-5" transform="translate(139.080479, 194.195185)" sketch:type="MSShapeGroup">
                    <ellipse id="Oval" stroke="#000000" stroke-width="0.5" fill="#FF5D73" cx="9.59205499" cy="9.27199927" rx="9.52204671" ry="9.02568161"></ellipse>
                    <path d="M9.08732526,9.86559454 L10.7233371,9.86559454 C11.068366,9.86559454 11.3483894,9.60016817 11.3483894,9.27312496 L11.3487645,9.27312496 L11.3487645,7.39392994 L12.9842763,7.39392994 C13.3293052,7.39392994 13.6093286,7.12850357 13.6093286,6.80146036 C13.6093286,6.7945315 13.6092029,6.78763029 13.6089536,6.78075869 L13.6089536,4.92451672 L15.2464656,4.92451672 C15.5914945,4.92451672 15.8715179,4.65909035 15.8715179,4.33204714 C15.8715179,4.00500393 15.5914945,3.73957756 15.2464656,3.73957756 L12.9837763,3.73957756 C12.6387474,3.73957756 12.358724,4.00500393 12.358724,4.33204714 C12.358724,4.33604291 12.3587658,4.34002949 12.358849,4.34400649 L12.358849,6.20899078 L10.7228371,6.20899078 C10.3778082,6.20899078 10.0977848,6.47441715 10.0977848,6.80146036 C10.0977848,6.81205969 10.0980789,6.82259429 10.0986599,6.83305724 L10.0986599,8.68065538 L8.46189793,8.68065538 C8.11686907,8.68065538 7.83684564,8.94608175 7.83684564,9.27312496 C7.83684564,9.28005382 7.83697133,9.28695502 7.83722067,9.29382663 L7.83722067,11.1500686 L6.19845855,11.1500686 C5.85342968,11.1500686 5.57340625,11.415495 5.57340625,11.7425382 C5.57340625,11.7545635 5.57378485,11.7665054 5.57453135,11.778354 L5.57453135,13.6194818 L3.93764439,13.6194818 C3.59261552,13.6194818 3.31259209,13.8849082 3.31259209,14.2119514 C3.31259209,14.5389946 3.59261552,14.804421 3.93764439,14.804421 L6.1990836,14.804421 C6.54411247,14.804421 6.8241359,14.5389946 6.8241359,14.2119514 L6.82463594,14.2119514 L6.82463594,12.3350078 L8.46239798,12.3350078 C8.80742684,12.3350078 9.08745027,12.0695814 9.08745027,11.7425382 C9.08745027,11.7385424 9.08740847,11.7345558 9.08732526,11.7305788 L9.08732526,9.86559454 Z" id="Fill-1" fill="#484848"></path>
                </g>
                <g id="Group-4" transform="translate(112.601553, 50.977876)" sketch:type="MSShapeGroup">
                    <ellipse id="Oval" stroke="#000000" stroke-width="0.5" fill="#FF5D73" cx="9.59205499" cy="9.27199927" rx="9.52204671" ry="9.02568161"></ellipse>
                    <path d="M9.08732526,9.86559454 L10.7233371,9.86559454 C11.068366,9.86559454 11.3483894,9.60016817 11.3483894,9.27312496 L11.3487645,9.27312496 L11.3487645,7.39392994 L12.9842763,7.39392994 C13.3293052,7.39392994 13.6093286,7.12850357 13.6093286,6.80146036 C13.6093286,6.7945315 13.6092029,6.78763029 13.6089536,6.78075869 L13.6089536,4.92451672 L15.2464656,4.92451672 C15.5914945,4.92451672 15.8715179,4.65909035 15.8715179,4.33204714 C15.8715179,4.00500393 15.5914945,3.73957756 15.2464656,3.73957756 L12.9837763,3.73957756 C12.6387474,3.73957756 12.358724,4.00500393 12.358724,4.33204714 C12.358724,4.33604291 12.3587658,4.34002949 12.358849,4.34400649 L12.358849,6.20899078 L10.7228371,6.20899078 C10.3778082,6.20899078 10.0977848,6.47441715 10.0977848,6.80146036 C10.0977848,6.81205969 10.0980789,6.82259429 10.0986599,6.83305724 L10.0986599,8.68065538 L8.46189793,8.68065538 C8.11686907,8.68065538 7.83684564,8.94608175 7.83684564,9.27312496 C7.83684564,9.28005382 7.83697133,9.28695502 7.83722067,9.29382663 L7.83722067,11.1500686 L6.19845855,11.1500686 C5.85342968,11.1500686 5.57340625,11.415495 5.57340625,11.7425382 C5.57340625,11.7545635 5.57378485,11.7665054 5.57453135,11.778354 L5.57453135,13.6194818 L3.93764439,13.6194818 C3.59261552,13.6194818 3.31259209,13.8849082 3.31259209,14.2119514 C3.31259209,14.5389946 3.59261552,14.804421 3.93764439,14.804421 L6.1990836,14.804421 C6.54411247,14.804421 6.8241359,14.5389946 6.8241359,14.2119514 L6.82463594,14.2119514 L6.82463594,12.3350078 L8.46239798,12.3350078 C8.80742684,12.3350078 9.08745027,12.0695814 9.08745027,11.7425382 C9.08745027,11.7385424 9.08740847,11.7345558 9.08732526,11.7305788 L9.08732526,9.86559454 Z" id="Fill-1" fill="#484848"></path>
                </g>
                <text id="EARTH" sketch:type="MSTextLayer" font-family="Bitstream Vera Sans Mono" font-size="10.4106811" font-weight="normal" letter-spacing="-0.832692138" fill="#484848">
                    <tspan x="59.2991803" y="29.5348837">EARTH</tspan>
                    <tspan x="59.2991803" y="41.5348837">HALL</tspan>
                </text>
                <text id="LIFE-" sketch:type="MSTextLayer" font-family="Bitstream Vera Sans Mono" font-size="10.4106811" font-weight="normal" letter-spacing="-0.832692138" fill="#484848">
                    <tspan x="59.2991803" y="107.674419">LIFE </tspan>
                    <tspan x="59.2991803" y="119.674419">HALL</tspan>
                </text>
                <text id="SCIENCE-" sketch:type="MSTextLayer" font-family="Bitstream Vera Sans Mono" font-size="10.4106811" font-weight="normal" letter-spacing="-0.832692138" fill="#484848">
                    <tspan x="59.2991803" y="186.465116">SCIENCE </tspan>
                    <tspan x="59.2991803" y="198.465116">PLAYGROUND</tspan>
                </text>
                <text id="LIFE-" sketch:type="MSTextLayer" font-family="Bitstream Vera Sans Mono" font-size="10.4106811" font-weight="normal" letter-spacing="-0.832692138" fill="#484848">
                    <tspan x="4.56147541" y="97.5293038">LIFE </tspan>
                    <tspan x="4.56147541" y="109.529304">LAB</tspan>
                </text>
            </g>
        </g>
    </g>
</svg>