<?xml version="1.0" encoding="UTF-8" standalone="no"?>
<svg width="204px" height="342px" viewBox="0 0 204 342" version="1.1" xmlns="http://www.w3.org/2000/svg" xmlns:xlink="http://www.w3.org/1999/xlink">
    <defs></defs>
    <g id="Page-1" stroke="none" stroke-width="1" fill="none" fill-rule="evenodd">
        <g id="Map-Onbaord-Active" transform="translate(-84.000000, -68.000000)">
            <g id="map-onboard" transform="translate(84.000000, 68.000000)">
                <g id="phone-onboard">
                    <rect id="Rectangle-36" fill="#EFF1F3" x="0" y="0" width="204" height="342" rx="33"></rect>
                    <rect id="Rectangle-36" fill="#484848" x="14" y="48" width="176.854839" height="244.990385" rx="3"></rect>
                    <ellipse id="Oval-283" fill="#484848" cx="69.0967742" cy="23.0192308" rx="3.29032258" ry="3.28846154"></ellipse>
                    <ellipse id="Oval-283" fill="#484848" cx="102.41129" cy="316.103365" rx="16.0403226" ry="16.03125"></ellipse>
                    <rect id="Rectangle-36" fill="#484848" x="83.9032258" y="19.7307692" width="37.016129" height="6.57692308" rx="22.11"></rect>
                </g>
                <g id="Second-Floor" transform="translate(38.000000, 58.000000)">
                    <rect id="Rectangle-path" stroke="#000000" fill="#EFF1F3" x="0.743902307" y="103.408207" width="27.4770737" height="103.306526"></rect>
                    <rect id="Rectangle-path" stroke="#000000" fill="#EFF1F3" x="28.220976" y="184.007289" width="41.9217851" height="22.7057415"></rect>
                    <rect id="Rectangle-path" stroke="#000000" fill="#EFF1F3" x="70.1427611" y="184.007289" width="33.7094254" height="22.7057415"></rect>
                    <rect id="Rectangle-path" stroke="#000000" fill="#EFF1F3" x="103.852187" y="0.101680829" width="25.4936665" height="36.8955528"></rect>
                    <path d="M129.243569,36.7567568 L88.7358327,36.7567568 L88.7358327,59.4607954 L103.749903,59.4607954 L103.749903,129.27746 L86.7541251,129.27746 L86.7541251,149.42723 L103.749903,149.42723 L103.749903,206.472553 L0.641618497,206.472553 L0.641618497,223.501008 L129.243569,223.501008 L129.243569,36.7567568 Z" id="Shape" stroke="#000000" fill="#EFF1F3"></path>
                    <g id="Restroom" transform="translate(76.846821, 195.675676)">
                        <ellipse id="Oval" stroke="#9B9B9B" stroke-width="0.5" fill="#223843" cx="9.97555999" cy="10.0515262" rx="9.65123393" ry="9.66580748"></ellipse>
                        <g id="Group" transform="translate(1.669770, 4.209199)" fill="#FFFFFF">
                            <ellipse id="Oval" cx="3.69934653" cy="1.28602477" rx="1.27450004" ry="1.27642456"></ellipse>
                            <path d="M3.93118898,12.1838484 C3.93118898,12.4782127 4.11868998,12.7192869 4.35053243,12.7192869 L4.35053243,12.7192869 C4.58237489,12.7192869 4.76860899,12.4794815 4.76987589,12.1838484 L4.76987589,6.39299183 C4.76987589,6.09735871 4.58237489,5.8575533 4.35053243,5.8575533 L4.35053243,5.8575533 C4.11868998,5.8575533 3.93118898,6.0960899 3.93118898,6.39299183 L3.93118898,12.1838484 L3.93118898,12.1838484 Z" id="Shape"></path>
                            <path d="M2.67822621,12.1838484 C2.67822621,12.4769439 2.86699411,12.7180181 3.09756967,12.7192869 L3.09756967,12.7192869 C3.32814522,12.7192869 3.51691312,12.4794815 3.51691312,12.1838484 L3.51691312,6.39299183 C3.51691312,6.09735871 3.32941212,5.8575533 3.09756967,5.8575533 L3.09756967,5.8575533 C2.86699411,5.85628449 2.67822621,6.0960899 2.67822621,6.39299183 L2.67822621,12.1838484 L2.67822621,12.1838484 Z" id="Shape"></path>
                            <path d="M5.62887999,5.77291475 C5.42607958,5.80473968 5.25971298,5.83317303 5.26269946,5.84613399 C5.67190773,7.54634166 6.1710658,9.1234746 6.12672434,9.14250677 C5.86194253,9.25669982 4.59884457,9.32775328 4.39234009,9.32775328 L3.60306223,9.32775328 L2.81505127,9.32775328 C2.62628337,9.32775328 1.48100699,9.28715131 1.32391155,9.2110226 C1.27070181,9.18564637 1.84840759,6.98933333 2.11318941,5.98189685 C2.11745025,5.96482775 1.93049414,5.9381161 1.71281412,5.90968082 L1.14021125,7.52604068 C1.04266005,7.80391044 0.79054722,7.94474853 0.578975145,7.84578122 C0.36740307,7.74300748 0.274919468,7.43849267 0.372470665,7.16316053 L1.42867082,4.37944329 C1.54879315,4.02102618 1.672332,3.70617353 1.76979382,3.48038077 L1.90288424,3.12960816 C1.91617806,3.12846288 1.92961525,3.12734811 1.94316102,3.12627789 C1.94845633,3.11925978 1.95238802,3.11565123 1.95482708,3.11565123 L2.13561921,3.11565123 C2.17512061,3.11464225 2.21418729,3.11453258 2.25200426,3.11565123 L5.02681212,3.11565123 C5.16038953,3.09129575 5.32655232,3.09250967 5.47680534,3.10550074 L7.02495549,7.18219271 C7.12250668,7.45752484 7.03002308,7.76203965 6.81718411,7.8648134 C6.60561203,7.96378071 6.3547661,7.82294261 6.25721491,7.54507285 L5.62887999,5.77291475 Z" id="Shape"></path>
                        </g>
                        <g id="Group" transform="translate(12.207830, 3.806435)" fill="#FFFFFF">
                            <path d="M1.18455516,12.3226992 C1.18455516,12.6183323 1.37205616,12.8568689 1.60389862,12.8568689 L1.60389862,12.8568689 C1.83447417,12.8568689 2.02197517,12.6183323 2.02197517,12.3214303 L2.02197517,6.53184259 C2.02197517,6.23747828 1.83447417,5.99513525 1.60389862,5.99513525 L1.60389862,5.99513525 C1.37205616,5.99513525 1.18455516,6.23620947 1.18455516,6.53438022 L1.18455516,12.3226992 L1.18455516,12.3226992 Z" id="Shape"></path>
                            <path d="M2.41344685,12.3226992 C2.41344685,12.6183323 2.60094786,12.8568689 2.83279031,12.8568689 L2.83279031,12.8568689 C3.06463276,12.8568689 3.25213376,12.6183323 3.25213376,12.3214303 L3.25213376,6.53184259 C3.25213376,6.23747828 3.06463276,5.99513525 2.83279031,5.99513525 L2.83279031,5.99513525 C2.60094786,5.99513525 2.41344685,6.23620947 2.41344685,6.53438022 L2.41344685,12.3226992 L2.41344685,12.3226992 Z" id="Shape"></path>
                            <path d="M0.851360816,5.93423229 L1.18455516,5.93423229 L1.18455516,9.09484221 L3.25086686,9.09484221 L3.25086686,5.93423229 L3.50749185,5.93423229 C3.5528696,6.98831115 3.58532811,7.74228895 3.58532811,7.74228895 C3.58532811,8.03919089 3.77282911,8.2789963 4.00467156,8.2789963 C4.23651402,8.2789963 4.42274812,8.03792207 4.42401502,7.74228895 L4.35686939,4.49666864 C4.35813629,4.20103551 3.92359005,3.31667376 3.69174759,3.31667376 L3.2636098,3.31667376 C3.25993997,3.31823629 3.25630816,3.31980698 3.25271399,3.32138576 L3.25213376,3.31794258 L1.00972315,3.33063069 L0.69679918,3.31667376 C0.463689828,3.31667376 0.0772857393,4.20103551 0.0772857393,4.49666864 L0.012673908,7.74228895 C0.012673908,8.03792207 0.200174909,8.2789963 0.432017362,8.2789963 C0.662592917,8.2789963 0.850093917,8.03919089 0.851360816,7.74228895 L0.851360816,5.93423229 Z" id="Shape"></path>
                            <ellipse id="Oval" cx="2.21834446" cy="1.66594975" rx="1.27450004" ry="1.27642456"></ellipse>
                        </g>
                        <path d="M9.97555999,2.75839662 L9.97555999,17.3459247" id="Shape" stroke="#FFFFFF" stroke-width="0.5"></path>
                    </g>
                    <g id="Group-5" transform="translate(118.155271, 163.366659)">
                        <ellipse id="Oval" stroke="#9B9B9B" stroke-width="0.5" fill="#223843" cx="9.25382494" cy="9.42121417" rx="9.18786127" ry="9.18918919"></ellipse>
                        <path d="M8.56231903,9.29313957 L10.1038129,9.29313957 C10.4289082,9.29313957 10.6927537,9.04311466 10.6927537,8.73504826 L10.6931071,8.73504826 L10.6931071,6.96489427 L12.2341297,6.96489427 C12.5592251,6.96489427 12.8230706,6.71486937 12.8230706,6.40680297 C12.8230706,6.40027616 12.8229522,6.3937754 12.8227172,6.38730252 L12.8227172,4.63876972 L14.3656245,4.63876972 C14.6907199,4.63876972 14.9545654,4.38874481 14.9545654,4.08067842 C14.9545654,3.77261202 14.6907199,3.52258711 14.3656245,3.52258711 L12.2336586,3.52258711 C11.9085632,3.52258711 11.6447177,3.77261202 11.6447177,4.08067842 C11.6447177,4.08444233 11.6447571,4.08819758 11.6448355,4.09194382 L11.6448355,5.84871166 L10.1033417,5.84871166 C9.77824634,5.84871166 9.51440084,6.09873657 9.51440084,6.40680297 C9.51440084,6.41678726 9.51467797,6.4267106 9.51522535,6.43656643 L9.51522535,8.17695696 L7.97302481,8.17695696 C7.64792945,8.17695696 7.38408394,8.42698187 7.38408394,8.73504826 C7.38408394,8.74157508 7.38420237,8.74807583 7.38443731,8.75454871 L7.38443731,10.5030815 L5.84035215,10.5030815 C5.51525679,10.5030815 5.25141129,10.7531064 5.25141129,11.0611728 C5.25141129,11.0725003 5.25176801,11.0837494 5.25247138,11.0949104 L5.25247138,12.8292061 L3.71015305,12.8292061 C3.38505769,12.8292061 3.12121218,13.079231 3.12121218,13.3872974 C3.12121218,13.6953638 3.38505769,13.9453887 3.71015305,13.9453887 L5.84094109,13.9453887 C6.16603645,13.9453887 6.42988196,13.6953638 6.42988196,13.3872974 L6.43035311,13.3872974 L6.43035311,11.6192641 L7.97349596,11.6192641 C8.29859132,11.6192641 8.56243682,11.3692392 8.56243682,11.0611728 C8.56243682,11.0574089 8.56239744,11.0536536 8.56231903,11.0499074 L8.56231903,9.29313957 Z" id="Fill-1" fill="#FFFFFF"></path>
                    </g>
                    <g id="Life-Hall" transform="translate(28.205202, 59.459459)">
                        <rect id="Rectangle-path" stroke="#000000" fill="#EFF1F3" x="0.015773703" y="0.241812797" width="75.6312105" height="62.7209072"></rect>
                        <path d="M19.1626358,27.4032432 C19.1626358,27.4897297 19.231815,27.5675676 19.3269364,27.5675676 L22.4918844,27.5675676 C22.5870058,27.5675676 22.656185,27.4897297 22.656185,27.4032432 L22.656185,26.6940541 C22.656185,26.6075676 22.5870058,26.5297297 22.4918844,26.5297297 L20.2867977,26.5297297 L20.2867977,21.6778378 C20.2867977,21.5913514 20.2089711,21.5135135 20.1224971,21.5135135 L19.3269364,21.5135135 C19.231815,21.5135135 19.1626358,21.5913514 19.1626358,21.6778378 L19.1626358,27.4032432 Z M23.0795334,27.4032432 C23.0795334,27.4897297 23.15736,27.5675676 23.243834,27.5675676 L24.0480421,27.5675676 C24.1345161,27.5675676 24.2123427,27.4897297 24.2123427,27.4032432 L24.2123427,21.6778378 C24.2123427,21.5913514 24.1345161,21.5135135 24.0480421,21.5135135 L23.243834,21.5135135 C23.15736,21.5135135 23.0795334,21.5913514 23.0795334,21.6778378 L23.0795334,27.4032432 Z M25.3361305,27.4032432 C25.3361305,27.4897297 25.4053096,27.5675676 25.500431,27.5675676 L26.2959917,27.5675676 C26.3824657,27.5675676 26.4602923,27.4897297 26.4602923,27.4032432 L26.4602923,25.2151351 L28.5961998,25.2151351 C28.6826738,25.2151351 28.7605004,25.1372973 28.7605004,25.0508108 L28.7605004,24.3416216 C28.7605004,24.2551351 28.6826738,24.1772973 28.5961998,24.1772973 L26.4602923,24.1772973 L26.4602923,22.5513514 L29.0199224,22.5513514 C29.1150437,22.5513514 29.1842229,22.4735135 29.1842229,22.387027 L29.1842229,21.6778378 C29.1842229,21.5913514 29.1150437,21.5135135 29.0199224,21.5135135 L25.500431,21.5135135 C25.4053096,21.5135135 25.3361305,21.5913514 25.3361305,21.6778378 L25.3361305,27.4032432 Z M29.7632246,27.4032432 C29.7632246,27.4897297 29.8324038,27.5675676 29.9275252,27.5675676 L33.4470165,27.5675676 C33.5421379,27.5675676 33.6113171,27.4897297 33.6113171,27.4032432 L33.6113171,26.6940541 C33.6113171,26.6075676 33.5421379,26.5297297 33.4470165,26.5297297 L30.8873864,26.5297297 L30.8873864,25.0162162 L33.0232939,25.0162162 C33.1097679,25.0162162 33.1875945,24.947027 33.1875945,24.8518919 L33.1875945,24.1340541 C33.1875945,24.0475676 33.1097679,23.9697297 33.0232939,23.9697297 L30.8873864,23.9697297 L30.8873864,22.5513514 L33.4470165,22.5513514 C33.5421379,22.5513514 33.6113171,22.4735135 33.6113171,22.387027 L33.6113171,21.6778378 C33.6113171,21.5913514 33.5421379,21.5135135 33.4470165,21.5135135 L29.9275252,21.5135135 C29.8324038,21.5135135 29.7632246,21.5913514 29.7632246,21.6778378 L29.7632246,27.4032432 Z M19.1626358,36.5924324 C19.1626358,36.6789189 19.2404624,36.7567568 19.3269364,36.7567568 L20.1311445,36.7567568 C20.2262659,36.7567568 20.2954451,36.6789189 20.2954451,36.5924324 L20.2954451,34.2054054 L23.1144971,34.2054054 L23.1144971,36.5924324 C23.1144971,36.6789189 23.1836763,36.7567568 23.2787977,36.7567568 L24.0743584,36.7567568 C24.1608324,36.7567568 24.238659,36.6789189 24.238659,36.5924324 L24.238659,30.867027 C24.238659,30.7805405 24.1608324,30.7027027 24.0743584,30.7027027 L23.2787977,30.7027027 C23.1836763,30.7027027 23.1144971,30.7805405 23.1144971,30.867027 L23.1144971,33.1589189 L20.2954451,33.1589189 L20.2954451,30.867027 C20.2954451,30.7805405 20.2262659,30.7027027 20.1311445,30.7027027 L19.3269364,30.7027027 C19.2404624,30.7027027 19.1626358,30.7805405 19.1626358,30.867027 L19.1626358,36.5924324 Z M24.7225392,36.7567568 L25.4748629,36.7567568 C25.6132213,36.7567568 25.6910479,36.6702703 25.7256375,36.5837838 L26.14936,35.6497297 L28.7349323,35.6497297 L29.1586548,36.5837838 C29.2191866,36.7048649 29.2797184,36.7567568 29.4094294,36.7567568 L30.1617531,36.7567568 C30.2914641,36.7567568 30.3606433,36.6443243 30.3087589,36.5318919 L27.64536,30.7113514 C27.6194178,30.6594595 27.5848282,30.6162162 27.4983542,30.6162162 L27.4118803,30.6162162 C27.3340537,30.6162162 27.2908167,30.6594595 27.2648745,30.7113514 L24.5755334,36.5318919 C24.523649,36.6443243 24.5928282,36.7567568 24.7225392,36.7567568 L24.7225392,36.7567568 Z M26.5730826,34.6897297 L27.4205277,32.787027 L27.4464699,32.787027 L28.3112097,34.6897297 L26.5730826,34.6897297 Z M30.6456333,36.5924324 C30.6456333,36.6789189 30.7148125,36.7567568 30.8099339,36.7567568 L33.9748819,36.7567568 C34.0700033,36.7567568 34.1391825,36.6789189 34.1391825,36.5924324 L34.1391825,35.8832432 C34.1391825,35.7967568 34.0700033,35.7189189 33.9748819,35.7189189 L31.7697952,35.7189189 L31.7697952,30.867027 C31.7697952,30.7805405 31.6919686,30.7027027 31.6054946,30.7027027 L30.8099339,30.7027027 C30.7148125,30.7027027 30.6456333,30.7805405 30.6456333,30.867027 L30.6456333,36.5924324 Z M34.5625309,36.5924324 C34.5625309,36.6789189 34.6317101,36.7567568 34.7268315,36.7567568 L37.8917795,36.7567568 C37.9869009,36.7567568 38.0560801,36.6789189 38.0560801,36.5924324 L38.0560801,35.8832432 C38.0560801,35.7967568 37.9869009,35.7189189 37.8917795,35.7189189 L35.6866928,35.7189189 L35.6866928,30.867027 C35.6866928,30.7805405 35.6088662,30.7027027 35.5223922,30.7027027 L34.7268315,30.7027027 C34.6317101,30.7027027 34.5625309,30.7805405 34.5625309,30.867027 L34.5625309,36.5924324 Z" id="LIFE-" fill="#C9C9C9"></path>
                    </g>
                    <g id="Group-4" transform="translate(94.032095, 50.966191)">
                        <ellipse id="Oval" stroke="#9B9B9B" stroke-width="0.5" fill="#223843" cx="9.25382494" cy="9.42121417" rx="9.18786127" ry="9.18918919"></ellipse>
                        <path d="M8.56231903,9.29313957 L10.1038129,9.29313957 C10.4289082,9.29313957 10.6927537,9.04311466 10.6927537,8.73504826 L10.6931071,8.73504826 L10.6931071,6.96489427 L12.2341297,6.96489427 C12.5592251,6.96489427 12.8230706,6.71486937 12.8230706,6.40680297 C12.8230706,6.40027616 12.8229522,6.3937754 12.8227172,6.38730252 L12.8227172,4.63876972 L14.3656245,4.63876972 C14.6907199,4.63876972 14.9545654,4.38874481 14.9545654,4.08067842 C14.9545654,3.77261202 14.6907199,3.52258711 14.3656245,3.52258711 L12.2336586,3.52258711 C11.9085632,3.52258711 11.6447177,3.77261202 11.6447177,4.08067842 C11.6447177,4.08444233 11.6447571,4.08819758 11.6448355,4.09194382 L11.6448355,5.84871166 L10.1033417,5.84871166 C9.77824634,5.84871166 9.51440084,6.09873657 9.51440084,6.40680297 C9.51440084,6.41678726 9.51467797,6.4267106 9.51522535,6.43656643 L9.51522535,8.17695696 L7.97302481,8.17695696 C7.64792945,8.17695696 7.38408394,8.42698187 7.38408394,8.73504826 C7.38408394,8.74157508 7.38420237,8.74807583 7.38443731,8.75454871 L7.38443731,10.5030815 L5.84035215,10.5030815 C5.51525679,10.5030815 5.25141129,10.7531064 5.25141129,11.0611728 C5.25141129,11.0725003 5.25176801,11.0837494 5.25247138,11.0949104 L5.25247138,12.8292061 L3.71015305,12.8292061 C3.38505769,12.8292061 3.12121218,13.079231 3.12121218,13.3872974 C3.12121218,13.6953638 3.38505769,13.9453887 3.71015305,13.9453887 L5.84094109,13.9453887 C6.16603645,13.9453887 6.42988196,13.6953638 6.42988196,13.3872974 L6.43035311,13.3872974 L6.43035311,11.6192641 L7.97349596,11.6192641 C8.29859132,11.6192641 8.56243682,11.3692392 8.56243682,11.0611728 C8.56243682,11.0574089 8.56239744,11.0536536 8.56231903,11.0499074 L8.56231903,9.29313957 Z" id="Fill-1" fill="#FFFFFF"></path>
                    </g>
                    <g id="Elevator" transform="translate(119.887760, 111.209963)">
                        <ellipse id="Oval" stroke="#9B9B9B" stroke-width="0.5" fill="#223843" cx="9.25382494" cy="9.42121417" rx="9.18786127" ry="9.18918919"></ellipse>
                        <rect id="Rectangle-106" stroke="#FFFFFF" stroke-linecap="round" stroke-linejoin="round" x="5.55820927" y="8.14456388" width="7.39123133" height="7.39229958"></rect>
                        <g id="Down" transform="translate(6.054610, 2.547323)" stroke="#FFFFFF">
                            <path d="M1.62138728,0 L1.62138728,3.78378378" id="Path-573"></path>
                            <path d="M3.15004587,2.7027027 L1.62138728,4.23158223 L0.0927286927,2.7027027 L0.0927286927,2.7027027" id="Rectangle-107" stroke-linecap="round" stroke-linejoin="bevel"></path>
                        </g>
                        <g id="Up" transform="translate(11.459234, 4.709485) rotate(-180.000000) translate(-11.459234, -4.709485) translate(9.837847, 2.547323)" stroke="#FFFFFF">
                            <path d="M1.62138728,0 L1.62138728,3.78378378" id="Path-573"></path>
                            <path d="M3.15004587,2.7027027 L1.62138728,4.23158223 L0.0927286927,2.7027027 L0.0927286927,2.7027027" id="Rectangle-107" stroke-linecap="round" stroke-linejoin="bevel"></path>
                        </g>
                    </g>
                    <g id="Science-Playground" transform="translate(28.205202, 122.162162)">
                        <path d="M0.015773703,0.260017267 L75.6469842,0.260017267 L75.6469842,7.35577434 L58.6512066,7.35577434 L58.6512066,27.5055448 L75.6469842,27.5055448 L75.6469842,61.8451265 L0.015773703,61.8451265 L0.015773703,0.260017267 Z" id="Shape" stroke="#000000" fill="#EFF1F3"></path>
                        <path d="M18.8513295,29.6821622 C19.0242775,29.8464865 19.664185,30.3567568 20.7537572,30.3567568 C21.9730405,30.3567568 22.742659,29.5351351 22.742659,28.6443243 C22.742659,27.5286486 21.7741503,27.027027 20.9353526,26.6897297 C20.2349133,26.4043243 19.9149595,26.1275676 19.9149595,25.7210811 C19.9149595,25.4443243 20.1830289,25.1156757 20.6759306,25.1156757 C21.1515376,25.1156757 21.8087399,25.5481081 21.8779191,25.5913514 C21.9816879,25.6605405 22.1113988,25.5913514 22.180578,25.4875676 L22.5091792,24.9945946 C22.569711,24.9081081 22.5437688,24.7610811 22.4572948,24.7091892 C22.2843468,24.5794595 21.6098497,24.1297297 20.727815,24.1297297 C19.3528786,24.1297297 18.7821503,25.0205405 18.7821503,25.7902703 C18.7821503,26.8108108 19.5950058,27.3297297 20.4078613,27.6583784 C21.1342428,27.9524324 21.5060809,28.2551351 21.5060809,28.6962162 C21.5060809,29.0681081 21.1688324,29.3621622 20.7191676,29.3621622 C20.1570867,29.3621622 19.4566474,28.8518919 19.4134104,28.8259459 C19.3355838,28.7654054 19.188578,28.7654054 19.1193988,28.8864865 L18.8080925,29.4227027 C18.7302659,29.5610811 18.7735029,29.6043243 18.8513295,29.6821622 L18.8513295,29.6821622 Z M22.9584699,27.2518919 C22.9584699,28.9816216 24.3507011,30.3567568 26.0801808,30.3567568 C26.8497993,30.3567568 27.5934756,30.0886486 28.1814988,29.5178378 C28.2420305,29.4572973 28.2593253,29.3448649 28.1901462,29.2843243 L27.6540074,28.7308108 C27.602123,28.6789189 27.5070016,28.6702703 27.4378225,28.7308108 C27.0746317,29.0248649 26.6336144,29.2237838 26.1147704,29.2237838 C25.0079034,29.2237838 24.1777531,28.307027 24.1777531,27.2259459 C24.1777531,26.1362162 24.999256,25.2108108 26.106123,25.2108108 C26.5903774,25.2108108 27.0746317,25.4010811 27.4378225,25.7210811 C27.5070016,25.7902703 27.5934756,25.7902703 27.6540074,25.7210811 L28.1814988,25.1762162 C28.2506779,25.107027 28.2506779,25.0032432 28.1728514,24.9340541 C27.5848282,24.4064865 26.9535681,24.1297297 26.0801808,24.1297297 C24.3507011,24.1297297 22.9584699,25.5221622 22.9584699,27.2518919 L22.9584699,27.2518919 Z M28.8642692,30.1059459 C28.8642692,30.1924324 28.9420958,30.2702703 29.0285698,30.2702703 L29.8327779,30.2702703 C29.9192518,30.2702703 29.9970784,30.1924324 29.9970784,30.1059459 L29.9970784,24.3805405 C29.9970784,24.2940541 29.9192518,24.2162162 29.8327779,24.2162162 L29.0285698,24.2162162 C28.9420958,24.2162162 28.8642692,24.2940541 28.8642692,24.3805405 L28.8642692,30.1059459 Z M31.1208662,30.1059459 C31.1208662,30.1924324 31.1900454,30.2702703 31.2851668,30.2702703 L34.8046581,30.2702703 C34.8997795,30.2702703 34.9689587,30.1924324 34.9689587,30.1059459 L34.9689587,29.3967568 C34.9689587,29.3102703 34.8997795,29.2324324 34.8046581,29.2324324 L32.2450281,29.2324324 L32.2450281,27.7189189 L34.3809356,27.7189189 C34.4674096,27.7189189 34.5452361,27.6497297 34.5452361,27.5545946 L34.5452361,26.8367568 C34.5452361,26.7502703 34.4674096,26.6724324 34.3809356,26.6724324 L32.2450281,26.6724324 L32.2450281,25.2540541 L34.8046581,25.2540541 C34.8997795,25.2540541 34.9689587,25.1762162 34.9689587,25.0897297 L34.9689587,24.3805405 C34.9689587,24.2940541 34.8997795,24.2162162 34.8046581,24.2162162 L31.2851668,24.2162162 C31.1900454,24.2162162 31.1208662,24.2940541 31.1208662,24.3805405 L31.1208662,30.1059459 Z M35.7554979,30.1059459 C35.7554979,30.1924324 35.8333245,30.2702703 35.9197985,30.2702703 L36.7067118,30.2702703 C36.8018332,30.2702703 36.8710124,30.1924324 36.8710124,30.1059459 L36.8710124,26.387027 L36.8796598,26.387027 L40.4942725,30.3567568 L40.70181,30.3567568 C40.788284,30.3567568 40.8661106,30.2875676 40.8661106,30.2010811 L40.8661106,24.3805405 C40.8661106,24.2940541 40.788284,24.2162162 40.70181,24.2162162 L39.9062493,24.2162162 C39.811128,24.2162162 39.7419488,24.2940541 39.7419488,24.3805405 L39.7419488,27.9524324 L39.7333014,27.9524324 L36.1359835,24.1297297 L35.9197985,24.1297297 C35.8333245,24.1297297 35.7554979,24.1989189 35.7554979,24.2854054 L35.7554979,30.1059459 Z M41.548881,27.2518919 C41.548881,28.9816216 42.9411123,30.3567568 44.670592,30.3567568 C45.4402105,30.3567568 46.1838868,30.0886486 46.77191,29.5178378 C46.8324417,29.4572973 46.8497365,29.3448649 46.7805574,29.2843243 L46.2444186,28.7308108 C46.1925342,28.6789189 46.0974128,28.6702703 46.0282337,28.7308108 C45.6650429,29.0248649 45.2240256,29.2237838 44.7051816,29.2237838 C43.5983146,29.2237838 42.7681643,28.307027 42.7681643,27.2259459 C42.7681643,26.1362162 43.5896672,25.2108108 44.6965342,25.2108108 C45.1807886,25.2108108 45.6650429,25.4010811 46.0282337,25.7210811 C46.0974128,25.7902703 46.1838868,25.7902703 46.2444186,25.7210811 L46.77191,25.1762162 C46.8410891,25.107027 46.8410891,25.0032432 46.7632626,24.9340541 C46.1752394,24.4064865 45.5439793,24.1297297 44.670592,24.1297297 C42.9411123,24.1297297 41.548881,25.5221622 41.548881,27.2518919 L41.548881,27.2518919 Z M47.4546804,30.1059459 C47.4546804,30.1924324 47.5238596,30.2702703 47.618981,30.2702703 L51.1384723,30.2702703 C51.2335937,30.2702703 51.3027729,30.1924324 51.3027729,30.1059459 L51.3027729,29.3967568 C51.3027729,29.3102703 51.2335937,29.2324324 51.1384723,29.2324324 L48.5788422,29.2324324 L48.5788422,27.7189189 L50.7147497,27.7189189 C50.8012237,27.7189189 50.8790503,27.6497297 50.8790503,27.5545946 L50.8790503,26.8367568 C50.8790503,26.7502703 50.8012237,26.6724324 50.7147497,26.6724324 L48.5788422,26.6724324 L48.5788422,25.2540541 L51.1384723,25.2540541 C51.2335937,25.2540541 51.3027729,25.1762162 51.3027729,25.0897297 L51.3027729,24.3805405 C51.3027729,24.2940541 51.2335937,24.2162162 51.1384723,24.2162162 L47.618981,24.2162162 C47.5238596,24.2162162 47.4546804,24.2940541 47.4546804,24.3805405 L47.4546804,30.1059459 Z M19.1626358,39.2951351 C19.1626358,39.3816216 19.231815,39.4594595 19.3269364,39.4594595 L20.1224971,39.4594595 C20.2089711,39.4594595 20.2867977,39.3816216 20.2867977,39.2951351 L20.2867977,37.2627027 L21.3677225,37.2627027 C22.4227052,37.2627027 23.2960925,36.3891892 23.2960925,35.3167568 C23.2960925,34.2702703 22.4227052,33.4054054 21.3590751,33.4054054 L19.3269364,33.4054054 C19.231815,33.4054054 19.1626358,33.4832432 19.1626358,33.5697297 L19.1626358,39.2951351 Z M20.2867977,36.2075676 L20.2867977,34.4691892 L21.289896,34.4691892 C21.7741503,34.4691892 22.180578,34.8324324 22.180578,35.3081081 C22.180578,35.8183784 21.7741503,36.2075676 21.289896,36.2075676 L20.2867977,36.2075676 Z M23.8318571,39.2951351 C23.8318571,39.3816216 23.9010363,39.4594595 23.9961577,39.4594595 L27.1611057,39.4594595 C27.2562271,39.4594595 27.3254063,39.3816216 27.3254063,39.2951351 L27.3254063,38.5859459 C27.3254063,38.4994595 27.2562271,38.4216216 27.1611057,38.4216216 L24.956019,38.4216216 L24.956019,33.5697297 C24.956019,33.4832432 24.8781924,33.4054054 24.7917184,33.4054054 L23.9961577,33.4054054 C23.9010363,33.4054054 23.8318571,33.4832432 23.8318571,33.5697297 L23.8318571,39.2951351 Z M27.385564,39.4594595 L28.1378877,39.4594595 C28.2762461,39.4594595 28.3540727,39.372973 28.3886622,39.2864865 L28.8123848,38.3524324 L31.397957,38.3524324 L31.8216796,39.2864865 C31.8822114,39.4075676 31.9427432,39.4594595 32.0724542,39.4594595 L32.8247779,39.4594595 C32.9544888,39.4594595 33.023668,39.347027 32.9717836,39.2345946 L30.3083848,33.4140541 C30.2824426,33.3621622 30.247853,33.3189189 30.161379,33.3189189 L30.074905,33.3189189 C29.9970784,33.3189189 29.9538414,33.3621622 29.9278992,33.4140541 L27.2385582,39.2345946 C27.1866738,39.347027 27.255853,39.4594595 27.385564,39.4594595 L27.385564,39.4594595 Z M29.2361073,37.3924324 L30.0835524,35.4897297 L30.1094946,35.4897297 L30.9742345,37.3924324 L29.2361073,37.3924324 Z M34.0177448,39.2951351 C34.0177448,39.3816216 34.086924,39.4594595 34.1820454,39.4594595 L34.9776061,39.4594595 C35.0640801,39.4594595 35.1419067,39.3816216 35.1419067,39.2951351 L35.1419067,36.5362162 L37.1394558,33.6562162 C37.208635,33.5437838 37.1394558,33.4054054 37.0010974,33.4054054 L36.1104153,33.4054054 C36.0412361,33.4054054 35.9979992,33.4486486 35.972057,33.4832432 L34.5884731,35.4724324 L33.2048893,33.4832432 C33.1789471,33.4486486 33.1357101,33.4054054 33.0665309,33.4054054 L32.1844963,33.4054054 C32.0461379,33.4054054 31.9769587,33.5437838 32.0461379,33.6562162 L34.0177448,36.5448649 L34.0177448,39.2951351 Z M36.9056019,36.4410811 C36.9056019,38.1708108 38.2891858,39.5372973 40.0100181,39.5372973 C41.263891,39.5372973 42.154573,38.9751351 42.154573,38.9751351 C42.1891626,38.9491892 42.2237522,38.9059459 42.2237522,38.8367568 L42.2237522,36.6227027 C42.2237522,36.5362162 42.154573,36.4583784 42.0680991,36.4583784 L40.4077985,36.4583784 C40.3126771,36.4583784 40.2434979,36.5275676 40.2434979,36.6227027 L40.2434979,37.3059459 C40.2434979,37.3924324 40.3126771,37.4616216 40.4077985,37.4616216 L41.0995904,37.4616216 L41.0995904,38.1967568 C40.9266424,38.2659459 40.5548043,38.412973 40.0705499,38.412973 C38.9809777,38.412973 38.1248852,37.5048649 38.1248852,36.4324324 C38.1248852,35.3513514 38.9809777,34.4259459 40.0619025,34.4259459 C40.5375095,34.4259459 40.9958216,34.5989189 41.3676598,34.9275676 C41.4454863,34.9967568 41.5233129,34.9967568 41.5924921,34.9275676 L42.1286309,34.3654054 C42.19781,34.2962162 42.1891626,34.1924324 42.1199835,34.1232432 C41.5319603,33.6216216 40.788284,33.3189189 40.0100181,33.3189189 C38.2891858,33.3189189 36.9056019,34.7113514 36.9056019,36.4410811 L36.9056019,36.4410811 Z M43.044881,39.2951351 C43.044881,39.3816216 43.1140602,39.4594595 43.2091816,39.4594595 L44.0047423,39.4594595 C44.0912163,39.4594595 44.1690429,39.3816216 44.1690429,39.2951351 L44.1690429,37.0897297 L45.1289042,37.0897297 L46.2790082,39.3816216 C46.296303,39.4162162 46.33954,39.4594595 46.4173666,39.4594595 L47.3253435,39.4594595 C47.4723493,39.4594595 47.532881,39.3210811 47.4723493,39.2086486 L46.2876556,37.0118919 C47.0399793,36.7091892 47.5674706,36.0605405 47.5674706,35.2648649 C47.5674706,34.2356757 46.7200256,33.4054054 45.6823377,33.4054054 L43.2091816,33.4054054 C43.1140602,33.4054054 43.044881,33.4832432 43.044881,33.5697297 L43.044881,39.2951351 Z M44.1776903,36.1643243 L44.1776903,34.4432432 L45.5872163,34.4432432 C46.0455284,34.4432432 46.4433088,34.8237838 46.4433088,35.2821622 C46.4433088,35.7664865 46.0455284,36.1643243 45.5872163,36.1643243 L44.1776903,36.1643243 Z M47.9216399,36.4410811 C47.9216399,38.1708108 49.2965763,39.5459459 51.0260561,39.5459459 C52.7555359,39.5459459 54.1391197,38.1708108 54.1391197,36.4410811 C54.1391197,34.7113514 52.7555359,33.3189189 51.0260561,33.3189189 C49.2965763,33.3189189 47.9216399,34.7113514 47.9216399,36.4410811 L47.9216399,36.4410811 Z M49.0458018,36.4410811 C49.0458018,35.3513514 49.9364838,34.4432432 51.0260561,34.4432432 C52.1156284,34.4432432 53.0149578,35.3513514 53.0149578,36.4410811 C53.0149578,37.5308108 52.1156284,38.4216216 51.0260561,38.4216216 C49.9364838,38.4216216 49.0458018,37.5308108 49.0458018,36.4410811 L49.0458018,36.4410811 Z M54.7354161,37.1675676 C54.7354161,38.4821622 55.7817514,39.5459459 57.139393,39.5459459 C58.505682,39.5459459 59.5520173,38.4821622 59.5520173,37.1675676 L59.5520173,33.5697297 C59.5520173,33.4832432 59.4741907,33.4054054 59.3877167,33.4054054 L58.5662138,33.4054054 C58.4710924,33.4054054 58.4019132,33.4832432 58.4019132,33.5697297 L58.4019132,37.1156757 C58.4019132,37.8421622 57.8917167,38.4216216 57.139393,38.4216216 C56.3870693,38.4216216 55.8855202,37.8421622 55.8855202,37.107027 L55.8855202,33.5697297 C55.8855202,33.4832432 55.816341,33.4054054 55.7212196,33.4054054 L54.8997167,33.4054054 C54.8132427,33.4054054 54.7354161,33.4832432 54.7354161,33.5697297 L54.7354161,37.1675676 Z M60.5893311,39.2951351 C60.5893311,39.3816216 60.6671577,39.4594595 60.7536316,39.4594595 L61.5405449,39.4594595 C61.6356663,39.4594595 61.7048455,39.3816216 61.7048455,39.2951351 L61.7048455,35.5762162 L61.7134929,35.5762162 L65.3281056,39.5459459 L65.5356432,39.5459459 C65.6221172,39.5459459 65.6999438,39.4767568 65.6999438,39.3902703 L65.6999438,33.5697297 C65.6999438,33.4832432 65.6221172,33.4054054 65.5356432,33.4054054 L64.7400825,33.4054054 C64.6449611,33.4054054 64.5757819,33.4832432 64.5757819,33.5697297 L64.5757819,37.1416216 L64.5671345,37.1416216 L60.9698166,33.3189189 L60.7536316,33.3189189 C60.6671577,33.3189189 60.5893311,33.3881081 60.5893311,33.4745946 L60.5893311,39.2951351 Z M66.8237316,39.2951351 C66.8237316,39.3816216 66.8929107,39.4594595 66.9793847,39.4594595 L69.0288183,39.4594595 C70.6977662,39.4594595 72.0640553,38.1016216 72.0640553,36.4237838 C72.0640553,34.7632432 70.6977662,33.4054054 69.0288183,33.4054054 L66.9793847,33.4054054 C66.8929107,33.4054054 66.8237316,33.4832432 66.8237316,33.5697297 L66.8237316,39.2951351 Z M67.939246,38.4043243 L67.939246,34.4518919 L68.9250495,34.4518919 C70.0492113,34.4518919 70.8707142,35.2994595 70.8707142,36.4237838 C70.8707142,37.5567568 70.0492113,38.4043243 68.9250495,38.4043243 L67.939246,38.4043243 Z" id="SCIENCE-" fill="#C9C9C9"></path>
                    </g>
                    <g id="Life-Lab" transform="translate(0.641618, 59.459459)">
                        <rect id="Rectangle-path" stroke="#000000" fill="#EFF1F3" x="0.10228381" y="0.241812797" width="27.4770737" height="43.7069347"></rect>
                        <path d="M4.57015029,18.9816228 C4.57015029,19.0681093 4.63932948,19.1459471 4.73445087,19.1459471 L7.89939884,19.1459471 C7.99452023,19.1459471 8.06369942,19.0681093 8.06369942,18.9816228 L8.06369942,18.2724336 C8.06369942,18.1859471 7.99452023,18.1081093 7.89939884,18.1081093 L5.69431214,18.1081093 L5.69431214,13.2562174 C5.69431214,13.1697309 5.61648555,13.0918931 5.53001156,13.0918931 L4.73445087,13.0918931 C4.63932948,13.0918931 4.57015029,13.1697309 4.57015029,13.2562174 L4.57015029,18.9816228 Z M8.48704789,18.9816228 C8.48704789,19.0681093 8.56487448,19.1459471 8.65134846,19.1459471 L9.45555656,19.1459471 C9.54203055,19.1459471 9.61985713,19.0681093 9.61985713,18.9816228 L9.61985713,13.2562174 C9.61985713,13.1697309 9.54203055,13.0918931 9.45555656,13.0918931 L8.65134846,13.0918931 C8.56487448,13.0918931 8.48704789,13.1697309 8.48704789,13.2562174 L8.48704789,18.9816228 Z M10.7436449,18.9816228 C10.7436449,19.0681093 10.8128241,19.1459471 10.9079455,19.1459471 L11.7035062,19.1459471 C11.7899802,19.1459471 11.8678068,19.0681093 11.8678068,18.9816228 L11.8678068,16.7935147 L14.0037143,16.7935147 C14.0901883,16.7935147 14.1680148,16.7156769 14.1680148,16.6291904 L14.1680148,15.9200012 C14.1680148,15.8335147 14.0901883,15.7556769 14.0037143,15.7556769 L11.8678068,15.7556769 L11.8678068,14.1297309 L14.4274368,14.1297309 C14.5225582,14.1297309 14.5917374,14.0518931 14.5917374,13.9654066 L14.5917374,13.2562174 C14.5917374,13.1697309 14.5225582,13.0918931 14.4274368,13.0918931 L10.9079455,13.0918931 C10.8128241,13.0918931 10.7436449,13.1697309 10.7436449,13.2562174 L10.7436449,18.9816228 Z M15.170739,18.9816228 C15.170739,19.0681093 15.2399182,19.1459471 15.3350396,19.1459471 L18.8545309,19.1459471 C18.9496523,19.1459471 19.0188315,19.0681093 19.0188315,18.9816228 L19.0188315,18.2724336 C19.0188315,18.1859471 18.9496523,18.1081093 18.8545309,18.1081093 L16.2949009,18.1081093 L16.2949009,16.5945958 L18.4308084,16.5945958 C18.5172824,16.5945958 18.595109,16.5254066 18.595109,16.4302715 L18.595109,15.7124336 C18.595109,15.6259471 18.5172824,15.5481093 18.4308084,15.5481093 L16.2949009,15.5481093 L16.2949009,14.1297309 L18.8545309,14.1297309 C18.9496523,14.1297309 19.0188315,14.0518931 19.0188315,13.9654066 L19.0188315,13.2562174 C19.0188315,13.1697309 18.9496523,13.0918931 18.8545309,13.0918931 L15.3350396,13.0918931 C15.2399182,13.0918931 15.170739,13.1697309 15.170739,13.2562174 L15.170739,18.9816228 Z M4.57015029,28.170812 C4.57015029,28.2572985 4.63932948,28.3351363 4.73445087,28.3351363 L7.89939884,28.3351363 C7.99452023,28.3351363 8.06369942,28.2572985 8.06369942,28.170812 L8.06369942,27.4616228 C8.06369942,27.3751363 7.99452023,27.2972985 7.89939884,27.2972985 L5.69431214,27.2972985 L5.69431214,22.4454066 C5.69431214,22.3589201 5.61648555,22.2810823 5.53001156,22.2810823 L4.73445087,22.2810823 C4.63932948,22.2810823 4.57015029,22.3589201 4.57015029,22.4454066 L4.57015029,28.170812 Z M8.12385713,28.3351363 L8.87618083,28.3351363 C9.01453922,28.3351363 9.09236581,28.2486498 9.1269554,28.1621634 L9.55067794,27.2281093 L12.1362502,27.2281093 L12.5599727,28.1621634 C12.6205045,28.2832444 12.6810363,28.3351363 12.8107473,28.3351363 L13.563071,28.3351363 C13.692782,28.3351363 13.7619612,28.2227039 13.7100768,28.1102715 L11.0466779,22.2897309 C11.0207357,22.237839 10.9861462,22.1945958 10.8996722,22.1945958 L10.8131982,22.1945958 C10.7353716,22.1945958 10.6921346,22.237839 10.6661924,22.2897309 L7.97685135,28.1102715 C7.92496696,28.2227039 7.99414615,28.3351363 8.12385713,28.3351363 L8.12385713,28.3351363 Z M9.97440049,26.2681093 L10.8218456,24.3654066 L10.8477878,24.3654066 L11.7125277,26.2681093 L9.97440049,26.2681093 Z M14.0469513,28.170812 C14.0469513,28.2572985 14.1161305,28.3351363 14.2112518,28.3351363 L16.3039224,28.3351363 C17.358905,28.3351363 18.1890553,27.6345958 18.1890553,26.6659471 C18.1890553,25.8702715 17.5232056,25.4032444 17.0648935,25.2562174 C17.4713212,25.0659471 18.0161073,24.5470282 18.0161073,23.8810823 C18.0161073,22.9729742 17.2205466,22.2810823 16.1915062,22.2810823 L14.2112518,22.2810823 C14.1161305,22.2810823 14.0469513,22.3589201 14.0469513,22.4454066 L14.0469513,28.170812 Z M15.1624657,24.823785 L15.1624657,23.3102715 L16.0877374,23.3102715 C16.5287547,23.3102715 16.8314137,23.6129742 16.8314137,24.0454066 C16.8314137,24.477839 16.5287547,24.823785 16.0877374,24.823785 L15.1624657,24.823785 Z M15.1624657,27.3145958 L15.1624657,25.7751363 L16.1050322,25.7751363 C16.5546969,25.7751363 16.9870669,26.0951363 16.9870669,26.5275688 C16.9870669,26.9772985 16.6411709,27.3145958 16.208801,27.3145958 L15.1624657,27.3145958 Z" id="LIFE-" fill="#C9C9C9"></path>
                    </g>
                    <g id="Paleo-Lab" transform="translate(0.540462, 0.000000)" stroke="#000000" fill="#EFF1F3">
                        <rect id="Rectangle-path" x="0.203439879" y="0.101680829" width="27.4770737" height="31.7870164"></rect>
                    </g>
                    <g id="Watershed-Lab" transform="translate(0.000000, 31.351351)" stroke="#000000" fill="#EFF1F3">
                        <rect id="Rectangle-path" x="0.743902307" y="0.537345854" width="27.4770737" height="27.8125751"></rect>
                    </g>
                    <g id="svg-earth-hall" transform="translate(22.800578, 0.000000)">
                        <path d="M81.0516085,36.9972336 L66.0375385,36.9972336 L66.0375385,59.7012723 L5.42039798,59.7012723 L5.42039798,36.9972336 L5.42039798,0.101680829 L81.0516085,0.101680829 L81.0516085,36.9972336 Z" id="earth_hall" stroke="#000000" fill="#EFF1F3"></path>
                        <path d="M24.5672601,21.9978378 C24.5672601,22.0843243 24.6364393,22.1621622 24.7315607,22.1621622 L28.251052,22.1621622 C28.3461734,22.1621622 28.4153526,22.0843243 28.4153526,21.9978378 L28.4153526,21.2886486 C28.4153526,21.2021622 28.3461734,21.1243243 28.251052,21.1243243 L25.691422,21.1243243 L25.691422,19.6108108 L27.8273295,19.6108108 C27.9138035,19.6108108 27.9916301,19.5416216 27.9916301,19.4464865 L27.9916301,18.7286486 C27.9916301,18.6421622 27.9138035,18.5643243 27.8273295,18.5643243 L25.691422,18.5643243 L25.691422,17.1459459 L28.251052,17.1459459 C28.3461734,17.1459459 28.4153526,17.0681081 28.4153526,16.9816216 L28.4153526,16.2724324 C28.4153526,16.1859459 28.3461734,16.1081081 28.251052,16.1081081 L24.7315607,16.1081081 C24.6364393,16.1081081 24.5672601,16.1859459 24.5672601,16.2724324 L24.5672601,21.9978378 Z M28.5619843,22.1621622 L29.314308,22.1621622 C29.4526664,22.1621622 29.530493,22.0756757 29.5650826,21.9891892 L29.9888051,21.0551351 L32.5743774,21.0551351 L32.9980999,21.9891892 C33.0586317,22.1102703 33.1191635,22.1621622 33.2488745,22.1621622 L34.0011982,22.1621622 C34.1309092,22.1621622 34.2000883,22.0497297 34.148204,21.9372973 L31.4848051,16.1167568 C31.4588629,16.0648649 31.4242733,16.0216216 31.3377993,16.0216216 L31.2513253,16.0216216 C31.1734988,16.0216216 31.1302618,16.0648649 31.1043196,16.1167568 L28.4149785,21.9372973 C28.3630941,22.0497297 28.4322733,22.1621622 28.5619843,22.1621622 L28.5619843,22.1621622 Z M30.4125277,20.0951351 L31.2599727,18.1924324 L31.2859149,18.1924324 L32.1506548,20.0951351 L30.4125277,20.0951351 Z M34.4850784,21.9978378 C34.4850784,22.0843243 34.5542576,22.1621622 34.649379,22.1621622 L35.4449397,22.1621622 C35.5314137,22.1621622 35.6092403,22.0843243 35.6092403,21.9978378 L35.6092403,19.7924324 L36.5691016,19.7924324 L37.7192056,22.0843243 C37.7365004,22.1189189 37.7797374,22.1621622 37.857564,22.1621622 L38.7655409,22.1621622 C38.9125466,22.1621622 38.9730784,22.0237838 38.9125466,21.9113514 L37.727853,19.7145946 C38.4801767,19.4118919 39.007668,18.7632432 39.007668,17.9675676 C39.007668,16.9383784 38.1602229,16.1081081 37.1225351,16.1081081 L34.649379,16.1081081 C34.5542576,16.1081081 34.4850784,16.1859459 34.4850784,16.2724324 L34.4850784,21.9978378 Z M35.6178877,18.867027 L35.6178877,17.1459459 L37.0274137,17.1459459 C37.4857258,17.1459459 37.8835062,17.5264865 37.8835062,17.9848649 C37.8835062,18.4691892 37.4857258,18.867027 37.0274137,18.867027 L35.6178877,18.867027 Z M40.6070627,21.9978378 C40.6070627,22.0843243 40.6848893,22.1621622 40.7713633,22.1621622 L41.5755714,22.1621622 C41.6620454,22.1621622 41.739872,22.0843243 41.739872,21.9978378 L41.739872,17.1459459 L43.062924,17.1459459 C43.1580454,17.1459459 43.2272246,17.0681081 43.2272246,16.9816216 L43.2272246,16.2724324 C43.2272246,16.1859459 43.1580454,16.1081081 43.062924,16.1081081 L39.2840107,16.1081081 C39.1888893,16.1081081 39.1197101,16.1859459 39.1197101,16.2724324 L39.1197101,16.9816216 C39.1197101,17.0681081 39.1888893,17.1459459 39.2840107,17.1459459 L40.6070627,17.1459459 L40.6070627,21.9978378 Z M43.6765152,21.9978378 C43.6765152,22.0843243 43.7543418,22.1621622 43.8408158,22.1621622 L44.6450239,22.1621622 C44.7401453,22.1621622 44.8093245,22.0843243 44.8093245,21.9978378 L44.8093245,19.6108108 L47.6283765,19.6108108 L47.6283765,21.9978378 C47.6283765,22.0843243 47.6975557,22.1621622 47.7926771,22.1621622 L48.5882378,22.1621622 C48.6747118,22.1621622 48.7525384,22.0843243 48.7525384,21.9978378 L48.7525384,16.2724324 C48.7525384,16.1859459 48.6747118,16.1081081 48.5882378,16.1081081 L47.7926771,16.1081081 C47.6975557,16.1081081 47.6283765,16.1859459 47.6283765,16.2724324 L47.6283765,18.5643243 L44.8093245,18.5643243 L44.8093245,16.2724324 C44.8093245,16.1859459 44.7401453,16.1081081 44.6450239,16.1081081 L43.8408158,16.1081081 C43.7543418,16.1081081 43.6765152,16.1859459 43.6765152,16.2724324 L43.6765152,21.9978378 Z M24.5672601,31.187027 C24.5672601,31.2735135 24.6450867,31.3513514 24.7315607,31.3513514 L25.5357688,31.3513514 C25.6308902,31.3513514 25.7000694,31.2735135 25.7000694,31.187027 L25.7000694,28.8 L28.5191214,28.8 L28.5191214,31.187027 C28.5191214,31.2735135 28.5883006,31.3513514 28.683422,31.3513514 L29.4789827,31.3513514 C29.5654566,31.3513514 29.6432832,31.2735135 29.6432832,31.187027 L29.6432832,25.4616216 C29.6432832,25.3751351 29.5654566,25.2972973 29.4789827,25.2972973 L28.683422,25.2972973 C28.5883006,25.2972973 28.5191214,25.3751351 28.5191214,25.4616216 L28.5191214,27.7535135 L25.7000694,27.7535135 L25.7000694,25.4616216 C25.7000694,25.3751351 25.6308902,25.2972973 25.5357688,25.2972973 L24.7315607,25.2972973 C24.6450867,25.2972973 24.5672601,25.3751351 24.5672601,25.4616216 L24.5672601,31.187027 Z M30.1271635,31.3513514 L30.8794872,31.3513514 C31.0178456,31.3513514 31.0956722,31.2648649 31.1302618,31.1783784 L31.5539843,30.2443243 L34.1395566,30.2443243 L34.5632791,31.1783784 C34.6238109,31.2994595 34.6843427,31.3513514 34.8140537,31.3513514 L35.5663774,31.3513514 C35.6960883,31.3513514 35.7652675,31.2389189 35.7133831,31.1264865 L33.0499843,25.3059459 C33.0240421,25.2540541 32.9894525,25.2108108 32.9029785,25.2108108 L32.8165045,25.2108108 C32.7386779,25.2108108 32.6954409,25.2540541 32.6694988,25.3059459 L29.9801577,31.1264865 C29.9282733,31.2389189 29.9974525,31.3513514 30.1271635,31.3513514 L30.1271635,31.3513514 Z M31.9777068,29.2843243 L32.8251519,27.3816216 L32.8510941,27.3816216 L33.715834,29.2843243 L31.9777068,29.2843243 Z M36.0502576,31.187027 C36.0502576,31.2735135 36.1194368,31.3513514 36.2145582,31.3513514 L39.3795062,31.3513514 C39.4746276,31.3513514 39.5438068,31.2735135 39.5438068,31.187027 L39.5438068,30.4778378 C39.5438068,30.3913514 39.4746276,30.3135135 39.3795062,30.3135135 L37.1744195,30.3135135 L37.1744195,25.4616216 C37.1744195,25.3751351 37.0965929,25.2972973 37.0101189,25.2972973 L36.2145582,25.2972973 C36.1194368,25.2972973 36.0502576,25.3751351 36.0502576,25.4616216 L36.0502576,31.187027 Z M39.9671552,31.187027 C39.9671552,31.2735135 40.0363344,31.3513514 40.1314558,31.3513514 L43.2964038,31.3513514 C43.3915252,31.3513514 43.4607044,31.2735135 43.4607044,31.187027 L43.4607044,30.4778378 C43.4607044,30.3913514 43.3915252,30.3135135 43.2964038,30.3135135 L41.0913171,30.3135135 L41.0913171,25.4616216 C41.0913171,25.3751351 41.0134905,25.2972973 40.9270165,25.2972973 L40.1314558,25.2972973 C40.0363344,25.2972973 39.9671552,25.3751351 39.9671552,25.4616216 L39.9671552,31.187027 Z" id="EARTH" fill="#484848"></path>
                        <g id="marker" transform="translate(0.000000, 5.507086)">
                            <ellipse id="marker-base" fill="#FF5D73" cx="5.40462428" cy="23.1415624" rx="3.24277457" ry="3.24324324"></ellipse>
                            <path d="M5.40461829,23.1540147 C5.40461829,23.1540147 10.8092366,8.61720683 10.8092366,5.55130548 C10.8092366,2.48540412 8.38950655,0 5.40461829,0 C2.41973003,0 0,2.48540412 0,5.55130548 C0,8.61720683 5.40461829,23.1540147 5.40461829,23.1540147 L5.40461829,23.1540147 L5.40461829,23.1540147 Z" id="Oval-209-Copy" stroke="#EFF1F3" stroke-width="0.600000024" fill="#FF5D73"></path>
                            <path d="M5.40462428,6.88688689 C6.5300752,6.88688689 7.44243343,6.00041965 7.44243343,4.90690691 C7.44243343,3.81339416 6.5300752,2.92692693 5.40462428,2.92692693 C4.27917336,2.92692693 3.36681512,3.81339416 3.36681512,4.90690691 C3.36681512,6.00041965 4.27917336,6.88688689 5.40462428,6.88688689 L5.40462428,6.88688689 L5.40462428,6.88688689 Z" id="Path" fill="#EFF1F3"></path>
                        </g>
                    </g>
                </g>
            </g>
        </g>
    </g>
</svg>