<?xml version="1.0" encoding="UTF-8" standalone="no"?>
<svg width="248px" height="127px" viewBox="0 0 248 127" version="1.1" xmlns="http://www.w3.org/2000/svg" xmlns:xlink="http://www.w3.org/1999/xlink" xmlns:sketch="http://www.bohemiancoding.com/sketch/ns">
    <!-- Generator: Sketch 3.5.1 (25234) - http://www.bohemiancoding.com/sketch -->
    <title>Group 4</title>
    <desc>Created with Sketch.</desc>
    <defs>
        <filter x="-50%" y="-50%" width="200%" height="200%" filterUnits="objectBoundingBox" id="filter-1">
            <feOffset dx="-2" dy="2" in="SourceAlpha" result="shadowOffsetOuter1"></feOffset>
            <feGaussianBlur stdDeviation="0" in="shadowOffsetOuter1" result="shadowBlurOuter1"></feGaussianBlur>
            <feColorMatrix values="0 0 0 0 0   0 0 0 0 0   0 0 0 0 0  0 0 0 0.35 0" in="shadowBlurOuter1" type="matrix" result="shadowMatrixOuter1"></feColorMatrix>
            <feMerge>
                <feMergeNode in="shadowMatrixOuter1"></feMergeNode>
                <feMergeNode in="SourceGraphic"></feMergeNode>
            </feMerge>
        </filter>
        <filter x="-50%" y="-50%" width="200%" height="200%" filterUnits="objectBoundingBox" id="filter-2">
            <feOffset dx="3" dy="2" in="SourceAlpha" result="shadowOffsetOuter1"></feOffset>
            <feGaussianBlur stdDeviation="0" in="shadowOffsetOuter1" result="shadowBlurOuter1"></feGaussianBlur>
            <feColorMatrix values="0 0 0 0 0   0 0 0 0 0   0 0 0 0 0  0 0 0 0.35 0" in="shadowBlurOuter1" type="matrix" result="shadowMatrixOuter1"></feColorMatrix>
            <feMerge>
                <feMergeNode in="shadowMatrixOuter1"></feMergeNode>
                <feMergeNode in="SourceGraphic"></feMergeNode>
            </feMerge>
        </filter>
        <filter x="-50%" y="-50%" width="200%" height="200%" filterUnits="objectBoundingBox" id="filter-3">
            <feOffset dx="3" dy="2" in="SourceAlpha" result="shadowOffsetOuter1"></feOffset>
            <feGaussianBlur stdDeviation="0" in="shadowOffsetOuter1" result="shadowBlurOuter1"></feGaussianBlur>
            <feColorMatrix values="0 0 0 0 0   0 0 0 0 0   0 0 0 0 0  0 0 0 0.35 0" in="shadowBlurOuter1" type="matrix" result="shadowMatrixOuter1"></feColorMatrix>
            <feMerge>
                <feMergeNode in="shadowMatrixOuter1"></feMergeNode>
                <feMergeNode in="SourceGraphic"></feMergeNode>
            </feMerge>
        </filter>
        <filter x="-50%" y="-50%" width="200%" height="200%" filterUnits="objectBoundingBox" id="filter-4">
            <feOffset dx="-2" dy="2" in="SourceAlpha" result="shadowOffsetOuter1"></feOffset>
            <feGaussianBlur stdDeviation="0" in="shadowOffsetOuter1" result="shadowBlurOuter1"></feGaussianBlur>
            <feColorMatrix values="0 0 0 0 0   0 0 0 0 0   0 0 0 0 0  0 0 0 0.35 0" in="shadowBlurOuter1" type="matrix" result="shadowMatrixOuter1"></feColorMatrix>
            <feMerge>
                <feMergeNode in="shadowMatrixOuter1"></feMergeNode>
                <feMergeNode in="SourceGraphic"></feMergeNode>
            </feMerge>
        </filter>
    </defs>
    <g id="Page-1" stroke="none" stroke-width="1" fill="none" fill-rule="evenodd" sketch:type="MSPage">
        <g id="Map-Onboard" sketch:type="MSArtboardGroup" transform="translate(-71.000000, -216.000000)">
            <g id="Group-4" sketch:type="MSLayerGroup" transform="translate(72.000000, 215.000000)">
                <g id="Group-2" transform="translate(0.334021, 0.000000)" fill="#EFF1F3" sketch:type="MSShapeGroup">
                    <path d="M1.39169979,105.060382 L1.39169979,1.33859767 L55.658175,18.7380606 L55.658175,125.617277 L1.39169979,105.060382 Z" id="Rectangle-7" filter="url(#filter-1)"></path>
                    <path d="M118.064621,105.060382 L118.064621,1.33859767 L63.7981463,18.7380606 L63.7981463,125.617277 L118.064621,105.060382 Z" id="Rectangle-7-Copy" filter="url(#filter-2)"></path>
                    <path d="M242.877514,105.060382 L242.877514,1.33859767 L188.611039,18.7380606 L188.611039,125.617277 L242.877514,105.060382 Z" id="Rectangle-7-Copy-3" filter="url(#filter-3)"></path>
                    <path d="M126.204593,105.060382 L126.204593,1.33859767 L180.471068,18.7380606 L180.471068,125.617277 L126.204593,105.060382 Z" id="Rectangle-7-Copy-2" filter="url(#filter-4)"></path>
                </g>
                <path d="M37.1754728,75.2525208 L22.4208341,71.0992882 L25.8609346,66.6459702 L40.6155733,70.7992028 L37.1754728,75.2525208 Z" id="Rectangle-7" fill="#FF5D73" sketch:type="MSShapeGroup"></path>
                <path d="M15.9073333,69.2556362 L5.74162799,66.3941268 L9.1817285,61.9408087 L19.3474338,64.8023182 L15.9073333,69.2556362 Z" id="Rectangle-7-Copy-15" fill="#FF5D73" sketch:type="MSShapeGroup"></path>
                <path d="M1.69628906,63.5115967 L1.69628906,59.7838135 L3.58643902,60.3613997 L1.69628906,63.5115967 Z" id="Rectangle-7-Copy-14" fill="#FF5D73" sketch:type="MSShapeGroup"></path>
                <path d="M58.4624765,79.6490569 L42.89389,76.7758074 L45.2737873,72.0768197 L60.8423738,74.9500691 L58.4624765,79.6490569 Z" id="Rectangle-7-Copy-4" fill="#FF5D73" sketch:type="MSShapeGroup"></path>
                <path d="M82.2977744,77.4292059 L66.2651608,79.1357135 L64.8516696,74.2966707 L80.8842832,72.5901631 L82.2977744,77.4292059 Z" id="Rectangle-7-Copy-5" fill="#FF5D73" sketch:type="MSShapeGroup"></path>
                <path d="M101.250643,68.4842663 L89.5398326,75.3109419 L83.8853334,71.7763271 L95.596144,64.9496515 L101.250643,68.4842663 Z" id="Rectangle-7-Copy-6" fill="#FF5D73" sketch:type="MSShapeGroup"></path>
                <path d="M112.543016,56.6188447 L103.915961,64.9529404 L97.0128741,62.3490799 L105.639929,54.0149843 L112.543016,56.6188447 Z" id="Rectangle-7-Copy-7" fill="#FF5D73" sketch:type="MSShapeGroup"></path>
                <path d="M118.443604,53.1181641 L111.379595,48.8749831 L118.443604,46.2843018 L118.443604,53.1181641 Z" id="Rectangle-7-Copy-8" fill="#FF5D73" sketch:type="MSShapeGroup"></path>
                <path d="M143.212853,51.0061387 L127.400809,49.9082864 L128.392822,45.0312196 L143.204866,46.1290719 L143.212853,51.0061387 Z" id="Rectangle-7-Copy-9" fill="#FF5D73" sketch:type="MSShapeGroup"></path>
                <path d="M160.23445,53.8244017 L149.912353,51.7998489 L151.427743,47.1266494 L162.74984,49.1512022 L160.23445,53.8244017 Z" id="Rectangle-7-Copy-10" fill="#FF5D73" sketch:type="MSShapeGroup"></path>
                <path d="M180.043879,59.9028762 L167.528163,54.9965299 L171.961509,50.8755604 L184.477225,55.7819067 L180.043879,59.9028762 Z" id="Rectangle-7-Copy-11" fill="#FF5D73" sketch:type="MSShapeGroup"></path>
                <path d="M197.149051,68.2515374 L185.230789,62.8301248 L190.129546,58.9058752 L202.047808,64.3272878 L197.149051,68.2515374 Z" id="Rectangle-7-Copy-12" fill="#FF5D73" sketch:type="MSShapeGroup"></path>
                <path d="M217.7937,74.2067682 L203.160605,70.5427069 L207.471429,66.0538252 L221.104525,69.7178865 L217.7937,74.2067682 Z" id="Rectangle-7-Copy-13" fill="#FF5D73" sketch:type="MSShapeGroup"></path>
                <path d="M237.133309,79.9211374 L223.500213,76.257076 L226.811038,71.7681943 L241.444133,75.4322556 L237.133309,79.9211374 Z" id="Rectangle-7-Copy-16" fill="#FF5D73" sketch:type="MSShapeGroup"></path>
            </g>
        </g>
    </g>
</svg>