<?xml version="1.0" encoding="UTF-8" standalone="no"?>
<svg width="204px" height="342px" viewBox="0 0 204 342" version="1.1" xmlns="http://www.w3.org/2000/svg" xmlns:xlink="http://www.w3.org/1999/xlink">
    <defs>
        <rect id="path-1" x="13.983871" y="47.6826923" width="176.854839" height="244.990385" rx="3"></rect>
        <filter x="-50%" y="-50%" width="200%" height="200%" filterUnits="objectBoundingBox" id="filter-3">
            <feOffset dx="0" dy="0" in="SourceAlpha" result="shadowOffsetOuter1"></feOffset>
            <feGaussianBlur stdDeviation="0.5" in="shadowOffsetOuter1" result="shadowBlurOuter1"></feGaussianBlur>
            <feColorMatrix values="0 0 0 0 0   0 0 0 0 0   0 0 0 0 0  0 0 0 0.35 0" in="shadowBlurOuter1" type="matrix" result="shadowMatrixOuter1"></feColorMatrix>
            <feMerge>
                <feMergeNode in="shadowMatrixOuter1"></feMergeNode>
                <feMergeNode in="SourceGraphic"></feMergeNode>
            </feMerge>
        </filter>
    </defs>
    <g id="Page-1" stroke="none" stroke-width="1" fill="none" fill-rule="evenodd">
        <g id="Swipe-Onboard" transform="translate(-84.000000, -78.000000)">
            <g id="swipe-onboard" transform="translate(84.000000, 78.000000)">
                <g id="Phone-Map-Onboard"></g>
                <rect id="Mask" fill="#EFF1F3" x="0" y="0" width="204" height="342" rx="33"></rect>
                <ellipse id="Oval-283" fill="#484848" cx="102.41129" cy="316.103365" rx="16.0403226" ry="16.03125"></ellipse>
                <mask id="mask-2" sketch:name="Mask" fill="white">
                    <use xlink:href="#path-1"></use>
                </mask>
                <use id="Mask" fill="#484848" xlink:href="#path-1"></use>
                <ellipse id="Oval-283" fill="#484848" mask="url(#mask-2)" cx="69.0967742" cy="23.0192308" rx="3.29032258" ry="3.28846154"></ellipse>
                <rect id="Rectangle-36" fill="#484848" mask="url(#mask-2)" x="83.9032258" y="19.7307692" width="37.016129" height="6.57692308" rx="22.11"></rect>
                <g id="Second-Floor" mask="url(#mask-2)">
                    <g transform="translate(37.838710, 58.370192)">
                        <rect id="Rectangle-path" stroke="#000000" fill="#EFF1F3" x="0.10226373" y="103.330391" width="27.4716794" height="103.228787"></rect>
                        <rect id="Rectangle-path" stroke="#000000" fill="#EFF1F3" x="27.5739431" y="183.868822" width="41.913555" height="22.6886552"></rect>
                        <rect id="Rectangle-path" stroke="#000000" fill="#EFF1F3" x="69.4874981" y="183.868822" width="33.7028075" height="22.6886552"></rect>
                        <rect id="Rectangle-path" stroke="#000000" fill="#EFF1F3" x="103.190306" y="0.101604313" width="25.4886615" height="36.8677886"></rect>
                        <path d="M128.576703,36.729097 L88.0769195,36.729097 L88.0769195,59.4160507 L103.088042,59.4160507 L103.088042,129.180177 L86.0956008,129.180177 L86.0956008,149.314785 L103.088042,149.314785 L103.088042,206.317181 L0,206.317181 L0,223.332822 L128.576703,223.332822 L128.576703,36.729097 Z" id="Shape" stroke="#000000" fill="#EFF1F3"></path>
                        <g id="Restroom" stroke="none" fill="none" transform="translate(72.948104, 191.747492)">
                            <ellipse id="Oval" stroke="#9B9B9B" stroke-width="0.5" fill="#223843" cx="13.379848" cy="13.4797905" rx="12.9448416" ry="12.962515"></ellipse>
                            <g id="Group" transform="translate(2.239600, 5.644826)" fill="#FFFFFF">
                                <ellipse id="Oval" cx="4.96179607" cy="1.72464799" rx="1.70943956" ry="1.71177345"></ellipse>
                                <path d="M5.27275774,16.3393817 C5.27275774,16.7341446 5.52424587,17.0574418 5.83520754,17.0574418 L5.83520754,17.0574418 C6.14616921,17.0574418 6.39595809,16.7358462 6.39765734,16.3393817 L6.39765734,8.57344335 C6.39765734,8.17697892 6.14616921,7.85538331 5.83520754,7.85538331 L5.83520754,7.85538331 C5.52424587,7.85538331 5.27275774,8.17527736 5.27275774,8.57344335 L5.27275774,16.3393817 L5.27275774,16.3393817 Z" id="Shape"></path>
                                <path d="M3.59220533,16.3393817 C3.59220533,16.732443 3.8453927,17.0557402 4.15465513,17.0574418 L4.15465513,17.0574418 C4.46391755,17.0574418 4.71710492,16.7358462 4.71710492,16.3393817 L4.71710492,8.57344335 C4.71710492,8.17697892 4.4656168,7.85538331 4.15465513,7.85538331 L4.15465513,7.85538331 C3.8453927,7.85368175 3.59220533,8.17527736 3.59220533,8.57344335 L3.59220533,16.3393817 L3.59220533,16.3393817 Z" id="Shape"></path>
                                <path d="M7.54980762,7.74187718 C7.27779898,7.7845566 7.05465764,7.82268769 7.05866329,7.84006924 C7.60751914,10.1201651 8.27702131,12.2352092 8.21754777,12.2607327 C7.86240575,12.4138734 6.16825938,12.509161 5.8912826,12.509161 L4.83265352,12.509161 L3.77572369,12.509161 C3.52253632,12.509161 1.98641965,12.454711 1.77571339,12.3526171 C1.70434513,12.3185859 2.47920044,9.37317846 2.83434246,8.02213659 C2.84005737,7.99924576 2.58930008,7.96342359 2.29733396,7.92528991 L1.52932299,10.0929401 C1.3984812,10.4655826 1.06033162,10.6544562 0.776557854,10.5217342 C0.49278409,10.3839075 0.36873927,9.97553214 0.499581066,9.60629273 L1.9162231,5.87313576 C2.07733872,5.39247368 2.24303679,4.97023453 2.37375871,4.66743086 L2.55226794,4.19702057 C2.57009845,4.19548467 2.58812125,4.19398969 2.60628969,4.19255445 C2.61339209,4.18314268 2.61866552,4.17830337 2.62193695,4.17830337 L2.86442671,4.17830337 C2.91740848,4.17695025 2.96980716,4.17680317 3.02052966,4.17830337 L6.74227637,4.17830337 C6.92143878,4.14564099 7.14430676,4.14726894 7.34583555,4.16469086 L9.42231184,9.63181619 C9.55315363,10.0010556 9.42910881,10.409431 9.1436358,10.5472577 C8.85986204,10.6799797 8.52341171,10.491106 8.39256991,10.1184635 L7.54980762,7.74187718 Z" id="Shape"></path>
                            </g>
                            <g id="Group" transform="translate(16.373910, 5.104692)" fill="#FFFFFF">
                                <path d="M1.58879983,16.5255902 C1.58879983,16.9220546 1.84028796,17.2419487 2.15124963,17.2419487 L2.15124963,17.2419487 C2.46051206,17.2419487 2.71200019,16.9220546 2.71200019,16.5238886 L2.71200019,8.7596518 C2.71200019,8.36488894 2.46051206,8.0398902 2.15124963,8.0398902 L2.15124963,8.0398902 C1.84028796,8.0398902 1.58879983,8.36318737 1.58879983,8.76305493 L1.58879983,16.5255902 L1.58879983,16.5255902 Z" id="Shape"></path>
                                <path d="M3.23706661,16.5255902 C3.23706661,16.9220546 3.48855474,17.2419487 3.79951641,17.2419487 L3.79951641,17.2419487 C4.11047808,17.2419487 4.36196621,16.9220546 4.36196621,16.5238886 L4.36196621,8.7596518 C4.36196621,8.36488894 4.11047808,8.0398902 3.79951641,8.0398902 L3.79951641,8.0398902 C3.48855474,8.0398902 3.23706661,8.36318737 3.23706661,8.76305493 L3.23706661,16.5255902 L3.23706661,16.5255902 Z" id="Shape"></path>
                                <path d="M1.14189864,7.95821513 L1.58879983,7.95821513 L1.58879983,12.1968112 L4.36026696,12.1968112 L4.36026696,7.95821513 L4.70446852,7.95821513 L4.8088674,10.3829439 C4.8088674,10.7811099 5.06035553,11.1027055 5.3713172,11.1027055 C5.68227887,11.1027055 5.93206776,10.7794083 5.933767,10.3829439 L5.84370706,6.03034304 C5.84540631,5.63387862 5.26256558,4.44788846 4.95160391,4.44788846 L4.37735859,4.44788846 C4.37243638,4.44998391 4.36756517,4.45209032 4.36274444,4.45420757 L4.36196621,4.44959003 L1.35430415,4.46660567 L0.934590856,4.44788846 C0.621929942,4.44788846 0.103660491,5.63387862 0.103660491,6.03034304 L0.016999042,10.3829439 C0.016999042,10.7794083 0.268487169,11.1027055 0.579448839,11.1027055 C0.888711265,11.1027055 1.14019939,10.7811099 1.14189864,10.3829439 L1.14189864,7.95821513 Z" id="Shape"></path>
                                <ellipse id="Oval" cx="2.97538302" cy="2.23415362" rx="1.70943956" ry="1.71177345"></ellipse>
                            </g>
                            <path d="M13.379848,3.69920027 L13.379848,23.2620823" id="Shape" stroke="#FFFFFF" stroke-width="0.5"></path>
                        </g>
                        <g id="Group-5" stroke="none" fill="none" transform="translate(115.329157, 161.083189)">
                            <ellipse id="Oval" stroke="#9B9B9B" stroke-width="0.5" fill="#223843" cx="5.18312757" cy="5.00812001" rx="5.14529815" ry="4.87507552"></ellipse>
                            <path d="M4.91039367,5.32874086 L5.79442304,5.32874086 C5.98086157,5.32874086 6.132174,5.18537511 6.132174,5.00872803 L6.13237665,5.00872803 L6.13237665,3.99371132 L7.01613582,3.99371132 C7.20257435,3.99371132 7.35388678,3.85034557 7.35388678,3.67369849 C7.35388678,3.66995598 7.35381886,3.6662284 7.35368413,3.66251682 L7.35368413,2.65989783 L8.2385241,2.65989783 C8.42496263,2.65989783 8.57627506,2.51653208 8.57627506,2.33988499 C8.57627506,2.16323791 8.42496263,2.01987216 8.2385241,2.01987216 L7.01586561,2.01987216 C6.82942708,2.01987216 6.67811465,2.16323791 6.67811465,2.33988499 C6.67811465,2.34204325 6.67813724,2.34419653 6.6781822,2.34634464 L6.6781822,3.35368565 L5.79415284,3.35368565 C5.6077143,3.35368565 5.45640187,3.4970514 5.45640187,3.67369849 C5.45640187,3.67942354 5.45656081,3.68511364 5.45687473,3.69076503 L5.45687473,4.6887152 L4.57244006,4.6887152 C4.38600153,4.6887152 4.2346891,4.83208095 4.2346891,5.00872803 C4.2346891,5.01247054 4.23475701,5.01619812 4.23489175,5.0199097 L4.23489175,6.02252869 L3.34937627,6.02252869 C3.16293774,6.02252869 3.01162531,6.16589444 3.01162531,6.34254152 C3.01162531,6.34903678 3.01182989,6.35548704 3.01223326,6.36188683 L3.01223326,7.35634218 L2.12773105,7.35634218 C1.94129251,7.35634218 1.78998008,7.49970793 1.78998008,7.67635502 C1.78998008,7.8530021 1.94129251,7.99636785 2.12773105,7.99636785 L3.34971403,7.99636785 C3.53615256,7.99636785 3.68746499,7.8530021 3.68746499,7.67635502 L3.68773519,7.67635502 L3.68773519,6.66255436 L4.57271026,6.66255436 C4.75914879,6.66255436 4.91046122,6.51918861 4.91046122,6.34254152 C4.91046122,6.34038327 4.91043863,6.33822999 4.91039367,6.33608188 L4.91039367,5.32874086 Z" id="Fill-1" fill="#FFFFFF"></path>
                        </g>
                        <g id="Group-4" stroke="none" fill="none" transform="translate(93.372142, 42.285698)">
                            <ellipse id="Oval" stroke="#9B9B9B" stroke-width="0.5" fill="#223843" cx="5.18312757" cy="5.00812001" rx="5.14529815" ry="4.87507552"></ellipse>
                            <path d="M4.91039367,5.32874086 L5.79442304,5.32874086 C5.98086157,5.32874086 6.132174,5.18537511 6.132174,5.00872803 L6.13237665,5.00872803 L6.13237665,3.99371132 L7.01613582,3.99371132 C7.20257435,3.99371132 7.35388678,3.85034557 7.35388678,3.67369849 C7.35388678,3.66995598 7.35381886,3.6662284 7.35368413,3.66251682 L7.35368413,2.65989783 L8.2385241,2.65989783 C8.42496263,2.65989783 8.57627506,2.51653208 8.57627506,2.33988499 C8.57627506,2.16323791 8.42496263,2.01987216 8.2385241,2.01987216 L7.01586561,2.01987216 C6.82942708,2.01987216 6.67811465,2.16323791 6.67811465,2.33988499 C6.67811465,2.34204325 6.67813724,2.34419653 6.6781822,2.34634464 L6.6781822,3.35368565 L5.79415284,3.35368565 C5.6077143,3.35368565 5.45640187,3.4970514 5.45640187,3.67369849 C5.45640187,3.67942354 5.45656081,3.68511364 5.45687473,3.69076503 L5.45687473,4.6887152 L4.57244006,4.6887152 C4.38600153,4.6887152 4.2346891,4.83208095 4.2346891,5.00872803 C4.2346891,5.01247054 4.23475701,5.01619812 4.23489175,5.0199097 L4.23489175,6.02252869 L3.34937627,6.02252869 C3.16293774,6.02252869 3.01162531,6.16589444 3.01162531,6.34254152 C3.01162531,6.34903678 3.01182989,6.35548704 3.01223326,6.36188683 L3.01223326,7.35634218 L2.12773105,7.35634218 C1.94129251,7.35634218 1.78998008,7.49970793 1.78998008,7.67635502 C1.78998008,7.8530021 1.94129251,7.99636785 2.12773105,7.99636785 L3.34971403,7.99636785 C3.53615256,7.99636785 3.68746499,7.8530021 3.68746499,7.67635502 L3.68773519,7.67635502 L3.68773519,6.66255436 L4.57271026,6.66255436 C4.75914879,6.66255436 4.91046122,6.51918861 4.91046122,6.34254152 C4.91046122,6.34038327 4.91043863,6.33822999 4.91039367,6.33608188 L4.91039367,5.32874086 Z" id="Fill-1" fill="#FFFFFF"></path>
                        </g>
                        <g id="Earth-Hall---onboarding" stroke="none" fill="none" transform="translate(27.558172, 0.000000)">
                            <path d="M75.6321331,36.9693929 L60.6210107,36.9693929 L60.6210107,59.6563465 L0.0157706063,59.6563465 L0.0157706063,36.9693929 L0.0157706063,0.101604313 L75.6321331,0.101604313 L75.6321331,36.9693929 Z" id="svg-earth-hall-onboarding" stroke="#000000" fill="#EFF1F3"></path>
                            <path d="M22.4528859,21.9812843 C22.4528859,22.0677057 22.5220516,22.1454849 22.6171543,22.1454849 L26.0754347,22.1454849 C26.1705375,22.1454849 26.2397031,22.0677057 26.2397031,21.9812843 L26.2397031,21.5059666 C26.2397031,21.4195452 26.1705375,21.3417659 26.0754347,21.3417659 L23.3433932,21.3417659 L23.3433932,19.4837057 L25.6517954,19.4837057 C25.7382524,19.4837057 25.8160637,19.4145686 25.8160637,19.319505 L25.8160637,18.8355452 C25.8160637,18.7491237 25.7382524,18.6713445 25.6517954,18.6713445 L23.3433932,18.6713445 L23.3433932,16.9083478 L26.0754347,16.9083478 C26.1705375,16.9083478 26.2397031,16.8305686 26.2397031,16.7441472 L26.2397031,16.2601873 C26.2397031,16.1737659 26.1705375,16.0959866 26.0754347,16.0959866 L22.6171543,16.0959866 C22.5220516,16.0959866 22.4528859,16.1737659 22.4528859,16.2601873 L22.4528859,21.9812843 Z M26.4295345,22.1454849 L26.9742137,22.1454849 C27.0779621,22.1454849 27.1471277,22.0763478 27.1730648,22.0158528 C27.3459788,21.6183144 27.5275385,21.2294181 27.7004526,20.8318796 L30.5275968,20.8318796 L31.0636303,22.0158528 C31.0982131,22.0936321 31.158733,22.1454849 31.2624814,22.1454849 L31.8071606,22.1454849 C31.9368461,22.1454849 32.0060117,22.0331371 31.9541375,21.9207893 L29.3171987,16.1046288 C29.2912616,16.0527759 29.2134503,16.0095652 29.1702218,16.0095652 L29.0837647,16.0095652 C29.0405362,16.0095652 28.9627249,16.0527759 28.9367878,16.1046288 L26.2825576,21.9207893 C26.2306834,22.0331371 26.299849,22.1454849 26.4295345,22.1454849 L26.4295345,22.1454849 Z M28.0376349,20.0886555 L29.0924104,17.720709 L29.135639,17.720709 L30.1990602,20.0886555 L28.0376349,20.0886555 Z M32.3687572,21.9812843 C32.3687572,22.0677057 32.4379228,22.1454849 32.5330255,22.1454849 L33.0949961,22.1454849 C33.1814531,22.1454849 33.2592644,22.0677057 33.2592644,21.9812843 L33.2592644,19.7775385 L34.5647653,19.7775385 L35.7146435,22.0677057 C35.7319349,22.1022742 35.7838091,22.1454849 35.8529748,22.1454849 L36.5273394,22.1454849 C36.6743164,22.1454849 36.7348363,22.0072107 36.6743164,21.8948629 L35.4898553,19.6997592 C36.2420313,19.3972843 36.7694191,18.7404816 36.7694191,17.9454047 C36.7694191,16.91699 35.9221404,16.0959866 34.8846562,16.0959866 L32.5330255,16.0959866 C32.4379228,16.0959866 32.3687572,16.1737659 32.3687572,16.2601873 L32.3687572,21.9812843 Z M33.2765558,19.0343144 L33.2765558,16.9342742 L34.8154906,16.9342742 C35.3774612,16.9342742 35.8702662,17.4009498 35.8702662,17.962689 C35.8702662,18.5589967 35.3774612,19.0343144 34.8154906,19.0343144 L33.2765558,19.0343144 Z M38.4981853,21.9812843 C38.4981853,22.0677057 38.5759966,22.1454849 38.6624536,22.1454849 L39.2330699,22.1454849 C39.3195269,22.1454849 39.3973382,22.0677057 39.3973382,21.9812843 L39.3973382,16.9083478 L40.8065875,16.9083478 C40.9016902,16.9083478 40.9708558,16.8305686 40.9708558,16.7441472 L40.9708558,16.2601873 C40.9708558,16.1737659 40.9016902,16.0959866 40.8065875,16.0959866 L37.088936,16.0959866 C36.9938333,16.0959866 36.9246677,16.1737659 36.9246677,16.2601873 L36.9246677,16.7441472 C36.9246677,16.8305686 36.9938333,16.9083478 37.088936,16.9083478 L38.4981853,16.9083478 L38.4981853,21.9812843 Z M41.4546411,21.9812843 C41.4546411,22.0677057 41.5324524,22.1454849 41.6189094,22.1454849 L42.1895257,22.1454849 C42.2846284,22.1454849 42.353794,22.0677057 42.353794,21.9812843 L42.353794,19.4837057 L45.5181207,19.4837057 L45.5181207,21.9812843 C45.5181207,22.0677057 45.5872863,22.1454849 45.682389,22.1454849 L46.2530053,22.1454849 C46.3394623,22.1454849 46.4172736,22.0677057 46.4172736,21.9812843 L46.4172736,16.2601873 C46.4172736,16.1737659 46.3394623,16.0959866 46.2530053,16.0959866 L45.682389,16.0959866 C45.5872863,16.0959866 45.5181207,16.1737659 45.5181207,16.2601873 L45.5181207,18.6713445 L42.353794,18.6713445 L42.353794,16.2601873 C42.353794,16.1737659 42.2846284,16.0959866 42.1895257,16.0959866 L41.6189094,16.0959866 C41.5324524,16.0959866 41.4546411,16.1737659 41.4546411,16.2601873 L41.4546411,21.9812843 Z M22.4528859,31.1635585 C22.4528859,31.2499799 22.5306973,31.3277592 22.6171543,31.3277592 L23.1877705,31.3277592 C23.2828733,31.3277592 23.3520389,31.2499799 23.3520389,31.1635585 L23.3520389,28.6659799 L26.5163655,28.6659799 L26.5163655,31.1635585 C26.5163655,31.2499799 26.5855311,31.3277592 26.6806338,31.3277592 L27.2512501,31.3277592 C27.3377071,31.3277592 27.4155184,31.2499799 27.4155184,31.1635585 L27.4155184,25.4424615 C27.4155184,25.3560401 27.3377071,25.2782609 27.2512501,25.2782609 L26.6806338,25.2782609 C26.5855311,25.2782609 26.5163655,25.3560401 26.5163655,25.4424615 L26.5163655,27.8536187 L23.3520389,27.8536187 L23.3520389,25.4424615 C23.3520389,25.3560401 23.2828733,25.2782609 23.1877705,25.2782609 L22.6171543,25.2782609 C22.5306973,25.2782609 22.4528859,25.3560401 22.4528859,25.4424615 L22.4528859,31.1635585 Z M27.977115,31.3277592 L28.5217942,31.3277592 C28.6255426,31.3277592 28.6947082,31.2586221 28.7206453,31.1981271 C28.8935593,30.8005886 29.075119,30.4116923 29.2480331,30.0141538 L32.0751774,30.0141538 L32.6112108,31.1981271 C32.6457936,31.2759064 32.7063135,31.3277592 32.810062,31.3277592 L33.3547411,31.3277592 C33.4844266,31.3277592 33.5535923,31.2154114 33.501718,31.1030635 L30.8647792,25.286903 C30.8388421,25.2350502 30.7610308,25.1918395 30.7178023,25.1918395 L30.6313453,25.1918395 C30.5881167,25.1918395 30.5103054,25.2350502 30.4843683,25.286903 L27.8301381,31.1030635 C27.7782639,31.2154114 27.8474295,31.3277592 27.977115,31.3277592 L27.977115,31.3277592 Z M29.5852154,29.2709298 L30.639991,26.9029833 L30.6832195,26.9029833 L31.7466407,29.2709298 L29.5852154,29.2709298 Z M33.9163377,31.1635585 C33.9163377,31.2499799 33.9855033,31.3277592 34.080606,31.3277592 L37.1584756,31.3277592 C37.2535783,31.3277592 37.322744,31.2499799 37.322744,31.1635585 L37.322744,30.6882408 C37.322744,30.6018194 37.2535783,30.5240401 37.1584756,30.5240401 L34.8154906,30.5240401 L34.8154906,25.4424615 C34.8154906,25.3560401 34.7376793,25.2782609 34.6512223,25.2782609 L34.080606,25.2782609 C33.9855033,25.2782609 33.9163377,25.3560401 33.9163377,25.4424615 L33.9163377,31.1635585 Z M37.7805921,31.1635585 C37.7805921,31.2499799 37.8497577,31.3277592 37.9448604,31.3277592 L41.0227301,31.3277592 C41.1178328,31.3277592 41.1869984,31.2499799 41.1869984,31.1635585 L41.1869984,30.6882408 C41.1869984,30.6018194 41.1178328,30.5240401 41.0227301,30.5240401 L38.679745,30.5240401 L38.679745,25.4424615 C38.679745,25.3560401 38.6019337,25.2782609 38.5154767,25.2782609 L37.9448604,25.2782609 C37.8497577,25.2782609 37.7805921,25.3560401 37.7805921,25.4424615 L37.7805921,31.1635585 Z" id="EARTH" fill="#484848"></path>
                        </g>
                        <g id="Life-Hall" stroke="none" fill="none" transform="translate(27.558172, 59.414716)">
                            <rect id="Rectangle-path" stroke="#000000" fill="#EFF1F3" x="0.0157706063" y="0.241630831" width="75.6163625" height="62.6737092"></rect>
                            <path d="M22.4528859,27.3826221 C22.4528859,27.4690435 22.5220516,27.5468227 22.6171543,27.5468227 L25.6950239,27.5468227 C25.7901266,27.5468227 25.8592922,27.4690435 25.8592922,27.3826221 L25.8592922,26.9073043 C25.8592922,26.8208829 25.7901266,26.7431037 25.6950239,26.7431037 L23.3520389,26.7431037 L23.3520389,21.6615251 C23.3520389,21.5751037 23.2742276,21.4973244 23.1877705,21.4973244 L22.6171543,21.4973244 C22.5220516,21.4973244 22.4528859,21.5751037 22.4528859,21.6615251 L22.4528859,27.3826221 Z M26.3171404,27.3826221 C26.3171404,27.4690435 26.3949517,27.5468227 26.4814087,27.5468227 L27.052025,27.5468227 C27.138482,27.5468227 27.2162933,27.4690435 27.2162933,27.3826221 L27.2162933,21.6615251 C27.2162933,21.5751037 27.138482,21.4973244 27.052025,21.4973244 L26.4814087,21.4973244 C26.3949517,21.4973244 26.3171404,21.5751037 26.3171404,21.6615251 L26.3171404,27.3826221 Z M28.4436089,27.3826221 C28.4436089,27.4690435 28.5127745,27.5468227 28.6078772,27.5468227 L29.1698478,27.5468227 C29.2563048,27.5468227 29.3341161,27.4690435 29.3341161,27.3826221 L29.3341161,25.1097391 L31.6425183,25.1097391 C31.7289753,25.1097391 31.8067866,25.0319599 31.8067866,24.9455385 L31.8067866,24.4702207 C31.8067866,24.3837993 31.7289753,24.3060201 31.6425183,24.3060201 L29.3341161,24.3060201 L29.3341161,22.3096856 L32.0661576,22.3096856 C32.1612604,22.3096856 32.230426,22.2319064 32.230426,22.1454849 L32.230426,21.6615251 C32.230426,21.5751037 32.1612604,21.4973244 32.0661576,21.4973244 L28.6078772,21.4973244 C28.5127745,21.4973244 28.4436089,21.5751037 28.4436089,21.6615251 L28.4436089,27.3826221 Z M32.8871252,27.3826221 C32.8871252,27.4690435 32.9562909,27.5468227 33.0513936,27.5468227 L36.509674,27.5468227 C36.6047768,27.5468227 36.6739424,27.4690435 36.6739424,27.3826221 L36.6739424,26.9073043 C36.6739424,26.8208829 36.6047768,26.7431037 36.509674,26.7431037 L33.7776325,26.7431037 L33.7776325,24.8850435 L36.0860347,24.8850435 C36.1724917,24.8850435 36.250303,24.8159064 36.250303,24.7208428 L36.250303,24.2368829 C36.250303,24.1504615 36.1724917,24.0726823 36.0860347,24.0726823 L33.7776325,24.0726823 L33.7776325,22.3096856 L36.509674,22.3096856 C36.6047768,22.3096856 36.6739424,22.2319064 36.6739424,22.1454849 L36.6739424,21.6615251 C36.6739424,21.5751037 36.6047768,21.4973244 36.509674,21.4973244 L33.0513936,21.4973244 C32.9562909,21.4973244 32.8871252,21.5751037 32.8871252,21.6615251 L32.8871252,27.3826221 Z M22.4528859,36.5648963 C22.4528859,36.6513177 22.5306973,36.729097 22.6171543,36.729097 L23.1877705,36.729097 C23.2828733,36.729097 23.3520389,36.6513177 23.3520389,36.5648963 L23.3520389,34.0673177 L26.5163655,34.0673177 L26.5163655,36.5648963 C26.5163655,36.6513177 26.5855311,36.729097 26.6806338,36.729097 L27.2512501,36.729097 C27.3377071,36.729097 27.4155184,36.6513177 27.4155184,36.5648963 L27.4155184,30.8437993 C27.4155184,30.7573779 27.3377071,30.6795987 27.2512501,30.6795987 L26.6806338,30.6795987 C26.5855311,30.6795987 26.5163655,30.7573779 26.5163655,30.8437993 L26.5163655,33.2549565 L23.3520389,33.2549565 L23.3520389,30.8437993 C23.3520389,30.7573779 23.2828733,30.6795987 23.1877705,30.6795987 L22.6171543,30.6795987 C22.5306973,30.6795987 22.4528859,30.7573779 22.4528859,30.8437993 L22.4528859,36.5648963 Z M27.977115,36.729097 L28.5217942,36.729097 C28.6255426,36.729097 28.6947082,36.6599599 28.7206453,36.5994649 C28.8935593,36.2019264 29.075119,35.8130301 29.2480331,35.4154916 L32.0751774,35.4154916 L32.6112108,36.5994649 C32.6457936,36.6772441 32.7063135,36.729097 32.810062,36.729097 L33.3547411,36.729097 C33.4844266,36.729097 33.5535923,36.6167492 33.501718,36.5044013 L30.8647792,30.6882408 C30.8388421,30.636388 30.7610308,30.5931773 30.7178023,30.5931773 L30.6313453,30.5931773 C30.5881167,30.5931773 30.5103054,30.636388 30.4843683,30.6882408 L27.8301381,36.5044013 C27.7782639,36.6167492 27.8474295,36.729097 27.977115,36.729097 L27.977115,36.729097 Z M29.5852154,34.6722676 L30.639991,32.3043211 L30.6832195,32.3043211 L31.7466407,34.6722676 L29.5852154,34.6722676 Z M33.9163377,36.5648963 C33.9163377,36.6513177 33.9855033,36.729097 34.080606,36.729097 L37.1584756,36.729097 C37.2535783,36.729097 37.322744,36.6513177 37.322744,36.5648963 L37.322744,36.0895786 C37.322744,36.0031572 37.2535783,35.9253779 37.1584756,35.9253779 L34.8154906,35.9253779 L34.8154906,30.8437993 C34.8154906,30.7573779 34.7376793,30.6795987 34.6512223,30.6795987 L34.080606,30.6795987 C33.9855033,30.6795987 33.9163377,30.7573779 33.9163377,30.8437993 L33.9163377,36.5648963 Z M37.7805921,36.5648963 C37.7805921,36.6513177 37.8497577,36.729097 37.9448604,36.729097 L41.0227301,36.729097 C41.1178328,36.729097 41.1869984,36.6513177 41.1869984,36.5648963 L41.1869984,36.0895786 C41.1869984,36.0031572 41.1178328,35.9253779 41.0227301,35.9253779 L38.679745,35.9253779 L38.679745,30.8437993 C38.679745,30.7573779 38.6019337,30.6795987 38.5154767,30.6795987 L37.9448604,30.6795987 C37.8497577,30.6795987 37.7805921,30.7573779 37.7805921,30.8437993 L37.7805921,36.5648963 Z" id="LIFE-" fill="#C9C9C9"></path>
                        </g>
                        <g id="Science-Playground" stroke="none" fill="none" transform="translate(27.558172, 122.070234)">
                            <path d="M0.0157706063,0.259821602 L75.6321331,0.259821602 L75.6321331,7.35023906 L58.6396921,7.35023906 L58.6396921,27.4848466 L75.6321331,27.4848466 L75.6321331,61.7985875 L0.0157706063,61.7985875 L0.0157706063,0.259821602 Z" id="Shape" stroke="#000000" fill="#EFF1F3"></path>
                            <path d="M22.1157036,29.6511839 C22.2540348,29.7808161 22.9197538,30.333913 23.9745294,30.333913 C25.0984705,30.333913 25.9025207,29.5993311 25.9025207,28.7005485 C25.9025207,27.6462074 25.0465963,27.1708896 24.043695,26.764709 C23.3261018,26.4708763 22.9456909,26.1684013 22.9456909,25.6757993 C22.9456909,25.3560401 23.1964163,24.8980067 23.9226551,24.8980067 C24.4241058,24.8980067 25.0293049,25.2955452 25.0898248,25.3301137 C25.2108646,25.407893 25.3232587,25.3560401 25.3924243,25.2436923 C25.46159,25.1399866 25.5394013,25.0189967 25.6085669,24.915291 C25.6950239,24.7856589 25.6258583,24.6646689 25.5566927,24.6214582 C25.4702357,24.5609632 24.8218081,24.1115719 23.957238,24.1115719 C22.5825715,24.1115719 22.0638294,25.0362809 22.0638294,25.7103679 C22.0638294,26.7128562 22.7554855,27.1708896 23.637347,27.5425017 C24.4932714,27.8968294 24.9428479,28.2252308 24.9428479,28.7437592 C24.9428479,29.1845084 24.562437,29.5474783 23.9658837,29.5474783 C23.3001647,29.5474783 22.6344457,28.9943813 22.5825715,28.9511706 C22.4874688,28.8733913 22.3664289,28.9079599 22.2886176,29.0203077 C22.2108063,29.1326555 22.1416407,29.2622876 22.0638294,29.3746355 C21.9773724,29.5215518 22.0378923,29.5820468 22.1157036,29.6511839 L22.1157036,29.6511839 Z M26.2047463,27.2313846 C26.2047463,28.9598127 27.5967041,30.333913 29.3258444,30.333913 C30.0953118,30.333913 30.8388421,30.0660067 31.4267498,29.4956254 C31.4872697,29.4351304 31.5045611,29.3227826 31.4353955,29.2622876 L31.0376932,28.8733913 C30.985819,28.8301806 30.9080077,28.8215385 30.8301964,28.8820334 C30.4152027,29.2017926 29.974272,29.4524147 29.3431358,29.4524147 C28.1068005,29.4524147 27.1644191,28.424 27.1644191,27.2141003 C27.1644191,26.0042007 28.0981548,24.9671438 29.3344901,24.9671438 C29.8705236,24.9671438 30.4238484,25.1918395 30.8301964,25.5461672 C30.9080077,25.6239465 30.985819,25.6239465 31.0463389,25.5461672 L31.4267498,25.1572709 C31.4959154,25.0881338 31.4959154,24.9844281 31.4181041,24.915291 C30.8301964,24.4054047 30.1990602,24.1115719 29.3258444,24.1115719 C27.5967041,24.1115719 26.2047463,25.5029565 26.2047463,27.2313846 L26.2047463,27.2313846 Z M32.2131346,30.083291 C32.2131346,30.1697124 32.2909459,30.2474916 32.3774029,30.2474916 L32.9480192,30.2474916 C33.0344762,30.2474916 33.1122875,30.1697124 33.1122875,30.083291 L33.1122875,24.362194 C33.1122875,24.2757726 33.0344762,24.1979933 32.9480192,24.1979933 L32.3774029,24.1979933 C32.2909459,24.1979933 32.2131346,24.2757726 32.2131346,24.362194 L32.2131346,30.083291 Z M34.339603,30.083291 C34.339603,30.1697124 34.4087687,30.2474916 34.5038714,30.2474916 L37.9621518,30.2474916 C38.0572546,30.2474916 38.1264202,30.1697124 38.1264202,30.083291 L38.1264202,29.6079732 C38.1264202,29.5215518 38.0572546,29.4437726 37.9621518,29.4437726 L35.2301103,29.4437726 L35.2301103,27.5857124 L37.5385125,27.5857124 C37.6249695,27.5857124 37.7027808,27.5165753 37.7027808,27.4215117 L37.7027808,26.9375518 C37.7027808,26.8511304 37.6249695,26.7733512 37.5385125,26.7733512 L35.2301103,26.7733512 L35.2301103,25.0103545 L37.9621518,25.0103545 C38.0572546,25.0103545 38.1264202,24.9325753 38.1264202,24.8461538 L38.1264202,24.362194 C38.1264202,24.2757726 38.0572546,24.1979933 37.9621518,24.1979933 L34.5038714,24.1979933 C34.4087687,24.1979933 34.339603,24.2757726 34.339603,24.362194 L34.339603,30.083291 Z M38.9819706,30.083291 C38.9819706,30.1697124 39.0597819,30.2474916 39.1462389,30.2474916 L39.6909181,30.2474916 C39.7860208,30.2474916 39.8551864,30.1697124 39.8551864,30.083291 L39.8551864,25.8745686 L39.8638321,25.8745686 L43.6160664,30.333913 L43.8408546,30.333913 C43.9273116,30.333913 44.005123,30.2647759 44.005123,30.1783545 L44.005123,24.362194 C44.005123,24.2757726 43.9273116,24.1979933 43.8408546,24.1979933 L43.2875298,24.1979933 C43.192427,24.1979933 43.1232614,24.2757726 43.1232614,24.362194 L43.1232614,28.4499264 L43.1146157,28.4499264 L39.3623814,24.1115719 L39.1462389,24.1115719 C39.0597819,24.1115719 38.9819706,24.180709 38.9819706,24.2671304 L38.9819706,30.083291 Z M44.7915078,27.2313846 C44.7915078,28.9598127 46.1834656,30.333913 47.9126059,30.333913 C48.6820733,30.333913 49.4256036,30.0660067 50.0135113,29.4956254 C50.0740312,29.4351304 50.0913226,29.3227826 50.022157,29.2622876 L49.6244547,28.8733913 C49.5725805,28.8301806 49.4947692,28.8215385 49.4169579,28.8820334 C49.0019642,29.2017926 48.5610335,29.4524147 47.9298973,29.4524147 C46.693562,29.4524147 45.7511806,28.424 45.7511806,27.2141003 C45.7511806,26.0042007 46.6849163,24.9671438 47.9212516,24.9671438 C48.4572851,24.9671438 49.0106099,25.1918395 49.4169579,25.5461672 C49.4947692,25.6239465 49.5725805,25.6239465 49.6331004,25.5461672 L50.0135113,25.1572709 C50.0826769,25.0881338 50.0826769,24.9844281 50.0048656,24.915291 C49.4169579,24.4054047 48.7858217,24.1115719 47.9126059,24.1115719 C46.1834656,24.1115719 44.7915078,25.5029565 44.7915078,27.2313846 L44.7915078,27.2313846 Z M50.7998961,30.083291 C50.7998961,30.1697124 50.8690617,30.2474916 50.9641644,30.2474916 L54.4224449,30.2474916 C54.5175476,30.2474916 54.5867132,30.1697124 54.5867132,30.083291 L54.5867132,29.6079732 C54.5867132,29.5215518 54.5175476,29.4437726 54.4224449,29.4437726 L51.6904033,29.4437726 L51.6904033,27.5857124 L53.9988055,27.5857124 C54.0852625,27.5857124 54.1630738,27.5165753 54.1630738,27.4215117 L54.1630738,26.9375518 C54.1630738,26.8511304 54.0852625,26.7733512 53.9988055,26.7733512 L51.6904033,26.7733512 L51.6904033,25.0103545 L54.4224449,25.0103545 C54.5175476,25.0103545 54.5867132,24.9325753 54.5867132,24.8461538 L54.5867132,24.362194 C54.5867132,24.2757726 54.5175476,24.1979933 54.4224449,24.1979933 L50.9641644,24.1979933 C50.8690617,24.1979933 50.7998961,24.2757726 50.7998961,24.362194 L50.7998961,30.083291 Z M22.4528859,39.2655652 C22.4528859,39.3519866 22.5220516,39.4297659 22.6171543,39.4297659 L23.1791248,39.4297659 C23.2655819,39.4297659 23.3433932,39.3519866 23.3433932,39.2655652 L23.3433932,37.2346622 L24.5970198,37.2346622 C25.6517954,37.2346622 26.5250112,36.361806 26.5250112,35.2901806 C26.5250112,34.2444816 25.6517954,33.3802676 24.5883741,33.3802676 L22.6171543,33.3802676 C22.5220516,33.3802676 22.4528859,33.4580468 22.4528859,33.5444682 L22.4528859,39.2655652 Z M23.3433932,36.3877324 L23.3433932,34.2444816 L24.5364999,34.2444816 C25.1330533,34.2444816 25.634504,34.6938729 25.634504,35.2815385 C25.634504,35.9037726 25.1330533,36.3877324 24.5364999,36.3877324 L23.3433932,36.3877324 Z M27.138482,39.2655652 C27.138482,39.3519866 27.2076476,39.4297659 27.3027503,39.4297659 L30.3806199,39.4297659 C30.4757226,39.4297659 30.5448882,39.3519866 30.5448882,39.2655652 L30.5448882,38.7902475 C30.5448882,38.7038261 30.4757226,38.6260468 30.3806199,38.6260468 L28.0376349,38.6260468 L28.0376349,33.5444682 C28.0376349,33.4580468 27.9598236,33.3802676 27.8733666,33.3802676 L27.3027503,33.3802676 C27.2076476,33.3802676 27.138482,33.4580468 27.138482,33.5444682 L27.138482,39.2655652 Z M30.6050341,39.4297659 L31.1497133,39.4297659 C31.2534617,39.4297659 31.3226273,39.3606288 31.3485644,39.3001338 C31.5214785,38.9025953 31.7030382,38.513699 31.8759522,38.1161605 L34.7030965,38.1161605 L35.23913,39.3001338 C35.2737128,39.377913 35.3342327,39.4297659 35.4379811,39.4297659 L35.9826603,39.4297659 C36.1123458,39.4297659 36.1815114,39.3174181 36.1296372,39.2050702 L33.4926983,33.3889097 C33.4667612,33.3370569 33.3889499,33.2938462 33.3457214,33.2938462 L33.2592644,33.2938462 C33.2160359,33.2938462 33.1382246,33.3370569 33.1122875,33.3889097 L30.4580572,39.2050702 C30.406183,39.3174181 30.4753486,39.4297659 30.6050341,39.4297659 L30.6050341,39.4297659 Z M32.2131346,37.3729365 L33.2679101,35.00499 L33.3111386,35.00499 L34.3745599,37.3729365 L32.2131346,37.3729365 Z M37.2964328,39.2655652 C37.2964328,39.3519866 37.3655985,39.4297659 37.4607012,39.4297659 L38.0313174,39.4297659 C38.1177745,39.4297659 38.1955858,39.3519866 38.1955858,39.2655652 L38.1955858,36.5087224 L40.2446169,33.6308896 C40.3137826,33.5185418 40.2446169,33.3802676 40.1062857,33.3802676 L39.4578581,33.3802676 C39.3973382,33.3802676 39.345464,33.4234783 39.3195269,33.4580468 L37.754655,35.6617926 L36.1897831,33.4580468 C36.163846,33.4234783 36.1206175,33.3802676 36.0514519,33.3802676 L35.41167,33.3802676 C35.2733388,33.3802676 35.2041732,33.5185418 35.2733388,33.6308896 L37.2964328,36.5173645 L37.2964328,39.2655652 Z M40.0799746,36.4136589 C40.0799746,38.142087 41.4719325,39.5161873 43.192427,39.5161873 C44.4460537,39.5161873 45.3365609,38.945806 45.3365609,38.945806 C45.3711437,38.9198796 45.4057265,38.8507425 45.4057265,38.8075318 C45.4057265,38.1161605 45.3970808,37.407505 45.3970808,36.7161338 C45.3970808,36.6297124 45.3279152,36.5519331 45.2414582,36.5519331 L43.6679406,36.5519331 C43.5728379,36.5519331 43.5036723,36.6210702 43.5036723,36.7161338 L43.5036723,37.2173779 C43.5036723,37.3037993 43.5728379,37.3729365 43.6679406,37.3729365 L44.5152193,37.3729365 L44.5152193,38.3408562 C44.4287623,38.3754247 43.9359573,38.634689 43.2183641,38.634689 C41.9906746,38.634689 41.0482932,37.5976321 41.0482932,36.3963746 C41.0482932,35.1864749 41.9906746,34.1494181 43.2183641,34.1494181 C43.7457519,34.1494181 44.2817854,34.3827559 44.6881333,34.7370836 C44.7745904,34.8148629 44.843756,34.823505 44.9129216,34.7457258 C45.0426071,34.6074515 45.1722926,34.4778194 45.3019781,34.3395452 C45.3711437,34.270408 45.362498,34.1667023 45.2933324,34.0975652 C44.7054247,33.5963211 44.0224144,33.2938462 43.192427,33.2938462 C41.4719325,33.2938462 40.0799746,34.6852308 40.0799746,36.4136589 L40.0799746,36.4136589 Z M46.3131512,39.2655652 C46.3131512,39.3519866 46.3823168,39.4297659 46.4774195,39.4297659 L47.0393901,39.4297659 C47.1258471,39.4297659 47.2036584,39.3519866 47.2036584,39.2655652 L47.2036584,37.0618194 L48.5091593,37.0618194 L49.6590375,39.3519866 C49.6763289,39.3865552 49.7282031,39.4297659 49.7973687,39.4297659 L50.4717334,39.4297659 C50.6187103,39.4297659 50.6792303,39.2914916 50.6187103,39.1791438 L49.4342493,36.9840401 C50.1864253,36.6815652 50.7138131,36.0247625 50.7138131,35.2296856 C50.7138131,34.2012709 49.8665343,33.3802676 48.8290502,33.3802676 L46.4774195,33.3802676 C46.3823168,33.3802676 46.3131512,33.4580468 46.3131512,33.5444682 L46.3131512,39.2655652 Z M47.2209498,36.3185953 L47.2209498,34.2185552 L48.7598846,34.2185552 C49.3218552,34.2185552 49.8146601,34.6852308 49.8146601,35.2469699 C49.8146601,35.8432776 49.3218552,36.3185953 48.7598846,36.3185953 L47.2209498,36.3185953 Z M51.1716612,36.4136589 C51.1716612,38.142087 52.5463277,39.5161873 54.2754679,39.5161873 C56.0046082,39.5161873 57.3879204,38.142087 57.3879204,36.4136589 C57.3879204,34.6852308 56.0046082,33.2938462 54.2754679,33.2938462 C52.5463277,33.2938462 51.1716612,34.6852308 51.1716612,36.4136589 L51.1716612,36.4136589 Z M52.0362313,36.4136589 C52.0362313,35.1864749 53.0477784,34.1580602 54.2754679,34.1580602 C55.5118032,34.1580602 56.5233502,35.1864749 56.5233502,36.4136589 C56.5233502,37.6494849 55.5118032,38.6519732 54.2754679,38.6519732 C53.0477784,38.6519732 52.0362313,37.6494849 52.0362313,36.4136589 L52.0362313,36.4136589 Z M58.0964939,37.1741672 C58.0964939,38.4877726 59.0821038,39.5161873 60.4394789,39.5161873 C61.8054997,39.5161873 62.7997553,38.4877726 62.7997553,37.1741672 L62.7997553,33.5444682 C62.7997553,33.4580468 62.721944,33.3802676 62.635487,33.3802676 L62.056225,33.3802676 C61.9611223,33.3802676 61.8919567,33.4580468 61.8919567,33.5444682 L61.8919567,37.1309565 C61.8919567,37.9865284 61.3299861,38.6519732 60.4394789,38.6519732 C59.5576173,38.6519732 59.0042925,37.9778863 59.0042925,37.1136722 L59.0042925,33.5444682 C59.0042925,33.4580468 58.9351269,33.3802676 58.8400242,33.3802676 L58.2607622,33.3802676 C58.1743052,33.3802676 58.0964939,33.4580468 58.0964939,33.5444682 L58.0964939,37.1741672 Z M63.9492595,39.2655652 C63.9492595,39.3519866 64.0270709,39.4297659 64.1135279,39.4297659 L64.658207,39.4297659 C64.7533098,39.4297659 64.8224754,39.3519866 64.8224754,39.2655652 L64.8224754,35.0568428 L64.8311211,35.0568428 L68.5833554,39.5161873 L68.8081436,39.5161873 C68.8946006,39.5161873 68.9724119,39.4470502 68.9724119,39.3606288 L68.9724119,33.5444682 C68.9724119,33.4580468 68.8946006,33.3802676 68.8081436,33.3802676 L68.2548187,33.3802676 C68.159716,33.3802676 68.0905504,33.4580468 68.0905504,33.5444682 L68.0905504,37.6322007 L68.0819047,37.6322007 L64.3296704,33.2938462 L64.1135279,33.2938462 C64.0270709,33.2938462 63.9492595,33.3629833 63.9492595,33.4494047 L63.9492595,39.2655652 Z M70.1997275,39.2655652 C70.1997275,39.3519866 70.2688931,39.4297659 70.3553501,39.4297659 L72.3438614,39.4297659 C74.0124817,39.4297659 75.3785025,38.0729498 75.3785025,36.3963746 C75.3785025,34.7370836 74.0124817,33.3802676 72.3438614,33.3802676 L70.3553501,33.3802676 C70.2688931,33.3802676 70.1997275,33.4580468 70.1997275,33.5444682 L70.1997275,39.2655652 Z M71.081589,38.6087625 L71.081589,34.2012709 L72.2228216,34.2012709 C73.4937396,34.2012709 74.4188297,35.1259799 74.4188297,36.3963746 C74.4188297,37.6754114 73.4937396,38.6087625 72.2228216,38.6087625 L71.081589,38.6087625 Z" id="SCIENCE-" fill="#C9C9C9"></path>
                        </g>
                        <g id="Life-Lab" stroke="none" fill="none" transform="translate(0.000000, 59.414716)">
                            <rect id="Rectangle-path" stroke="#000000" fill="#EFF1F3" x="0.10226373" y="0.241630831" width="27.4716794" height="43.6740448"></rect>
                            <path d="M4.62112728,18.967339 C4.62112728,19.0537604 4.69029289,19.1315397 4.7853956,19.1315397 L7.86326522,19.1315397 C7.95836793,19.1315397 8.02753354,19.0537604 8.02753354,18.967339 L8.02753354,18.4920213 C8.02753354,18.4055999 7.95836793,18.3278206 7.86326522,18.3278206 L5.5202802,18.3278206 L5.5202802,13.246242 C5.5202802,13.1598206 5.44246889,13.0820413 5.35601188,13.0820413 L4.7853956,13.0820413 C4.69029289,13.0820413 4.62112728,13.1598206 4.62112728,13.246242 L4.62112728,18.967339 Z M8.4853817,18.967339 C8.4853817,19.0537604 8.56319301,19.1315397 8.64965002,19.1315397 L9.2202663,19.1315397 C9.30672331,19.1315397 9.38453462,19.0537604 9.38453462,18.967339 L9.38453462,13.246242 C9.38453462,13.1598206 9.30672331,13.0820413 9.2202663,13.0820413 L8.64965002,13.0820413 C8.56319301,13.0820413 8.4853817,13.1598206 8.4853817,13.246242 L8.4853817,18.967339 Z M10.6118502,18.967339 C10.6118502,19.0537604 10.6810158,19.1315397 10.7761185,19.1315397 L11.3380891,19.1315397 C11.4245461,19.1315397 11.5023574,19.0537604 11.5023574,18.967339 L11.5023574,16.694456 L13.8107596,16.694456 C13.8972166,16.694456 13.9750279,16.6166768 13.9750279,16.5302554 L13.9750279,16.0549376 C13.9750279,15.9685162 13.8972166,15.890737 13.8107596,15.890737 L11.5023574,15.890737 L11.5023574,13.8944025 L14.234399,13.8944025 C14.3295017,13.8944025 14.3986673,13.8166233 14.3986673,13.7302019 L14.3986673,13.246242 C14.3986673,13.1598206 14.3295017,13.0820413 14.234399,13.0820413 L10.7761185,13.0820413 C10.6810158,13.0820413 10.6118502,13.1598206 10.6118502,13.246242 L10.6118502,18.967339 Z M15.0553666,18.967339 C15.0553666,19.0537604 15.1245322,19.1315397 15.2196349,19.1315397 L18.6779154,19.1315397 C18.7730181,19.1315397 18.8421837,19.0537604 18.8421837,18.967339 L18.8421837,18.4920213 C18.8421837,18.4055999 18.7730181,18.3278206 18.6779154,18.3278206 L15.9458738,18.3278206 L15.9458738,16.4697604 L18.254276,16.4697604 C18.340733,16.4697604 18.4185443,16.4006233 18.4185443,16.3055597 L18.4185443,15.8215999 C18.4185443,15.7351785 18.340733,15.6573992 18.254276,15.6573992 L15.9458738,15.6573992 L15.9458738,13.8944025 L18.6779154,13.8944025 C18.7730181,13.8944025 18.8421837,13.8166233 18.8421837,13.7302019 L18.8421837,13.246242 C18.8421837,13.1598206 18.7730181,13.0820413 18.6779154,13.0820413 L15.2196349,13.0820413 C15.1245322,13.0820413 15.0553666,13.1598206 15.0553666,13.246242 L15.0553666,18.967339 Z M4.62112728,28.1496132 C4.62112728,28.2360346 4.69029289,28.3138139 4.7853956,28.3138139 L7.86326522,28.3138139 C7.95836793,28.3138139 8.02753354,28.2360346 8.02753354,28.1496132 L8.02753354,27.6742955 C8.02753354,27.5878741 7.95836793,27.5100948 7.86326522,27.5100948 L5.5202802,27.5100948 L5.5202802,22.4285162 C5.5202802,22.3420948 5.44246889,22.2643156 5.35601188,22.2643156 L4.7853956,22.2643156 C4.69029289,22.2643156 4.62112728,22.3420948 4.62112728,22.4285162 L4.62112728,28.1496132 Z M8.08767944,28.3138139 L8.63235862,28.3138139 C8.73610703,28.3138139 8.80527264,28.2446768 8.83120974,28.1841818 C9.00412377,27.7866433 9.18568349,27.397747 9.35859752,27.0002086 L12.1857418,27.0002086 L12.7217753,28.1841818 C12.7563581,28.2619611 12.816878,28.3138139 12.9206264,28.3138139 L13.4653056,28.3138139 C13.5949911,28.3138139 13.6641567,28.2014661 13.6122825,28.0891183 L10.9753436,22.2729577 C10.9494065,22.2211049 10.8715952,22.1778942 10.8283667,22.1778942 L10.7419097,22.1778942 C10.6986812,22.1778942 10.6208699,22.2211049 10.5949328,22.2729577 L7.94070252,28.0891183 C7.88882832,28.2014661 7.95799393,28.3138139 8.08767944,28.3138139 L8.08767944,28.3138139 Z M9.69577986,26.2569845 L10.7505554,23.889038 L10.7937839,23.889038 L11.8572052,26.2569845 L9.69577986,26.2569845 Z M14.0269021,28.1496132 C14.0269021,28.2360346 14.0960678,28.3138139 14.1911705,28.3138139 L16.2229102,28.3138139 C17.3122686,28.3138139 18.1076731,27.6138005 18.1076731,26.6458808 C18.1076731,25.8508039 17.4851826,25.427339 17.0269605,25.2372119 C17.4333084,25.0038741 17.9261134,24.5285564 17.9261134,23.8631116 C17.9261134,22.9556868 17.1739374,22.2643156 16.1278075,22.2643156 L14.1911705,22.2643156 C14.0960678,22.2643156 14.0269021,22.3420948 14.0269021,22.4285162 L14.0269021,28.1496132 Z M14.9087637,24.8915263 L14.9087637,23.0766768 L16.0759333,23.0766768 C16.6292582,23.0766768 16.9664405,23.4396467 16.9664405,23.9668172 C16.9664405,24.4853457 16.6292582,24.8915263 16.0759333,24.8915263 L14.9087637,24.8915263 Z M14.900118,27.518737 L14.900118,25.6693189 L16.084579,25.6693189 C16.6465496,25.6693189 17.1480003,26.0495731 17.1480003,26.5767437 C17.1480003,27.1125564 16.7416523,27.518737 16.2142645,27.518737 L14.900118,27.518737 Z" id="LIFE-" fill="#C9C9C9"></path>
                        </g>
                        <g id="Paleo-Lab" stroke="none" fill="none">
                            <rect id="Rectangle-path" stroke="#000000" fill="#EFF1F3" x="0.10226373" y="0.101604313" width="27.4716794" height="31.7630964"></rect>
                        </g>
                        <g id="Watershed-Lab" stroke="none" fill="none" transform="translate(0.000000, 31.327759)">
                            <rect id="Rectangle-path" stroke="#000000" fill="#EFF1F3" x="0.10226373" y="0.536941497" width="27.4716794" height="27.7916459"></rect>
                        </g>
                    </g>
                </g>
                <rect id="Rectangle-134" fill="#FF5D73" mask="url(#mask-2)" x="14" y="254" width="177" height="39" rx="2"></rect>
                <g id="marker" mask="url(#mask-2)">
                    <g transform="translate(116.000000, 111.645570)">
                        <path d="M8.99999002,38.812454 C8.99999002,38.812454 17.99998,14.4447927 17.99998,9.30550449 C17.99998,4.16621627 13.9705473,0 8.99999002,0 C4.02943279,0 0,4.16621627 0,9.30550449 C0,14.4447927 8.99999002,38.812454 8.99999002,38.812454 Z" id="Oval-209-Copy" fill="#223843"></path>
                        <ellipse id="Oval-205" fill="#EFF1F3" cx="9" cy="8.22531646" rx="3.39344262" ry="3.31898734"></ellipse>
                    </g>
                </g>
                <path d="M26.5812367,280.960238 C25.7761001,280.36853 25.8370069,266.497377 26.5812367,266.026044 C27.3254666,265.554711 36.1817897,271.61305 36.1817902,273.493141 C36.1817908,275.373233 27.3863734,281.551946 26.5812367,280.960238 Z" id="play" fill="#EFF1F3" mask="url(#mask-2)"></path>
                <path d="M178.309209,264.465238 L178.449332,263.876722 C178.477357,263.792648 178.477357,263.708574 178.505381,263.652525 L178.561431,263.540427 C178.589455,263.428328 178.645504,263.344255 178.757603,263.232156 C179.205996,262.811788 179.822537,263.00796 180.074758,263.456353 C180.130807,263.540427 180.186856,263.652525 180.242905,263.792648 C180.27093,263.960795 180.326979,264.184992 180.355004,264.437213 L180.439077,265.978565 L180.439077,267.940285 C180.411053,268.248556 180.411053,268.444728 180.411053,268.472752 C180.411053,268.94917 180.467102,271.387308 180.607225,275.815192 C180.691298,278.841846 180.663274,281.308009 180.495126,283.241705 C180.467102,283.690098 180.074758,284.026393 179.626365,283.998369 C179.177971,283.970344 178.841676,283.578 178.869701,283.129607 C179.037848,281.195911 179.065873,278.757772 178.981799,275.871241 C178.841676,271.499407 178.785627,269.173367 178.785627,268.865096 L178.561431,269.453613 C178.421308,269.902006 177.94489,270.070153 177.524521,269.93003 C177.076128,269.789908 176.90798,269.31349 177.048103,268.893121 C177.524521,267.60399 177.888841,266.426958 178.113037,265.334 C178.113037,265.249926 178.169086,264.96968 178.309209,264.465238 L178.309209,264.465238 Z" id="1" fill="#EFF1F3" mask="url(#mask-2)"></path>
                <path d="M46.5,274.5 L166.5,274.5" id="Line" stroke="#484848" stroke-linecap="square" mask="url(#mask-2)"></path>
                <circle id="Oval-350" fill="#EFF1F3" filter="url(#filter-3)" mask="url(#mask-2)" cx="48" cy="274" r="5"></circle>
                <rect id="Rectangle-134-Copy" fill="#FF5D73" mask="url(#mask-2)" x="14" y="47" width="177" height="39" rx="2"></rect>
                <g id="swipe-me" mask="url(#mask-2)">
                    <g transform="translate(14.000000, 254.000000)">
                        <rect id="Swipe-Me" opacity="0.882054571" fill="#EFF1F3" x="0" y="0" width="182" height="39"></rect>
                        <path d="M7.6856498,22.791 C7.6856498,22.901 7.7736498,23 7.8946498,23 L12.3716498,23 C12.4926498,23 12.5806498,22.901 12.5806498,22.791 L12.5806498,21.889 C12.5806498,21.779 12.4926498,21.68 12.3716498,21.68 L9.1156498,21.68 L9.1156498,19.755 L11.8326498,19.755 C11.9426498,19.755 12.0416498,19.667 12.0416498,19.546 L12.0416498,18.633 C12.0416498,18.523 11.9426498,18.424 11.8326498,18.424 L9.1156498,18.424 L9.1156498,16.62 L12.3716498,16.62 C12.4926498,16.62 12.5806498,16.521 12.5806498,16.411 L12.5806498,15.509 C12.5806498,15.399 12.4926498,15.3 12.3716498,15.3 L7.8946498,15.3 C7.7736498,15.3 7.6856498,15.399 7.6856498,15.509 L7.6856498,22.791 Z M12.7147561,23 L13.6717561,23 C13.8477561,23 13.9467561,22.89 13.9907561,22.78 L14.5297561,21.592 L17.8187561,21.592 L18.3577561,22.78 C18.4347561,22.934 18.5117561,23 18.6767561,23 L19.6337561,23 C19.7987561,23 19.8867561,22.857 19.8207561,22.714 L16.4327561,15.311 C16.3997561,15.245 16.3557561,15.19 16.2457561,15.19 L16.1357561,15.19 C16.0367561,15.19 15.9817561,15.245 15.9487561,15.311 L12.5277561,22.714 C12.4617561,22.857 12.5497561,23 12.7147561,23 L12.7147561,23 Z M15.0687561,20.371 L16.1467561,17.951 L16.1797561,17.951 L17.2797561,20.371 L15.0687561,20.371 Z M20.1968623,22.791 C20.1968623,22.901 20.2848623,23 20.4058623,23 L21.4178623,23 C21.5278623,23 21.6268623,22.901 21.6268623,22.791 L21.6268623,19.986 L22.8478623,19.986 L24.3108623,22.901 C24.3328623,22.945 24.3878623,23 24.4868623,23 L25.6418623,23 C25.8288623,23 25.9058623,22.824 25.8288623,22.681 L24.3218623,19.887 C25.2788623,19.502 25.9498623,18.677 25.9498623,17.665 C25.9498623,16.356 24.8718623,15.3 23.5518623,15.3 L20.4058623,15.3 C20.2848623,15.3 20.1968623,15.399 20.1968623,15.509 L20.1968623,22.791 Z M21.6378623,18.809 L21.6378623,16.62 L23.4308623,16.62 C24.0138623,16.62 24.5198623,17.104 24.5198623,17.687 C24.5198623,18.303 24.0138623,18.809 23.4308623,18.809 L21.6378623,18.809 Z M27.9319686,22.791 C27.9319686,22.901 28.0309686,23 28.1409686,23 L29.1639686,23 C29.2739686,23 29.3729686,22.901 29.3729686,22.791 L29.3729686,16.62 L31.0559686,16.62 C31.1769686,16.62 31.2649686,16.521 31.2649686,16.411 L31.2649686,15.509 C31.2649686,15.399 31.1769686,15.3 31.0559686,15.3 L26.2489686,15.3 C26.1279686,15.3 26.0399686,15.399 26.0399686,15.509 L26.0399686,16.411 C26.0399686,16.521 26.1279686,16.62 26.2489686,16.62 L27.9319686,16.62 L27.9319686,22.791 Z M31.7840749,22.791 C31.7840749,22.901 31.8830749,23 31.9930749,23 L33.0160749,23 C33.1370749,23 33.2250749,22.901 33.2250749,22.791 L33.2250749,19.755 L36.8110749,19.755 L36.8110749,22.791 C36.8110749,22.901 36.8990749,23 37.0200749,23 L38.0320749,23 C38.1420749,23 38.2410749,22.901 38.2410749,22.791 L38.2410749,15.509 C38.2410749,15.399 38.1420749,15.3 38.0320749,15.3 L37.0200749,15.3 C36.8990749,15.3 36.8110749,15.399 36.8110749,15.509 L36.8110749,18.424 L33.2250749,18.424 L33.2250749,15.509 C33.2250749,15.399 33.1370749,15.3 33.0160749,15.3 L31.9930749,15.3 C31.8830749,15.3 31.7840749,15.399 31.7840749,15.509 L31.7840749,22.791 Z M39.0681812,19.161 C39.0681812,21.361 40.8171812,23.11 43.0171812,23.11 C43.1491812,23.11 43.3361812,23.099 43.5121812,23.077 L44.6891812,25.068 C44.7221812,25.134 44.8211812,25.178 44.8651812,25.178 L46.0311812,25.178 C46.2071812,25.178 46.3061812,25.002 46.2071812,24.848 L44.8321812,22.681 C46.1081812,21.977 46.9771812,20.657 46.9771812,19.161 C46.9771812,16.961 45.2171812,15.19 43.0171812,15.19 C40.8171812,15.19 39.0681812,16.961 39.0681812,19.161 L39.0681812,19.161 Z M40.4981812,19.161 C40.4981812,17.775 41.6311812,16.62 43.0171812,16.62 C44.4031812,16.62 45.5471812,17.775 45.5471812,19.161 C45.5471812,20.547 44.4031812,21.68 43.0171812,21.68 C41.6311812,21.68 40.4981812,20.547 40.4981812,19.161 L40.4981812,19.161 Z M47.6942874,20.085 C47.6942874,21.757 49.0252874,23.11 50.7522874,23.11 C52.4902874,23.11 53.8212874,21.757 53.8212874,20.085 L53.8212874,15.509 C53.8212874,15.399 53.7222874,15.3 53.6122874,15.3 L52.5672874,15.3 C52.4462874,15.3 52.3582874,15.399 52.3582874,15.509 L52.3582874,20.019 C52.3582874,20.943 51.7092874,21.68 50.7522874,21.68 C49.7952874,21.68 49.1572874,20.943 49.1572874,20.008 L49.1572874,15.509 C49.1572874,15.399 49.0692874,15.3 48.9482874,15.3 L47.9032874,15.3 C47.7932874,15.3 47.6942874,15.399 47.6942874,15.509 L47.6942874,20.085 Z M54.1643937,23 L55.1213937,23 C55.2973937,23 55.3963937,22.89 55.4403937,22.78 L55.9793937,21.592 L59.2683937,21.592 L59.8073937,22.78 C59.8843937,22.934 59.9613937,23 60.1263937,23 L61.0833937,23 C61.2483937,23 61.3363937,22.857 61.2703937,22.714 L57.8823937,15.311 C57.8493937,15.245 57.8053937,15.19 57.6953937,15.19 L57.5853937,15.19 C57.4863937,15.19 57.4313937,15.245 57.3983937,15.311 L53.9773937,22.714 C53.9113937,22.857 53.9993937,23 54.1643937,23 L54.1643937,23 Z M56.5183937,20.371 L57.5963937,17.951 L57.6293937,17.951 L58.7293937,20.371 L56.5183937,20.371 Z M61.6465,22.736 C61.6465,22.879 61.7565,23 61.9105,23 L62.8785,23 C63.0215,23 63.1425,22.879 63.1425,22.736 L63.1425,19.381 L66.0135,22.923 C66.0355,22.956 66.1015,23 66.2115,23 L67.4105,23 C67.6305,23 67.7185,22.758 67.6085,22.615 L64.5285,18.93 L67.3995,15.696 C67.5425,15.531 67.4325,15.3 67.2235,15.3 L66.1235,15.3 C66.0245,15.3 65.9585,15.355 65.9145,15.41 L63.1425,18.534 L63.1425,15.564 C63.1425,15.421 63.0215,15.3 62.8785,15.3 L61.9105,15.3 C61.7565,15.3 61.6465,15.421 61.6465,15.564 L61.6465,22.736 Z M68.1936063,22.791 C68.1936063,22.901 68.2816063,23 68.4026063,23 L72.8796063,23 C73.0006063,23 73.0886063,22.901 73.0886063,22.791 L73.0886063,21.889 C73.0886063,21.779 73.0006063,21.68 72.8796063,21.68 L69.6236063,21.68 L69.6236063,19.755 L72.3406063,19.755 C72.4506063,19.755 72.5496063,19.667 72.5496063,19.546 L72.5496063,18.633 C72.5496063,18.523 72.4506063,18.424 72.3406063,18.424 L69.6236063,18.424 L69.6236063,16.62 L72.8796063,16.62 C73.0006063,16.62 73.0886063,16.521 73.0886063,16.411 L73.0886063,15.509 C73.0886063,15.399 73.0006063,15.3 72.8796063,15.3 L68.4026063,15.3 C68.2816063,15.3 68.1936063,15.399 68.1936063,15.509 L68.1936063,22.791 Z M75.8428188,22.791 C75.8428188,22.901 75.9418188,23 76.0518188,23 L77.0748188,23 C77.1958188,23 77.2838188,22.901 77.2838188,22.791 L77.2838188,19.755 L80.8698188,19.755 L80.8698188,22.791 C80.8698188,22.901 80.9578188,23 81.0788188,23 L82.0908188,23 C82.2008188,23 82.2998188,22.901 82.2998188,22.791 L82.2998188,15.509 C82.2998188,15.399 82.2008188,15.3 82.0908188,15.3 L81.0788188,15.3 C80.9578188,15.3 80.8698188,15.399 80.8698188,15.509 L80.8698188,18.424 L77.2838188,18.424 L77.2838188,15.509 C77.2838188,15.399 77.1958188,15.3 77.0748188,15.3 L76.0518188,15.3 C75.9418188,15.3 75.8428188,15.399 75.8428188,15.509 L75.8428188,22.791 Z M83.1269251,19.161 C83.1269251,21.361 84.8759251,23.11 87.0759251,23.11 C89.2759251,23.11 91.0359251,21.361 91.0359251,19.161 C91.0359251,16.961 89.2759251,15.19 87.0759251,15.19 C84.8759251,15.19 83.1269251,16.961 83.1269251,19.161 L83.1269251,19.161 Z M84.5569251,19.161 C84.5569251,17.775 85.6899251,16.62 87.0759251,16.62 C88.4619251,16.62 89.6059251,17.775 89.6059251,19.161 C89.6059251,20.547 88.4619251,21.68 87.0759251,21.68 C85.6899251,21.68 84.5569251,20.547 84.5569251,19.161 L84.5569251,19.161 Z M91.7420314,20.085 C91.7420314,21.757 93.0730314,23.11 94.8000314,23.11 C96.5380314,23.11 97.8690314,21.757 97.8690314,20.085 L97.8690314,15.509 C97.8690314,15.399 97.7700314,15.3 97.6600314,15.3 L96.6150314,15.3 C96.4940314,15.3 96.4060314,15.399 96.4060314,15.509 L96.4060314,20.019 C96.4060314,20.943 95.7570314,21.68 94.8000314,21.68 C93.8430314,21.68 93.2050314,20.943 93.2050314,20.008 L93.2050314,15.509 C93.2050314,15.399 93.1170314,15.3 92.9960314,15.3 L91.9510314,15.3 C91.8410314,15.3 91.7420314,15.399 91.7420314,15.509 L91.7420314,20.085 Z M98.7401377,22.252 C98.9601377,22.461 99.7741377,23.11 101.160138,23.11 C102.711138,23.11 103.690138,22.065 103.690138,20.932 C103.690138,19.513 102.458138,18.875 101.391138,18.446 C100.500138,18.083 100.093138,17.731 100.093138,17.214 C100.093138,16.862 100.434138,16.444 101.061138,16.444 C101.666138,16.444 102.502138,16.994 102.590138,17.049 C102.722138,17.137 102.887138,17.049 102.975138,16.917 L103.393138,16.29 C103.470138,16.18 103.437138,15.993 103.327138,15.927 C103.107138,15.762 102.249138,15.19 101.127138,15.19 C99.3781377,15.19 98.6521377,16.323 98.6521377,17.302 C98.6521377,18.6 99.6861377,19.26 100.720138,19.678 C101.644138,20.052 102.117138,20.437 102.117138,20.998 C102.117138,21.471 101.688138,21.845 101.116138,21.845 C100.401138,21.845 99.5101377,21.196 99.4551377,21.163 C99.3561377,21.086 99.1691377,21.086 99.0811377,21.24 L98.6851377,21.922 C98.5861377,22.098 98.6411377,22.153 98.7401377,22.252 L98.7401377,22.252 Z M104.473244,22.791 C104.473244,22.901 104.561244,23 104.682244,23 L109.159244,23 C109.280244,23 109.368244,22.901 109.368244,22.791 L109.368244,21.889 C109.368244,21.779 109.280244,21.68 109.159244,21.68 L105.903244,21.68 L105.903244,19.755 L108.620244,19.755 C108.730244,19.755 108.829244,19.667 108.829244,19.546 L108.829244,18.633 C108.829244,18.523 108.730244,18.424 108.620244,18.424 L105.903244,18.424 L105.903244,16.62 L109.159244,16.62 C109.280244,16.62 109.368244,16.521 109.368244,16.411 L109.368244,15.509 C109.368244,15.399 109.280244,15.3 109.159244,15.3 L104.682244,15.3 C104.561244,15.3 104.473244,15.399 104.473244,15.509 L104.473244,22.791 Z" id="EARTHQUAKE-HOUSE" fill="#223843"></path>
                        <path d="M126.312431,13.820982 L132.179018,19.6875689 L132.179018,18.179018 L126.312431,24.0456048 C125.895856,24.4621797 125.895856,25.1375809 126.312431,25.5541557 C126.729006,25.9707306 127.404407,25.9707306 127.820982,25.5541557 L133.687569,19.6875689 C134.104144,19.270994 134.104144,18.5955928 133.687569,18.179018 L127.820982,12.3124311 C127.404407,11.8958563 126.729006,11.8958563 126.312431,12.3124311 C125.895856,12.729006 125.895856,13.4044072 126.312431,13.820982 L126.312431,13.820982 Z" id="advance" fill="#223843"></path>
                    </g>
                </g>
                <path d="M24,63.3130779 C24,62.8110939 24.1611609,62.3025125 24.4834875,61.7873184 C24.805814,61.2721242 25.2760867,60.8454442 25.8943197,60.5072655 C26.5125526,60.1690868 27.2338136,60 28.0581242,60 C28.8243103,60 29.5006576,60.141346 30.0871863,60.4240423 C30.673715,60.7067385 31.1268148,61.0911468 31.4464993,61.5772787 C31.7661839,62.0634106 31.9260238,62.5918069 31.9260238,63.1624835 C31.9260238,63.6116271 31.8348754,64.0052823 31.652576,64.343461 C31.4702765,64.6816397 31.253634,64.9735787 31.002642,65.2192867 C30.75165,65.4649946 30.3011922,65.8784647 29.651255,66.4597094 C29.4715975,66.6235147 29.3276095,66.7675027 29.2192867,66.8916777 C29.1109638,67.0158527 29.0303834,67.1294579 28.9775429,67.2324967 C28.9247025,67.3355355 28.8837518,67.4385728 28.8546896,67.5416116 C28.8256273,67.6446504 28.7820346,67.8256262 28.7239102,68.0845443 C28.6235134,68.6340846 28.3091176,68.9088507 27.7807133,68.9088507 C27.5059431,68.9088507 27.2747698,68.8190234 27.0871863,68.6393659 C26.8996028,68.4597085 26.8058124,68.1928683 26.8058124,67.8388375 C26.8058124,67.394978 26.8745039,67.0105697 27.011889,66.6856011 C27.1492741,66.3606325 27.3315709,66.0752985 27.5587847,65.8295905 C27.7859985,65.5838825 28.0924683,65.2919436 28.4782034,64.9537649 C28.8163821,64.6578585 29.0607654,64.4346111 29.2113606,64.2840159 C29.3619558,64.1334206 29.488771,63.9656548 29.5918098,63.7807133 C29.6948486,63.5957719 29.7463672,63.3949813 29.7463672,63.1783355 C29.7463672,62.7556122 29.5891693,62.3989446 29.2747688,62.1083223 C28.9603683,61.8177 28.5548241,61.672391 28.0581242,61.672391 C27.4768795,61.672391 27.0488785,61.819021 26.7741083,62.1122853 C26.4993381,62.4055497 26.2668438,62.8375137 26.0766182,63.4081902 C25.8969608,64.005287 25.5561452,64.3038309 25.0541612,64.3038309 C24.7582548,64.3038309 24.5085875,64.1994726 24.3051519,63.990753 C24.1017163,63.7820333 24,63.5561439 24,63.3130779 L24,63.3130779 Z M27.8678996,72 C27.545573,72 27.264202,71.8956417 27.0237781,71.6869221 C26.7833541,71.4782024 26.663144,71.1862634 26.663144,70.8110964 C26.663144,70.4782018 26.7793912,70.1981517 27.011889,69.9709379 C27.2443869,69.7437241 27.5297209,69.6301189 27.8678996,69.6301189 C28.2007943,69.6301189 28.4808443,69.7437241 28.7080581,69.9709379 C28.9352719,70.1981517 29.0488771,70.4782018 29.0488771,70.8110964 C29.0488771,71.1809794 28.929988,71.4715974 28.6922061,71.682959 C28.4544242,71.8943207 28.1796581,72 27.8678996,72 L27.8678996,72 Z" id="help" fill="#EFF1F3" mask="url(#mask-2)"></path>
                <path d="M172.981161,67.0309609 C172.981161,69.2230007 171.204162,71 169.012122,71 C166.820082,71 165.043083,69.2230007 165.043083,67.0309609 C165.043083,65.9072167 165.510092,64.8925482 166.260617,64.1704493 C165.734349,63.3973806 165.185422,62.7754569 164.651112,62.4016791 C163.964582,61.9214147 163.414399,61.9058143 162.873707,62.4179381 C162.666123,62.6145545 162.338454,62.6056633 162.141837,62.398079 C161.945221,62.1904948 161.954112,61.8628254 162.161696,61.666209 C163.09543,60.7818099 164.186041,60.8127342 165.244621,61.5532669 C165.892406,62.0064262 166.510685,62.7020086 167.09439,63.5551323 C167.662843,63.2408281 168.316589,63.0619219 169.012122,63.0619219 C170.554565,63.0619219 171.891508,63.9417722 172.548441,65.2269618 C173.03957,64.9426754 173.602444,64.787591 174.189129,64.787591 C174.88439,64.787591 175.545647,65.0054776 176.09322,65.3967241 C176.57214,64.3381075 177.502017,63.5271184 178.637821,63.2087871 C177.90211,62.3712118 177.202126,61.9466042 176.633859,62.0550195 C176.420869,62.0956543 176.207399,62.2108823 175.988793,62.4179381 C175.781209,62.6145545 175.453539,62.6056633 175.256923,62.398079 C175.060307,62.1904948 175.069198,61.8628254 175.276782,61.666209 C175.633947,61.3279149 176.024218,61.1172519 176.439822,61.037962 C177.626039,60.8116527 178.75697,61.6174121 179.855253,63.0644849 C181.980598,63.1402696 183.68031,64.8871208 183.68031,67.0309609 C183.68031,69.2230007 181.90331,71 179.711271,71 C177.519231,71 175.742232,69.2230007 175.742232,67.0309609 C175.742232,66.8454655 175.754957,66.6629421 175.779581,66.4842161 C175.361431,66.0637623 174.795085,65.8229925 174.189129,65.8229925 C173.719056,65.8229925 173.272626,65.9677616 172.900265,66.2297956 C172.953305,66.4885624 172.981161,66.7565086 172.981161,67.0309609 L172.981161,67.0309609 L172.981161,67.0309609 L172.981161,67.0309609 Z M179.71411,69.9430058 C181.32618,69.9430058 182.63302,68.6361651 182.63302,67.0240953 C182.63302,65.4120256 181.32618,64.1051848 179.71411,64.1051848 C178.10204,64.1051848 176.795199,65.4120256 176.795199,67.0240953 C176.795199,68.6361651 178.10204,69.9430058 179.71411,69.9430058 L179.71411,69.9430058 L179.71411,69.9430058 L179.71411,69.9430058 Z M169.014961,69.9430058 C170.627031,69.9430058 171.933872,68.6361651 171.933872,67.0240953 C171.933872,65.4120256 170.627031,64.1051848 169.014961,64.1051848 C167.402891,64.1051848 166.09605,65.4120256 166.09605,67.0240953 C166.09605,68.6361651 167.402891,69.9430058 169.014961,69.9430058 L169.014961,69.9430058 L169.014961,69.9430058 L169.014961,69.9430058 Z" id="transcript" fill="#EFF1F3" mask="url(#mask-2)"></path>
                <text id="DREAM-DATE-Copy-3" mask="url(#mask-2)" font-family="Engine" font-size="18" font-weight="normal" letter-spacing="-1.02255332" fill="#FFFFFF">
                    <tspan x="72.3207666" y="73">DREAM DATE</tspan>
                </text>
            </g>
        </g>
    </g>
</svg>