<?xml version="1.0" encoding="UTF-8" standalone="no"?>
<svg width="30px" height="44px" viewBox="0 0 30 44" version="1.1" xmlns="http://www.w3.org/2000/svg" xmlns:xlink="http://www.w3.org/1999/xlink">
    <defs></defs>
    <g stroke="none" stroke-width="1" fill="none" fill-rule="evenodd">
        <g transform="translate(-166.000000, -7.000000)" fill="#FFFFFF">
            <path d="M166.01373,19.1479524 C166.01373,17.3073444 166.604653,15.4425458 167.786518,13.5535007 C168.968382,11.6644555 170.692715,10.0999622 172.959569,8.85997358 C175.226423,7.61998499 177.871047,7 180.893519,7 C183.702868,7 186.182808,7.51826871 188.333413,8.55482166 C190.484018,9.59137462 192.145384,11.0008718 193.317561,12.7833554 C194.489738,14.5658389 195.075817,16.503292 195.075817,18.5957728 C195.075817,20.2426326 194.741607,21.6860352 194.073175,22.9260238 C193.404744,24.1660124 192.610388,25.2364552 191.690084,26.1373844 C190.76978,27.0383136 189.118101,28.5543707 186.734998,30.6856011 C186.076254,31.2862205 185.548299,31.8141765 185.151115,32.2694848 C184.753931,32.7247931 184.458469,33.1413455 184.264721,33.5191546 C184.070973,33.8969636 183.92082,34.2747669 183.814259,34.652576 C183.707697,35.030385 183.547857,35.6939627 183.334734,36.6433289 C182.966613,38.6583104 181.813828,39.665786 179.876346,39.665786 C178.868855,39.665786 178.021219,39.336419 177.333413,38.677675 C176.645607,38.0189311 176.301709,37.0405173 176.301709,35.7424042 C176.301709,34.1149192 176.553578,32.7054221 177.057323,31.5138705 C177.561069,30.322319 178.22949,29.2760943 179.062607,28.3751651 C179.895725,27.4742359 181.019448,26.4037931 182.43381,25.1638045 C183.673798,24.0788145 184.56987,23.2602405 185.122053,22.7080581 C185.674235,22.1558757 186.139224,21.5407343 186.517033,20.8626156 C186.894842,20.1844968 187.083743,19.4482646 187.083743,18.653897 C187.083743,17.1039112 186.507351,15.7961304 185.354549,14.7305152 C184.201747,13.6649 182.714752,13.1321004 180.893519,13.1321004 C178.762289,13.1321004 177.192951,13.6697436 176.185461,14.7450462 C175.17797,15.8203488 174.325491,17.4042168 173.627997,19.4966975 C172.969253,21.6860523 171.719596,22.7807133 169.878988,22.7807133 C168.793998,22.7807133 167.878551,22.3980664 167.132621,21.6327609 C166.38669,20.8674554 166.01373,20.0391942 166.01373,19.1479524 L166.01373,19.1479524 Z M180.196029,51 C179.014165,51 177.982471,50.617353 177.100917,49.8520476 C176.219362,49.0867421 175.778592,48.0162993 175.778592,46.6406869 C175.778592,45.4200732 176.204831,44.393223 177.057323,43.5601057 C177.909816,42.7269883 178.95604,42.3104359 180.196029,42.3104359 C181.416643,42.3104359 182.443493,42.7269883 183.27661,43.5601057 C184.109727,44.393223 184.52628,45.4200732 184.52628,46.6406869 C184.52628,47.9969244 184.090353,49.0625236 183.218486,49.8375165 C182.346619,50.6125094 181.339143,51 180.196029,51 L180.196029,51 Z"></path>
        </g>
    </g>
</svg>